<?xml version="1.0" standalone="no"?>
<!DOCTYPE svg PUBLIC "-//W3C//DTD SVG 1.1//EN" "http://www.w3.org/Graphics/SVG/1.1/DTD/svg11.dtd" >
<svg xmlns="http://www.w3.org/2000/svg" xmlns:xlink="http://www.w3.org/1999/xlink" version="1.1">
<metadata>
Created by FontForge 20161013 at Thu Jan 12 14:52:58 2017
 By ,,,
Copyright (c) 2015 Monotype Imaging Inc. All rights reserved.
</metadata>
<defs>
<font id="HelveticaLTThai-Regular" horiz-adv-x="556" >
  <font-face 
    font-family="Helvetica LT Thai"
    font-weight="400"
    font-stretch="normal"
    units-per-em="1000"
    panose-1="2 11 5 0 4 0 0 2 0 4"
    ascent="800"
    descent="-200"
    x-height="523"
    cap-height="718"
    bbox="-512 -263 1260 1479"
    underline-thickness="50"
    underline-position="-175"
    unicode-range="U+000D-FB02"
  />
<missing-glyph horiz-adv-x="512" 
d="M512 718v-718h-512v718h512zM462 667h-412v-617h412v617zM224 244q-1 7 -1 17v6q1 32 11 60t47 63l7 7q24 24 34 39t10 38q0 35 -22.5 60t-53.5 25q-34 0 -55 -24t-27 -71l-50 8q6 66 41.5 101.5t93.5 35.5q54 0 89 -36.5t35 -94.5q0 -37 -14.5 -63t-50.5 -59
q-30 -27 -37.5 -43t-8.5 -48l-1 -31h-46q0 3 -1 10zM278 184v-67h-56v67h56z" />
    <glyph glyph-name="fi" unicode="fi" horiz-adv-x="500" 
d="M14 0zM14 450v73h72v93q0 55 34.5 83.5t101.5 28.5q6 0 40 -2v-79q-22 2 -35 2q-29 0 -41 -14.5t-12 -43.5v-68h88v-73h-88v-450h-88v450h-72zM434 718v-100h-88v100h88zM434 523v-523h-88v523h88z" />
    <glyph glyph-name="fl" unicode="fl" horiz-adv-x="500" 
d="M14 0zM14 450v73h72v93q0 55 34.5 83.5t101.5 28.5q6 0 40 -2v-79q-22 2 -35 2q-29 0 -41 -14.5t-12 -43.5v-68h88v-73h-88v-450h-88v450h-72zM432 718v-718h-88v718h88z" />
    <glyph glyph-name="_145" unicode="&#xe24;&#xe45;" horiz-adv-x="954" 
d="M402 463.5q-37 35.5 -106 35.5q-67 0 -105.5 -21.5t-51.5 -68.5v-4h86v-52q-34 -9 -51 -34.5t-17 -60.5v-137q0 -22 13.5 -35.5t35.5 -13.5h43v-72h-90q-39 0 -67.5 30t-28.5 73v140q0 37 20 69t53 47v3h-89v48q12 78 76 122t174 44q71 0 122.5 -29t72.5 -74
q18 43 71.5 73t118.5 30q58 0 107 -19.5t78.5 -57.5t29.5 -93v-606h-94v606q0 47 -34 70t-85 23q-47 0 -81 -18.5t-52 -49t-18 -65.5v-566h-94v572q0 56 -37 91.5z" />
    <glyph glyph-name="_146" unicode="&#xe26;&#xe45;" horiz-adv-x="953" 
d="M404.5 464q-33.5 35 -101.5 35q-66 0 -104 -21.5t-51 -68.5v-4h100v-52q-34 -9 -51 -34.5t-17 -60.5v-158q0 -45 -24.5 -72.5t-62.5 -27.5h-61v72h16q17 0 27.5 12t10.5 30v129q0 37 20 69t54 47v3h-103v48q12 78 74.5 122t172.5 44q70 0 117.5 -28.5t69.5 -74.5
q18 43 71.5 73t118.5 30q58 0 107 -19.5t78.5 -57.5t29.5 -93v-606h-94v606q0 47 -34 70t-85 23q-47 0 -81 -18.5t-52 -49t-18 -65.5v-566h-94v572q0 57 -33.5 92z" />
    <glyph glyph-name=".notdef" horiz-adv-x="512" 
d="M512 718v-718h-512v718h512zM462 667h-412v-617h412v617zM224 244q-1 7 -1 17v6q1 32 11 60t47 63l7 7q24 24 34 39t10 38q0 35 -22.5 60t-53.5 25q-34 0 -55 -24t-27 -71l-50 8q6 66 41.5 101.5t93.5 35.5q54 0 89 -36.5t35 -94.5q0 -37 -14.5 -63t-50.5 -59
q-30 -27 -37.5 -43t-8.5 -48l-1 -31h-46q0 3 -1 10zM278 184v-67h-56v67h56z" />
    <glyph glyph-name="uni0000" horiz-adv-x="0" 
 />
    <glyph glyph-name="uni0000" horiz-adv-x="0" 
 />
    <glyph glyph-name="uni000D" unicode="&#xd;" horiz-adv-x="244" 
 />
    <glyph glyph-name="space" unicode=" " horiz-adv-x="244" 
 />
    <glyph glyph-name="exclam" unicode="!" horiz-adv-x="278" 
d="M90 718h97v-237l-24 -310h-49l-24 310v237zM187 102v-102h-97v102h97z" />
    <glyph glyph-name="quotedbl" unicode="&#x22;" horiz-adv-x="355" 
d="M143 718v-255h-73v255h73zM285 718v-255h-73v255h73z" />
    <glyph glyph-name="numbersign" unicode="#" 
d="M28 210l9 63h103l19 142h-103l9 63h103l29 210h67l-29 -210h124l29 210h67l-29 -210h103l-9 -63h-103l-20 -142h103l-9 -63h-103l-29 -210h-66l29 210h-125l-29 -210h-66l29 210h-103zM350 415h-124l-20 -142h125z" />
    <glyph glyph-name="dollar" unicode="$" 
d="M32 209v4h88q3 -55 15.5 -86.5t40 -48t77.5 -24.5v265l-28 7q-99 25 -139 71.5t-40 118.5q0 54 27.5 98.5t74.5 70.5t105 26v64h47v-64q97 -6 150 -59.5t53 -130.5h-85q-6 55 -35 81t-83 36v-239q113 -32 149 -56q38 -25 54.5 -59.5t16.5 -90.5q0 -64 -29 -112t-79 -74
t-112 -26v-96h-47v96q-221 10 -221 228zM167 605q-33 -33 -33 -83q0 -45 31 -74t88 -39v229q-53 0 -86 -33zM396 89q36 35 36 91t-42 91q-23 19 -72 32l-18 5v-254q60 0 96 35z" />
    <glyph glyph-name="percent" unicode="%" horiz-adv-x="889" 
d="M669 703l-396 -722h-54l395 722h55zM123 378.5q-39 23.5 -61.5 63t-22.5 84.5q0 46 22.5 84.5t62 61.5t86.5 23t86 -23t61.5 -62t22.5 -84t-22.5 -84.5t-62 -63t-85.5 -23.5q-48 0 -87 23.5zM280.5 454.5q29.5 29.5 29.5 71.5q0 41 -29 70t-72 29q-40 0 -70 -29.5
t-30 -69.5q0 -46 29 -73.5t71 -27.5t71.5 29.5zM593 16.5q-39 23.5 -61.5 63t-22.5 84.5q0 46 22.5 84.5t62 61.5t86.5 23t86 -23t61.5 -62t22.5 -84t-22.5 -84.5t-62 -63t-85.5 -23.5q-48 0 -87 23.5zM750.5 92.5q29.5 29.5 29.5 71.5q0 41 -29 70t-72 29q-40 0 -70 -29.5
t-30 -69.5q0 -46 29 -73.5t71 -27.5t71.5 29.5z" />
    <glyph glyph-name="ampersand" unicode="&#x26;" horiz-adv-x="667" 
d="M99 39q-55 54 -55 140q0 49 14 84.5t48.5 67t99.5 68.5q-43 51 -59.5 84.5t-16.5 74.5q0 45 21 81.5t59.5 57.5t89.5 21q74 0 117.5 -42t43.5 -107q0 -54 -30.5 -99t-98.5 -88l131 -156q10 25 16 50t13 62h83q-9 -94 -58 -183l128 -155h-114l-67 82q-45 -53 -95 -75
t-117 -22q-98 0 -153 54zM356.5 501.5q19.5 28.5 19.5 61.5q0 38 -22 58.5t-57 20.5q-37 0 -59.5 -20.5t-22.5 -56.5q0 -26 18.5 -59.5t52.5 -66.5q51 34 70.5 62.5zM417 141l-162 198q-72 -43 -97.5 -77.5t-25.5 -82.5q0 -39 21 -65.5t51.5 -39.5t57.5 -13q96 0 155 80z
" />
    <glyph glyph-name="quotesingle" unicode="'" horiz-adv-x="191" 
d="M132 718v-255h-73v255h73z" />
    <glyph glyph-name="parenleft" unicode="(" horiz-adv-x="333" 
d="M136 -32.5q-37 76.5 -52.5 145.5t-15.5 148q0 126 41 238t128 234h61q-52 -95 -80.5 -166t-42 -148.5t-13.5 -180.5q0 -68 11.5 -128t41 -134.5t84.5 -182.5h-59q-67 98 -104 174.5z" />
    <glyph glyph-name="parenright" unicode=")" horiz-adv-x="333" 
d="M115.5 -42.5q28.5 71.5 42 149t13.5 181.5q0 68 -11.5 128t-41 134.5t-84.5 182.5h59q97 -143 134.5 -249t37.5 -219q0 -125 -41 -236t-128 -236h-61q52 93 80.5 164.5z" />
    <glyph glyph-name="asterisk" unicode="*" horiz-adv-x="389" 
d="M147 557l-108 34l20 55l105 -38v110h60v-110l105 38l20 -55l-108 -34l67 -92l-49 -34l-65 94l-65 -94l-49 34z" />
    <glyph glyph-name="plus" unicode="+" horiz-adv-x="584" 
d="M39 216v73h217v216h73v-216h216v-73h-216v-216h-73v216h-217z" />
    <glyph glyph-name="comma" unicode="," horiz-adv-x="278" 
d="M125.5 -73.5q14.5 26.5 14.5 73.5h-53v106h104v-99q0 -68 -28 -107.5t-76 -46.5v46q24 1 38.5 27.5z" />
    <glyph glyph-name="hyphen" unicode="-" horiz-adv-x="333" 
d="M289 322v-90h-245v90h245z" />
    <glyph glyph-name="period" unicode="." horiz-adv-x="278" 
d="M191 106v-106h-104v106h104z" />
    <glyph glyph-name="slash" unicode="/" horiz-adv-x="278" 
d="M295 737l-246 -756h-66l246 756h66z" />
    <glyph glyph-name="zero" unicode="0" 
d="M98.5 77.5q-61.5 96.5 -61.5 264.5q0 172 62 266.5t180 94.5q119 0 179.5 -98t60.5 -263q0 -163 -59.5 -262t-180.5 -99q-119 0 -180.5 96.5zM388.5 133.5q36.5 73.5 36.5 202.5q0 288 -148 288q-72 0 -109 -72t-37 -210q0 -136 36 -209t111 -73q74 0 110.5 73.5z" />
    <glyph glyph-name="one" unicode="1" 
d="M101 499v70q67 5 100.5 15t53.5 36.5t35 82.5h69v-703h-94v499h-164z" />
    <glyph glyph-name="two" unicode="2" 
d="M51.5 129.5q22.5 54.5 68 96.5t120.5 82q78 41 114.5 70t47.5 55t11 66q0 55 -37.5 90t-101.5 35q-136 0 -142 -173h-88q0 122 63 187t182 65q61 0 110.5 -25.5t78.5 -73.5t29 -111q0 -58 -23 -100t-63.5 -73t-105.5 -64q-79 -40 -119 -71.5t-52 -52.5t-19 -49h382v-83
h-481q3 75 25.5 129.5z" />
    <glyph glyph-name="three" unicode="3" 
d="M106.5 33.5q-66.5 52.5 -72.5 181.5h91q3 -155 149 -155q69 0 111.5 39t42.5 97q0 129 -162 129l-42 -1v76q26 -2 45 -2q66 0 100.5 30t34.5 85q0 49 -34.5 80t-95.5 31q-67 0 -99.5 -37.5t-37.5 -113.5h-86q1 113 59.5 171.5t167.5 58.5q65 0 114 -23t76 -65t27 -97
t-25 -93.5t-65 -51.5v-2q57 -22 87 -59t30 -105q0 -66 -30 -117.5t-87.5 -80t-136.5 -28.5q-95 0 -161.5 52.5z" />
    <glyph glyph-name="four" unicode="4" 
d="M25 171v86l322 446h73v-456h103v-76h-103v-171h-88v171h-307zM332 566h-2l-224 -319h226v319z" />
    <glyph glyph-name="five" unicode="5" 
d="M100.5 32q-59.5 51 -68.5 143h91q6 -60 46 -89t102 -29q43 0 77 21t53 57.5t19 82.5q0 71 -42.5 113.5t-113.5 42.5q-75 0 -130 -67l-76 4l53 377h364v-86h-298l-30 -193q31 22 62.5 33t73.5 11q62 0 115 -28.5t84.5 -79.5t31.5 -116q0 -70 -28 -126t-85 -89t-142 -33
q-99 0 -158.5 51z" />
    <glyph glyph-name="six" unicode="6" 
d="M173.5 7q-54.5 26 -95 100.5t-40.5 209.5q0 183 67 284.5t194 101.5q56 0 101.5 -23.5t73 -66.5t29.5 -97h-86q-10 49 -37 78.5t-86 29.5q-77 0 -120 -74.5t-45 -185.5l2 -2q23 42 67.5 64t96.5 22q59 0 110 -26t82 -77t31 -123q0 -61 -26.5 -116t-79.5 -90t-129 -35
q-55 0 -109.5 26zM388 103.5q39 43.5 39 116.5q0 65 -38 107t-104 42t-105 -42t-39 -111q0 -68 40 -112t108 -44q60 0 99 43.5z" />
    <glyph glyph-name="seven" unicode="7" 
d="M235 306.5q81 169.5 189 295.5h-387v86h486v-77q-105 -114 -185 -280.5t-104 -330.5h-97q17 137 98 306.5z" />
    <glyph glyph-name="eight" unicode="8" 
d="M164 3.5q-55 22.5 -90.5 70.5t-35.5 120q0 73 30 113.5t89 65.5q-45 17 -70 52t-25 83q0 56 25 100t73 69.5t114 25.5q67 0 116.5 -24t75.5 -65.5t26 -92.5q0 -53 -22 -89.5t-68 -57.5q53 -21 84 -66.5t31 -104.5q0 -62 -27.5 -112.5t-81 -80t-128.5 -29.5
q-61 0 -116 22.5zM366.5 438q34.5 32 34.5 81q0 47 -34.5 76t-95.5 29q-56 0 -87 -30.5t-31 -79.5q0 -48 36.5 -78t86.5 -30q56 0 90.5 32zM386.5 93.5q36.5 33.5 36.5 99.5q0 64 -39.5 100.5t-107.5 36.5q-66 0 -105 -37t-39 -93q0 -62 38.5 -101t108.5 -39
q71 0 107.5 33.5z" />
    <glyph glyph-name="nine" unicode="9" 
d="M144 7.5q-47 26.5 -70 69t-24 92.5h88q4 -54 34.5 -84.5t84.5 -30.5q72 0 112 62.5t57 200.5l-2 2q-20 -40 -65 -62t-96 -22q-65 0 -115 27.5t-78 78.5t-28 121q0 67 27 122t78.5 87t120.5 32q122 0 184 -83t62 -241q0 -103 -25.5 -193t-82 -147.5t-145.5 -57.5
q-70 0 -117 26.5zM373.5 354.5q37.5 40.5 37.5 118.5q0 69 -36.5 110t-105.5 41q-61 0 -98.5 -43t-37.5 -116q0 -76 36 -113.5t105 -37.5q62 0 99.5 40.5z" />
    <glyph glyph-name="colon" unicode=":" horiz-adv-x="278" 
d="M191 516v-106h-104v106h104zM191 106v-106h-104v106h104z" />
    <glyph glyph-name="semicolon" unicode=";" horiz-adv-x="278" 
d="M191 516v-106h-104v106h104zM125.5 -73.5q14.5 26.5 14.5 73.5h-53v106h104v-94q0 -72 -27.5 -111.5t-76.5 -47.5v46q24 1 38.5 27.5z" />
    <glyph glyph-name="less" unicode="&#x3c;" horiz-adv-x="584" 
d="M48 288l488 207v-80l-390 -162l390 -162v-80l-488 207v70z" />
    <glyph glyph-name="equal" unicode="=" horiz-adv-x="584" 
d="M545 390v-73h-506v73h506zM545 188v-73h-506v73h506z" />
    <glyph glyph-name="greater" unicode="&#x3e;" horiz-adv-x="584" 
d="M438 253l-390 162v80l488 -207v-70l-488 -207v80z" />
    <glyph glyph-name="question" unicode="?" 
d="M233 277.5q10 34.5 30 60t71 76.5q29 30 42 47t17.5 33t4.5 42q0 48 -31.5 81.5t-90.5 33.5q-67 0 -99.5 -41t-32.5 -117h-88q1 67 16.5 106.5t50.5 71.5q33 30 74.5 43t82.5 13q62 0 110.5 -25t75 -69.5t26.5 -101.5q0 -35 -11 -61.5t-29 -47t-55 -57.5l-31 -30
q-31 -31 -43 -61.5t-12 -78.5v-12h-88q0 60 10 94.5zM318 102v-102h-97v102h97z" />
    <glyph glyph-name="at" unicode="@" horiz-adv-x="1015" 
d="M338 30.5q-88 49.5 -139.5 136.5t-51.5 194q0 101 51.5 187.5t138.5 137.5t187 51q93 0 171.5 -40.5t125.5 -111.5t47 -160q0 -84 -39.5 -150t-96.5 -102.5t-103 -36.5q-27 0 -44.5 16t-19.5 47l-2 -1q-60 -62 -120 -62q-40 0 -73.5 21t-53.5 58t-20 81q0 72 30.5 135.5
t83.5 102t116 38.5q81 0 116 -78l20 62h68q-21 -78 -63 -218l-11 -37q-16 -51 -16 -74q0 -26 21 -26q33 0 66 32t54.5 82.5t21.5 101.5q0 74 -36 133t-100 92t-143 33q-85 0 -154.5 -42.5t-109.5 -116t-40 -161.5q0 -85 41 -156.5t112.5 -113.5t157.5 -42q70 0 134.5 30.5
t108.5 83.5h67q-48 -81 -132 -128.5t-180 -47.5q-103 0 -191 49.5zM534.5 240q34.5 32 55.5 79.5t21 88.5q0 38 -25 65t-58 27q-38 0 -73 -29t-56 -74.5t-21 -91.5q0 -43 23 -70t61 -27t72.5 32z" />
    <glyph glyph-name="A" unicode="A" horiz-adv-x="667" 
d="M394 718l260 -718h-106l-71 209h-288l-75 -209h-100l270 718h110zM336 611h-2l-115 -316h223z" />
    <glyph glyph-name="B" unicode="B" horiz-adv-x="667" 
d="M390 718q92 0 147.5 -50t55.5 -131q0 -52 -25 -90.5t-71 -59.5q70 -25 100 -68t30 -107q0 -61 -30 -109.5t-85 -75.5t-125 -27h-313v718h316zM455 438q41 24 41 91q0 54 -35.5 80t-110.5 26h-179v-221h171q72 0 113 24zM491 117q39 34 39 97q0 121 -164 121h-195v-252
h211q70 0 109 34z" />
    <glyph glyph-name="C" unicode="C" horiz-adv-x="722" 
d="M198.5 26q-73.5 45 -114 131t-40.5 205q0 112 41 197t117 131.5t177 46.5q79 0 142.5 -29t103.5 -82t49 -124h-94q-15 72 -67 110.5t-134 38.5q-70 0 -123 -34.5t-82.5 -99t-29.5 -151.5q0 -149 60.5 -224t176.5 -75q78 0 134 52.5t72 144.5h94q-12 -88 -55 -152
t-109.5 -97.5t-147.5 -33.5q-97 0 -170.5 45z" />
    <glyph glyph-name="D" unicode="D" horiz-adv-x="722" 
d="M374 718q85 0 153 -40.5t107.5 -119t39.5 -187.5q0 -106 -35 -190t-102.5 -132.5t-163.5 -48.5h-292v718h293zM475.5 114.5q46.5 31.5 72.5 94.5t26 154q0 135 -57.5 203.5t-156.5 68.5h-182v-552h191q60 0 106.5 31.5z" />
    <glyph glyph-name="E" unicode="E" horiz-adv-x="667" 
d="M609 718v-86h-426v-220h393v-86h-393v-240h433v-86h-530v718h523z" />
    <glyph glyph-name="F" unicode="F" horiz-adv-x="611" 
d="M583 718v-86h-400v-220h352v-86h-352v-326h-97v718h497z" />
    <glyph glyph-name="G" unicode="G" horiz-adv-x="778" 
d="M199.5 29q-74.5 48 -113 132.5t-38.5 191.5q0 112 42 199t119 136t179 49q76 0 142.5 -29.5t110 -83.5t51.5 -124h-94q-18 72 -72.5 111.5t-142.5 39.5q-68 0 -121.5 -36.5t-83.5 -102.5t-30 -152q0 -145 61 -220.5t175 -75.5q104 0 166.5 59t62.5 171v7h-224v83h315
v-384h-63l-23 93q-37 -52 -100.5 -82t-137.5 -30q-106 0 -180.5 48z" />
    <glyph glyph-name="H" unicode="H" horiz-adv-x="722" 
d="M174 718v-297h375v297h97v-718h-97v335h-375v-335h-97v718h97z" />
    <glyph glyph-name="I" unicode="I" horiz-adv-x="278" 
d="M188 718v-718h-97v718h97z" />
    <glyph glyph-name="J" unicode="J" horiz-adv-x="500" 
d="M73 29q-56 48 -56 138v64h91v-55q0 -112 108 -112q115 0 115 121v533h97v-529q0 -97 -54.5 -152.5t-152.5 -55.5q-92 0 -148 48z" />
    <glyph glyph-name="K" unicode="K" horiz-adv-x="667" 
d="M173 718v-348l348 348h134l-299 -290l307 -428h-126l-251 360l-113 -108v-252h-97v718h97z" />
    <glyph glyph-name="L" unicode="L" 
d="M173 718v-632h364v-86h-461v718h97z" />
    <glyph glyph-name="M" unicode="M" horiz-adv-x="833" 
d="M212 718l205 -607h2l204 607h138v-718h-94v428l1 134q1 13 1 41h-2l-202 -603h-96l-202 602h-2q2 -110 2 -174v-428h-94v718h139z" />
    <glyph glyph-name="N" unicode="N" horiz-adv-x="722" 
d="M191 718l359 -580h2v580h94v-718h-109l-365 580h-2v-580h-94v718h115z" />
    <glyph glyph-name="O" unicode="O" horiz-adv-x="778" 
d="M198.5 32q-79.5 51 -119.5 137t-40 190t40 190t119.5 137t190.5 51q115 0 193.5 -53t117.5 -139.5t39 -185.5q0 -103 -40.5 -189.5t-119.5 -137.5t-189 -51q-112 0 -191.5 51zM520 104q57 37 88 103t31 152t-31.5 152.5t-88.5 103t-131 36.5q-73 0 -129.5 -36.5t-88 -103
t-31.5 -152.5t31 -152.5t88 -103t131 -36.5t131 37z" />
    <glyph glyph-name="P" unicode="P" horiz-adv-x="667" 
d="M413 718q60 0 107.5 -25.5t74.5 -71.5t27 -105q0 -61 -25.5 -109.5t-73 -76t-110.5 -27.5h-230v-303h-97v718h327zM522 515q0 59 -35.5 89.5t-102.5 30.5h-201v-249h197q142 0 142 129z" />
    <glyph glyph-name="Q" unicode="Q" horiz-adv-x="778" 
d="M389 -19q-112 0 -191 51t-119 137t-40 190t40 190t119.5 137t190.5 51q114 0 193 -54t118 -141.5t39 -186.5q0 -76 -27 -150.5t-77 -126.5l98 -76l-49 -58l-110 85q-73 -48 -185 -48zM495 90l-75 58l49 60l91 -71q38 38 58.5 95.5t20.5 126.5q0 86 -31.5 152.5t-88.5 103
t-131 36.5q-73 0 -129.5 -36.5t-88 -103t-31.5 -152.5t31 -152.5t88 -103t131 -36.5q61 0 106 23z" />
    <glyph glyph-name="R" unicode="R" horiz-adv-x="722" 
d="M420 718q111 0 173.5 -48.5t62.5 -144.5q0 -62 -23.5 -102t-76.5 -70q34 -13 51.5 -30t25.5 -48.5t11 -92.5l5 -116q1 -32 35 -50v-16h-119q-6 22 -11.5 71t-5.5 115t-32.5 94t-92.5 28h-238v-308h-97v718h332zM556 515q0 120 -124 120h-247v-244h229q142 0 142 124z" />
    <glyph glyph-name="S" unicode="S" horiz-adv-x="667" 
d="M123.5 44.5q-74.5 63.5 -74.5 187.5h91v-2q0 -78 53.5 -122t144.5 -44q76 0 132 27.5t56 94.5q0 42 -18.5 65.5t-54.5 37t-110 30.5l-121 28q-76 17 -112.5 61.5t-36.5 106.5q0 66 29.5 116t85 78t132.5 28q271 0 280 -229h-91q-3 69 -50.5 107.5t-127.5 38.5
q-78 0 -121 -32.5t-43 -93.5q0 -72 85 -91l201 -46q167 -38 167 -195q0 -106 -79.5 -160.5t-202.5 -54.5q-140 0 -214.5 63.5z" />
    <glyph glyph-name="T" unicode="T" horiz-adv-x="611" 
d="M14 632v86h583v-86h-243v-632h-97v632h-243z" />
    <glyph glyph-name="U" unicode="U" horiz-adv-x="722" 
d="M206 14q-62 33 -94.5 91.5t-32.5 134.5v478h97v-456q0 -92 47 -143.5t135 -51.5q89 0 139 51t50 142v458h97v-464q0 -80 -33 -141.5t-98 -96.5t-158 -35q-87 0 -149 33z" />
    <glyph glyph-name="V" unicode="V" horiz-adv-x="667" 
d="M128 718l205 -612h2l203 612h109l-262 -718h-103l-262 718h108z" />
    <glyph glyph-name="W" unicode="W" horiz-adv-x="944" 
d="M121 718l134 -584h2l161 584h106l161 -584h2l134 584h107l-189 -718h-102l-164 595h-2l-166 -595h-102l-187 718h105z" />
    <glyph glyph-name="X" unicode="X" horiz-adv-x="667" 
d="M35 718h122l182 -275l182 275h116l-241 -350l252 -368h-120l-193 295l-199 -295h-117l257 368z" />
    <glyph glyph-name="Y" unicode="Y" horiz-adv-x="667" 
d="M14 718h113l206 -345l206 345h114l-271 -429v-289h-97v289z" />
    <glyph glyph-name="Z" unicode="Z" horiz-adv-x="611" 
d="M463 632h-407v86h532v-84l-442 -548h442v-86h-565v81z" />
    <glyph glyph-name="bracketleft" unicode="[" horiz-adv-x="278" 
d="M250 722v-71h-108v-776h108v-71h-187v918h187z" />
    <glyph glyph-name="backslash" unicode="\" horiz-adv-x="278" 
d="M49 737l246 -756h-67l-245 756h66z" />
    <glyph glyph-name="bracketright" unicode="]" horiz-adv-x="278" 
d="M136 -125v776h-108v71h187v-918h-187v71h108z" />
    <glyph glyph-name="asciicircum" unicode="^" horiz-adv-x="469" 
d="M271 688l212 -424h-77l-171 344l-171 -344h-78l213 424h72z" />
    <glyph glyph-name="underscore" unicode="_" 
d="M556 -75v-50h-556v50h556z" />
    <glyph glyph-name="grave" unicode="`" horiz-adv-x="333" 
d="M122 734l89 -141h-67l-130 141h108z" />
    <glyph glyph-name="a" unicode="a" 
d="M82 27q-46 42 -46 109q0 68 40 111t118 53l146 18q24 3 35 17t11 44q0 86 -123 86q-54 0 -83.5 -24t-36.5 -77h-81q2 84 55 129t156 45q88 0 143.5 -37t55.5 -110v-302q0 -13 7 -21t22 -8q14 0 29 4v-64q-30 -10 -49 -10q-43 0 -66.5 18.5t-25.5 61.5q-75 -85 -188 -85
q-73 0 -119 42zM300.5 74.5q37.5 16.5 60.5 45t23 61.5v86q-12 -10 -38.5 -16t-80.5 -13l-39 -6q-48 -7 -73.5 -26.5t-25.5 -57.5q0 -90 95 -90q41 0 78.5 16.5z" />
    <glyph glyph-name="b" unicode="b" 
d="M206 3.5q-37 18.5 -63 61.5h-2v-65h-83v718h88v-261h2q56 81 152 81q66 0 115.5 -33.5t75.5 -93t26 -133.5q0 -83 -26 -149.5t-77 -105t-123 -38.5q-48 0 -85 18.5zM388.5 115q37.5 54 37.5 150q0 102 -36.5 148t-107.5 46q-140 0 -140 -223q0 -84 41.5 -129.5
t102.5 -45.5q65 0 102.5 54z" />
    <glyph glyph-name="c" unicode="c" horiz-adv-x="500" 
d="M140 18q-53 33 -81.5 93t-28.5 137q0 131 64.5 210.5t186.5 79.5q84 0 136.5 -50.5t59.5 -140.5h-85q-17 112 -124 112q-69 0 -106.5 -53.5t-37.5 -143.5q0 -98 36 -149.5t107 -51.5q46 0 80.5 32.5t44.5 91.5h85q-11 -93 -67 -146.5t-146 -53.5q-71 0 -124 33z" />
    <glyph glyph-name="d" unicode="d" 
d="M138.5 24q-51.5 39 -77.5 105t-26 148q0 76 27 135.5t76.5 92.5t114.5 33q49 0 86.5 -20.5t69.5 -68.5h2v269h88v-718h-83v72h-2q-45 -87 -151 -87q-73 0 -124.5 39zM369.5 107.5q40.5 46.5 40.5 128.5q0 112 -35 167.5t-107 55.5q-142 0 -142 -189q0 -100 37 -154.5
t104 -54.5q62 0 102.5 46.5z" />
    <glyph glyph-name="e" unicode="e" 
d="M149 19q-54 34 -81.5 93.5t-27.5 135.5q0 133 65.5 211.5t185.5 78.5q108 0 166.5 -80t58.5 -225h-382q0 -84 38.5 -128t113.5 -44q35 0 64.5 15t48.5 38.5t22 49.5h88q-13 -62 -63.5 -120.5t-166.5 -58.5q-76 0 -130 34zM279 459q-38 0 -71 -21t-53.5 -57t-20.5 -78h291
q-12 156 -146 156z" />
    <glyph glyph-name="f" unicode="f" horiz-adv-x="278" 
d="M14 450v73h72v93q0 55 34.5 83.5t101.5 28.5q6 0 40 -2v-79q-22 2 -35 2q-29 0 -41 -14.5t-12 -43.5v-68h88v-73h-88v-450h-88v450h-72z" />
    <glyph glyph-name="g" unicode="g" 
d="M115.5 -178.5q-52.5 41.5 -59.5 114.5h88q6 -40 36.5 -61.5t82.5 -21.5q74 0 111 40t37 129v37q-44 -74 -144 -74q-73 0 -124 38.5t-77 105t-26 148.5q0 76 27 135.5t76.5 92.5t114.5 33q101 0 158 -92v77h83v-491q0 -136 -64 -194t-180 -58q-87 0 -139.5 41.5z
M374.5 107.5q40.5 46.5 40.5 128.5q0 113 -35 168t-107 55q-69 0 -105.5 -46.5t-36.5 -147.5q0 -96 37 -150t103 -54q63 0 103.5 46.5z" />
    <glyph glyph-name="h" unicode="h" 
d="M153 718v-265h2q33 45 70 65t83 20q87 0 135 -46.5t48 -131.5v-360h-88v346q0 61 -25.5 87t-78.5 26q-68 0 -107 -45.5t-39 -123.5v-290h-88v718h88z" />
    <glyph glyph-name="i" unicode="i" horiz-adv-x="222" 
d="M155 718v-100h-88v100h88zM155 523v-523h-88v523h88z" />
    <glyph glyph-name="j" unicode="j" horiz-adv-x="222" 
d="M155 718v-100h-88v100h88zM-16 -207v76h21q27 0 39.5 4.5t17.5 17t5 38.5v594h88v-610q0 -123 -134 -123q-16 0 -37 3z" />
    <glyph glyph-name="k" unicode="k" horiz-adv-x="500" 
d="M152 718v-416l225 221h112l-200 -195l212 -328h-113l-163 264l-73 -66v-198h-85v718h85z" />
    <glyph glyph-name="l" unicode="l" horiz-adv-x="222" 
d="M155 718v-718h-88v718h88z" />
    <glyph glyph-name="m" unicode="m" horiz-adv-x="833" 
d="M148 523v-74h2q60 89 158 89q45 0 81.5 -20.5t57.5 -64.5q41 50 76.5 67.5t79.5 17.5q75 0 120.5 -46.5t45.5 -125.5v-366h-88v333q0 57 -19.5 91.5t-77.5 34.5q-34 0 -62 -19.5t-44.5 -52t-16.5 -71.5v-316h-88v362q0 45 -21.5 71t-60.5 26q-62 0 -100 -46.5t-38 -122.5
v-290h-88v523h83z" />
    <glyph glyph-name="n" unicode="n" 
d="M148 523v-74h2q34 48 73 68.5t85 20.5q87 0 135 -46.5t48 -131.5v-360h-88v319q0 68 -22.5 104t-88.5 36q-63 0 -101 -46.5t-38 -122.5v-290h-88v523h83z" />
    <glyph glyph-name="o" unicode="o" 
d="M147.5 23q-55.5 37 -84 99.5t-28.5 139.5q0 79 29.5 141.5t84.5 98.5t129 36q76 0 131 -37t83.5 -100t28.5 -139q0 -77 -29 -140t-83.5 -99.5t-129.5 -36.5q-76 0 -131.5 37zM391.5 120q38.5 58 38.5 139q0 86 -37.5 144.5t-115.5 58.5q-73 0 -112 -56t-39 -144
q0 -86 38.5 -143t113.5 -57t113.5 58z" />
    <glyph glyph-name="p" unicode="p" 
d="M141 523v-74h2q35 50 71.5 69.5t84.5 19.5q66 0 115.5 -33.5t76 -92t26.5 -133.5q0 -82 -25.5 -148.5t-77 -106t-125.5 -39.5q-51 0 -86 19.5t-55 50.5h-2v-262h-88v730h83zM388.5 115.5q37.5 54.5 37.5 150.5q0 102 -37.5 147.5t-106.5 45.5q-140 0 -140 -223
q0 -82 40.5 -128.5t102.5 -46.5q66 0 103.5 54.5z" />
    <glyph glyph-name="q" unicode="q" 
d="M404 55q-44 -70 -143 -70q-74 0 -125 39.5t-76 106t-25 148.5q0 75 26.5 133.5t76 92t115.5 33.5q48 0 84.5 -19.5t71.5 -69.5h2v74h83v-730h-88v262h-2zM369.5 107.5q40.5 46.5 40.5 128.5q0 223 -140 223q-70 0 -107 -45t-37 -146q0 -98 37.5 -152.5t103.5 -54.5
q62 0 102.5 46.5z" />
    <glyph glyph-name="r" unicode="r" horiz-adv-x="333" 
d="M160 523v-87h2q28 49 63.5 75.5t83.5 26.5q15 0 23 -3v-91h-34q-33 0 -63.5 -15.5t-50 -48t-19.5 -81.5v-299h-88v523h83z" />
    <glyph glyph-name="s" unicode="s" horiz-adv-x="500" 
d="M32 168h85q3 -57 38.5 -82t99.5 -25q55 0 88 22t33 60q0 25 -14.5 39t-33 20.5t-62.5 17.5l-91 23q-56 14 -91 42.5t-35 85.5q0 77 55 122t146 45q92 0 142.5 -45t54.5 -119h-85q0 43 -31 65.5t-90 22.5q-48 0 -77.5 -19t-29.5 -55q0 -27 17.5 -41t68.5 -27l101 -25
q76 -19 109.5 -51t33.5 -86q0 -51 -26 -90.5t-73.5 -61t-108.5 -21.5q-220 0 -224 183z" />
    <glyph glyph-name="t" unicode="t" horiz-adv-x="278" 
d="M109.5 20q-24.5 27 -24.5 82v348h-71v73h71v146h88v-146h84v-73h-84v-342q0 -39 49 -39h35v-69l-26 -3q-30 -4 -41 -4q-56 0 -80.5 27z" />
    <glyph glyph-name="u" unicode="u" 
d="M114 27.5q-46 42.5 -46 116.5v379h88v-351q0 -52 26 -81.5t75 -29.5q68 0 106 48t38 131v283h88v-523h-83v76l-2 2q-31 -48 -68.5 -70.5t-97.5 -22.5q-78 0 -124 42.5z" />
    <glyph glyph-name="v" unicode="v" horiz-adv-x="500" 
d="M110 523l136 -426h2l148 426h96l-199 -523h-94l-191 523h102z" />
    <glyph glyph-name="w" unicode="w" horiz-adv-x="722" 
d="M110 523l100 -411h2l101 411h98l102 -411h2l106 411h88l-152 -523h-91l-106 405h-2l-102 -405h-91l-151 523h96z" />
    <glyph glyph-name="x" unicode="x" horiz-adv-x="500" 
d="M20 523h113l121 -184l121 184h108l-177 -254l184 -269h-112l-130 197l-126 -197h-111l184 269z" />
    <glyph glyph-name="y" unicode="y" horiz-adv-x="500" 
d="M59 -206v80q16 -5 28 -7t32 -2q18 0 29.5 8.5t17 19t15.5 34.5l24 59l-194 537h100l139 -426h2l140 426h97q-34 -96 -52 -144q-84 -236 -126 -344l-45 -113q-26 -64 -47.5 -93t-43.5 -36t-63 -7q-27 0 -53 8z" />
    <glyph glyph-name="z" unicode="z" horiz-adv-x="500" 
d="M346 450h-291v73h405v-72l-312 -378h321v-73h-438v69z" />
    <glyph glyph-name="braceleft" unicode="{" horiz-adv-x="334" 
d="M152 -159q-29 37 -29 96v171q0 53 -23 89.5t-58 36.5v60q37 0 59 37t22 86v175q0 54 28.5 92t77.5 38h63v-65h-44q-46 0 -46 -83v-163q0 -49 -25 -91t-63 -55v-2q39 -12 63.5 -55t24.5 -90v-168q0 -31 9.5 -56t34.5 -25h46v-65h-64q-47 0 -76 37z" />
    <glyph glyph-name="bar" unicode="|" horiz-adv-x="260" 
d="M167 775v-1000h-73v1000h73z" />
    <glyph glyph-name="braceright" unicode="}" horiz-adv-x="334" 
d="M88 -131q25 0 34.5 25t9.5 56v168q0 47 24.5 90t63.5 55v2q-38 13 -63 54.5t-25 91.5v163q0 83 -46 83h-44v65h63q49 0 77.5 -38t28.5 -92v-175q0 -49 22 -86t59 -37v-60q-35 0 -58 -36.5t-23 -89.5v-171q0 -59 -29 -96t-76 -37h-64v65h46z" />
    <glyph glyph-name="asciitilde" unicode="~" horiz-adv-x="584" 
d="M113.5 300q31.5 22 71.5 22q27 0 57 -10.5t73 -29.5q32 -14 51.5 -21t33.5 -7q20 0 40.5 15.5t46.5 56.5l36 -56q-27 -41 -56.5 -63.5t-69.5 -22.5q-25 0 -46 7.5t-54 24.5q-32 17 -57.5 26.5t-55.5 9.5t-50 -18t-37 -54l-36 56q21 42 52.5 64z" />
    <glyph glyph-name="uni00A0" unicode="&#xa0;" horiz-adv-x="244" 
 />
    <glyph glyph-name="exclamdown" unicode="&#xa1;" horiz-adv-x="333" 
d="M215 523v-102h-97v102h97zM142 352h49l24 -310v-237h-97v237z" />
    <glyph glyph-name="cent" unicode="&#xa2;" 
d="M86.5 94.5q-35.5 62.5 -35.5 151.5q0 141 64 216.5t180 75.5q28 0 45 -6l26 91h39l-25 -100q55 -18 89 -66t40 -112h-82q-11 46 -27.5 69.5t-40.5 32.5l-110 -386q17 -4 35 -4q61 0 95 31t49 95h85q-14 -91 -73.5 -146.5t-149.5 -55.5q-22 0 -63 7l-31 -103h-41l34 114
q-67 33 -102.5 95.5zM291 462q-72 0 -112 -57t-40 -159q0 -55 20.5 -101.5t52.5 -66.5l108 381q-9 3 -29 3z" />
    <glyph glyph-name="sterling" unicode="&#xa3;" 
d="M316 5q-36 12 -62 18t-50 6q-54 0 -118 -40l-49 69q57 37 89.5 89.5t32.5 97.5q0 29 -19 72h-107v63h69l-11 22q-16 32 -24 56.5t-8 54.5q0 58 28.5 104.5t84 73.5t134.5 27q99 0 157 -60t58 -158v-10h-88q0 75 -39 113.5t-100 38.5q-45 0 -77 -19t-48 -47.5t-16 -57.5
q0 -27 12 -57.5t39 -80.5h167v-63h-138q9 -36 9 -65q0 -46 -30 -96.5t-89 -89.5v-1q65 37 130 37q23 0 47 -5.5t56 -15.5q5 -1 28 -7.5t38 -6.5q19 0 41.5 9.5t34.5 21.5l41 -66q-34 -25 -63 -36.5t-63 -11.5q-32 0 -97 21z" />
    <glyph glyph-name="currency" unicode="&#xa4;" 
d="M359 115.5q-39 -13.5 -82 -13.5q-42 0 -80.5 14t-67.5 41l-55 -58l-46 45l55 56q-50 61 -50 151q0 96 50 150l-56 54l49 48l57 -56q30 25 67 38t77 13q41 0 80 -13.5t66 -37.5l57 56l48 -48l-55 -54q25 -28 37.5 -67t12.5 -83q0 -90 -50 -151l54 -56l-45 -46l-55 59
q-29 -28 -68 -41.5zM364 197q40 25 63 66t23 88q0 45 -23 86t-63 66t-88 25q-45 0 -84 -24.5t-62.5 -65.5t-23.5 -87q0 -48 23.5 -89t63 -65.5t84.5 -24.5q47 0 87 25z" />
    <glyph glyph-name="yen" unicode="&#xa5;" 
d="M42 192v60h192v75h-192v60h153l-192 301h107l170 -301l173 301h100l-192 -301h153v-60h-192v-75h192v-60h-192v-192h-88v192h-192z" />
    <glyph glyph-name="brokenbar" unicode="&#xa6;" horiz-adv-x="260" 
d="M167 700v-350h-73v350h73zM167 200v-350h-73v350h73z" />
    <glyph glyph-name="section" unicode="&#xa7;" 
d="M134.5 -142.5q-51.5 48.5 -51.5 137.5v2h88v-2q0 -51 24 -80.5t72 -29.5q47 0 76.5 20.5t29.5 61.5q0 24 -12 41.5t-42 37.5l-214 143q-27 19 -44.5 51t-17.5 70q0 52 23 89.5t77 67.5q-26 29 -36.5 50.5t-10.5 49.5q0 46 21 85t61.5 62t96.5 23q88 0 136.5 -47.5
t48.5 -132.5v-3h-85q-3 56 -27 81.5t-72 25.5q-41 0 -66.5 -22.5t-25.5 -58.5q0 -26 17.5 -46.5t60.5 -46.5l151 -89q52 -31 75.5 -68.5t23.5 -85.5q0 -49 -25 -88t-78 -72q28 -32 40 -55.5t12 -58.5q0 -47 -25.5 -83.5t-67.5 -57t-89 -20.5q-93 0 -144.5 48.5zM399 153.5
q13 11.5 21.5 29t8.5 42.5q0 58 -62 96l-174 107q-67 -36 -67 -97q0 -56 45 -85l189 -122q26 18 39 29.5z" />
    <glyph glyph-name="dieresis" unicode="&#xa8;" horiz-adv-x="333" 
d="M131 706v-102h-91v102h91zM293 706v-102h-91v102h91z" />
    <glyph glyph-name="copyright" unicode="&#xa9;" horiz-adv-x="737" 
d="M177.5 31q-88.5 50 -140 136.5t-51.5 192.5t52 192t140 135.5t192 49.5q103 0 190.5 -49.5t139.5 -135.5t52 -192t-51.5 -192.5t-139.5 -136.5t-191 -50q-104 0 -192.5 50zM526.5 86q69.5 42 109.5 114.5t40 159.5q0 86 -40.5 158t-110.5 114t-156 42q-84 0 -154 -41.5
t-111.5 -113.5t-41.5 -159q0 -88 40.5 -160.5t111.5 -114t160 -41.5q83 0 152.5 42zM269 157.5q-51 29.5 -80 82.5t-29 121q0 69 27.5 121t77.5 81t114 29q78 0 128.5 -42.5t60.5 -114.5h-67q-9 42 -41 66.5t-80 24.5q-66 0 -105 -44.5t-39 -119.5q0 -48 19 -86.5t52.5 -60
t75.5 -21.5q47 0 79 26t39 69h68q-14 -74 -65 -117.5t-122 -43.5q-62 0 -113 29.5z" />
    <glyph glyph-name="ordfeminine" unicode="&#xaa;" horiz-adv-x="370" 
d="M53.5 430q-29.5 25 -29.5 68q0 88 119 101l53 6q5 1 21 2t23.5 10.5t7.5 28.5q0 16 -18 27.5t-58 11.5q-71 0 -77 -53h-54q1 55 39 80t102 25q51 0 89 -22t38 -64v-180q0 -19 19 -19q8 0 18 2v-44q-22 -5 -32 -5q-30 0 -44 11t-16 40q-31 -27 -56 -39t-67 -12
q-48 0 -77.5 25zM216.5 478q31.5 21 31.5 49v43q-8 -10 -100 -21q-61 -7 -61 -43q0 -49 57 -49q41 0 72.5 21z" />
    <glyph glyph-name="guillemotleft" unicode="&#xab;" 
d="M97 323l157 123v-88l-105 -81l105 -81v-88l-157 123v92zM302 323l157 123v-88l-105 -81l105 -81v-88l-157 123v92z" />
    <glyph glyph-name="logicalnot" unicode="&#xac;" horiz-adv-x="584" 
d="M39 317v73h506v-282h-73v209h-433z" />
    <glyph glyph-name="uni00AD" unicode="&#xad;" horiz-adv-x="333" 
d="M44 232zM289 322v-90h-245v90h245z" />
    <glyph glyph-name="registered" unicode="&#xae;" horiz-adv-x="737" 
d="M177.5 31q-88.5 50 -140 136.5t-51.5 192.5t52 192t140 135.5t192 49.5q103 0 190.5 -49.5t139.5 -135.5t52 -192t-51.5 -192.5t-139.5 -136.5t-191 -50q-104 0 -192.5 50zM526.5 86q69.5 42 109.5 114.5t40 159.5q0 86 -40.5 158t-110.5 114t-156 42q-84 0 -154 -41.5
t-111.5 -113.5t-41.5 -159q0 -88 40.5 -160.5t111.5 -114t160 -41.5q83 0 152.5 42zM394 577q74 0 112 -29.5t38 -94.5q0 -52 -29 -82.5t-84 -37.5l124 -192h-74l-115 189h-76v-189h-66v436h170zM456.5 405q18.5 19 18.5 52q0 64 -93 64h-92v-135h90q58 0 76.5 19z" />
    <glyph glyph-name="macron" unicode="&#xaf;" horiz-adv-x="333" 
d="M323 684v-57h-313v57h313z" />
    <glyph glyph-name="degree" unicode="&#xb0;" horiz-adv-x="400" 
d="M125.5 430q-33.5 19 -52.5 52.5t-19 74.5q0 42 19.5 75t52.5 52t74 19t74.5 -19t52.5 -52.5t19 -74.5t-19 -74t-52 -52.5t-75 -19.5q-41 0 -74.5 19zM268.5 485.5q29.5 31.5 29.5 71.5q0 25 -13.5 49t-36.5 39t-48 15q-39 0 -68.5 -32t-29.5 -71t29.5 -71t68.5 -32
t68.5 31.5z" />
    <glyph glyph-name="plusminus" unicode="&#xb1;" horiz-adv-x="584" 
d="M39 272v73h217v161h73v-161h216v-73h-216v-161h-73v161h-217zM545 73v-73h-506v73h506z" />
    <glyph glyph-name="twosuperior" unicode="&#xb2;" horiz-adv-x="333" 
d="M21 361.5q14 31.5 49.5 59.5t105.5 64q30 16 43.5 24.5t23.5 25.5t10 46q0 27 -19.5 45.5t-64.5 18.5q-43 0 -65 -23t-25 -70h-60q0 72 40.5 111.5t117.5 39.5q66 0 106 -36t40 -90q0 -45 -26 -77t-79 -58q-64 -31 -90 -49t-49 -51h244v-61h-319q3 49 17 80.5z" />
    <glyph glyph-name="threesuperior" unicode="&#xb3;" horiz-adv-x="333" 
d="M60.5 297q-49.5 27 -55.5 113h68q2 -44 24.5 -63t61.5 -19q44 0 70 17t26 54q0 38 -23.5 55t-77.5 17h-25v51h18q44 0 67.5 14t23.5 52q0 27 -21.5 42t-58.5 15q-39 0 -59 -19.5t-22 -60.5h-61q0 67 40.5 102.5t107.5 35.5q69 0 106.5 -31t37.5 -80q0 -33 -15 -55
t-44 -32v-2q37 -11 56.5 -34t19.5 -63q0 -60 -43 -98t-123 -38q-49 0 -98.5 27z" />
    <glyph glyph-name="acute" unicode="&#xb4;" horiz-adv-x="333" 
d="M319 734l-130 -141h-67l89 141h108z" />
    <glyph glyph-name="mu" unicode="&#xb5;" horiz-adv-x="578" 
d="M68 0zM156 523v-344q0 -53 31.5 -85t84.5 -32q72 0 101 47t29 128v286h88v-382q0 -33 6.5 -50t30.5 -17q16 0 32 3v-80q-33 -4 -57 -4q-46 0 -68 19t-29 67q-21 -46 -52 -69.5t-86 -23.5q-38 0 -66.5 17.5t-44.5 44.5v-255h-88v730h88z" />
    <glyph glyph-name="paragraph" unicode="&#xb6;" horiz-adv-x="537" 
d="M118.5 369.5q-48.5 24.5 -74.5 66t-26 92.5q0 100 63 145t167 45h249v-891h-73v831h-119v-831h-73v517q-65 1 -113.5 25.5z" />
    <glyph glyph-name="periodcentered" unicode="&#xb7;" horiz-adv-x="278" 
d="M95 208.5q-18 18.5 -18 43.5q0 27 19 45t44 18q24 0 43 -18.5t19 -44.5q0 -25 -18.5 -43.5t-44.5 -18.5t-44 18.5z" />
    <glyph glyph-name="cedilla" unicode="&#xb8;" horiz-adv-x="333" 
d="M94 -219q-22 6 -49 16l17 40q23 -9 35.5 -12t28.5 -3q25 0 41 10.5t16 31.5q0 18 -13.5 28.5t-34.5 10.5q-13 0 -39 -8l-17 19l64 86h47l-46 -62q17 4 31 4q41 0 62.5 -21t21.5 -54q0 -40 -31 -66t-87 -26q-25 0 -47 6z" />
    <glyph glyph-name="onesuperior" unicode="&#xb9;" horiz-adv-x="333" 
d="M43 577v46q45 2 69 10.5t35 24.5t19 45h56v-422h-71v296h-108z" />
    <glyph glyph-name="ordmasculine" unicode="&#xba;" horiz-adv-x="365" 
d="M66.5 449q-41.5 44 -41.5 122q0 79 41 122.5t117 43.5t117 -43.5t41 -122.5t-41.5 -122.5t-116.5 -43.5t-116.5 44zM251 488q23 31 23 83q0 53 -23 83.5t-68 30.5q-44 0 -67.5 -30t-23.5 -84q0 -53 23 -83.5t68 -30.5t68 31z" />
    <glyph glyph-name="guillemotright" unicode="&#xbb;" 
d="M202 277l-105 81v88l157 -123v-92l-157 -123v88zM407 277l-105 81v88l157 -123v-92l-157 -123v88z" />
    <glyph glyph-name="onequarter" unicode="&#xbc;" horiz-adv-x="834" 
d="M73 580v43q45 2 69.5 11.5t35.5 25t18 43.5h53v-422h-68v299h-108zM653 703l-442 -722h-57l442 722h57zM419 94v60l206 268h64v-270h67v-58h-67v-94h-64v94h-206zM625 339h-2l-142 -187h144v187z" />
    <glyph glyph-name="onehalf" unicode="&#xbd;" horiz-adv-x="834" 
d="M43 0zM43 577v46q45 2 69 10.5t35 24.5t19 45h56v-422h-71v296h-108zM617 703l-442 -722h-57l442 722h57zM471 80.5q14 31.5 49.5 59.5t105.5 64q30 16 43.5 24.5t23.5 25.5t10 46q0 27 -19.5 45.5t-64.5 18.5q-43 0 -65 -23t-25 -70h-60q0 72 40.5 111.5t117.5 39.5
q66 0 106 -36t40 -90q0 -45 -26 -77t-79 -58q-64 -31 -90 -49t-49 -51h244v-61h-319q3 49 17 80.5z" />
    <glyph glyph-name="threequarters" unicode="&#xbe;" horiz-adv-x="834" 
d="M100.5 297q-49.5 27 -55.5 113h68q2 -44 24.5 -63t61.5 -19q44 0 70 17t26 54q0 38 -23.5 55t-77.5 17h-25v51h18q44 0 67.5 14t23.5 52q0 27 -21.5 42t-58.5 15q-39 0 -59 -19.5t-22 -60.5h-61q0 67 40.5 102.5t107.5 35.5q69 0 106.5 -31t37.5 -80q0 -33 -15 -55
t-44 -32v-2q37 -11 56.5 -34t19.5 -63q0 -60 -43 -98t-123 -38q-49 0 -98.5 27zM712 703l-442 -722h-57l442 722h57zM473 94v60l206 268h64v-270h67v-58h-67v-94h-64v94h-206zM679 339h-2l-142 -187h144v187z" />
    <glyph glyph-name="questiondown" unicode="&#xbf;" horiz-adv-x="611" 
d="M362 525v-102h-97v102h97zM192.5 -176q-48.5 25 -75 69.5t-26.5 101.5q0 35 11 61.5t29 47t55 57.5l31 30q31 31 43 61.5t12 78.5v12h88q0 -60 -10 -94.5t-30 -60t-71 -76.5q-29 -30 -42 -47t-17.5 -33t-4.5 -42q0 -48 31.5 -81.5t90.5 -33.5q67 0 99.5 41t32.5 117h88
q-1 -67 -16.5 -106.5t-50.5 -71.5q-33 -30 -74.5 -43t-82.5 -13q-62 0 -110.5 25z" />
    <glyph glyph-name="Agrave" unicode="&#xc0;" horiz-adv-x="667" 
d="M14 0zM394 718l260 -718h-106l-71 209h-288l-75 -209h-100l270 718h110zM336 611h-2l-115 -316h223zM289 929l89 -141h-67l-130 141h108z" />
    <glyph glyph-name="Aacute" unicode="&#xc1;" horiz-adv-x="667" 
d="M14 0zM394 718l260 -718h-106l-71 209h-288l-75 -209h-100l270 718h110zM336 611h-2l-115 -316h223zM486 929l-130 -141h-67l89 141h108z" />
    <glyph glyph-name="Acircumflex" unicode="&#xc2;" horiz-adv-x="667" 
d="M14 0zM394 718l260 -718h-106l-71 209h-288l-75 -209h-100l270 718h110zM336 611h-2l-115 -316h223zM380 929l99 -141h-80l-66 93l-66 -93h-79l99 141h93z" />
    <glyph glyph-name="Atilde" unicode="&#xc3;" horiz-adv-x="667" 
d="M14 0zM394 718l260 -718h-106l-71 209h-288l-75 -209h-100l270 718h110zM336 611h-2l-115 -316h223zM207 881.5q27 26.5 72 26.5q18 0 36 -5.5t47 -16.5q38 -15 52 -15q21 0 33.5 11t16.5 35h50q-6 -47 -32 -78t-68 -31q-16 0 -31.5 4.5t-45.5 14.5q-26 9 -41 13.5
t-30 4.5q-18 0 -28 -11.5t-17 -32.5h-48q7 54 34 80.5z" />
    <glyph glyph-name="Adieresis" unicode="&#xc4;" horiz-adv-x="667" 
d="M14 0zM394 718l260 -718h-106l-71 209h-288l-75 -209h-100l270 718h110zM336 611h-2l-115 -316h223zM298 901v-102h-91v102h91zM460 901v-102h-91v102h91z" />
    <glyph glyph-name="Aring" unicode="&#xc5;" horiz-adv-x="667" 
d="M14 0zM394 718l260 -718h-106l-71 209h-288l-75 -209h-100l270 718h110zM336 611h-2l-115 -316h223zM268 773q-26 26 -26 66t26 66t66 26t66 -26t26 -66t-26 -66t-66 -26t-66 26zM371 802q15 15 15 37t-15 37t-37 15t-37 -15t-15 -37t15 -37t37 -15t37 15z" />
    <glyph glyph-name="AE" unicode="&#xc6;" horiz-adv-x="1000" 
d="M944 718v-86h-390v-220h356v-86h-356v-240h397v-86h-494v209h-265l-79 -209h-105l292 718h644zM457 632h-97l-133 -337h230v337z" />
    <glyph glyph-name="Ccedilla" unicode="&#xc7;" horiz-adv-x="722" 
d="M314 -219q-22 6 -49 16l17 40q22 -9 35 -12t30 -3q23 0 39.5 10.5t16.5 30.5q0 19 -13.5 29.5t-34.5 10.5q-15 0 -39 -8l-17 19l51 69q-97 5 -165.5 52.5t-104.5 131t-36 195.5t41 197t117 131.5t177 46.5q79 0 142.5 -29t103.5 -82t49 -124h-94q-15 72 -67 110.5
t-134 38.5q-70 0 -123 -34.5t-82.5 -99t-29.5 -151.5q0 -149 60.5 -224t176.5 -75q78 0 134 52.5t72 144.5h94q-17 -124 -91 -197.5t-193 -83.5l-33 -45q20 4 31 4q41 0 62.5 -21t21.5 -54q0 -40 -31.5 -66t-86.5 -26q-25 0 -47 6z" />
    <glyph glyph-name="Egrave" unicode="&#xc8;" horiz-adv-x="667" 
d="M86 0zM609 718v-86h-426v-220h393v-86h-393v-240h433v-86h-530v718h523zM289 929l89 -141h-67l-130 141h108z" />
    <glyph glyph-name="Eacute" unicode="&#xc9;" horiz-adv-x="667" 
d="M86 0zM609 718v-86h-426v-220h393v-86h-393v-240h433v-86h-530v718h523zM486 929l-130 -141h-67l89 141h108z" />
    <glyph glyph-name="Ecircumflex" unicode="&#xca;" horiz-adv-x="667" 
d="M86 0zM609 718v-86h-426v-220h393v-86h-393v-240h433v-86h-530v718h523zM380 929l99 -141h-80l-66 93l-66 -93h-79l99 141h93z" />
    <glyph glyph-name="Edieresis" unicode="&#xcb;" horiz-adv-x="667" 
d="M86 0zM609 718v-86h-426v-220h393v-86h-393v-240h433v-86h-530v718h523zM298 901v-102h-91v102h91zM460 901v-102h-91v102h91z" />
    <glyph glyph-name="Igrave" unicode="&#xcc;" horiz-adv-x="278" 
d="M0 0zM188 718v-718h-97v718h97zM96 929l89 -141h-67l-130 141h108z" />
    <glyph glyph-name="Iacute" unicode="&#xcd;" horiz-adv-x="278" 
d="M91 0zM188 718v-718h-97v718h97zM293 929l-130 -141h-67l89 141h108z" />
    <glyph glyph-name="Icircumflex" unicode="&#xce;" horiz-adv-x="278" 
d="M0 0zM188 718v-718h-97v718h97zM187 929l99 -141h-80l-66 93l-66 -93h-79l99 141h93z" />
    <glyph glyph-name="Idieresis" unicode="&#xcf;" horiz-adv-x="278" 
d="M14 0zM188 718v-718h-97v718h97zM105 901v-102h-91v102h91zM267 901v-102h-91v102h91z" />
    <glyph glyph-name="Eth" unicode="&#xd0;" horiz-adv-x="722" 
d="M0 356v56h81v306h293q85 0 153 -40.5t107.5 -119t39.5 -187.5q0 -106 -35 -190t-102.5 -132.5t-163.5 -48.5h-292v356h-81zM475.5 114.5q46.5 31.5 72.5 94.5t26 154q0 135 -57.5 203.5t-156.5 68.5h-182v-223h192v-56h-192v-273h191q60 0 106.5 31.5z" />
    <glyph glyph-name="Ntilde" unicode="&#xd1;" horiz-adv-x="722" 
d="M76 0zM191 718l359 -580h2v580h94v-718h-109l-365 580h-2v-580h-94v718h115zM235 881.5q27 26.5 72 26.5q18 0 36 -5.5t47 -16.5q38 -15 52 -15q21 0 33.5 11t16.5 35h50q-6 -47 -32 -78t-68 -31q-16 0 -31.5 4.5t-45.5 14.5q-26 9 -41 13.5t-30 4.5q-18 0 -28 -11.5
t-17 -32.5h-48q7 54 34 80.5z" />
    <glyph glyph-name="Ograve" unicode="&#xd2;" horiz-adv-x="778" 
d="M39 0zM198.5 32q-79.5 51 -119.5 137t-40 190t40 190t119.5 137t190.5 51q115 0 193.5 -53t117.5 -139.5t39 -185.5q0 -103 -40.5 -189.5t-119.5 -137.5t-189 -51q-112 0 -191.5 51zM520 104q57 37 88 103t31 152t-31.5 152.5t-88.5 103t-131 36.5q-73 0 -129.5 -36.5
t-88 -103t-31.5 -152.5t31 -152.5t88 -103t131 -36.5t131 37zM345 929l89 -141h-67l-130 141h108z" />
    <glyph glyph-name="Oacute" unicode="&#xd3;" horiz-adv-x="778" 
d="M39 0zM198.5 32q-79.5 51 -119.5 137t-40 190t40 190t119.5 137t190.5 51q115 0 193.5 -53t117.5 -139.5t39 -185.5q0 -103 -40.5 -189.5t-119.5 -137.5t-189 -51q-112 0 -191.5 51zM520 104q57 37 88 103t31 152t-31.5 152.5t-88.5 103t-131 36.5q-73 0 -129.5 -36.5
t-88 -103t-31.5 -152.5t31 -152.5t88 -103t131 -36.5t131 37zM542 929l-130 -141h-67l89 141h108z" />
    <glyph glyph-name="Ocircumflex" unicode="&#xd4;" horiz-adv-x="778" 
d="M39 0zM198.5 32q-79.5 51 -119.5 137t-40 190t40 190t119.5 137t190.5 51q115 0 193.5 -53t117.5 -139.5t39 -185.5q0 -103 -40.5 -189.5t-119.5 -137.5t-189 -51q-112 0 -191.5 51zM520 104q57 37 88 103t31 152t-31.5 152.5t-88.5 103t-131 36.5q-73 0 -129.5 -36.5
t-88 -103t-31.5 -152.5t31 -152.5t88 -103t131 -36.5t131 37zM436 929l99 -141h-80l-66 93l-66 -93h-79l99 141h93z" />
    <glyph glyph-name="Otilde" unicode="&#xd5;" horiz-adv-x="778" 
d="M39 0zM198.5 32q-79.5 51 -119.5 137t-40 190t40 190t119.5 137t190.5 51q115 0 193.5 -53t117.5 -139.5t39 -185.5q0 -103 -40.5 -189.5t-119.5 -137.5t-189 -51q-112 0 -191.5 51zM520 104q57 37 88 103t31 152t-31.5 152.5t-88.5 103t-131 36.5q-73 0 -129.5 -36.5
t-88 -103t-31.5 -152.5t31 -152.5t88 -103t131 -36.5t131 37zM253 881.5q27 26.5 72 26.5q18 0 36 -5.5t47 -16.5q38 -15 52 -15q21 0 33.5 11t16.5 35h50q-6 -47 -32 -78t-68 -31q-16 0 -31.5 4.5t-45.5 14.5q-26 9 -41 13.5t-30 4.5q-18 0 -28 -11.5t-17 -32.5h-48
q7 54 34 80.5z" />
    <glyph glyph-name="Odieresis" unicode="&#xd6;" horiz-adv-x="778" 
d="M39 0zM198.5 32q-79.5 51 -119.5 137t-40 190t40 190t119.5 137t190.5 51q115 0 193.5 -53t117.5 -139.5t39 -185.5q0 -103 -40.5 -189.5t-119.5 -137.5t-189 -51q-112 0 -191.5 51zM520 104q57 37 88 103t31 152t-31.5 152.5t-88.5 103t-131 36.5q-73 0 -129.5 -36.5
t-88 -103t-31.5 -152.5t31 -152.5t88 -103t131 -36.5t131 37zM354 901v-102h-91v102h91zM516 901v-102h-91v102h91z" />
    <glyph glyph-name="multiply" unicode="&#xd7;" horiz-adv-x="584" 
d="M241 253l-202 202l52 51l201 -201l202 201l51 -51l-201 -202l201 -202l-51 -51l-202 201l-202 -201l-51 51z" />
    <glyph glyph-name="Oslash" unicode="&#xd8;" horiz-adv-x="778" 
d="M124 99q-43 53 -64 120t-21 140q0 102 40 188t119 138t191 52q150 0 239 -89l81 89l31 -30l-83 -91q42 -54 62 -121t20 -133q0 -97 -37 -184t-115.5 -142t-197.5 -55q-144 0 -236 87l-80 -87l-32 28zM487.5 632q-44.5 19 -99.5 19q-72 0 -129 -36.5t-88.5 -102.5
t-31.5 -153q0 -109 51 -188l374 407q-32 35 -76.5 54zM520 104q57 37 88 103.5t31 151.5q0 111 -49 184l-373 -405q68 -71 172 -71q74 0 131 37z" />
    <glyph glyph-name="Ugrave" unicode="&#xd9;" horiz-adv-x="722" 
d="M79 0zM206 14q-62 33 -94.5 91.5t-32.5 134.5v478h97v-456q0 -92 47 -143.5t135 -51.5q89 0 139 51t50 142v458h97v-464q0 -80 -33 -141.5t-98 -96.5t-158 -35q-87 0 -149 33zM317 929l89 -141h-67l-130 141h108z" />
    <glyph glyph-name="Uacute" unicode="&#xda;" horiz-adv-x="722" 
d="M79 0zM206 14q-62 33 -94.5 91.5t-32.5 134.5v478h97v-456q0 -92 47 -143.5t135 -51.5q89 0 139 51t50 142v458h97v-464q0 -80 -33 -141.5t-98 -96.5t-158 -35q-87 0 -149 33zM514 929l-130 -141h-67l89 141h108z" />
    <glyph glyph-name="Ucircumflex" unicode="&#xdb;" horiz-adv-x="722" 
d="M79 0zM206 14q-62 33 -94.5 91.5t-32.5 134.5v478h97v-456q0 -92 47 -143.5t135 -51.5q89 0 139 51t50 142v458h97v-464q0 -80 -33 -141.5t-98 -96.5t-158 -35q-87 0 -149 33zM408 929l99 -141h-80l-66 93l-66 -93h-79l99 141h93z" />
    <glyph glyph-name="Udieresis" unicode="&#xdc;" horiz-adv-x="722" 
d="M79 0zM206 14q-62 33 -94.5 91.5t-32.5 134.5v478h97v-456q0 -92 47 -143.5t135 -51.5q89 0 139 51t50 142v458h97v-464q0 -80 -33 -141.5t-98 -96.5t-158 -35q-87 0 -149 33zM326 901v-102h-91v102h91zM488 901v-102h-91v102h91z" />
    <glyph glyph-name="Yacute" unicode="&#xdd;" horiz-adv-x="667" 
d="M14 0zM14 718h113l206 -345l206 345h114l-271 -429v-289h-97v289zM486 929l-130 -141h-67l89 141h108z" />
    <glyph glyph-name="Thorn" unicode="&#xde;" horiz-adv-x="667" 
d="M183 718v-119h230q59 0 106.5 -25.5t75 -71.5t27.5 -105q0 -61 -25.5 -109.5t-73 -76t-110.5 -27.5h-230v-184h-97v718h97zM522 396q0 59 -35.5 89.5t-102.5 30.5h-201v-249h197q142 0 142 129z" />
    <glyph glyph-name="germandbls" unicode="&#xdf;" horiz-adv-x="611" 
d="M266 -8v75q13 -3 44 -3q83 0 126.5 38t43.5 112q0 72 -41.5 106t-127.5 34q-25 0 -40 -4v79l24 -2q75 0 114.5 29.5t39.5 83.5q0 50 -39 81t-113 31q-75 0 -108.5 -34t-33.5 -104v-514h-88v532q0 89 60.5 142.5t170.5 53.5q109 0 174 -48t65 -133q0 -49 -20 -85t-62 -62
q49 -13 82.5 -61t33.5 -102q0 -119 -66 -185.5t-186 -66.5q-24 0 -53 7z" />
    <glyph glyph-name="agrave" unicode="&#xe0;" 
d="M36 0zM82 27q-46 42 -46 109q0 68 40 111t118 53l146 18q24 3 35 17t11 44q0 86 -123 86q-54 0 -83.5 -24t-36.5 -77h-81q2 84 55 129t156 45q88 0 143.5 -37t55.5 -110v-302q0 -13 7 -21t22 -8q14 0 29 4v-64q-30 -10 -49 -10q-43 0 -66.5 18.5t-25.5 61.5
q-75 -85 -188 -85q-73 0 -119 42zM300.5 74.5q37.5 16.5 60.5 45t23 61.5v86q-12 -10 -38.5 -16t-80.5 -13l-39 -6q-48 -7 -73.5 -26.5t-25.5 -57.5q0 -90 95 -90q41 0 78.5 16.5zM234 734l89 -141h-67l-130 141h108z" />
    <glyph glyph-name="aacute" unicode="&#xe1;" 
d="M36 0zM82 27q-46 42 -46 109q0 68 40 111t118 53l146 18q24 3 35 17t11 44q0 86 -123 86q-54 0 -83.5 -24t-36.5 -77h-81q2 84 55 129t156 45q88 0 143.5 -37t55.5 -110v-302q0 -13 7 -21t22 -8q14 0 29 4v-64q-30 -10 -49 -10q-43 0 -66.5 18.5t-25.5 61.5
q-75 -85 -188 -85q-73 0 -119 42zM300.5 74.5q37.5 16.5 60.5 45t23 61.5v86q-12 -10 -38.5 -16t-80.5 -13l-39 -6q-48 -7 -73.5 -26.5t-25.5 -57.5q0 -90 95 -90q41 0 78.5 16.5zM431 734l-130 -141h-67l89 141h108z" />
    <glyph glyph-name="acircumflex" unicode="&#xe2;" 
d="M36 0zM82 27q-46 42 -46 109q0 68 40 111t118 53l146 18q24 3 35 17t11 44q0 86 -123 86q-54 0 -83.5 -24t-36.5 -77h-81q2 84 55 129t156 45q88 0 143.5 -37t55.5 -110v-302q0 -13 7 -21t22 -8q14 0 29 4v-64q-30 -10 -49 -10q-43 0 -66.5 18.5t-25.5 61.5
q-75 -85 -188 -85q-73 0 -119 42zM300.5 74.5q37.5 16.5 60.5 45t23 61.5v86q-12 -10 -38.5 -16t-80.5 -13l-39 -6q-48 -7 -73.5 -26.5t-25.5 -57.5q0 -90 95 -90q41 0 78.5 16.5zM325 734l99 -141h-80l-66 93l-66 -93h-79l99 141h93z" />
    <glyph glyph-name="atilde" unicode="&#xe3;" 
d="M36 0zM82 27q-46 42 -46 109q0 68 40 111t118 53l146 18q24 3 35 17t11 44q0 86 -123 86q-54 0 -83.5 -24t-36.5 -77h-81q2 84 55 129t156 45q88 0 143.5 -37t55.5 -110v-302q0 -13 7 -21t22 -8q14 0 29 4v-64q-30 -10 -49 -10q-43 0 -66.5 18.5t-25.5 61.5
q-75 -85 -188 -85q-73 0 -119 42zM300.5 74.5q37.5 16.5 60.5 45t23 61.5v86q-12 -10 -38.5 -16t-80.5 -13l-39 -6q-48 -7 -73.5 -26.5t-25.5 -57.5q0 -90 95 -90q41 0 78.5 16.5zM142 686.5q27 26.5 72 26.5q18 0 36 -5.5t47 -16.5q38 -15 52 -15q21 0 33.5 11t16.5 35h50
q-6 -47 -32 -78t-68 -31q-16 0 -31.5 4.5t-45.5 14.5q-26 9 -41 13.5t-30 4.5q-18 0 -28 -11.5t-17 -32.5h-48q7 54 34 80.5z" />
    <glyph glyph-name="adieresis" unicode="&#xe4;" 
d="M36 0zM82 27q-46 42 -46 109q0 68 40 111t118 53l146 18q24 3 35 17t11 44q0 86 -123 86q-54 0 -83.5 -24t-36.5 -77h-81q2 84 55 129t156 45q88 0 143.5 -37t55.5 -110v-302q0 -13 7 -21t22 -8q14 0 29 4v-64q-30 -10 -49 -10q-43 0 -66.5 18.5t-25.5 61.5
q-75 -85 -188 -85q-73 0 -119 42zM300.5 74.5q37.5 16.5 60.5 45t23 61.5v86q-12 -10 -38.5 -16t-80.5 -13l-39 -6q-48 -7 -73.5 -26.5t-25.5 -57.5q0 -90 95 -90q41 0 78.5 16.5zM243 706v-102h-91v102h91zM405 706v-102h-91v102h91z" />
    <glyph glyph-name="aring" unicode="&#xe5;" 
d="M36 0zM82 27q-46 42 -46 109q0 68 40 111t118 53l146 18q24 3 35 17t11 44q0 86 -123 86q-54 0 -83.5 -24t-36.5 -77h-81q2 84 55 129t156 45q88 0 143.5 -37t55.5 -110v-302q0 -13 7 -21t22 -8q14 0 29 4v-64q-30 -10 -49 -10q-43 0 -66.5 18.5t-25.5 61.5
q-75 -85 -188 -85q-73 0 -119 42zM300.5 74.5q37.5 16.5 60.5 45t23 61.5v86q-12 -10 -38.5 -16t-80.5 -13l-39 -6q-48 -7 -73.5 -26.5t-25.5 -57.5q0 -90 95 -90q41 0 78.5 16.5zM213 598q-26 26 -26 66t26 66t66 26t66 -26t26 -66t-26 -66t-66 -26t-66 26zM316 627
q15 15 15 37t-15 37t-37 15t-37 -15t-15 -37t15 -37t37 -15t37 15z" />
    <glyph glyph-name="ae" unicode="&#xe6;" horiz-adv-x="889" 
d="M82 27q-46 42 -46 109q0 69 40.5 111.5t117.5 52.5l146 18q24 3 35 17t11 44q0 86 -123 86q-53 0 -83 -24t-37 -77h-81q2 85 55.5 129.5t160.5 44.5q57 0 94.5 -16t75.5 -58q39 42 81 58t92 16q112 0 169 -80.5t57 -224.5h-382q0 -84 38.5 -128t113.5 -44q35 0 64.5 15
t48.5 38.5t22 49.5h88q-13 -66 -65.5 -122.5t-164.5 -56.5q-139 0 -197 109q-38 -57 -89.5 -83t-122.5 -26q-73 0 -119 42zM610 459q-37 0 -70 -20.5t-53.5 -56.5t-21.5 -79h291q-10 156 -146 156zM301 75q37 17 60 45.5t23 58.5v88q-8 -9 -43 -17t-107 -17
q-54 -7 -80.5 -27.5t-26.5 -57.5q0 -90 95 -90q42 0 79 17z" />
    <glyph glyph-name="ccedilla" unicode="&#xe7;" horiz-adv-x="500" 
d="M204 -219q-22 6 -49 16l17 40q23 -9 35.5 -12t28.5 -3q25 0 41 10.5t16 31.5q0 18 -13.5 28.5t-34.5 10.5q-16 0 -39 -8l-17 19l54 73q-101 8 -157 80t-56 180q0 131 64.5 211t186.5 80q84 0 136.5 -50.5t59.5 -140.5h-85q-17 112 -124 112q-69 0 -106.5 -53.5
t-37.5 -143.5q0 -98 36 -149.5t107 -51.5q46 0 80.5 32.5t44.5 91.5h85q-11 -88 -60.5 -139.5t-125.5 -57.5l-37 -50q20 4 31 4q42 0 63 -21.5t21 -53.5q0 -40 -31.5 -66t-86.5 -26q-25 0 -47 6z" />
    <glyph glyph-name="egrave" unicode="&#xe8;" 
d="M40 0zM149 19q-54 34 -81.5 93.5t-27.5 135.5q0 133 65.5 211.5t185.5 78.5q108 0 166.5 -80t58.5 -225h-382q0 -84 38.5 -128t113.5 -44q35 0 64.5 15t48.5 38.5t22 49.5h88q-13 -62 -63.5 -120.5t-166.5 -58.5q-76 0 -130 34zM279 459q-38 0 -71 -21t-53.5 -57
t-20.5 -78h291q-12 156 -146 156zM234 734l89 -141h-67l-130 141h108z" />
    <glyph glyph-name="eacute" unicode="&#xe9;" 
d="M40 0zM149 19q-54 34 -81.5 93.5t-27.5 135.5q0 133 65.5 211.5t185.5 78.5q108 0 166.5 -80t58.5 -225h-382q0 -84 38.5 -128t113.5 -44q35 0 64.5 15t48.5 38.5t22 49.5h88q-13 -62 -63.5 -120.5t-166.5 -58.5q-76 0 -130 34zM279 459q-38 0 -71 -21t-53.5 -57
t-20.5 -78h291q-12 156 -146 156zM431 734l-130 -141h-67l89 141h108z" />
    <glyph glyph-name="ecircumflex" unicode="&#xea;" 
d="M40 0zM149 19q-54 34 -81.5 93.5t-27.5 135.5q0 133 65.5 211.5t185.5 78.5q108 0 166.5 -80t58.5 -225h-382q0 -84 38.5 -128t113.5 -44q35 0 64.5 15t48.5 38.5t22 49.5h88q-13 -62 -63.5 -120.5t-166.5 -58.5q-76 0 -130 34zM279 459q-38 0 -71 -21t-53.5 -57
t-20.5 -78h291q-12 156 -146 156zM325 734l99 -141h-80l-66 93l-66 -93h-79l99 141h93z" />
    <glyph glyph-name="edieresis" unicode="&#xeb;" 
d="M40 0zM149 19q-54 34 -81.5 93.5t-27.5 135.5q0 133 65.5 211.5t185.5 78.5q108 0 166.5 -80t58.5 -225h-382q0 -84 38.5 -128t113.5 -44q35 0 64.5 15t48.5 38.5t22 49.5h88q-13 -62 -63.5 -120.5t-166.5 -58.5q-76 0 -130 34zM279 459q-38 0 -71 -21t-53.5 -57
t-20.5 -78h291q-12 156 -146 156zM243 706v-102h-91v102h91zM405 706v-102h-91v102h91z" />
    <glyph glyph-name="igrave" unicode="&#xec;" horiz-adv-x="222" 
d="M0 0zM155 523v-523h-88v523h88zM68 734l89 -141h-67l-130 141h108z" />
    <glyph glyph-name="iacute" unicode="&#xed;" horiz-adv-x="222" 
d="M67 0zM155 523v-523h-88v523h88zM265 734l-130 -141h-67l89 141h108z" />
    <glyph glyph-name="icircumflex" unicode="&#xee;" horiz-adv-x="222" 
d="M0 0zM155 523v-523h-88v523h88zM159 734l99 -141h-80l-66 93l-66 -93h-79l99 141h93z" />
    <glyph glyph-name="idieresis" unicode="&#xef;" horiz-adv-x="222" 
d="M0 0zM155 523v-523h-88v523h88zM77 706v-102h-91v102h91zM239 706v-102h-91v102h91z" />
    <glyph glyph-name="eth" unicode="&#xf0;" 
d="M153 19.5q-57 34.5 -87.5 95.5t-30.5 139q0 72 28.5 134t81 98.5t119.5 36.5q83 0 133 -55l2 2q-28 72 -111 142l-124 -62l-42 42l118 57q-38 32 -89 52l74 36q45 -16 91 -51l106 51l47 -40l-107 -51q77 -71 118.5 -161t41.5 -188q0 -96 -30 -166.5t-83.5 -108
t-123.5 -37.5q-75 0 -132 34.5zM365 90.5q34 29.5 49.5 74.5t15.5 91q0 41 -15 85t-49 75t-88 31q-73 0 -112.5 -56.5t-39.5 -138.5q0 -48 16.5 -91.5t51 -71.5t85.5 -28q52 0 86 29.5z" />
    <glyph glyph-name="ntilde" unicode="&#xf1;" 
d="M65 0zM148 523v-74h2q34 48 73 68.5t85 20.5q87 0 135 -46.5t48 -131.5v-360h-88v319q0 68 -22.5 104t-88.5 36q-63 0 -101 -46.5t-38 -122.5v-290h-88v523h83zM132 686.5q27 26.5 72 26.5q18 0 36 -5.5t47 -16.5q38 -15 52 -15q21 0 33.5 11t16.5 35h50q-6 -47 -32 -78
t-68 -31q-16 0 -31.5 4.5t-45.5 14.5q-26 9 -41 13.5t-30 4.5q-18 0 -28 -11.5t-17 -32.5h-48q7 54 34 80.5z" />
    <glyph glyph-name="ograve" unicode="&#xf2;" 
d="M35 0zM147.5 23q-55.5 37 -84 99.5t-28.5 139.5q0 79 29.5 141.5t84.5 98.5t129 36q76 0 131 -37t83.5 -100t28.5 -139q0 -77 -29 -140t-83.5 -99.5t-129.5 -36.5q-76 0 -131.5 37zM391.5 120q38.5 58 38.5 139q0 86 -37.5 144.5t-115.5 58.5q-73 0 -112 -56t-39 -144
q0 -86 38.5 -143t113.5 -57t113.5 58zM234 734l89 -141h-67l-130 141h108z" />
    <glyph glyph-name="oacute" unicode="&#xf3;" 
d="M35 0zM147.5 23q-55.5 37 -84 99.5t-28.5 139.5q0 79 29.5 141.5t84.5 98.5t129 36q76 0 131 -37t83.5 -100t28.5 -139q0 -77 -29 -140t-83.5 -99.5t-129.5 -36.5q-76 0 -131.5 37zM391.5 120q38.5 58 38.5 139q0 86 -37.5 144.5t-115.5 58.5q-73 0 -112 -56t-39 -144
q0 -86 38.5 -143t113.5 -57t113.5 58zM431 734l-130 -141h-67l89 141h108z" />
    <glyph glyph-name="ocircumflex" unicode="&#xf4;" 
d="M35 0zM147.5 23q-55.5 37 -84 99.5t-28.5 139.5q0 79 29.5 141.5t84.5 98.5t129 36q76 0 131 -37t83.5 -100t28.5 -139q0 -77 -29 -140t-83.5 -99.5t-129.5 -36.5q-76 0 -131.5 37zM391.5 120q38.5 58 38.5 139q0 86 -37.5 144.5t-115.5 58.5q-73 0 -112 -56t-39 -144
q0 -86 38.5 -143t113.5 -57t113.5 58zM325 734l99 -141h-80l-66 93l-66 -93h-79l99 141h93z" />
    <glyph glyph-name="otilde" unicode="&#xf5;" 
d="M35 0zM147.5 23q-55.5 37 -84 99.5t-28.5 139.5q0 79 29.5 141.5t84.5 98.5t129 36q76 0 131 -37t83.5 -100t28.5 -139q0 -77 -29 -140t-83.5 -99.5t-129.5 -36.5q-76 0 -131.5 37zM391.5 120q38.5 58 38.5 139q0 86 -37.5 144.5t-115.5 58.5q-73 0 -112 -56t-39 -144
q0 -86 38.5 -143t113.5 -57t113.5 58zM142 686.5q27 26.5 72 26.5q18 0 36 -5.5t47 -16.5q38 -15 52 -15q21 0 33.5 11t16.5 35h50q-6 -47 -32 -78t-68 -31q-16 0 -31.5 4.5t-45.5 14.5q-26 9 -41 13.5t-30 4.5q-18 0 -28 -11.5t-17 -32.5h-48q7 54 34 80.5z" />
    <glyph glyph-name="odieresis" unicode="&#xf6;" 
d="M35 0zM147.5 23q-55.5 37 -84 99.5t-28.5 139.5q0 79 29.5 141.5t84.5 98.5t129 36q76 0 131 -37t83.5 -100t28.5 -139q0 -77 -29 -140t-83.5 -99.5t-129.5 -36.5q-76 0 -131.5 37zM391.5 120q38.5 58 38.5 139q0 86 -37.5 144.5t-115.5 58.5q-73 0 -112 -56t-39 -144
q0 -86 38.5 -143t113.5 -57t113.5 58zM243 706v-102h-91v102h91zM405 706v-102h-91v102h91z" />
    <glyph glyph-name="divide" unicode="&#xf7;" horiz-adv-x="584" 
d="M244.5 408q-20.5 20 -20.5 48q0 29 20 48.5t48 19.5t48 -20t20 -48q0 -27 -20.5 -47.5t-47.5 -20.5t-47.5 20zM545 289v-73h-506v73h506zM244.5 1q-20.5 20 -20.5 48q0 29 20 48.5t48 19.5t48 -20t20 -48q0 -27 -20.5 -47.5t-47.5 -20.5t-47.5 20z" />
    <glyph glyph-name="oslash" unicode="&#xf8;" horiz-adv-x="611" 
d="M92 76q-28 37 -42.5 85t-14.5 101q0 78 30 140.5t85 99t128 36.5q99 0 164 -65l64 72l31 -26l-69 -78q53 -75 53 -178q0 -79 -29.5 -142t-84.5 -99t-129 -36q-96 0 -159 60l-60 -68l-31 26zM277 462q-72 0 -111.5 -56t-39.5 -144q0 -67 25 -118l236 266q-39 52 -110 52z
M391 118.5q39 56.5 39 143.5q0 63 -22 111l-234 -265q38 -46 105 -46q73 0 112 56.5z" />
    <glyph glyph-name="ugrave" unicode="&#xf9;" 
d="M68 0zM114 27.5q-46 42.5 -46 116.5v379h88v-351q0 -52 26 -81.5t75 -29.5q68 0 106 48t38 131v283h88v-523h-83v76l-2 2q-31 -48 -68.5 -70.5t-97.5 -22.5q-78 0 -124 42.5zM234 734l89 -141h-67l-130 141h108z" />
    <glyph glyph-name="uacute" unicode="&#xfa;" 
d="M68 0zM114 27.5q-46 42.5 -46 116.5v379h88v-351q0 -52 26 -81.5t75 -29.5q68 0 106 48t38 131v283h88v-523h-83v76l-2 2q-31 -48 -68.5 -70.5t-97.5 -22.5q-78 0 -124 42.5zM431 734l-130 -141h-67l89 141h108z" />
    <glyph glyph-name="ucircumflex" unicode="&#xfb;" 
d="M68 0zM114 27.5q-46 42.5 -46 116.5v379h88v-351q0 -52 26 -81.5t75 -29.5q68 0 106 48t38 131v283h88v-523h-83v76l-2 2q-31 -48 -68.5 -70.5t-97.5 -22.5q-78 0 -124 42.5zM325 734l99 -141h-80l-66 93l-66 -93h-79l99 141h93z" />
    <glyph glyph-name="udieresis" unicode="&#xfc;" 
d="M68 0zM114 27.5q-46 42.5 -46 116.5v379h88v-351q0 -52 26 -81.5t75 -29.5q68 0 106 48t38 131v283h88v-523h-83v76l-2 2q-31 -48 -68.5 -70.5t-97.5 -22.5q-78 0 -124 42.5zM243 706v-102h-91v102h91zM405 706v-102h-91v102h91z" />
    <glyph glyph-name="yacute" unicode="&#xfd;" horiz-adv-x="500" 
d="M11 0zM59 -206v80q16 -5 28 -7t32 -2q18 0 29.5 8.5t17 19t15.5 34.5l24 59l-194 537h100l139 -426h2l140 426h97q-34 -96 -52 -144q-84 -236 -126 -344l-45 -113q-26 -64 -47.5 -93t-43.5 -36t-63 -7q-27 0 -53 8zM403 734l-130 -141h-67l89 141h108z" />
    <glyph glyph-name="thorn" unicode="&#xfe;" 
d="M146 718v-268h2q29 48 65.5 68t85.5 20q66 0 115.5 -33.5t76 -92t26.5 -133.5q0 -82 -25.5 -148.5t-77 -106t-125.5 -39.5q-51 0 -86 19.5t-55 50.5h-2v-262h-88v925h88zM388.5 115.5q37.5 54.5 37.5 150.5q0 102 -37.5 147.5t-106.5 45.5q-140 0 -140 -223
q0 -82 40.5 -128.5t102.5 -46.5q66 0 103.5 54.5z" />
    <glyph glyph-name="ydieresis" unicode="&#xff;" horiz-adv-x="500" 
d="M11 0zM59 -206v80q16 -5 28 -7t32 -2q18 0 29.5 8.5t17 19t15.5 34.5l24 59l-194 537h100l139 -426h2l140 426h97q-34 -96 -52 -144q-84 -236 -126 -344l-45 -113q-26 -64 -47.5 -93t-43.5 -36t-63 -7q-27 0 -53 8zM215 706v-102h-91v102h91zM377 706v-102h-91v102h91z
" />
    <glyph glyph-name="dotlessi" unicode="&#x131;" horiz-adv-x="222" 
d="M155 523v-523h-88v523h88z" />
    <glyph glyph-name="Lslash" unicode="&#x141;" 
d="M-6 297v57l82 46v318h97v-262l118 67v-57l-118 -67v-313h364v-86h-461v343z" />
    <glyph glyph-name="lslash" unicode="&#x142;" horiz-adv-x="222" 
d="M-10 292v58l72 40v328h88v-279l82 46v-58l-82 -46v-381h-88v332z" />
    <glyph glyph-name="OE" unicode="&#x152;" horiz-adv-x="1000" 
d="M173.5 27.5q-66.5 46.5 -102 130.5t-35.5 196q0 106 34 193t103 138.5t170 51.5q121 0 178 -92h2v73h440v-86h-349v-220h333v-86h-333v-240h351v-86h-443v75h-2q-38 -55 -83 -74.5t-107 -19.5q-90 0 -156.5 46.5zM470 109.5q47 45.5 47 117.5v269q0 43 -21 79t-60.5 57.5
t-92.5 21.5q-101 0 -154 -79.5t-53 -235.5q0 -108 45 -191.5t162 -83.5q80 0 127 45.5z" />
    <glyph glyph-name="oe" unicode="&#x153;" horiz-adv-x="944" 
d="M466 86q-24 -47 -71 -73.5t-117 -26.5q-74 0 -129.5 36.5t-84.5 99t-29 140.5t29.5 141t84 99t125.5 36q64 0 116.5 -26t83.5 -80q36 56 85 81t118 25q108 0 166.5 -79.5t58.5 -225.5h-383q0 -84 39 -128t114 -44q34 0 64 14.5t49 38.5t22 50h88q-19 -81 -75 -130
t-154 -49q-131 0 -200 101zM391 118.5q39 56.5 39 142.5q0 87 -39 144t-114 57q-72 0 -111.5 -56t-39.5 -144q0 -87 39.5 -143.5t112.5 -56.5q74 0 113 56.5zM769 419.5q-37 39.5 -104 39.5q-38 0 -71.5 -21t-53.5 -56.5t-21 -78.5h292q-5 77 -42 116.5z" />
    <glyph glyph-name="Scaron" unicode="&#x160;" horiz-adv-x="667" 
d="M49 0zM123.5 44.5q-74.5 63.5 -74.5 187.5h91v-2q0 -78 53.5 -122t144.5 -44q76 0 132 27.5t56 94.5q0 42 -18.5 65.5t-54.5 37t-110 30.5l-121 28q-76 17 -112.5 61.5t-36.5 106.5q0 66 29.5 116t85 78t132.5 28q271 0 280 -229h-91q-3 69 -50.5 107.5t-127.5 38.5
q-78 0 -121 -32.5t-43 -93.5q0 -72 85 -91l201 -46q167 -38 167 -195q0 -106 -79.5 -160.5t-202.5 -54.5q-140 0 -214.5 63.5zM267 929l66 -93l66 93h80l-99 -141h-93l-99 141h79z" />
    <glyph glyph-name="scaron" unicode="&#x161;" horiz-adv-x="500" 
d="M32 0zM32 168h85q3 -57 38.5 -82t99.5 -25q55 0 88 22t33 60q0 25 -14.5 39t-33 20.5t-62.5 17.5l-91 23q-56 14 -91 42.5t-35 85.5q0 77 55 122t146 45q92 0 142.5 -45t54.5 -119h-85q0 43 -31 65.5t-90 22.5q-48 0 -77.5 -19t-29.5 -55q0 -27 17.5 -41t68.5 -27
l101 -25q76 -19 109.5 -51t33.5 -86q0 -51 -26 -90.5t-73.5 -61t-108.5 -21.5q-220 0 -224 183zM184 734l66 -93l66 93h80l-99 -141h-93l-99 141h79z" />
    <glyph glyph-name="Ydieresis" unicode="&#x178;" horiz-adv-x="667" 
d="M14 0zM14 718h113l206 -345l206 345h114l-271 -429v-289h-97v289zM298 901v-102h-91v102h91zM460 901v-102h-91v102h91z" />
    <glyph glyph-name="Zcaron" unicode="&#x17d;" horiz-adv-x="611" 
d="M23 0zM463 632h-407v86h532v-84l-442 -548h442v-86h-565v81zM264 929l66 -93l66 93h80l-99 -141h-93l-99 141h79z" />
    <glyph glyph-name="zcaron" unicode="&#x17e;" horiz-adv-x="500" 
d="M31 0zM346 450h-291v73h405v-72l-312 -378h321v-73h-438v69zM184 734l66 -93l66 93h80l-99 -141h-93l-99 141h79z" />
    <glyph glyph-name="florin" unicode="&#x192;" 
d="M15.5 -204.5q-12.5 2.5 -26.5 9.5l15 81q28 -14 50 -14q23 0 40 10t32.5 41.5t26.5 92.5l70 375h-109v70h123l27 120q15 69 58.5 112.5t99.5 43.5q40 0 79 -15l-15 -78q-4 2 -15.5 7t-22 7.5t-19.5 2.5q-30 0 -50.5 -24.5t-30.5 -72.5l-20 -103h114v-70h-127l-60 -326
q-27 -144 -76.5 -208t-128.5 -64q-22 0 -34.5 2.5z" />
    <glyph glyph-name="circumflex" unicode="&#x2c6;" horiz-adv-x="333" 
d="M213 734l99 -141h-80l-66 93l-66 -93h-79l99 141h93z" />
    <glyph glyph-name="caron" unicode="&#x2c7;" horiz-adv-x="333" 
d="M100 734l66 -93l66 93h80l-99 -141h-93l-99 141h79z" />
    <glyph glyph-name="ring" unicode="&#x2da;" horiz-adv-x="333" 
d="M101 598q-26 26 -26 66t26 66t66 26t66 -26t26 -66t-26 -66t-66 -26t-66 26zM204 627q15 15 15 37t-15 37t-37 15t-37 -15t-15 -37t15 -37t37 -15t37 15z" />
    <glyph glyph-name="tilde" unicode="&#x2dc;" horiz-adv-x="333" 
d="M30 686.5q27 26.5 72 26.5q18 0 36 -5.5t47 -16.5q38 -15 52 -15q21 0 33.5 11t16.5 35h50q-6 -47 -32 -78t-68 -31q-16 0 -31.5 4.5t-45.5 14.5q-26 9 -41 13.5t-30 4.5q-18 0 -28 -11.5t-17 -32.5h-48q7 54 34 80.5z" />
    <glyph glyph-name="uni0394" unicode="&#x394;" horiz-adv-x="678" 
d="M382 712l285 -712h-656l276 712h95zM333 613l-199 -530h406z" />
    <glyph glyph-name="uni03A9" unicode="&#x3a9;" horiz-adv-x="752" 
d="M236 77v62q-87 24 -138.5 98t-51.5 173q0 89 43 160t117.5 111t163.5 40q91 0 164.5 -40t116 -110.5t42.5 -158.5q0 -102 -51 -175.5t-139 -97.5v-62h190v-77h-264v185q80 16 125.5 76t45.5 145q0 66 -30.5 119t-83 83t-115.5 30q-65 0 -118 -31t-83 -84t-30 -118
q0 -85 43.5 -144t125.5 -76v-185h-263v77h190z" />
    <glyph glyph-name="uni03BC" unicode="&#x3bc;" horiz-adv-x="578" 
d="M156 523v-344q0 -53 31.5 -85t84.5 -32q72 0 101 47t29 128v286h88v-382q0 -33 6.5 -50t30.5 -17q16 0 32 3v-80q-33 -4 -57 -4q-46 0 -68 19t-29 67q-21 -46 -52 -69.5t-86 -23.5q-38 0 -66.5 17.5t-44.5 44.5v-255h-88v730h88z" />
    <glyph glyph-name="pi" unicode="&#x3c0;" horiz-adv-x="578" 
d="M401.5 18q-23.5 25 -23.5 88v287h-191v-393h-86v393h-70v81h511v-81h-78v-268q0 -33 7.5 -45.5t30.5 -12.5q22 0 43 10v-65q-21 -10 -38 -14.5t-36 -4.5q-46 0 -69.5 25z" />
    <glyph glyph-name="uni0E01" unicode="&#xe01;" horiz-adv-x="585" 
d="M83 312q20 32 53 47v3h-89v48q12 79 74.5 122.5t172.5 43.5q68 0 121 -25t82.5 -70t29.5 -102v-379h-94v372q0 56 -36 91.5t-104 35.5q-66 0 -103.5 -21.5t-50.5 -68.5v-4h86v-52q-34 -9 -51 -34.5t-17 -60.5v-258h-94v243q0 37 20 69z" />
    <glyph glyph-name="uni0E02" unicode="&#xe02;" horiz-adv-x="497" 
d="M106.5 31.5q-53.5 44.5 -53.5 128.5v78q0 44 18 75.5t51 67.5q24 27 35 44t11 37q0 30 -32 30h-82v74h100q49 0 74.5 -26t25.5 -69q0 -37 -15.5 -64.5t-44.5 -61.5q-24 -27 -35.5 -47t-11.5 -42v-98q0 -45 28 -69.5t69 -24.5q44 0 72.5 24.5t28.5 69.5v408h94v-406
q0 -83 -54.5 -128t-140.5 -45q-84 0 -137.5 44.5z" />
    <glyph glyph-name="uni0E03" unicode="&#xe03;" horiz-adv-x="497" 
d="M106.5 31.5q-53.5 44.5 -53.5 128.5v78q0 44 18 75.5t51 67.5q24 27 35 44t11 37q0 15 -8.5 22t-19.5 7q-23 0 -29 -20h-57v95h32q23 0 39 -14t21 -33h7l12 47h8q36 0 58.5 -26.5t22.5 -68.5q0 -37 -15.5 -64.5t-44.5 -61.5q-24 -27 -35.5 -47t-11.5 -42v-98
q0 -45 28 -69.5t69 -24.5q44 0 72.5 24.5t28.5 69.5v408h94v-406q0 -83 -54.5 -128t-140.5 -45q-84 0 -137.5 44.5z" />
    <glyph glyph-name="uni0E04" unicode="&#xe04;" horiz-adv-x="604" 
d="M88.5 469.5q30.5 48.5 86.5 77.5t127 29t127 -29t86.5 -77.5t30.5 -105.5v-364h-94v360q0 59 -39 99t-111 40t-111 -40.5t-39 -98.5v-133h3q31 75 115 75h57v-84h-59q-49 0 -82.5 -39t-33.5 -93v-86h-94v364q0 57 30.5 105.5z" />
    <glyph glyph-name="uni0E05" unicode="&#xe05;" horiz-adv-x="620" 
d="M97.5 526.5q39.5 48.5 103.5 48.5q39 0 66 -18.5t39 -48.5h7q12 29 42 48t69 19q64 0 101.5 -48t37.5 -130v-397h-94v403q0 41 -15 63.5t-45 22.5q-25 0 -43.5 -21.5t-20.5 -62.5h-71q-2 41 -18 62.5t-40 21.5q-30 0 -47 -23t-17 -63v-176h3q31 75 115 75h57v-84h-59
q-32 0 -58.5 -18t-42 -48.5t-15.5 -65.5v-86h-94v397q0 81 39.5 129.5z" />
    <glyph glyph-name="uni0E06" unicode="&#xe06;" horiz-adv-x="596" 
d="M231 10q-47 23 -76 69l-2 -2v-77h-94v261q0 41 15 68.5t44 60.5q21 23 30 38t9 34q0 15 -8.5 22t-19.5 7q-23 0 -29 -20h-58v95h33q23 0 39 -14t21 -33h6l13 47h8q36 0 58 -26.5t22 -68.5q0 -31 -12 -54t-35 -52q-21 -28 -31.5 -46.5t-10.5 -43.5v-46q0 -38 24.5 -76.5
t64 -63.5t83.5 -25q56 0 87.5 33.5t31.5 104.5v364h94v-380q0 -69 -28 -113.5t-73 -65t-97 -20.5q-62 0 -109 23z" />
    <glyph glyph-name="uni0E07" unicode="&#xe07;" horiz-adv-x="559" 
d="M101 566l182 -488h14q24 15 56 54t55.5 94t23.5 115q0 71 -31 113t-85 42q-19 0 -40 -4v74q21 6 53 6q93 0 145 -62t52 -174q0 -68 -31 -137.5t-75.5 -122.5t-83.5 -76h-118l-216 566h99z" />
    <glyph glyph-name="uni0E08" unicode="&#xe08;" horiz-adv-x="531" 
d="M99 209q-8 5 -22 5h-25v68h63q32 0 50 -14t30 -40l73 -150h12q29 14 59.5 51t50.5 85t20 95q0 94 -43 142t-115 48q-129 0 -147 -104h-83q10 88 70.5 134.5t162.5 46.5q79 0 135 -32.5t85 -90t29 -132.5q0 -73 -28.5 -137t-73.5 -111t-97 -73h-94l-98 192q-6 12 -14 17z
" />
    <glyph glyph-name="uni0E09" unicode="&#xe09;" horiz-adv-x="613" 
d="M197.5 5q-43.5 18 -71 56t-27.5 95v48q0 25 -24 25h-12v67h67q31 0 47 -19.5t16 -48.5v-61q0 -103 107 -103q47 0 84 28.5t57 73t20 90.5v91q0 77 -44 114.5t-117 37.5q-69 0 -108.5 -30.5t-46.5 -73.5h-82q10 82 73.5 131.5t169.5 49.5q76 0 132.5 -28t86.5 -79.5
t30 -119.5v-349h-93v89l-2 2q-31 -51 -71 -77.5t-100 -26.5q-48 0 -91.5 18z" />
    <glyph glyph-name="uni0E0A" unicode="&#xe0a;" horiz-adv-x="548" 
d="M157.5 10q-50.5 23 -77.5 63.5t-27 92.5v72q0 42 17 73t49 68q23 26 34.5 44.5t11.5 38.5q0 15 -9.5 22.5t-22.5 7.5h-79v74h96q49 0 74.5 -25.5t25.5 -69.5q0 -37 -15 -64.5t-43 -61.5q-23 -29 -34 -48t-11 -41v-84q0 -44 36 -76t87 -32q74 0 106.5 40t32.5 116
q0 63 -21.5 97.5t-64.5 34.5h-27v79h31q33 0 55 25.5t22 61.5v48h94v-48q0 -97 -94 -121v-4q54 -19 78 -63t24 -111q0 -114 -59.5 -173t-172.5 -59q-66 0 -116.5 23z" />
    <glyph glyph-name="uni0E0B" unicode="&#xe0b;" horiz-adv-x="548" 
d="M157.5 10q-50.5 23 -77.5 63.5t-27 92.5v72q0 44 18 75.5t51 67.5q24 27 35 44t11 37q0 15 -8.5 22t-19.5 7q-23 0 -29 -20h-57v95h32q23 0 39 -14t21 -33h7l12 47h8q36 0 58.5 -26.5t22.5 -68.5q0 -37 -15.5 -64.5t-44.5 -61.5q-24 -27 -35.5 -47t-11.5 -42v-84
q0 -44 36 -76t87 -32q74 0 106.5 40t32.5 116q0 63 -21.5 97.5t-64.5 34.5h-27v79h31q33 0 55 25.5t22 61.5v48h94v-48q0 -97 -94 -121v-4q54 -19 78 -63t24 -111q0 -114 -59.5 -173t-172.5 -59q-66 0 -116.5 23z" />
    <glyph glyph-name="uni0E0C" unicode="&#xe0c;" horiz-adv-x="927" 
d="M581.5 8.5q-37.5 21.5 -66.5 70.5l-2 -2v-77h-94v372q0 57 -32.5 92t-100.5 35q-65 0 -99 -21t-48 -69v-4h86v-52q-34 -9 -51 -34.5t-17 -60.5v-137q0 -22 13.5 -35.5t35.5 -13.5h35v-72h-84q-39 0 -66.5 28t-27.5 71v144q0 37 20 69t53 47v3h-89v48q12 79 71.5 122.5
t168.5 43.5q68 0 119.5 -25t79 -70t27.5 -102v-135q0 -43 18 -84.5t52.5 -68.5t82.5 -27q109 0 109 138v364h94v-380q0 -69 -27 -113.5t-70 -65t-91 -20.5q-62 0 -99.5 21.5z" />
    <glyph glyph-name="uni0E0D" unicode="&#xe0d;" horiz-adv-x="927" 
d="M419 14h89q18 -74 119 -74q81 0 114.5 39t33.5 121v55h-2q-23 -48 -66 -76.5t-102 -28.5q-77 0 -131.5 47t-54.5 147v128q0 57 -32.5 92t-100.5 35q-65 0 -99 -21t-48 -69v-4h86v-52q-34 -9 -51 -34.5t-17 -60.5v-137q0 -22 13.5 -35.5t35.5 -13.5h35v-72h-84
q-39 0 -66.5 28t-27.5 71v144q0 37 20 69t53 47v3h-89v48q12 79 71.5 122.5t168.5 43.5q68 0 119.5 -25t79 -70t27.5 -102v-118q0 -72 27 -103t80 -31q46 0 81.5 29.5t54.5 76t19 97.5v236h94v-463q0 -95 -54.5 -165.5t-187.5 -70.5q-185 0 -208 147z" />
    <glyph glyph-name="uni0E0E" unicode="&#xe0e;" horiz-adv-x="600" 
d="M325 -195q-26 14 -44 40l-9 14l-76 -61h-96v75h70l115 86l38 -58q25 -35 61 -35q64 0 64 82v423q0 56 -37 92t-106 36q-67 0 -105.5 -21.5t-51.5 -68.5v-4h100v-52q-34 -9 -51 -34.5t-17 -60.5v-158q0 -46 -23.5 -73t-63.5 -27h-61v72h16q19 0 28.5 11.5t9.5 30.5v129
q0 37 20 69t54 47v3h-103v48q11 78 75 122t174 44q69 0 122.5 -25t83.5 -70t30 -102v-440q0 -69 -42 -108.5t-107 -39.5q-42 0 -68 14z" />
    <glyph glyph-name="uni0E0F" unicode="&#xe0f;" horiz-adv-x="600" 
d="M328.5 -195.5q-23.5 13.5 -42.5 40.5l-64 -48l-26 36l-49 -35h-86v75h64l89 70l31 -43l57 41l26 -40q11 -17 24 -26t32 -9q64 0 64 82v423q0 56 -37 92t-106 36q-67 0 -105.5 -21.5t-51.5 -68.5v-4h100v-52q-34 -9 -51 -34.5t-17 -60.5v-158q0 -46 -23.5 -73t-63.5 -27
h-61v72h16q19 0 28.5 11.5t9.5 30.5v129q0 37 20 69t54 47v3h-103v48q11 78 75 122t174 44q69 0 122.5 -25t83.5 -70t30 -102v-440q0 -69 -42 -108.5t-107 -39.5q-41 0 -64.5 13.5z" />
    <glyph glyph-name="uni0E10" unicode="&#xe10;" horiz-adv-x="546" 
d="M109 209q-8 5 -22 5h-25v67h63q32 0 50 -14t30 -39l73 -150h12q29 14 59.5 51t50.5 85t20 95q0 94 -42.5 142t-114.5 48q-130 0 -148 -104h-83q10 88 70.5 134.5t162.5 46.5q76 0 132 -34l45 56h102v-7l-87 -100q57 -69 57 -170q0 -73 -28.5 -137t-73.5 -111t-97 -73h-94
l-98 192q-6 12 -14 17zM277 -195q-26 14 -45 40l-9 14l-76 -61h-85v75h59l115 86l39 -58q12 -17 25 -26t32 -9q28 0 44 15.5t16 35.5v12h87v-19q0 -52 -36.5 -85.5t-98.5 -33.5q-41 0 -67 14z" />
    <glyph glyph-name="uni0E11" unicode="&#xe11;" horiz-adv-x="606" 
d="M81 321.5q15 31.5 42 68.5q18 24 26 39.5t8 32.5q0 15 -8.5 22t-19.5 7q-23 0 -29 -20h-58v95h33q23 0 39 -14t21 -33h6l13 47h8q33 0 53 -20.5t24 -52.5h2q20 36 59 59.5t88 23.5q73 0 116.5 -50t43.5 -134v-392h-94v358q0 69 -21 103t-77 34q-46 0 -91.5 -39.5
t-75 -98.5t-29.5 -110v-247h-94v246q0 44 15 75.5z" />
    <glyph glyph-name="uni0E12" unicode="&#xe12;" horiz-adv-x="985" 
d="M148.5 23q-51.5 36 -84 104t-32.5 161q0 87 23.5 152.5t66 100.5t97.5 35q33 0 59.5 -18t38.5 -50h4q11 32 36 49.5t64 17.5q41 0 73.5 -23t50 -61.5t17.5 -85.5v-161q0 -42 20.5 -83.5t57.5 -69t84 -27.5q109 0 109 136v366h94v-382q0 -69 -27 -113t-69.5 -64t-91.5 -20
q-64 0 -105 22t-69 70l-2 -2v-77h-95v403q0 41 -16 63.5t-46 22.5q-47 0 -53 -84h-71q-2 45 -15.5 65.5t-41.5 20.5q-49 0 -74 -54t-25 -149q0 -67 19.5 -118t54.5 -79t79 -28q36 0 67 11v-73q-45 -14 -90 -14q-56 0 -107.5 36z" />
    <glyph glyph-name="uni0E13" unicode="&#xe13;" horiz-adv-x="927" 
d="M473 31.5q-54 44.5 -54 144.5v196q0 57 -32.5 92t-100.5 35q-65 0 -99 -21t-48 -69v-4h86v-52q-34 -9 -51 -34.5t-17 -60.5v-137q0 -22 13.5 -35.5t35.5 -13.5h35v-72h-84q-39 0 -66.5 28t-27.5 71v144q0 37 20 69t53 47v3h-89v48q12 79 71.5 122.5t168.5 43.5
q68 0 119.5 -25t79 -70t27.5 -102v-187q0 -71 27 -99.5t80 -28.5q46 0 81.5 29.5t54.5 76t19 96.5v300h94v-566h-94v88l-2 2q-47 -103 -168 -103q-78 0 -132 44.5z" />
    <glyph glyph-name="uni0E14" unicode="&#xe14;" horiz-adv-x="605" 
d="M140 23q-51 36 -82 103t-31 156q0 83 33 149.5t96.5 105.5t150.5 39q69 0 124 -27.5t85.5 -73.5t30.5 -99v-376h-94v358q0 59 -38.5 97t-107.5 38q-56 0 -98.5 -27t-65 -74t-22.5 -104q0 -69 19.5 -120t54 -78t79.5 -27q36 0 67 11v-73q-45 -14 -91 -14q-59 0 -110 36z
" />
    <glyph glyph-name="uni0E15" unicode="&#xe15;" horiz-adv-x="634" 
d="M140 23q-51 36 -82 103t-31 156q0 88 24 154.5t68 103t101 36.5q33 0 59.5 -17.5t42.5 -50.5h4q12 30 40 49t66 19q41 0 74 -23t51.5 -62.5t18.5 -85.5v-405h-94v403q0 41 -17 64.5t-48 23.5q-24 0 -40 -22.5t-18 -63.5h-72q-4 86 -65 86q-49 0 -75 -54.5t-26 -148.5
q0 -69 19.5 -120t54 -78t79.5 -27q36 0 67 11v-73q-45 -14 -91 -14q-59 0 -110 36z" />
    <glyph glyph-name="uni0E16" unicode="&#xe16;" horiz-adv-x="591" 
d="M90.5 28q-27.5 28 -27.5 71v144q0 37 20 69t53 47v3h-89v48q12 78 76 122t174 44q69 0 122.5 -25t83.5 -70t30 -102v-379h-94v372q0 56 -37 91.5t-106 35.5q-67 0 -105.5 -21.5t-51.5 -68.5v-4h86v-52q-34 -9 -51 -34.5t-17 -60.5v-137q0 -22 13.5 -35.5t35.5 -13.5h35
v-72h-84q-39 0 -66.5 28z" />
    <glyph glyph-name="uni0E17" unicode="&#xe17;" horiz-adv-x="598" 
d="M152 566v-94h3q70 104 181 104q53 0 99.5 -20t75.5 -61.5t29 -102.5v-392h-94v358q0 67 -31 102.5t-90 35.5q-44 0 -83.5 -23.5t-64.5 -67.5t-25 -102v-303h-94v566h94z" />
    <glyph glyph-name="uni0E18" unicode="&#xe18;" horiz-adv-x="573" 
d="M120 30.5q-63 43.5 -63 124.5v60h94v-55q0 -45 38.5 -70.5t98.5 -25.5q64 0 101 22t37 65v40q0 28 -21 46t-68 28l-179 40q-50 11 -77.5 48t-27.5 80q0 34 17.5 64.5t51.5 49.5t80 19h303v-88h-301q-27 0 -41.5 -13t-14.5 -33q0 -21 14.5 -32.5t47.5 -19.5l203 -50
q52 -12 79.5 -51.5t27.5 -80.5v-38q0 -84 -58 -128.5t-173 -44.5q-106 0 -169 43.5z" />
    <glyph glyph-name="uni0E19" unicode="&#xe19;" horiz-adv-x="590" 
d="M160.5 8q-46.5 21 -77 66.5t-30.5 113.5v378h94v-364q0 -70 34.5 -104t89.5 -34q47 0 85.5 29.5t60 74.5t21.5 87v311h94v-566h-94v88l-2 2q-60 -103 -180 -103q-49 0 -95.5 21z" />
    <glyph glyph-name="uni0E1A" unicode="&#xe1a;" horiz-adv-x="596" 
d="M184 9.5q-55 22.5 -90.5 70.5t-35.5 120v366h94v-368q0 -63 41.5 -98.5t104.5 -35.5t104.5 35.5t41.5 98.5v368h94v-366q0 -72 -35.5 -120t-90.5 -70.5t-114 -22.5t-114 22.5z" />
    <glyph glyph-name="uni0E1B" unicode="&#xe1b;" horiz-adv-x="596" 
d="M184 9.5q-55 22.5 -90.5 70.5t-35.5 120v366h94v-368q0 -63 41.5 -98.5t104.5 -35.5t104.5 35.5t41.5 98.5v558h94v-556q0 -72 -35.5 -120t-90.5 -70.5t-114 -22.5t-114 22.5z" />
    <glyph glyph-name="uni0E1C" unicode="&#xe1c;" horiz-adv-x="746" 
d="M102.5 34.5q-44.5 47.5 -44.5 126.5v405h159v-75h-65v-350q0 -30 22 -53.5t56 -23.5q39 0 67 24t28 69v409h96v-409q0 -45 28 -69t67 -24q34 0 56 23.5t22 53.5v425h94v-405q0 -79 -44.5 -126.5t-126.5 -47.5q-54 0 -89 22.5t-53 73.5h-4q-18 -51 -53 -73.5t-89 -22.5
q-82 0 -126.5 47.5z" />
    <glyph glyph-name="uni0E1D" unicode="&#xe1d;" horiz-adv-x="746" 
d="M102.5 34.5q-44.5 47.5 -44.5 126.5v405h159v-75h-65v-350q0 -30 22 -53.5t56 -23.5q39 0 67 24t28 69v409h96v-409q0 -45 28 -69t67 -24q34 0 56 23.5t22 53.5v615h94v-595q0 -79 -44.5 -126.5t-126.5 -47.5q-54 0 -89 22.5t-53 73.5h-4q-18 -51 -53 -73.5t-89 -22.5
q-82 0 -126.5 47.5z" />
    <glyph glyph-name="uni0E1E" unicode="&#xe1e;" horiz-adv-x="726" 
d="M109 566l91 -450h2l112 450h99l111 -450h2l99 450h89l-133 -566h-105l-114 443h-2l-111 -443h-105l-132 566h97z" />
    <glyph glyph-name="uni0E1F" unicode="&#xe1f;" horiz-adv-x="717" 
d="M109 566l83 -444h2l109 444h102l113 -444h2l103 634h92l-139 -756h-108l-118 443h-2l-107 -443h-105l-124 566h97z" />
    <glyph glyph-name="uni0E20" unicode="&#xe20;" horiz-adv-x="600" 
d="M48 72q19 0 28.5 11.5t9.5 30.5v129q0 37 20 69t54 47v3h-103v48q11 78 75 122t174 44q69 0 122.5 -25t83.5 -70t30 -102v-379h-94v371q0 56 -37 92t-106 36q-67 0 -105.5 -21.5t-51.5 -68.5v-4h100v-52q-34 -9 -51 -34.5t-17 -60.5v-158q0 -46 -23.5 -73t-63.5 -27h-61
v72h16z" />
    <glyph glyph-name="uni0E21" unicode="&#xe21;" horiz-adv-x="595" 
d="M155 79l-3 -2v-77h-94v566h94v-337q0 -38 24.5 -76.5t64 -63.5t83.5 -25q119 0 119 137v365h94v-381q0 -69 -28 -113.5t-73 -64.5t-97 -20q-125 0 -184 92z" />
    <glyph glyph-name="uni0E22" unicode="&#xe22;" horiz-adv-x="570" 
d="M119.5 20q-36.5 20 -59.5 57t-23 86t30.5 87t79.5 48v3q-42 10 -68.5 46t-26.5 84q0 58 40 96.5t105 38.5h86v-81h-67q-34 0 -54.5 -19t-20.5 -55q0 -32 22.5 -53t55.5 -21h95v-77h-82q-43 0 -70 -25t-27 -60q0 -46 28 -72t67 -26h188v489h94v-566h-317q-39 0 -75.5 20z
" />
    <glyph glyph-name="uni0E23" unicode="&#xe23;" horiz-adv-x="509" 
d="M88.5 38q-50.5 51 -55.5 116h86q5 -42 37 -66t105 -24q55 0 90.5 20t35.5 61q0 29 -18.5 46.5t-72.5 35.5l-125 42q-58 19 -93 57.5t-35 94.5q0 78 59.5 116.5t151.5 38.5q86 0 133.5 -31.5t64 -68.5t16.5 -61h-86q-1 33 -30 58.5t-104 25.5q-48 0 -82.5 -17.5
t-34.5 -59.5q0 -33 22.5 -51.5t76.5 -37.5l113 -38q70 -23 102 -55.5t32 -84.5q0 -83 -61 -125.5t-155 -42.5q-122 0 -172.5 51z" />
    <glyph glyph-name="uni0E24" unicode="&#xe24;" horiz-adv-x="591" 
d="M402 463.5q-37 35.5 -106 35.5q-67 0 -105.5 -21.5t-51.5 -68.5v-4h86v-52q-34 -9 -51 -34.5t-17 -60.5v-137q0 -22 13.5 -35.5t35.5 -13.5h35v-72h-84q-39 0 -66.5 28t-27.5 71v144q0 37 20 69t53 47v3h-89v48q12 78 76 122t174 44q69 0 122.5 -25t83.5 -70t30 -102
v-579h-94v572q0 56 -37 91.5z" />
    <glyph glyph-name="uni0E25" unicode="&#xe25;" horiz-adv-x="567" 
d="M81 29q-49 42 -49 113q0 63 38.5 108.5t132.5 57.5l159 21q25 3 41 22.5t16 52.5q0 49 -33 72t-99 23q-74 0 -106 -27.5t-38 -76.5h-82q4 90 65.5 135.5t163.5 45.5q96 0 157.5 -41.5t61.5 -117.5v-417h-94v273q-21 -17 -166 -36q-36 -5 -60 -11.5t-43.5 -26t-19.5 -55.5
q0 -39 26.5 -60.5t78.5 -21.5q31 0 68 11v-72q-51 -14 -91 -14q-78 0 -127 42z" />
    <glyph glyph-name="uni0E26" unicode="&#xe26;" horiz-adv-x="600" 
d="M411 463q-37 36 -106 36q-67 0 -105.5 -21.5t-51.5 -68.5v-4h100v-52q-34 -9 -51 -34.5t-17 -60.5v-158q0 -46 -23.5 -73t-63.5 -27h-61v72h16q19 0 28.5 11.5t9.5 30.5v129q0 37 20 69t54 47v3h-103v48q11 78 75 122t174 44q69 0 122.5 -25t83.5 -70t30 -102v-579h-94
v571q0 56 -37 92z" />
    <glyph glyph-name="uni0E27" unicode="&#xe27;" horiz-adv-x="536" 
d="M99 32.5q-57 45.5 -70 119.5h89q11 -43 41 -65.5t90 -22.5q73 0 115.5 62t42.5 165q0 96 -44.5 152t-117.5 56q-60 0 -93.5 -29t-41.5 -75h-83q9 83 66 132t157 49q77 0 134.5 -36.5t88 -100t30.5 -144.5q0 -139 -65 -223.5t-188 -84.5q-94 0 -151 45.5z" />
    <glyph glyph-name="uni0E28" unicode="&#xe28;" horiz-adv-x="604" 
d="M88.5 469.5q30.5 48.5 86.5 77.5t127 29q81 0 143 -43l55 65h102v-7l-98 -110q42 -56 42 -117v-364h-94v360q0 59 -39 99t-111 40t-111 -40.5t-39 -98.5v-133h3q31 75 115 75h57v-84h-59q-49 0 -82.5 -39t-33.5 -93v-86h-94v364q0 57 30.5 105.5z" />
    <glyph glyph-name="uni0E29" unicode="&#xe29;" horiz-adv-x="600" 
d="M185 9q-55 22 -91 69t-36 119v369h94v-375q0 -63 42 -95t106 -32t106 32t42 95v91h-146v80h146v204h94v-204h54v-80h-54v-85q0 -72 -36 -119t-91 -69t-115 -22t-115 22z" />
    <glyph glyph-name="uni0E2A" unicode="&#xe2a;" horiz-adv-x="567" 
d="M81 29q-49 42 -49 113q0 63 38.5 108.5t132.5 57.5l159 21q25 3 41 22.5t16 52.5q0 49 -33 72t-99 23q-74 0 -106 -27.5t-38 -76.5h-82q4 90 65.5 135.5t163.5 45.5q70 0 129 -31l44 53h102v-7l-84 -94q28 -38 28 -80v-417h-94v273q-21 -17 -166 -36q-36 -5 -60 -11.5
t-43.5 -26t-19.5 -55.5q0 -39 26.5 -60.5t78.5 -21.5q31 0 68 11v-72q-51 -14 -91 -14q-78 0 -127 42z" />
    <glyph glyph-name="uni0E2B" unicode="&#xe2b;" horiz-adv-x="580" 
d="M152 566v-177h137q69 0 104 36.5t35 100.5v40h94v-39q0 -66 -27.5 -109t-91.5 -58v-2q59 -7 89 -45t30 -101v-212h-94v191q0 63 -29.5 90.5t-97.5 27.5h-149v-309h-94v566h94z" />
    <glyph glyph-name="uni0E2C" unicode="&#xe2c;" horiz-adv-x="746" 
d="M102.5 34.5q-44.5 47.5 -44.5 126.5v405h94v-425q0 -30 22 -53.5t56 -23.5q39 0 67 24t28 69v409h96v-409q0 -45 28 -69t67 -24q34 0 56 23.5t22 53.5v239q0 38 -12.5 54t-40.5 16h-31v72h21q32 0 47.5 22.5t15.5 60.5v56h94v-57q0 -52 -17 -77t-53 -35v-4
q35 -9 52.5 -38t17.5 -70v-219q0 -79 -44.5 -126.5t-126.5 -47.5q-54 0 -89 22.5t-53 73.5h-4q-18 -51 -53 -73.5t-89 -22.5q-82 0 -126.5 47.5z" />
    <glyph glyph-name="uni0E2D" unicode="&#xe2d;" horiz-adv-x="590" 
d="M152 19.5q-58 32.5 -89 92t-31 139.5q0 27 5 52h209v-75h-116v-17q0 -71 44 -109t121 -38q74 0 118.5 59.5t44.5 170.5q0 96 -48 150.5t-132 54.5q-62 0 -103.5 -30.5t-51.5 -73.5h-83q8 53 40.5 94t85.5 64t120 23q81 0 141.5 -35.5t93.5 -100t33 -149.5
q0 -152 -72.5 -228t-192.5 -76q-79 0 -137 32.5z" />
    <glyph glyph-name="uni0E2E" unicode="&#xe2e;" horiz-adv-x="590" 
d="M152 19.5q-58 32.5 -89 92t-31 139.5q0 27 5 52h209v-75h-116v-17q0 -71 44 -109t121 -38q74 0 118.5 59.5t44.5 170.5q0 96 -48 150.5t-132 54.5q-62 0 -103.5 -30.5t-51.5 -73.5h-83q8 53 40.5 94t85.5 64t120 23q81 0 145 -42l55 64h102v-7l-97 -109
q30 -38 46.5 -86.5t16.5 -104.5q0 -152 -72.5 -228t-192.5 -76q-79 0 -137 32.5z" />
    <glyph glyph-name="uni0E2F" unicode="&#xe2f;" horiz-adv-x="621" 
d="M342 303q-44 -26 -105 -26q-84 0 -134 57.5t-50 170.5v61h93v-34q0 -93 29 -134t84 -41q67 0 107 50.5t40 127.5v31h94v-566h-94v368q-20 -39 -64 -65z" />
    <glyph glyph-name="uni0E30" unicode="&#xe30;" horiz-adv-x="305" 
d="M119 516v-46h156v-16l-14 -60h-231v122h89zM119 205v-46h156v-16l-14 -60h-231v122h89z" />
    <glyph glyph-name="uni0E31" unicode="&#xe31;" horiz-adv-x="0" 
d="M-283.5 664q-30.5 28 -30.5 74v40h91v-28q0 -24 13 -33t45 -9h258v-20l-24 -52h-267q-55 0 -85.5 28z" />
    <glyph glyph-name="uni0E32" unicode="&#xe32;" horiz-adv-x="491" 
d="M303.5 477q-35.5 22 -82.5 22q-74 0 -99.5 -24t-28.5 -60h-86q3 54 46 107.5t167 53.5q90 0 151.5 -41.5t61.5 -126.5v-408h-94v407q0 48 -35.5 70z" />
    <glyph glyph-name="uni0E33" unicode="&#xe33;" horiz-adv-x="491" 
d="M-214.5 628.5q-29.5 25.5 -29.5 66.5q0 39 30 65t77 26q48 0 78.5 -26t30.5 -65q0 -41 -30 -66.5t-79 -25.5q-48 0 -77.5 25.5zM-104.5 663q12.5 14 12.5 32q0 16 -12.5 28.5t-32.5 12.5q-19 0 -32 -12.5t-13 -28.5q0 -18 13 -32t32 -14q20 0 32.5 14zM303.5 477
q-35.5 22 -82.5 22q-74 0 -99.5 -24t-28.5 -60h-86q3 54 46 107.5t167 53.5q90 0 151.5 -41.5t61.5 -126.5v-408h-94v407q0 48 -35.5 70z" />
    <glyph glyph-name="uni0E34" unicode="&#xe34;" horiz-adv-x="0" 
d="M-483 708h425v-72h-449v20z" />
    <glyph glyph-name="uni0E35" unicode="&#xe35;" horiz-adv-x="0" 
d="M-483 708h338v70h87v-142h-449v20z" />
    <glyph glyph-name="uni0E36" unicode="&#xe36;" horiz-adv-x="0" 
d="M-488 708h260q0 36 25 61.5t66 25.5q42 0 67 -22.5t25 -57.5q0 -34 -25 -56.5t-67 -22.5h-375v20zM-111 689.5q10 10.5 10 24.5q0 16 -10 26t-26 10q-18 0 -28 -10t-10 -26q0 -14 10 -24.5t28 -10.5q16 0 26 10.5z" />
    <glyph glyph-name="uni0E37" unicode="&#xe37;" horiz-adv-x="0" 
d="M-488 708h224v70h82v-70h44v70h80v-142h-454v20z" />
    <glyph glyph-name="uni0E38" unicode="&#xe38;" horiz-adv-x="0" 
d="M-189 -127v63h131v-177l-61 -22h-22v136h-48z" />
    <glyph glyph-name="uni0E39" unicode="&#xe39;" horiz-adv-x="0" 
d="M-285.5 -232q-31.5 29 -31.5 78v27h-48v63h130v-82q0 -28 10.5 -41t34.5 -13t35 13t11 41v82h86v-89q0 -49 -33 -78.5t-101 -29.5q-62 0 -93.5 29z" />
    <glyph glyph-name="uni0E3A" unicode="&#xe3a;" horiz-adv-x="0" 
d="M-148 -172q-19 19 -19 45t19 44.5t45 18.5q25 0 44 -19t19 -44t-19 -44.5t-44 -19.5q-26 0 -45 19z" />
    <glyph glyph-name="uni0E3F" unicode="&#xe3f;" horiz-adv-x="562" 
d="M43 0v696h200v87h48v-87h39q88 0 136 -50t48 -126q0 -42 -19 -81.5t-68 -63.5q32 -13 56 -29.5t43 -51t19 -89.5q0 -57 -25.5 -103.5t-75.5 -74t-120 -27.5h-33v-117h-48v117h-200zM243 616h-112v-215h112v215zM392 426.5q34 25.5 34 87.5q0 51 -31.5 76.5t-103.5 25.5
v-215q67 0 101 25.5zM243 325h-112v-244h112v244zM422.5 114.5q35.5 33.5 35.5 92.5q0 118 -153 118h-14v-244h29q67 0 102.5 33.5z" />
    <glyph glyph-name="uni0E40" unicode="&#xe40;" horiz-adv-x="251" 
d="M78.5 21q-20.5 21 -20.5 49v496h94v-462q0 -16 8 -22.5t24 -6.5h24v-75h-81q-28 0 -48.5 21z" />
    <glyph glyph-name="uni0E41" unicode="&#xe41;" horiz-adv-x="478" 
d="M78.5 21q-20.5 21 -20.5 49v496h94v-462q0 -16 8 -22.5t24 -6.5h24v-75h-81q-28 0 -48.5 21zM305.5 21q-20.5 21 -20.5 49v496h94v-462q0 -16 7.5 -22.5t23.5 -6.5h24v-75h-80q-28 0 -48.5 21z" />
    <glyph glyph-name="uni0E42" unicode="&#xe42;" horiz-adv-x="278" 
d="M106 21q-21 21 -21 49v580q0 70 -37 125.5t-100 72.5v16q0 28 21.5 45.5t51.5 17.5h323v-75h-285v-3q32 -8 59.5 -38.5t44 -74.5t16.5 -91v-541q0 -16 7.5 -22.5t23.5 -6.5h24v-75h-79q-28 0 -49 21z" />
    <glyph glyph-name="uni0E43" unicode="&#xe43;" horiz-adv-x="285" 
d="M113 21q-21 21 -21 49v529q0 42 19.5 71.5t55.5 64.5q24 23 35.5 38.5t11.5 32.5q0 32 -19.5 45.5t-70.5 13.5q-53 0 -77 -19.5t-29 -57.5h-87q5 73 54 111t139 38q88 0 135 -35.5t47 -89.5q0 -34 -15 -56.5t-47 -54.5q-28 -25 -43 -47t-15 -51v-499q0 -16 7.5 -22.5
t23.5 -6.5h24v-75h-79q-28 0 -49 21z" />
    <glyph glyph-name="uni0E44" unicode="&#xe44;" horiz-adv-x="289" 
d="M117.5 21q-21.5 21 -21.5 49v567q0 70 37 129t91 83v3h-278v18l22 57h367v-75q-65 -17 -105 -73t-40 -129v-546q0 -16 7.5 -22.5t23.5 -6.5h24v-75h-78q-28 0 -49.5 21z" />
    <glyph glyph-name="uni0E45" unicode="&#xe45;" horiz-adv-x="491" 
d="M303.5 478q-35.5 22 -82.5 22q-74 0 -99.5 -24.5t-28.5 -60.5h-86q3 54 46 107.5t167 53.5q90 0 151.5 -41.5t61.5 -126.5v-608h-94v607q0 49 -35.5 71z" />
    <glyph glyph-name="uni0E46" unicode="&#xe46;" horiz-adv-x="589" 
d="M403.5 470q-12.5 23 -38.5 23q-31 0 -45 -21t-14 -53h-66q0 33 -13 53.5t-43 20.5q-23 0 -39 -22.5t-16 -58.5q0 -32 18 -60t52 -28q9 0 20.5 2t17.5 6v-70q-6 -4 -20 -7.5t-25 -3.5q-44 0 -78.5 23t-53 60t-18.5 78q0 76 36.5 120t99.5 44q31 0 56.5 -19t36.5 -52h5
q11 34 37 52.5t62 18.5q68 0 101.5 -47.5t33.5 -123.5v-606h-94v608q0 40 -12.5 63z" />
    <glyph glyph-name="uni0E47" unicode="&#xe47;" horiz-adv-x="0" 
d="M-377.5 663.5q-26.5 30.5 -26.5 67.5q0 54 36 84.5t100 30.5h195v-63h-196q-25 0 -39 -12t-14 -34q0 -16 10.5 -26t26.5 -10q18 0 28 9.5t10 28.5h48q0 -38 31 -38h25v46h70v-111h-90q-19 0 -35.5 14t-19.5 31h-3q-18 -48 -84 -48q-46 0 -72.5 30.5z" />
    <glyph glyph-name="uni0E48" unicode="&#xe48;" horiz-adv-x="0" 
d="M-58 778v-142h-86v142h86z" />
    <glyph glyph-name="uni0E49" unicode="&#xe49;" horiz-adv-x="0" 
d="M-296.5 708.5q-5.5 6.5 -20.5 6.5h-35v72h86q23 0 38.5 -14t15.5 -39v-26h265v-18l-24 -54h-320v55q0 11 -5.5 17.5z" />
    <glyph glyph-name="uni0E4A" unicode="&#xe4a;" horiz-adv-x="0" 
d="M-418 749q27 28 71 28q34 0 54.5 -17t27.5 -43h2q5 27 28 43.5t55 16.5q31 0 51 -20.5t21 -48.5h131v-18l-24 -54h-166v34q0 36 -31 36q-19 0 -28 -14.5t-9 -37.5h-58q0 23 -8.5 37t-26.5 14q-14 0 -22.5 -12t-8.5 -38v-19h-86v27q0 58 27 86z" />
    <glyph glyph-name="uni0E4B" unicode="&#xe4b;" horiz-adv-x="0" 
d="M-239 697v62h80v60h81v-60h81v-62h-81v-61h-81v61h-80z" />
    <glyph glyph-name="uni0E4C" unicode="&#xe4c;" horiz-adv-x="0" 
d="M-214 742q32 34 94 34h95l16 -58v-15h-100q-24 0 -38.5 -15.5t-14.5 -38.5v-13h-84v15q0 57 32 91z" />
    <glyph glyph-name="uni0E4D" unicode="&#xe4d;" horiz-adv-x="0" 
d="M-174.5 628.5q-29.5 25.5 -29.5 66.5q0 39 30 65t77 26q48 0 78.5 -26t30.5 -65q0 -41 -30 -66.5t-79 -25.5q-48 0 -77.5 25.5zM-65 663q13 14 13 32q0 16 -12.5 28.5t-32.5 12.5q-19 0 -32 -12.5t-13 -28.5q0 -18 13 -32t32 -14t32 14z" />
    <glyph glyph-name="uni0E4E" unicode="&#xe4e;" horiz-adv-x="0" 
d="M-268.5 650q-34.5 22 -34.5 68q0 37 22 62t66 25h32q-11 6 -17 18t-6 23q0 22 14 37.5t41 15.5h109l21 -39v-15h-94q-10 0 -15 -8t-5 -18q0 -11 9.5 -21t20.5 -12v-32h-84q-21 0 -30.5 -9.5t-9.5 -24.5q0 -23 16 -32.5t40 -9.5q19 0 32 6h8v-48q-31 -8 -52 -8
q-49 0 -83.5 22z" />
    <glyph glyph-name="uni0E4F" unicode="&#xe4f;" horiz-adv-x="624" 
d="M199 45.5q-52 30.5 -82.5 82.5t-30.5 113q0 62 30.5 114t82.5 82.5t113 30.5t113 -30.5t82.5 -83t30.5 -113.5t-30.5 -113t-82.5 -82.5t-113 -30.5t-113 30.5zM402 87q41 24 65.5 64.5t24.5 89.5t-24.5 90t-65.5 65.5t-90 24.5t-90 -24.5t-65 -65.5t-24 -90t24 -89.5
t65 -64.5t90 -24t90 24zM225 157.5q-35 35.5 -35 84.5q0 51 35 86t85 35q51 0 85.5 -35t34.5 -86q0 -50 -35 -85t-85 -35t-85 35.5zM370.5 182.5q25.5 25.5 25.5 59.5q0 35 -25.5 60.5t-60.5 25.5q-34 0 -60 -25.5t-26 -60.5q0 -33 26 -59t60 -26q35 0 60.5 25.5z" />
    <glyph glyph-name="uni0E50" unicode="&#xe50;" horiz-adv-x="596" 
d="M158.5 21q-57.5 34 -87 93t-29.5 132q0 72 29.5 131.5t87.5 94.5t139 35t139 -35t87 -94.5t29 -131.5q0 -73 -29 -132t-86.5 -93t-139.5 -34t-139.5 34zM424 112.5q38 52.5 38 133.5t-38 134t-126 53t-126 -53t-38 -134t38 -133.5t126 -52.5t126 52.5z" />
    <glyph glyph-name="uni0E51" unicode="&#xe51;" horiz-adv-x="592" 
d="M414.5 64q44.5 67 44.5 185q0 90 -45.5 137t-119.5 47q-42 0 -78.5 -18t-59 -55.5t-22.5 -93.5q0 -58 13 -93.5t32 -50t38 -14.5q26 0 41 17t15 47q0 47 -22 84h82q9 -15 15.5 -37t6.5 -42q0 -65 -35.5 -101.5t-98.5 -36.5q-51 0 -91.5 25.5t-64 77t-23.5 125.5
q0 71 32 125.5t89 84.5t131 30q115 0 185 -69t70 -198q0 -143 -69.5 -229.5t-192.5 -100.5v78q83 9 127.5 76z" />
    <glyph glyph-name="uni0E52" unicode="&#xe52;" horiz-adv-x="659" 
d="M127.5 36q-38.5 36 -38.5 99v403q0 21 -6 29.5t-20 8.5h-10v64h38q44 0 68 -26.5t24 -68.5v-416q0 -28 15 -44.5t40 -16.5h208q26 0 41 16t15 45v272q0 15 -8 23t-21 8q-36 0 -39 -57h-39q-2 30 -10 43.5t-27 13.5q-15 0 -25 -8.5t-10 -20.5v-59q0 -58 63 -58h10v-61h-33
q-55 0 -89 32.5t-34 79.5v73q0 40 26.5 68t64.5 28q32 0 54.5 -14.5t28.5 -42.5h3q4 25 28.5 41t56.5 16q44 0 69 -28t25 -72v-273q0 -61 -42 -97t-104 -36h-222q-62 0 -100.5 36z" />
    <glyph glyph-name="uni0E53" unicode="&#xe53;" horiz-adv-x="639" 
d="M107 42q-44 42 -44 111v231q0 55 38.5 89t99.5 34q44 0 76 -22t43 -53h2q12 32 44 53.5t74 21.5q60 0 98.5 -34.5t38.5 -88.5v-384h-94v370q0 28 -17.5 45t-44.5 17q-29 0 -43.5 -18.5t-14.5 -45.5v-219h-87v219q0 27 -14.5 45.5t-44.5 18.5q-26 0 -43 -17t-17 -45v-215
q0 -42 22 -64.5t59 -22.5h21v-68h-42q-66 0 -110 42z" />
    <glyph glyph-name="uni0E54" unicode="&#xe54;" horiz-adv-x="585" 
d="M112 44q-49 44 -49 120v171q0 44 22 82.5t60.5 61.5t85.5 23h124q40 0 58 15t18 50v72h91v-63q0 -67 -33 -105t-105 -38h-136q-40 0 -65.5 -29.5t-25.5 -75.5v-148q0 -53 27 -82.5t71 -29.5h122q-24 11 -38 38t-14 55v39q0 44 23 69.5t66 25.5h68v-58h-22q-19 0 -30 -11
t-11 -31v-58q0 -28 20.5 -48.5t49.5 -20.5h33v-68h-279q-82 0 -131 44z" />
    <glyph glyph-name="uni0E55" unicode="&#xe55;" horiz-adv-x="595" 
d="M112 44q-49 44 -49 120v166q0 46 19.5 84t53.5 60.5t74 24.5h8q-2 8 -2 12q0 33 23 56t63 23q42 0 63.5 -23t21.5 -56q0 -5 -2 -11q30 0 43 16t13 49v74h91v-66q0 -66 -33 -104t-105 -38h-129q-48 0 -78 -28t-30 -76v-147q0 -54 26.5 -83t71.5 -29h131q-24 11 -38 38
t-14 55v39q0 44 23 69.5t66 25.5h68v-58h-22q-19 0 -30 -11t-11 -31v-58q0 -28 21 -48.5t49 -20.5h33v-68h-288q-82 0 -131 44zM326.5 481q9.5 9 9.5 23t-9.5 23t-23.5 9t-23 -9t-9 -23t9 -23t23 -9t23.5 9z" />
    <glyph glyph-name="uni0E56" unicode="&#xe56;" horiz-adv-x="617" 
d="M186.5 16q-44.5 21 -71 59.5t-26.5 89.5v53h94v-52q0 -33 17.5 -56t44 -34.5t51.5 -11.5h33q58 0 95 38.5t37 103.5v103q0 59 -40 93.5t-101 34.5t-102 -34t-51 -88h-78v223q0 22 -5 30t-20 8h-11v64h39q91 0 91 -95v-103l2 -2q17 27 58 48t93 21q65 0 114.5 -26
t76.5 -72t27 -105v-102q0 -65 -30.5 -112.5t-78.5 -72t-98 -24.5h-65q-51 0 -95.5 21z" />
    <glyph glyph-name="uni0E57" unicode="&#xe57;" horiz-adv-x="806" 
d="M107 42q-44 42 -44 111v231q0 55 38 89t99 34q41 0 72 -23t43 -52h2q12 29 44 52t70 23q60 0 98 -34.5t38 -88.5v-237q0 -22 -15 -45t-36 -33h54q30 0 45 23.5t15 62.5v390q0 43 25.5 69t74.5 26h34v-64h-12q-14 0 -21 -9t-7 -29v-405q0 -63 -41 -98t-110 -35h-144v72
q19 5 31.5 18.5t12.5 30.5v249q0 27 -17.5 44.5t-41.5 17.5q-27 0 -41.5 -18.5t-14.5 -45.5v-219h-87v219q0 26 -15.5 45t-41.5 19q-24 0 -40.5 -17.5t-16.5 -44.5v-215q0 -42 22 -64.5t59 -22.5h21v-68h-42q-66 0 -110 42z" />
    <glyph glyph-name="uni0E58" unicode="&#xe58;" horiz-adv-x="600" 
d="M95 30q-32 33 -32 87v201q0 52 24.5 94t67.5 66t97 24h101q47 0 67 20t20 59v59h94v-63q0 -66 -39 -105t-103 -39h-116q-60 0 -89.5 -33t-29.5 -92v-181q0 -47 41 -49q26 0 45 25t19 62h64q0 -39 21 -63t46 -24q29 0 47.5 26.5t18.5 68.5q0 87 -57 87h-29v65h45
q57 0 93 -41.5t36 -110.5q0 -76 -39 -126t-103 -50q-39 0 -67.5 23t-38.5 54h-6q-12 -33 -43.5 -55t-62.5 -22q-60 0 -92 33z" />
    <glyph glyph-name="uni0E59" unicode="&#xe59;" horiz-adv-x="614" 
d="M101 39.5q-38 39.5 -38 100.5v206q0 79 38 121.5t112 42.5q48 0 83 -21.5t47 -58.5q0 23 15 39t38 16q19 0 33 -9t15 -27q24 3 24 30v161h94v-170q0 -42 -26.5 -70.5t-64.5 -28.5h-20q-3 15 -11.5 23.5t-20.5 8.5t-20.5 -8t-7.5 -21l107 -374h-87l-96 344q-13 47 -35 71
t-58 24q-35 0 -50 -23t-15 -66v-199q0 -86 61 -86h39v-65h-62q-56 0 -94 39.5z" />
    <glyph glyph-name="uni0E5A" unicode="&#xe5a;" horiz-adv-x="776" 
d="M342 303q-44 -26 -105 -26q-84 0 -134 57.5t-50 170.5v61h93v-34q0 -93 29 -134t84 -41q67 0 107 50.5t40 127.5v31h94v-566h-94v368q-20 -39 -64 -65zM654 566v-566h-93v566h93z" />
    <glyph glyph-name="uni0E5B" unicode="&#xe5b;" horiz-adv-x="1306" 
d="M227 29q-61 33 -96.5 95t-35.5 144q0 73 28.5 131.5t79.5 91.5t116 33q57 0 103.5 -26t73.5 -74t27 -110h-78q0 35 -15 68t-42.5 54.5t-64.5 21.5q-42 0 -75.5 -25t-52.5 -68.5t-19 -96.5q0 -58 23 -104t66 -72t99 -26q72 0 131 41.5t96 125t42 204.5h55l79 -244l61 218
h49l67 -209l54 184h44q10 -91 43.5 -140t86.5 -49q25 0 70 8l18 -52q-47 -14 -96 -14t-86 22t-60 74l-47 -155h-44l-72 201l-65 -219h-51l-64 201q-19 -75 -64.5 -135.5t-109.5 -96t-137 -35.5q-76 0 -137 33z" />
    <glyph glyph-name="uni2002" unicode="&#x2002;" horiz-adv-x="500" 
 />
    <glyph glyph-name="uni2003" unicode="&#x2003;" horiz-adv-x="1000" 
 />
    <glyph glyph-name="uni2009" unicode="&#x2009;" horiz-adv-x="100" 
 />
    <glyph glyph-name="uni200A" unicode="&#x200a;" horiz-adv-x="20" 
 />
    <glyph glyph-name="uni200B" unicode="&#x200b;" horiz-adv-x="0" 
 />
    <glyph glyph-name="uni200C" unicode="&#x200c;" horiz-adv-x="0" 
d="M-29 1362l-88 88l27 29l90 -90l88 88l27 -27l-88 -88l88 -88l-27 -27l-88 86l-90 -87l-27 28z" />
    <glyph glyph-name="uni200D" unicode="&#x200d;" horiz-adv-x="0" 
d="M100 818v-69h-23v46h-153v-46h-23v69h199z" />
    <glyph glyph-name="uni200E" unicode="&#x200e;" horiz-adv-x="0" 
d="M51 795h-126v23h126l-41 40l16 17l69 -69l-69 -69l-16 17z" />
    <glyph glyph-name="uni200F" unicode="&#x200f;" horiz-adv-x="0" 
d="M-26 875l16 -16l-41 -41h127v-23h-126l40 -41l-16 -16l-69 68z" />
    <glyph glyph-name="endash" unicode="&#x2013;" 
d="M556 313v-73h-556v73h556z" />
    <glyph glyph-name="emdash" unicode="&#x2014;" horiz-adv-x="1000" 
d="M1000 313v-73h-1000v73h1000z" />
    <glyph glyph-name="quoteleft" unicode="&#x2018;" horiz-adv-x="222" 
d="M92.5 675.5q27.5 40.5 76.5 47.5v-46q-25 -1 -39 -28t-14 -73h53v-106h-104v102q0 63 27.5 103.5z" />
    <glyph glyph-name="quoteright" unicode="&#x2019;" horiz-adv-x="222" 
d="M92 538.5q14 26.5 14 73.5h-53v106h104v-102q0 -62 -27 -102.5t-77 -48.5v46q25 1 39 27.5z" />
    <glyph glyph-name="quotesinglbase" unicode="&#x201a;" horiz-adv-x="222" 
d="M92 -73q14 27 14 73h-53v106h104v-103q0 -61 -28 -102t-76 -48v46q25 1 39 28z" />
    <glyph glyph-name="quotedblleft" unicode="&#x201c;" horiz-adv-x="333" 
d="M66 676q28 40 76 47v-46q-25 -1 -39 -28t-14 -73h53v-106h-104v102q0 64 28 104zM231 676q28 40 76 47v-46q-25 -1 -39 -28t-14 -73h53v-106h-104v102q0 64 28 104z" />
    <glyph glyph-name="quotedblright" unicode="&#x201d;" horiz-adv-x="333" 
d="M65.5 540q13.5 27 13.5 72h-53v106h104v-102q0 -63 -27.5 -103.5t-76.5 -47.5v46q26 2 39.5 29zM230.5 540q13.5 27 13.5 72h-53v106h104v-102q0 -63 -27.5 -103.5t-76.5 -47.5v46q26 2 39.5 29z" />
    <glyph glyph-name="quotedblbase" unicode="&#x201e;" horiz-adv-x="333" 
d="M65 -73q14 27 14 73h-53v106h104v-103q0 -63 -27.5 -103t-76.5 -47v46q25 1 39 28zM230.5 -73q13.5 27 13.5 73h-53v106h104v-103q0 -63 -27.5 -103t-76.5 -47v46q26 1 39.5 28z" />
    <glyph glyph-name="dagger" unicode="&#x2020;" 
d="M43 431v76h189v211h94v-211h188v-76h-188v-590h-94v590h-189z" />
    <glyph glyph-name="daggerdbl" unicode="&#x2021;" 
d="M43 43v76h189v320h-189v76h189v203h94v-203h188v-76h-188v-320h188v-76h-188v-202h-94v202h-189z" />
    <glyph glyph-name="bullet" unicode="&#x2022;" horiz-adv-x="350" 
d="M95 223.5q-36 21.5 -56.5 57.5t-20.5 78q0 44 21.5 80t57.5 57t78 21t78.5 -21.5t58 -57.5t21.5 -79t-21.5 -79t-58 -57t-78.5 -21q-44 0 -80 21.5z" />
    <glyph glyph-name="ellipsis" unicode="&#x2026;" horiz-adv-x="1000" 
d="M219 106v-106h-104v106h104zM552 106v-106h-104v106h104zM885 106v-106h-104v106h104z" />
    <glyph glyph-name="uni202A" unicode="&#x202a;" horiz-adv-x="0" 
d="M51 795h-50v23h50l-41 40l16 17l69 -69l-69 -69l-16 17zM-28 818v-23h-57v23h57z" />
    <glyph glyph-name="uni202B" unicode="&#x202b;" horiz-adv-x="0" 
d="M-26 875l16 -16l-41 -41h50v-23h-49l40 -41l-16 -16l-69 68zM85 818v-23h-57v23h57z" />
    <glyph glyph-name="uni202C" unicode="&#x202c;" horiz-adv-x="0" 
d="M-52 797l-17 16l69 69l69 -69l-17 -16l-41 41v-102h-23v101z" />
    <glyph glyph-name="uni202D" unicode="&#x202d;" horiz-adv-x="0" 
d="M4 795h-107v23h106l-40 40l16 17l69 -69l-69 -69l-16 17zM81 806l-53 52l16 17l69 -69l-69 -69l-16 17z" />
    <glyph glyph-name="uni202E" unicode="&#x202e;" horiz-adv-x="0" 
d="M-44 875l16 -17l-52 -52l52 -52l-16 -17l-69 69zM21 875l17 -17l-41 -41h107v-23h-107l41 -40l-17 -17l-68 69z" />
    <glyph glyph-name="perthousand" unicode="&#x2030;" horiz-adv-x="1000" 
d="M544 703l-397 -722h-55l397 722h55zM84.5 404q-35.5 21 -56.5 57t-21 78q0 43 21 78.5t57 56.5t78 21t78 -21t57 -57t21 -78t-21 -78t-57 -57t-78 -21q-43 0 -78.5 21zM228 473.5q28 27.5 28 65.5q0 37 -26.5 65t-67.5 28q-38 0 -65 -27t-27 -66t27.5 -66t65.5 -27
q37 0 65 27.5zM396.5 14q-35.5 21 -56.5 57t-21 78q0 43 21 78.5t57 56.5t78 21t78 -21t57 -57t21 -78t-21 -78t-57 -57t-78 -21q-43 0 -78.5 21zM759.5 14q-35.5 21 -56.5 57t-21 78q0 43 21 78.5t57 56.5t78 21t78 -21t57 -57t21 -78t-21 -78t-57 -57t-78 -21
q-43 0 -78.5 21zM540 83.5q28 27.5 28 65.5q0 37 -26.5 65t-67.5 28q-38 0 -65 -27t-27 -66t27.5 -66t65.5 -27q37 0 65 27.5zM903 83.5q28 27.5 28 65.5q0 37 -26.5 65t-67.5 28q-38 0 -65 -27t-27 -66t27.5 -66t65.5 -27q37 0 65 27.5z" />
    <glyph glyph-name="guilsinglleft" unicode="&#x2039;" horiz-adv-x="333" 
d="M88 323l157 123v-88l-105 -81l105 -81v-88l-157 123v92z" />
    <glyph glyph-name="guilsinglright" unicode="&#x203a;" horiz-adv-x="333" 
d="M193 277l-105 81v88l157 -123v-92l-157 -123v88z" />
    <glyph glyph-name="fraction" unicode="&#x2044;" horiz-adv-x="167" 
d="M333 703l-442 -722h-57l442 722h57z" />
    <glyph glyph-name="Euro" unicode="&#x20ac;" 
d="M166 48q-61 71 -75 191h-91l23 60h62v75h-84l25 60h63q15 121 75.5 193t167.5 72q85 0 144 -52.5t69 -139.5h-89q-29 113 -124 113q-71 0 -105.5 -49.5t-44.5 -136.5h281l-24 -60h-260v-75h235l-24 -60h-205q6 -78 44 -130.5t105 -52.5q49 0 79 29t45 84h89
q-7 -57 -36.5 -100.5t-75.5 -67.5t-101 -24q-107 0 -168 71z" />
    <glyph glyph-name="uni2113" unicode="&#x2113;" horiz-adv-x="500" 
d="M184 20.5q-37 34.5 -37 94.5v96l-59 -58l-34 49l92 85v257q0 77 40 127t105 50q55 0 88.5 -36.5t33.5 -98.5q0 -74 -44 -151t-133 -163v-141q0 -35 18 -56.5t52 -21.5q41 0 89 39l33 -48q-64 -58 -143 -58q-64 0 -101 34.5zM313 467.5q26 58.5 26 112.5q0 35 -14 57.5
t-35 22.5q-22 0 -38 -26t-16 -75v-209q51 59 77 117.5z" />
    <glyph glyph-name="trademark" unicode="&#x2122;" horiz-adv-x="1000" 
d="M46 658v60h327v-60h-127v-352h-73v352h-127zM557 718l118 -303l116 303h112v-412h-73v335h-2l-129 -335h-50l-129 335h-2v-335h-73v412h112z" />
    <glyph glyph-name="Omega" unicode="&#x2126;" horiz-adv-x="600" 
d="M46 0zM236 77v62q-87 24 -138.5 98t-51.5 173q0 89 43 160t117.5 111t163.5 40q91 0 164.5 -40t116 -110.5t42.5 -158.5q0 -102 -51 -175.5t-139 -97.5v-62h190v-77h-264v185q80 16 125.5 76t45.5 145q0 66 -30.5 119t-83 83t-115.5 30q-65 0 -118 -31t-83 -84t-30 -118
q0 -85 43.5 -144t125.5 -76v-185h-263v77h190z" />
    <glyph glyph-name="estimated" unicode="&#x212e;" horiz-adv-x="500" 
d="M168 19q-59 36 -91.5 99t-32.5 141q0 79 33 142t92 98.5t133 35.5q75 0 133.5 -34t91.5 -97t34 -145h-404v-181q59 -59 145 -59q63 0 109 28.5t84 91.5l35 -21q-47 -74 -99.5 -104.5t-128.5 -30.5q-75 0 -134 36zM448 440q-63 60 -148 60q-83 0 -143 -60v-145h291v145z
" />
    <glyph glyph-name="partialdiff" unicode="&#x2202;" horiz-adv-x="523" 
d="M134.5 17q-48.5 29 -74 80.5t-25.5 115.5q0 62 25.5 111t71.5 77t106 28q86 0 157 -71v37q0 113 -43 184.5t-123 71.5q-33 0 -60 -11.5t-57 -35.5l-47 55q39 30 77 46t84 16q123 0 189 -98t66 -264q0 -178 -62 -274.5t-171 -96.5q-65 0 -113.5 29zM347 113.5
q39 59.5 44 157.5q-24 42 -61 66t-82 24q-57 0 -93.5 -42t-36.5 -110q0 -69 35.5 -112t91.5 -43q63 0 102 59.5z" />
    <glyph glyph-name="Delta" unicode="&#x2206;" horiz-adv-x="678" 
d="M11 0zM382 712l285 -712h-656l276 712h95zM333 613l-199 -530h406z" />
    <glyph glyph-name="product" unicode="&#x220f;" horiz-adv-x="726" 
d="M660 786v-1000h-90v917h-413v-917h-91v1000h594z" />
    <glyph glyph-name="summation" unicode="&#x2211;" horiz-adv-x="626" 
d="M341 291l-303 422v73h551v-83h-432l292 -412l-311 -423h463v-82h-576v72z" />
    <glyph glyph-name="minus" unicode="&#x2212;" horiz-adv-x="584" 
d="M545 289v-73h-506v73h506z" />
    <glyph glyph-name="uni2215" unicode="&#x2215;" horiz-adv-x="167" 
d="M0 0zM333 703l-442 -722h-57l442 722h57z" />
    <glyph glyph-name="uni2219" unicode="&#x2219;" horiz-adv-x="278" 
d="M77 190zM95 208.5q-18 18.5 -18 43.5q0 27 19 45t44 18q24 0 43 -18.5t19 -44.5q0 -25 -18.5 -43.5t-44.5 -18.5t-44 18.5z" />
    <glyph glyph-name="radical" unicode="&#x221a;" horiz-adv-x="515" 
d="M23 91l-33 70l124 58l144 -302l178 869h90l-211 -1000h-86l-158 328z" />
    <glyph glyph-name="infinity" unicode="&#x221e;" horiz-adv-x="778" 
d="M502 114q-43 25 -94 82q-59 -62 -96.5 -84t-86.5 -22q-74 0 -119 48t-45 124q0 49 20.5 88t57 61t82.5 22q48 0 90 -25t97 -89q48 59 92.5 87t93.5 28q46 0 82.5 -22t57 -61t20.5 -88q0 -75 -44.5 -124.5t-116.5 -49.5q-48 0 -91 25zM660 199q21 24 21 61
q0 38 -21.5 63.5t-60.5 25.5q-25 0 -54 -15.5t-52 -38.5l-37 -36q52 -50 84 -67t62 -17q37 0 58 24zM361 259q-48 46 -83 67.5t-65 21.5q-35 0 -56 -25.5t-21 -62.5q0 -39 22 -62t60 -23q62 0 143 84z" />
    <glyph glyph-name="integral" unicode="&#x222b;" horiz-adv-x="574" 
d="M120 -197q-24 16 -24 44q0 17 12.5 29t30.5 12q17 0 27.5 -10t19.5 -34q4 -10 13 -10q25 0 25 90l-1 75v581q0 110 33 158t98 48q33 0 60.5 -17.5t27.5 -45.5q0 -19 -12.5 -30.5t-31.5 -11.5t-28.5 9.5t-18.5 31.5q-6 14 -16 14q-12 0 -19 -17t-7 -64l1 -62q1 -11 1 -25
v-576q0 -100 -32.5 -152.5t-97.5 -52.5q-37 0 -61 16z" />
    <glyph glyph-name="approxequal" unicode="&#x2248;" horiz-adv-x="666" 
d="M110.5 396.5q35.5 41.5 92.5 41.5q29 0 60.5 -9t77.5 -27q47 -17 75.5 -25.5t54.5 -8.5q55 0 70 72h58q-8 -74 -43.5 -114.5t-93.5 -40.5q-30 0 -65 10t-86 29q-41 16 -67.5 24t-46.5 8q-30 0 -47 -21t-24 -53h-59q8 73 43.5 114.5zM110.5 196.5q35.5 41.5 92.5 41.5
q29 0 60.5 -9t77.5 -27q47 -17 75.5 -25.5t54.5 -8.5q55 0 70 72h58q-8 -74 -43.5 -114.5t-93.5 -40.5q-30 0 -65 10t-86 29q-41 16 -67.5 24t-46.5 8q-30 0 -47 -21t-24 -53h-59q8 73 43.5 114.5z" />
    <glyph glyph-name="notequal" unicode="&#x2260;" horiz-adv-x="666" 
d="M174 108h-134v84h177l63 123h-240v84h284l77 149l74 -37l-59 -112h136v-84h-179l-64 -123h243v-84h-286l-77 -149l-73 38z" />
    <glyph glyph-name="lessequal" unicode="&#x2264;" horiz-adv-x="666" 
d="M77 395l512 183v-89l-397 -137l397 -134v-88l-512 179v86zM589 92v-84h-512v84h512z" />
    <glyph glyph-name="greaterequal" unicode="&#x2265;" horiz-adv-x="666" 
d="M474 352l-397 137v89l512 -183v-86l-512 -179v88zM589 92v-84h-512v84h512z" />
    <glyph glyph-name="filledbox" unicode="&#x25a0;" horiz-adv-x="871" 
d="M718 566v-566h-566v566h566z" />
    <glyph glyph-name="lozenge" unicode="&#x25ca;" horiz-adv-x="593" 
d="M255 747h82l174 -391l-174 -391h-82l-173 391zM296 661l-127 -305l127 -305l128 305z" />
    <glyph glyph-name="uni25CC" unicode="&#x25cc;" horiz-adv-x="707" 
d="M316 552q0 37 37 37q38 0 38 -37t-38 -37q-37 0 -37 37zM194.5 492q-7.5 9 -7.5 28t8 28t27 9q39 0 39 -37t-39 -37q-20 0 -27.5 9zM447 520q0 37 38 37q37 0 37 -37t-37 -37q-38 0 -38 37zM88 422q0 36 36 36q39 0 39 -36q0 -38 -39 -38q-36 0 -36 38zM544 422
q0 36 38 36q37 0 37 -36q0 -38 -37 -38q-38 0 -38 38zM64.5 263q-7.5 8 -7.5 28q0 19 8 28t27 9q37 0 37 -37q0 -36 -37 -36q-20 0 -27.5 8zM578 291q0 37 37 37q36 0 36 -37q0 -36 -36 -36q-37 0 -37 36zM88 161q0 37 36 37q19 0 29 -9.5t10 -27.5q0 -37 -39 -37
q-36 0 -36 37zM544 161q0 37 38 37q37 0 37 -37t-37 -37q-38 0 -38 37zM194.5 34q-7.5 9 -7.5 28t8 28.5t27 9.5q39 0 39 -38q0 -37 -39 -37q-20 0 -27.5 9zM447 62q0 38 38 38q37 0 37 -38q0 -37 -37 -37q-38 0 -38 37zM316 29q0 38 37 38q38 0 38 -38q0 -36 -38 -36
q-37 0 -37 36z" />
    <glyph glyph-name="_142" horiz-adv-x="600" 
d="M325 -165q-26 14 -44 41l-9 13l-76 -61h-96v75h70l115 86l38 -58q25 -35 61 -35q64 0 64 83v393q0 56 -37.5 93t-105.5 37q-66 0 -105 -22.5t-52 -70.5v-4h100v-52q-34 -9 -51 -34.5t-17 -60.5v-158q0 -46 -23.5 -73t-63.5 -27h-61v72h16q19 0 28.5 11.5t9.5 30.5v129
q0 37 20 69t54 47v3h-103v48q11 78 75 122t174 44q69 0 122.5 -25t83.5 -70t30 -102v-409q0 -69 -42 -109t-107 -40q-42 0 -68 14z" />
    <glyph glyph-name="_144" horiz-adv-x="600" 
d="M328 -165.5q-24 13.5 -42 41.5l-64 -49l-26 37l-49 -36h-86v75h64l89 71l31 -44l57 42l26 -41q11 -17 24 -26t32 -9q64 0 64 83v393q0 56 -37.5 93t-105.5 37q-66 0 -105 -22.5t-52 -70.5v-4h100v-52q-34 -9 -51 -34.5t-17 -60.5v-158q0 -46 -23.5 -73t-63.5 -27h-61v72
h16q19 0 28.5 11.5t9.5 30.5v129q0 37 20 69t54 47v3h-103v48q11 78 75 122t174 44q69 0 122.5 -25t83.5 -70t30 -102v-409q0 -69 -42 -109t-107 -40q-41 0 -65 13.5z" />
    <glyph glyph-name="_148" horiz-adv-x="926" 
d="M534 9q-51 22 -83 69t-32 119v175q0 57 -32.5 92t-100.5 35q-65 0 -99 -21t-48 -69v-4h86v-52q-34 -9 -51 -34.5t-17 -60.5v-137q0 -22 13.5 -35.5t35.5 -13.5h35v-72h-84q-39 0 -66.5 28t-27.5 71v144q0 37 20 69t53 47v3h-89v48q12 79 71.5 122.5t168.5 43.5
q68 0 119.5 -25t79 -70t27.5 -102v-188q0 -64 34.5 -95.5t96.5 -31.5t96.5 31.5t34.5 95.5v375h94v-369q0 -72 -32 -119t-83 -69t-110 -22t-110 22z" />
    <glyph glyph-name="_172" horiz-adv-x="546" 
d="M109 209q-8 5 -22 5h-25v67h63q32 0 50 -14t30 -39l73 -150h12q29 14 59.5 51t50.5 85t20 95q0 94 -42.5 142t-114.5 48q-130 0 -148 -104h-83q10 88 70.5 134.5t162.5 46.5q76 0 132 -34l45 56h102v-7l-87 -100q57 -69 57 -170q0 -73 -28.5 -137t-73.5 -111t-97 -73h-94
l-98 192q-6 12 -14 17z" />
    <glyph glyph-name="_186" horiz-adv-x="733" 
d="M101.5 38.5q-43.5 47.5 -43.5 127.5v400h93v-419q0 -29 22.5 -52t53.5 -23q40 0 68.5 23t28.5 68v403h94v-403q0 -45 28 -68t68 -23q33 0 55 22.5t22 52.5v179q0 38 -12.5 54.5t-40.5 16.5h-31v71h21q32 0 47.5 22.5t15.5 60.5v56h94v-57q0 -52 -17 -77t-53 -35v-4
q35 -9 52.5 -38t17.5 -70v-160q0 -79 -45 -127t-126 -48q-54 0 -89 22.5t-53 73.5h-4q-19 -51 -53.5 -73.5t-87.5 -22.5q-82 0 -125.5 47.5z" />
    <glyph glyph-name="_268" horiz-adv-x="624" 
d="M266 738v-210h-75v210h75zM441 738v-210h-73v210h73zM199 45.5q-52 30.5 -82.5 82.5t-30.5 113q0 62 30.5 114t82.5 82.5t113 30.5t113 -30.5t82.5 -83t30.5 -113.5t-30.5 -113t-82.5 -82.5t-113 -30.5t-113 30.5zM402 87q41 24 65.5 64.5t24.5 89.5t-24.5 90t-65.5 65.5
t-90 24.5t-90 -24.5t-65 -65.5t-24 -90t24 -89.5t65 -64.5t90 -24t90 24zM225 157.5q-35 35.5 -35 84.5q0 51 35 86t85 35q51 0 85.5 -35t34.5 -86q0 -50 -35 -85t-85 -35t-85 35.5zM370.5 182.5q25.5 25.5 25.5 59.5q0 35 -25.5 60.5t-60.5 25.5q-34 0 -60 -25.5t-26 -60.5
q0 -33 26 -59t60 -26q35 0 60.5 25.5z" />
    <glyph glyph-name="_346" horiz-adv-x="333" 
d="M319 929l-130 -141h-67l89 141h108z" />
    <glyph glyph-name="_347" horiz-adv-x="333" 
d="M100 929l66 -93l66 93h80l-99 -141h-93l-99 141h79z" />
    <glyph glyph-name="_348" horiz-adv-x="333" 
d="M213 929l99 -141h-80l-66 93l-66 -93h-79l99 141h93z" />
    <glyph glyph-name="_349" horiz-adv-x="333" 
d="M131 901v-102h-91v102h91zM293 901v-102h-91v102h91z" />
    <glyph glyph-name="_350" horiz-adv-x="333" 
d="M122 929l89 -141h-67l-130 141h108z" />
    <glyph glyph-name="_351" horiz-adv-x="333" 
d="M101 773q-26 26 -26 66t26 66t66 26t66 -26t26 -66t-26 -66t-66 -26t-66 26zM204 802q15 15 15 37t-15 37t-37 15t-37 -15t-15 -37t15 -37t37 -15t37 15z" />
    <glyph glyph-name="_352" horiz-adv-x="333" 
d="M30 881.5q27 26.5 72 26.5q18 0 36 -5.5t47 -16.5q38 -15 52 -15q21 0 33.5 11t16.5 35h50q-6 -47 -32 -78t-68 -31q-16 0 -31.5 4.5t-45.5 14.5q-26 9 -41 13.5t-30 4.5q-18 0 -28 -11.5t-17 -32.5h-48q7 54 34 80.5z" />
    <glyph glyph-name="_354" horiz-adv-x="0" 
d="M-204 871v55h68v50h71v-50h68v-55h-68v-50h-71v50h-68z" />
    <glyph glyph-name="_356" horiz-adv-x="0" 
d="M-58 947v-126h-83v126h83z" />
    <glyph glyph-name="_359" horiz-adv-x="0" 
d="M-216.5 897q30.5 31 87.5 31h96l14 -57v-14h-101q-22 0 -35 -11.5t-13 -29.5v-12h-79v13q0 49 30.5 80z" />
    <glyph glyph-name="_361" horiz-adv-x="0" 
d="M-231 885h-35v60h74q19 0 32 -12t13 -31v-14h176v-12l-12 -55h-226v44q0 20 -22 20z" />
    <glyph glyph-name="_363" horiz-adv-x="0" 
d="M-290 924q24 26 65 26q30 0 48.5 -15.5t24.5 -39.5h2q5 25 24.5 40t48.5 15q28 0 47 -18.5t20 -44.5h105v-9l-13 -57h-147v30q0 34 -29 34q-31 0 -31 -47h-53q0 46 -29 46q-27 0 -27 -46v-17h-80v23q0 54 24 80z" />
    <glyph glyph-name=".ttfautohint" horiz-adv-x="0" 
d="M0 0z" />
    </font>
</defs>
</svg>
