<?xml version="1.0" standalone="no"?>
<!DOCTYPE svg PUBLIC "-//W3C//DTD SVG 1.1//EN" "http://www.w3.org/Graphics/SVG/1.1/DTD/svg11.dtd" >
<svg xmlns="http://www.w3.org/2000/svg" xmlns:xlink="http://www.w3.org/1999/xlink" version="1.1">
<metadata>
Created by FontForge 20161116 at Fri Mar  4 19:34:40 2011
 By Jimmy Warting
Copyright (c) 2009 Linotype GmbH, www.linotype.com. All rights reserved. This font software may not be reproduced, modified, disclosed or transferred without the express written approval of Linotype GmbH. AnuParp is a trademark of Linotype GmbH and may be registered in certain jurisdictions. This typeface is original artwork of Anuthin Wongsunkakon. The design may be protected in certain jurisdictions.
</metadata>
<defs>
<font id="AnuParpLTW31" horiz-adv-x="0" >
  <font-face 
    font-family="AnuParpLTW31"
    font-weight="400"
    font-stretch="normal"
    units-per-em="1000"
    panose-1="2 11 5 3 4 5 3 2 2 4"
    ascent="710"
    descent="-290"
    x-height="383"
    cap-height="570"
    bbox="-413.154 -290.004 905.001 985"
    underline-thickness="20"
    underline-position="-133"
    unicode-range="U+0020-FB02"
  />
<missing-glyph horiz-adv-x="406" 
d="M176 93v53h45v-53h-45zM178 186l-0.999023 12.998c0 30 3.33301 51.333 10 64c7.33301 14.667 19.333 30.334 36 47.001c17.333 16.667 28.333 29.334 33 38.001s7 18 7 28c0 18.667 -5.83301 34.5 -17.5 47.5s-25.834 19.5 -42.501 19.5s-30.834 -5.5 -42.501 -16.5
s-19.167 -30.5 -22.5 -58.5l-40 6c4 38 15.833 65.667 35.5 83s43.5 26 71.5 26c28.667 0 52.334 -9.33301 71.001 -28s28 -44 28 -76c0 -16.667 -3.33301 -32 -10 -46s-20 -30.333 -40 -49c-20 -18 -31.333 -31.667 -34 -41c-3.33301 -11.333 -5 -30.333 -5 -57h-37z
M367.001 39.998v489h-327v-489h327zM406.001 569.998v-570h-406v570h406z" />
    <glyph glyph-name=".notdef" horiz-adv-x="406" 
d="M176 93v53h45v-53h-45zM178 186l-0.999023 12.998c0 30 3.33301 51.333 10 64c7.33301 14.667 19.333 30.334 36 47.001c17.333 16.667 28.333 29.334 33 38.001s7 18 7 28c0 18.667 -5.83301 34.5 -17.5 47.5s-25.834 19.5 -42.501 19.5s-30.834 -5.5 -42.501 -16.5
s-19.167 -30.5 -22.5 -58.5l-40 6c4 38 15.833 65.667 35.5 83s43.5 26 71.5 26c28.667 0 52.334 -9.33301 71.001 -28s28 -44 28 -76c0 -16.667 -3.33301 -32 -10 -46s-20 -30.333 -40 -49c-20 -18 -31.333 -31.667 -34 -41c-3.33301 -11.333 -5 -30.333 -5 -57h-37z
M367.001 39.998v489h-327v-489h327zM406.001 569.998v-570h-406v570h406z" />
    <glyph glyph-name="space" unicode=" " horiz-adv-x="230" 
 />
    <glyph glyph-name="space" unicode="&#xa0;" horiz-adv-x="230" 
 />
    <glyph glyph-name="exclam" unicode="!" horiz-adv-x="237" 
d="M83 75h71v-75h-71v75zM85 334v236h67v-236l-21 -217h-25z" />
    <glyph glyph-name="quotedbl" unicode="&#x22;" horiz-adv-x="311" 
d="M180 570h51v-214h-51v214zM80 570h51v-214h-51v214z" />
    <glyph glyph-name="numbersign" unicode="#" horiz-adv-x="445" 
d="M280 327h-99l-16 -110h99zM258 171h-100l-25 -171h-53l24 171h-81v46h88l16 110h-83v47h89l24 170h55l-25 -170h99l25 170h55l-25 -170h82v-47h-89l-16 -110h82v-46h-88l-25 -171h-54z" />
    <glyph glyph-name="dollar" unicode="$" horiz-adv-x="445" 
d="M203 488c-10.667 0 -20.833 -1.83398 -30.5 -5.50098s-18.334 -8.66699 -26.001 -15s-13.667 -14 -18 -23s-6.5 -18.833 -6.5 -29.5c0 -12 2.5 -22.667 7.5 -32s11.333 -17.166 19 -23.499s16.334 -11.833 26.001 -16.5s19.167 -8.66699 28.5 -12v157zM203.001 -5.00098
c-23.333 0 -45.499 3.49805 -66.499 10.498s-40 17 -57 30s-31.5 28.833 -43.5 47.5s-20.667 39.667 -26 63l74 14c8 -28.667 22.167 -52.834 42.5 -72.501s45.833 -30.167 76.5 -31.5v191c-21.333 8 -41.5 16.333 -60.5 25s-35.5 19.334 -49.5 32.001
s-25.167 27.667 -33.5 45s-12.5 38.666 -12.5 63.999c0 20 4.66699 38.167 14 54.5s21.5 30.333 36.5 42s31.833 20.834 50.5 27.501s37 10.667 55 12v85h51v-85c18.667 -1.33301 37.167 -5 55.5 -11s35 -14.167 50 -24.5s27.667 -23.333 38 -39s16.833 -33.5 19.5 -53.5
l-72 -6c-6.66699 20.667 -17.834 37.667 -33.501 51s-34.834 20.666 -57.501 21.999v-175l32 -12c20 -8.66699 38.833 -17.167 56.5 -25.5s33.334 -18.166 47.001 -29.499s24.5 -24.666 32.5 -39.999s12 -34 12 -56c0 -27.333 -4.5 -50.666 -13.5 -69.999
s-21.5 -35.333 -37.5 -48s-34.833 -22 -56.5 -28s-45.167 -9 -70.5 -9v-93h-53v93zM254.002 55.9971c14 0.666992 27.3311 2.83301 39.998 6.5s23.834 9.16699 33.501 16.5s17.334 16.333 23.001 27s8.5 23.334 8.5 38.001c0 13.333 -3.5 24.666 -10.5 33.999
s-15.833 17.5 -26.5 24.5s-22 12.833 -34 17.5s-23.333 9 -34 13v-177z" />
    <glyph glyph-name="percent" unicode="%" horiz-adv-x="800" 
d="M544 570h56l-345 -595h-54zM515 138c0 -25.333 5.5 -46.833 16.5 -64.5s28.833 -26.5 53.5 -26.5s42.334 8.83301 53.001 26.5s16 39.167 16 64.5c0 12 -1.33301 23.333 -4 34s-6.66699 20.334 -12 29.001s-12.5 15.5 -21.5 20.5s-19.5 7.5 -31.5 7.5
s-22.5 -2.5 -31.5 -7.5s-16.333 -11.833 -22 -20.5s-9.83398 -18.334 -12.501 -29.001s-4 -22 -4 -34zM455 138c0 44 12.167 78.667 36.5 104s55.5 38 93.5 38s69.333 -12.667 94 -38s37 -60 37 -104s-12.333 -78.833 -37 -104.5s-56 -38.5 -94 -38.5
c-18.667 0 -36 3.33301 -52 10s-29.667 16.167 -41 28.5s-20.333 27.333 -27 45s-10 37.5 -10 59.5zM84 407c0 43.333 12.334 77.833 37.001 103.5s56 38.5 94 38.5c38.667 0 70 -12.833 94 -38.5s36 -60.167 36 -103.5c0 -44 -12 -78.833 -36 -104.5
s-55.333 -38.5 -94 -38.5c-18.667 0 -36 3.33301 -52 10s-29.833 16.167 -41.5 28.5s-20.834 27.333 -27.501 45s-10 37.5 -10 59.5zM146.001 407c0 -25.333 5.50488 -46.833 16.5049 -64.5s28.5 -26.5 52.5 -26.5c25.333 0 43.333 8.83301 54 26.5s16 39.167 16 64.5
c0 12 -1.33301 23.333 -4 34s-6.83398 20.334 -12.501 29.001s-12.834 15.5 -21.501 20.5s-19.334 7.5 -32.001 7.5c-12 0 -22.333 -2.5 -31 -7.5s-15.834 -11.833 -21.501 -20.5s-9.83398 -18.334 -12.501 -29.001s-4 -22 -4 -34z" />
    <glyph glyph-name="ampersand" unicode="&#x26;" horiz-adv-x="519" 
d="M209 455c0 -13.333 3 -29.168 9 -47.501s11.667 -33.833 17 -46.5c11.333 4.66699 22.333 10.334 33 17.001s20.167 14.5 28.5 23.5s15 19 20 30s7.5 22.833 7.5 35.5c0 15.333 -5 27.833 -15 37.5s-22.667 14.5 -38 14.5c-18.667 0 -33.667 -6 -45 -18
s-17 -27.333 -17 -46zM196 275.998c-26.667 -11.333 -48.332 -26.335 -64.999 -45.002s-25 -43.334 -25 -74.001c0 -13.333 2.5 -26.166 7.5 -38.499s11.667 -23.166 20 -32.499s18.5 -16.666 30.5 -21.999s25 -8 39 -8c21.333 0 39.166 4.33301 53.499 13s27.5 20 39.5 34z
M344.002 160.996c8.66699 17.333 16.3262 34.501 22.9932 51.501s12.334 35.167 17.001 54.5h63c-5.33301 -30 -13.666 -57.833 -24.999 -83.5s-24.666 -50.834 -39.999 -75.501c20.667 -28 46 -42 76 -42h13c5.33301 0 9 0.333008 11 1v-67
c-3.33301 -1.33301 -8.33301 -2.5 -15 -3.5s-13 -1.5 -19 -1.5c-22 0 -42.167 5.16699 -60.5 15.5s-35.833 25.166 -52.5 44.499c-9.33301 -8 -18.5 -15.667 -27.5 -23s-19 -13.833 -30 -19.5s-23.167 -10 -36.5 -13s-28.666 -4.5 -45.999 -4.5
c-21.333 0 -41.666 3.66699 -60.999 11s-36.166 18 -50.499 32s-25.833 30.833 -34.5 50.5s-13 41.834 -13 66.501c0 20.667 3.66699 40.167 11 58.5s17.333 35 30 50s27 28.167 43 39.5s33 21 51 29c-7.33301 14 -13.666 30.167 -18.999 48.5s-8 35.833 -8 52.5
c0 40 11.167 72.833 33.5 98.5s53.833 38.5 94.5 38.5c16 0 31.167 -2.83301 45.5 -8.5s26.833 -13.5 37.5 -23.5s19 -21.833 25 -35.5s9 -28.834 9 -45.501c0 -19.333 -3.66699 -36.666 -11 -51.999s-17 -29.333 -29 -42s-25.667 -23.667 -41 -33s-31 -17.333 -47 -24z" />
    <glyph glyph-name="quotesingle" unicode="'" horiz-adv-x="222" 
d="M85 570h52v-214h-52v214z" />
    <glyph glyph-name="parenleft" unicode="(" horiz-adv-x="252" 
d="M187 -138c-34 54 -62.334 111.828 -85.001 173.495s-34 124.834 -34 189.501c0 30.667 3.16699 61.834 9.5 93.501s15 62.834 26 93.501s23.833 60.667 38.5 90s30 57 46 83h53c-15.333 -25.333 -29.5 -52.833 -42.5 -82.5s-24.167 -60.167 -33.5 -91.5
s-16.666 -62.666 -21.999 -93.999s-8 -61.666 -8 -90.999c0 -64.667 9.66699 -127.5 29 -188.5s45 -119.5 77 -175.5h-54z" />
    <glyph glyph-name="parenright" unicode=")" horiz-adv-x="252" 
d="M65 585c34 -54 62.333 -112 85 -174s34 -125.333 34 -190c0 -30.667 -3.16699 -61.667 -9.5 -93s-15 -62.333 -26 -93s-23.667 -60.667 -38 -90s-29.833 -57 -46.5 -83h-53c14.667 26 28.5 53.667 41.5 83s24.333 59.5 34 90.5s17.167 62.167 22.5 93.5s8 62 8 92
c0 64 -9.33301 126.667 -28 188s-44 120 -76 176h52z" />
    <glyph glyph-name="asterisk" unicode="*" horiz-adv-x="311" 
d="M62 344l58 80l-96 29l16 49l91 -30v98h51v-98l90 32l15 -51l-91 -30l58 -72l-39 -35l-57 77l-55 -77z" />
    <glyph glyph-name="plus" unicode="+" horiz-adv-x="480" 
d="M212 174h-174v56h174v175h56v-175h174v-56h-174v-174h-56v174z" />
    <glyph glyph-name="comma" unicode="," horiz-adv-x="222" 
d="M71 90h81.001v-90c0 -6 -0.5 -13.833 -1.5 -23.5s-2.83301 -20.167 -5.5 -31.5s-5.83398 -23 -9.50098 -35s-8.16699 -23.333 -13.5 -34h-38c8 23.333 13.333 44.333 16 63s4 39 4 61h-33v90z" />
    <glyph glyph-name="hyphen" unicode="-" horiz-adv-x="237" 
d="M36 236h165v-65h-165v65z" />
    <glyph glyph-name="hyphen" unicode="&#x2010;" horiz-adv-x="237" 
d="M36 236h165v-65h-165v65z" />
    <glyph glyph-name="hyphen" unicode="&#xad;" horiz-adv-x="237" 
d="M36 236h165v-65h-165v65z" />
    <glyph glyph-name="period" unicode="." horiz-adv-x="222" 
d="M71 90h81v-90h-81v90z" />
    <glyph glyph-name="slash" unicode="/" horiz-adv-x="267" 
d="M197 585h59l-188 -600h-58z" />
    <glyph glyph-name="zero" unicode="0" horiz-adv-x="361" 
d="M341 221c0 -27.333 -3 -54.334 -9 -81.001s-15.5 -50.834 -28.5 -72.501s-29.5 -39.167 -49.5 -52.5s-44.333 -20 -73 -20c-28 0 -52 6.33301 -72 19s-36.667 29.5 -50 50.5s-23.166 45 -29.499 72s-9.5 55.167 -9.5 84.5c0 26 2.83301 52.333 8.5 79
s15 50.834 28 72.501s29.667 39.334 50 53.001s45.166 20.5 74.499 20.5c28 0 52 -6.5 72 -19.5s36.5 -30 49.5 -51s22.667 -45 29 -72s9.5 -54.5 9.5 -82.5zM276 220.999c0 60 -8.83398 102.999 -26.501 128.999s-40.5 39 -68.5 39c-11.333 0 -22.666 -2.66699 -33.999 -8
s-21.5 -14.5 -30.5 -27.5s-16.333 -30.167 -22 -51.5s-8.5 -48.333 -8.5 -81c0 -60 8.83301 -103.167 26.5 -129.5s40.5 -39.5 68.5 -39.5c12 0 23.667 2.66699 35 8s21.5 14.333 30.5 27s16.167 29.834 21.5 51.501s8 49.167 8 82.5z" />
    <glyph glyph-name="one" unicode="1" horiz-adv-x="361" 
d="M238 0h-67v320h-94v45c30.667 0 55.667 4.83301 75 14.5s32.333 30.167 39 61.5h47v-441z" />
    <glyph glyph-name="two" unicode="2" horiz-adv-x="361" 
d="M331 0l-290.001 0.00195312v60c23.333 13.333 47.833 29.333 73.5 48s49.334 39 71.001 61s39.5 45.167 53.5 69.5s21 48.5 21 72.5c0 46 -20.667 72 -62 78c-3.33301 0 -6.5 0.166992 -9.5 0.5s-6.16699 0.166016 -9.5 -0.500977
c-24.667 -0.666992 -43.167 -8.66699 -55.5 -24s-18.5 -33.666 -18.5 -54.999c0 -9.33301 0.5 -18.166 1.5 -26.499s2.16699 -16.833 3.5 -25.5h-63c-1.33301 8 -2.5 16 -3.5 24s-1.5 15.667 -1.5 23c0 18.667 2.83301 36.5 8.5 53.5s14.334 32 26.001 45
s26.5 23.333 44.5 31s39 11.5 63 11.5c19.333 0 37.666 -3 54.999 -9s32.5 -14.833 45.5 -26.5s23.333 -26.334 31 -44.001s11.5 -37.834 11.5 -60.501c0 -28 -6.33301 -54 -19 -78s-28.667 -46.333 -48 -67s-40.5 -39.334 -63.5 -56.001s-44.833 -31.667 -65.5 -45
c-0.666992 -0.666992 -1.66699 -1 -3 -1v-2h203v-57z" />
    <glyph glyph-name="three" unicode="3" horiz-adv-x="361" 
d="M140 255c8 0 15.8359 -0.162109 23.5029 -0.495117s15.167 -0.5 22.5 -0.5c4 0 10.167 0.666992 18.5 2s16.666 4.16602 24.999 8.49902s15.5 10.666 21.5 18.999s9 19.833 9 34.5c0 20.667 -5.33301 38.334 -16 53.001s-31.667 22 -63 22c-14 0 -26 -2.66699 -36 -8
s-18.333 -12.333 -25 -21s-11.834 -18.667 -15.501 -30s-5.83398 -23.333 -6.50098 -36h-63c1.33301 48 14.333 84.667 39 110s61 38 109 38c23.333 0 44 -3.33301 62 -10s33 -15.667 45 -27s21.167 -24.5 27.5 -39.5s9.5 -30.833 9.5 -47.5
c0 -18.667 -4.66699 -37.167 -14 -55.5s-22.666 -30.5 -39.999 -36.5c21.333 -8.66699 37.833 -22.334 49.5 -41.001s17.5 -39.334 17.5 -62.001c0 -14 -2.5 -28.833 -7.5 -44.5s-13.5 -30 -25.5 -43s-28.333 -23.667 -49 -32s-46.334 -12.5 -77.001 -12.5
c-22.667 0 -43.667 2.83301 -63 8.5s-36 14.667 -50 27s-25.167 28.166 -33.5 47.499s-12.833 42.666 -13.5 69.999h63c0.666992 -9.33301 1.5 -17.833 2.5 -25.5s3.16699 -14.834 6.5 -21.501c6.66699 -15.333 16.5 -27.333 29.5 -36s32.833 -13 59.5 -13
c11.333 0 22.5 1.33301 33.5 4s20.667 6.83398 29 12.501s15 13.167 20 22.5s7.5 20.666 7.5 33.999c0 16 -2.5 28.833 -7.5 38.5s-11.833 17.334 -20.5 23.001s-18.667 9.5 -30 11.5s-23.333 3 -36 3h-19h-9.5c-3 0 -6.16699 -0.333008 -9.5 -1v55z" />
    <glyph glyph-name="four" unicode="4" horiz-adv-x="361" 
d="M22 162l207 279h53v-280h61v-56h-61v-105h-67v105h-193v57zM215 345h-1l-132 -184h133v184z" />
    <glyph glyph-name="five" unicode="5" horiz-adv-x="361" 
d="M58 441l250.999 -0.000976562l-1 -57h-201l-7 -109c3.33301 0 8.16602 1.83301 14.499 5.5s13.5 7.5 21.5 11.5s16.833 7.83301 26.5 11.5s19.167 5.5 28.5 5.5h10c3.33301 0 6.66602 -0.333008 9.99902 -1c20 -2 37.833 -7.5 53.5 -16.5s28.834 -20.5 39.501 -34.5
s18.834 -30 24.501 -48s8.5 -37 8.5 -57c0 -21.333 -3.5 -41.333 -10.5 -60s-17 -35.334 -30 -50.001s-29.167 -26.167 -48.5 -34.5s-41 -12.5 -65 -12.5c-34.667 0 -62.5 6.16699 -83.5 18.5s-37.167 26.5 -48.5 42.5s-18.833 32 -22.5 48s-5.5 28 -5.5 36h66
c0 -8.66699 1.33301 -18.167 4 -28.5s7.5 -19.833 14.5 -28.5s16.333 -16 28 -22s26.834 -9 45.501 -9c28 0 49.833 9.83301 65.5 29.5s23.5 42.834 23.5 69.501c0 18.667 -2.5 34.834 -7.5 48.501s-11.5 24.667 -19.5 33s-17 14.5 -27 18.5s-20 6 -30 6
c-19.333 0 -36 -5 -50 -15s-25.667 -24 -35 -42l-60 6z" />
    <glyph glyph-name="six" unicode="6" horiz-adv-x="361" 
d="M273 143c0 26.667 -8.33105 48.5 -24.998 65.5s-37.667 25.5 -63 25.5c-24.667 0 -45.334 -8.16699 -62.001 -24.5s-25 -38.5 -25 -66.5s8.16699 -50.167 24.5 -66.5s37.166 -24.5 62.499 -24.5s46.333 8.16699 63 24.5s25 38.5 25 66.5zM262.002 322
c-3.33301 19.333 -10.999 36.002 -22.999 50.002s-28.333 21 -49 21c-21.333 0 -38.333 -4.83301 -51 -14.5s-22.667 -22 -30 -37s-12.333 -31.667 -15 -50s-4.33398 -36.166 -5.00098 -53.499h1c2 4 5.5 8.83301 10.5 14.5s11.833 11.167 20.5 16.5s18.834 10 30.501 14
s25.167 6 40.5 6c6 0.666992 12 0.666992 18 0c36 -2.66699 65.833 -16.334 89.5 -41.001s35.5 -57.667 35.5 -99c0 -18 -3 -36.167 -9 -54.5s-15.167 -34.833 -27.5 -49.5s-28.333 -26.667 -48 -36s-42.834 -14 -69.501 -14c-15.333 0 -32 3.16699 -50 9.5
s-34.833 17.666 -50.5 33.999s-28.667 38.666 -39 66.999s-15.5 64.5 -15.5 108.5c0 25.333 2.33301 51.666 7 78.999s13 52.333 25 75s28.5 41.334 49.5 56.001s48.167 22 81.5 22c40 0 70.5 -10 91.5 -30s35.833 -49 44.5 -87z" />
    <glyph glyph-name="seven" unicode="7" horiz-adv-x="361" 
d="M49 441l275 -0.000976562v-58c-2 -14 -8.5 -32.333 -19.5 -55s-23.333 -46.667 -37 -72s-27 -50.5 -40 -75.5s-22.5 -46.833 -28.5 -65.5c-14 -36.667 -24 -75 -30 -115h-76c10.667 58 29 113 55 165s55 102 87 150c7.33301 10.667 14.333 22.334 21 35.001
s10.667 24 12 34h-171v-72h-48v129z" />
    <glyph glyph-name="eight" unicode="8" horiz-adv-x="361" 
d="M271 133c0 7.33301 -1.32812 15.333 -3.99512 24s-7.33398 16.667 -14.001 24s-15.834 13.5 -27.501 18.5s-26.834 7.5 -45.501 7.5s-33.834 -2.5 -45.501 -7.5s-20.834 -11.167 -27.501 -18.5s-11.167 -15.333 -13.5 -24s-3.5 -16.667 -3.5 -24c0 -28 8 -48.5 24 -61.5
s38 -19.5 66 -19.5s50.167 6.5 66.5 19.5s24.5 33.5 24.5 61.5zM338.005 129c0 -16.667 -3 -33.001 -9 -49.001s-15.5 -30.333 -28.5 -43s-29.333 -22.834 -49 -30.501s-43.5 -11.5 -71.5 -11.5c-27.333 0 -51 4 -71 12s-36.333 18.333 -49 31s-22 27 -28 43s-9 32 -9 48
c0 24 5 44.667 15 62s25.667 32.333 47 45c-18.667 10.667 -31.5 23.667 -38.5 39s-10.5 32.333 -10.5 51c0 11.333 1.83301 24 5.5 38s10.667 27 21 39s25 22.167 44 30.5s43.833 12.5 74.5 12.5c28 0 51.167 -3.66699 69.5 -11s33 -16.666 44 -27.999
s18.833 -24.166 23.5 -38.499s7 -28.5 7 -42.5c0 -19.333 -3.83301 -36.833 -11.5 -52.5s-20.167 -28.167 -37.5 -37.5c41.333 -24 62 -59.667 62 -107zM263.005 324.999c0 18 -6.83301 33.333 -20.5 46s-34.5 19 -62.5 19s-48.667 -6.16699 -62 -18.5
s-20 -27.833 -20 -46.5c0 -19.333 6.66699 -35.166 20 -47.499s34 -18.5 62 -18.5s48.833 6.16699 62.5 18.5s20.5 28.166 20.5 47.499z" />
    <glyph glyph-name="nine" unicode="9" horiz-adv-x="361" 
d="M88 294c0 -17.333 2.49902 -32 7.49902 -44s11.833 -21.667 20.5 -29s18.334 -12.5 29.001 -15.5s21.667 -4.5 33 -4.5c10.667 0 21.167 1.5 31.5 4.5s19.833 8.16699 28.5 15.5s15.667 17 21 29s8 26.667 8 44c0 10.667 -1.66699 21.5 -5 32.5s-8.5 21.167 -15.5 30.5
s-16.167 17 -27.5 23s-25 9 -41 9s-29.833 -3 -41.5 -9s-21 -13.5 -28 -22.5s-12.167 -19.167 -15.5 -30.5s-5 -22.333 -5 -33zM98.999 119c3.33301 -17.333 10.833 -33.3359 22.5 -48.0029s28.834 -22 51.501 -22c18 0 33.333 4.16699 46 12.5s23 19.5 31 33.5
s13.833 29.833 17.5 47.5s5.5 35.834 5.5 54.501l-1 1c-15.333 -19.333 -31.5 -33.166 -48.5 -41.499s-38.167 -12.5 -63.5 -12.5c-17.333 0 -34 3.33301 -50 10s-30.167 16.167 -42.5 28.5s-22.333 27.833 -30 46.5s-11.5 40 -11.5 64c0 21.333 3.83301 41.333 11.5 60
s18.167 34.834 31.5 48.501s29 24.5 47 32.5s37.667 12 59 12c22 0 42.667 -3.33301 62 -10s36.166 -18.334 50.499 -35.001s25.833 -39.167 34.5 -67.5s13 -63.833 13 -106.5c0 -23.333 -2.16699 -48.666 -6.5 -75.999s-12.333 -52.5 -24 -75.5s-28 -42.167 -49 -57.5
s-48.167 -23 -81.5 -23c-38 0 -68 9.83301 -90 29.5s-37.667 47.5 -47 83.5z" />
    <glyph glyph-name="colon" unicode=":" horiz-adv-x="222" 
d="M71 302v90h81v-90h-81zM152 0h-81v90h81v-90z" />
    <glyph glyph-name="semicolon" unicode=";" horiz-adv-x="222" 
d="M71 392h81v-90h-81v90zM71 90h81.001v-90c0 -6 -0.5 -13.833 -1.5 -23.5s-2.83301 -20.167 -5.5 -31.5s-5.83398 -23 -9.50098 -35s-8.16699 -23.333 -13.5 -34h-38c8 23.333 13.333 44.333 16 63s4 39 4 61h-33v90z" />
    <glyph glyph-name="less" unicode="&#x3c;" horiz-adv-x="480" 
d="M442 352l-334 -149l334 -151v-59l-404 186v47l404 186v-60z" />
    <glyph glyph-name="equal" unicode="=" horiz-adv-x="480" 
d="M38 152h404v-56h-404v56zM38 310h404v-56h-404v56z" />
    <glyph glyph-name="greater" unicode="&#x3e;" horiz-adv-x="480" 
d="M38 52l334 151l-334 149v60l404 -186v-47l-404 -186v59z" />
    <glyph glyph-name="question" unicode="?" horiz-adv-x="459" 
d="M192 75h70v-75h-70v75zM194 313l28.998 -0.00195312c46.667 0 79.167 9.5 97.5 28.5s27.5 44.167 27.5 75.5c0 14 -3.16699 27.333 -9.5 40s-14.666 23.5 -24.999 32.5s-22.166 16.167 -35.499 21.5s-27.333 8 -42 8c-42 0 -72 -11.833 -90 -35.5
s-27.667 -56.5 -29 -98.5h-70c0 30 4.5 56.833 13.5 80.5s21.5 44 37.5 61s35.167 30 57.5 39s46.833 13.5 73.5 13.5c24.667 0 48.167 -3.66699 70.5 -11s41.833 -18.166 58.5 -32.499s30 -32.166 40 -53.499s15 -46.333 15 -75c0 -22.667 -3.66699 -43.5 -11 -62.5
s-17.833 -35.5 -31.5 -49.5s-30 -25 -49 -33s-39.833 -12.333 -62.5 -13v-126h-65v190z" />
    <glyph glyph-name="at" unicode="@" horiz-adv-x="744" 
d="M464 187c0 22.667 -6.33301 41.666 -19 56.999s-30.667 23 -54 23c-18.667 0 -35.334 -4.5 -50.001 -13.5s-27.167 -20.667 -37.5 -35s-18.166 -30.5 -23.499 -48.5s-8 -36 -8 -54c0 -25.333 6.5 -45.666 19.5 -60.999s30.833 -23 53.5 -23c18.667 0 35.334 5 50.001 15
s27.167 22.5 37.5 37.5s18.166 31.667 23.499 50s8 35.833 8 52.5zM691 212.999c0 -34 -4.83691 -64.8389 -14.5039 -92.5059s-22.5 -51.5 -38.5 -71.5s-34.333 -35.333 -55 -46s-42.334 -16 -65.001 -16c-18 0 -33.333 3.83301 -46 11.5s-22.667 20.167 -30 37.5
c-14.667 -18.667 -31.167 -32.167 -49.5 -40.5s-37.833 -12.5 -58.5 -12.5c-38.667 0 -69.667 12 -93 36s-35 55.333 -35 94c0 26.667 4.5 52.334 13.5 77.001s21.5 46.334 37.5 65.001s35 33.5 57 44.5s46 16.5 72 16.5c24.667 0 44.667 -4.16699 60 -12.5
s26.666 -19.5 33.999 -33.5h1l7 38h66l-47 -205c-2 -10 -3.33301 -18.667 -4 -26s-1 -13 -1 -17c0 -7.33301 2.83301 -13.333 8.5 -18s11.834 -7 18.501 -7c12.667 0 25.334 4.16699 38.001 12.5s23.667 20.333 33 36s17 34.334 23 56.001s9 45.834 9 72.501
c0 32.667 -6.33301 62.5 -19 89.5s-29.667 50 -51 69s-46.666 33.667 -75.999 44s-60.333 15.5 -93 15.5c-39.333 0 -75.666 -7.83301 -108.999 -23.5s-62 -36.667 -86 -63s-42.667 -57.166 -56 -92.499s-20 -73 -20 -113s6.33301 -76.5 19 -109.5s30.834 -61 54.501 -84
s52 -40.833 85 -53.5s69.833 -19 110.5 -19c38 0 74.5 6 109.5 18s66.5 26.333 94.5 43l27 -44c-34 -20 -69.833 -36.333 -107.5 -49s-79.5 -19 -125.5 -19c-49.333 0 -94.5 7.33301 -135.5 22s-76.167 35.834 -105.5 63.501s-52.166 61 -68.499 100
s-24.5 82.833 -24.5 131.5c0 48 8.5 92.833 25.5 134.5s40.5 78 70.5 109s65.667 55.5 107 73.5s86.333 27 135 27c43.333 0 83.333 -6.5 120 -19.5s68.167 -31.333 94.5 -55s46.833 -52 61.5 -85s22 -69.5 22 -109.5z" />
    <glyph glyph-name="A" unicode="A" horiz-adv-x="519" 
d="M264 477h-1l-86 -236h170zM225 570h81l206 -570h-81l-62 174h-215l-66 -174h-81z" />
    <glyph glyph-name="B" unicode="B" horiz-adv-x="548" 
d="M57 570h267c34.667 0 63.5 -4.5 86.5 -13.5s41.5 -20.667 55.5 -35s23.833 -30.333 29.5 -48s8.5 -34.834 8.5 -51.501c0 -30 -7.83301 -55.667 -23.5 -77s-35.5 -35.666 -59.5 -42.999v-2c36 -8.66699 61.667 -26 77 -52s23 -57 23 -93
c0 -10.667 -1.83301 -24.667 -5.5 -42s-11.5 -34.333 -23.5 -51s-29.5 -31.167 -52.5 -43.5s-53.5 -18.5 -91.5 -18.5h-291v570zM132 328l174.001 -0.00195312c15.333 0 30.166 1.33301 44.499 4s26.833 7.33398 37.5 14.001s19.167 15.834 25.5 27.501s9.5 26.5 9.5 44.5
c0 22 -3.5 38.833 -10.5 50.5s-16.167 20.167 -27.5 25.5s-24 8.33301 -38 9s-27.667 1 -41 1h-174v-176zM132.001 65.998h201.999c30.667 0 55.834 7.33301 75.501 22s29.5 38 29.5 70c0 25.333 -3.83301 45 -11.5 59s-17.667 24.333 -30 31s-26.333 10.667 -42 12
s-31.5 2 -47.5 2h-176v-196z" />
    <glyph glyph-name="C" unicode="C" horiz-adv-x="622" 
d="M506 393c-10.667 40 -32.665 71.666 -65.998 94.999s-71.333 35 -114 35c-36 0 -66.833 -6.5 -92.5 -19.5s-46.834 -30.5 -63.501 -52.5s-29 -47.333 -37 -76s-12 -58.667 -12 -90s4 -61.333 12 -90s20.333 -54 37 -76s37.834 -39.5 63.501 -52.5s56.5 -19.5 92.5 -19.5
c49.333 0 90.833 15.333 124.5 46s54.167 71.334 61.5 122.001l80 -10c-7.33301 -33.333 -19.333 -63.5 -36 -90.5s-36.834 -50 -60.501 -69s-49.834 -33.833 -78.501 -44.5s-59 -16 -91 -16c-44.667 0 -84.667 7.33301 -120 22s-65.333 35.167 -90 61.5
s-43.667 57.833 -57 94.5s-20 77.334 -20 122.001c0 44 6.66699 84.5 20 121.5s32.333 68.667 57 95s54.667 46.833 90 61.5s75.333 22 120 22c62 0 116.167 -14.833 162.5 -44.5s78.5 -73.834 96.5 -132.501z" />
    <glyph glyph-name="D" unicode="D" horiz-adv-x="563" 
d="M132 66l127.001 -0.00292969c34 0 62.667 5.33301 86 16s42.166 25.834 56.499 45.501s24.666 43 30.999 70s9.5 57.167 9.5 90.5c0 32.667 -3.33301 62.334 -10 89.001s-17 49.334 -31 68.001s-32.167 33.167 -54.5 43.5s-49.166 15.5 -80.499 15.5h-134v-438z
M57.001 569.997l214.999 -0.00195312c43.333 0 80.833 -7 112.5 -21s57.834 -33.667 78.501 -59s36 -55.666 46 -90.999s15 -74.333 15 -117c0 -41.333 -5.16699 -79.166 -15.5 -113.499s-26 -64 -47 -89s-47.167 -44.5 -78.5 -58.5s-68.333 -21 -111 -21h-215v570z" />
    <glyph glyph-name="E" unicode="E" horiz-adv-x="489" 
d="M57 570h400v-66h-325v-176h283v-66h-283v-196h333v-66h-408v570z" />
    <glyph glyph-name="F" unicode="F" horiz-adv-x="474" 
d="M57 570h365v-66h-290v-170h269v-65h-269v-269h-75v570z" />
    <glyph glyph-name="G" unicode="G" horiz-adv-x="652" 
d="M530 80l-2 -0.00292969c-24 -36.667 -53.833 -61.667 -89.5 -75s-73.167 -20 -112.5 -20c-44.667 0 -84.667 7.33301 -120 22s-65.333 35.167 -90 61.5s-43.667 57.833 -57 94.5s-20 77.334 -20 122.001c0 36.667 6.33301 72.834 19 108.501s31.167 67.667 55.5 96
s54.333 51.333 90 69s76.5 26.5 122.5 26.5c30 0 59 -3.66699 87 -11s53.667 -18.166 77 -32.499s43.833 -32 61.5 -53s31.5 -45.167 41.5 -72.5l-75 -19c-6.66699 17.333 -15.167 33.5 -25.5 48.5s-23.333 28 -39 39s-33.834 19.5 -54.501 25.5s-45 9 -73 9
c-32 0 -60.667 -6.33301 -86 -19s-46.833 -29.5 -64.5 -50.5s-31.167 -45.333 -40.5 -73s-14 -56.5 -14 -86.5c0 -31.333 4 -61.5 12 -90.5s20.333 -54.5 37 -76.5s37.834 -39.5 63.501 -52.5s56.5 -19.5 92.5 -19.5c29.333 0 56.333 3.83301 81 11.5s46 19.167 64 34.5
s32 34.5 42 57.5s15 49.833 15 80.5h-196v65h263v-305h-65v85z" />
    <glyph glyph-name="H" unicode="H" horiz-adv-x="578" 
d="M57 570h75v-242h314v242h75v-570h-75v262h-314v-262h-75v570z" />
    <glyph glyph-name="I" unicode="I" horiz-adv-x="206" 
d="M66 570h75v-570h-75v570z" />
    <glyph glyph-name="J" unicode="J" horiz-adv-x="311" 
d="M171 570h75.002v-447c0 -17.333 -3.16699 -34.166 -9.5 -50.499s-15.833 -31 -28.5 -44s-28.834 -23.5 -48.501 -31.5s-42.834 -12 -69.501 -12c-12 0 -24.5 0.833008 -37.5 2.5s-25.833 3.5 -38.5 5.5v83c10.667 -6 22 -10.167 34 -12.5s22.667 -3.5 32 -3.5
c18.667 0 34 2.5 46 7.5s21.333 12.167 28 21.5s11.167 20.666 13.5 33.999s3.5 28.333 3.5 45v402z" />
    <glyph glyph-name="K" unicode="K" horiz-adv-x="519" 
d="M57 570h75v-276l272 276h92l-228 -236l237 -334h-91l-199 280l-83 -82v-198h-75v570z" />
    <glyph glyph-name="L" unicode="L" horiz-adv-x="445" 
d="M57 570h75v-504h284v-66h-359v570z" />
    <glyph glyph-name="M" unicode="M" horiz-adv-x="666" 
d="M59 570h99l175 -463l174 463h99v-570h-75v458h-1l-166 -458h-62l-166 458h-1v-458h-76v570z" />
    <glyph glyph-name="N" unicode="N" horiz-adv-x="563" 
d="M57 570h76l301 -450h3v450h69v-570h-75l-302 449h-1v-449h-71v570z" />
    <glyph glyph-name="O" unicode="O" horiz-adv-x="652" 
d="M121 285c0 -31.333 4 -61.333 12 -90s20.333 -54 37 -76s37.834 -39.5 63.501 -52.5s56.5 -19.5 92.5 -19.5c34.667 0 64.834 6.5 90.501 19.5s47 30.5 64 52.5s29.5 47.333 37.5 76s12 58.667 12 90s-4 61.333 -12 90s-20.5 54 -37.5 76s-38.333 39.5 -64 52.5
s-55.834 19.5 -90.501 19.5c-36 0 -66.833 -6.5 -92.5 -19.5s-46.834 -30.5 -63.501 -52.5s-29 -47.333 -37 -76s-12 -58.667 -12 -90zM39 285c0 44 6.66699 84.5 20 121.5s32.333 68.667 57 95s54.667 46.833 90 61.5s75.333 22 120 22c44 0 83.667 -7.33301 119 -22
s65.333 -35.167 90 -61.5s43.667 -58 57 -95s20 -77.5 20 -121.5c0 -44.667 -6.66699 -85.334 -20 -122.001s-32.333 -68.167 -57 -94.5s-54.667 -46.833 -90 -61.5s-75 -22 -119 -22c-44.667 0 -84.667 7.33301 -120 22s-65.333 35.167 -90 61.5s-43.667 57.833 -57 94.5
s-20 77.334 -20 122.001z" />
    <glyph glyph-name="P" unicode="P" horiz-adv-x="504" 
d="M132 309h174.999c32.667 0 58.834 7.66699 78.501 23s29.5 40.333 29.5 75c0 32 -7.66699 56.167 -23 72.5s-40.333 24.5 -75 24.5h-185v-195zM56.999 570l285 -0.000976562c17.333 0 34.833 -2.66699 52.5 -8s33.5 -14.5 47.5 -27.5s25.5 -30 34.5 -51
s13.5 -46.833 13.5 -77.5c0 -28 -4.66699 -52.333 -14 -73s-21.333 -37.667 -36 -51s-31.167 -23.166 -49.5 -29.499s-36.833 -9.5 -55.5 -9.5h-203v-243h-75v570z" />
    <glyph glyph-name="Q" unicode="Q" horiz-adv-x="652" 
d="M121 285c0 -31.333 4 -61.333 12 -90s20.333 -54 37 -76s37.834 -39.5 63.501 -52.5s56.5 -19.5 92.5 -19.5c34.667 0 64.834 6.5 90.501 19.5s47 30.5 64 52.5s29.5 47.333 37.5 76s12 58.667 12 90s-4 61.333 -12 90s-20.5 54 -37.5 76s-38.333 39.5 -64 52.5
s-55.834 19.5 -90.501 19.5c-36 0 -66.833 -6.5 -92.5 -19.5s-46.834 -30.5 -63.501 -52.5s-29 -47.333 -37 -76s-12 -58.667 -12 -90zM510 44c-24.667 -18.667 -52.332 -33.167 -82.999 -43.5s-64.334 -15.5 -101.001 -15.5c-44.667 0 -84.667 7.33301 -120 22
s-65.333 35.167 -90 61.5s-43.667 57.833 -57 94.5s-20 77.334 -20 122.001c0 44 6.66699 84.5 20 121.5s32.333 68.667 57 95s54.667 46.833 90 61.5s75.333 22 120 22c44 0 83.667 -7.33301 119 -22s65.333 -35.167 90 -61.5s43.667 -58 57 -95s20 -77.5 20 -121.5
c0 -72.667 -17.333 -134.334 -52 -185.001l85 -70l-48 -57z" />
    <glyph glyph-name="R" unicode="R" horiz-adv-x="534" 
d="M132 308l170 -0.000976562c18 0 34.333 1.5 49 4.5s27.334 8.33301 38.001 16s19 17.667 25 30s9 28.166 9 47.499c0 18.667 -3 34.334 -9 47.001s-14.333 22.834 -25 30.501s-23.334 13 -38.001 16s-31 4.5 -49 4.5h-170v-196zM57 569.999l258.001 -0.000976562
c22 0 44 -2.5 66 -7.5s41.667 -13.667 59 -26s31.333 -29 42 -50s16 -47.833 16 -80.5c0 -18 -2.33301 -35.833 -7 -53.5s-12.167 -33.667 -22.5 -48s-23.833 -26.666 -40.5 -36.999s-37.334 -17.5 -62.001 -21.5l156 -246h-91l-153 242h-146v-242h-75v570z" />
    <glyph glyph-name="S" unicode="S" horiz-adv-x="534" 
d="M415 402c-0.666992 21.333 -4.99609 39.6611 -12.9961 54.9941s-18.667 27.833 -32 37.5s-28.666 16.834 -45.999 21.501s-36 7 -56 7c-13.333 0 -27.5 -1.33301 -42.5 -4s-28.833 -7.16699 -41.5 -13.5s-23 -15 -31 -26s-12 -24.833 -12 -41.5
c0 -19.333 5.16699 -34.666 15.5 -45.999s24 -20.666 41 -27.999s36.333 -13.166 58 -17.499s43.834 -9 66.501 -14s44.834 -11.167 66.501 -18.5s41 -17.166 58 -29.499s30.667 -28.333 41 -48s15.5 -44.167 15.5 -73.5c0 -30.667 -6.5 -57.167 -19.5 -79.5
s-29.833 -40.833 -50.5 -55.5s-44 -25.5 -70 -32.5s-52.333 -10.5 -79 -10.5c-34 0 -65.833 3.66699 -95.5 11s-55.834 19 -78.501 35s-41 36.667 -55 62s-22 56 -24 92l82 8c2 -52.667 17.833 -90.167 47.5 -112.5s69.5 -33.5 119.5 -33.5c18 0 35.5 2.16699 52.5 6.5
s32 11 45 20s23.5 20.667 31.5 35s12 31.5 12 51.5c0 26 -9 45.667 -27 59s-40.333 23.833 -67 31.5s-55.667 14.334 -87 20.001s-60.333 13.834 -87 24.501s-49 25.667 -67 45s-27 46.666 -27 81.999c0 27.333 6.16699 51.166 18.5 71.499s28.166 37.333 47.499 51
s41.166 23.834 65.499 30.501s48.5 10 72.5 10c29.333 0 57.166 -3.5 83.499 -10.5s49.666 -17.833 69.999 -32.5s37.166 -33.167 50.499 -55.5s21.666 -48.833 24.999 -79.5z" />
    <glyph glyph-name="T" unicode="T" horiz-adv-x="445" 
d="M185 504h-171v66h417v-66h-171v-504h-75v504z" />
    <glyph glyph-name="U" unicode="U" horiz-adv-x="547" 
d="M490 187c0 -64.667 -19 -114.5 -57 -149.5s-91 -52.5 -159 -52.5c-66.667 0 -119.5 17.5 -158.5 52.5s-58.5 84.833 -58.5 149.5v383h75v-369c0 -50.667 11.167 -88.334 33.5 -113.001s58.5 -37 108.5 -37s86 12.333 108 37s33 62.334 33 113.001v369h75v-383z" />
    <glyph glyph-name="V" unicode="V" horiz-adv-x="488" 
d="M9 570h82l150 -466h1l158 466h80l-203 -570h-78z" />
    <glyph glyph-name="W" unicode="W" horiz-adv-x="799" 
d="M2 570h81l134 -445h1l143 445h78l142 -445h3l132 445h81l-175 -570h-75l-147 466h-1l-147 -466h-74z" />
    <glyph glyph-name="X" unicode="X" horiz-adv-x="488" 
d="M199 300l-172 270h90l127 -203l128 203h89l-173 -270l192 -300h-91l-145 233l-145 -233h-90z" />
    <glyph glyph-name="Y" unicode="Y" horiz-adv-x="503" 
d="M213 262l-204 308h90l152 -236l153 236h90l-206 -308v-262h-75v262z" />
    <glyph glyph-name="Z" unicode="Z" horiz-adv-x="489" 
d="M17 72l357 432h-328v66h410v-71l-358 -433h374v-66h-455v72z" />
    <glyph glyph-name="bracketleft" unicode="[" horiz-adv-x="252" 
d="M88 570h150v-51h-85v-591h85v-51h-150v693z" />
    <glyph glyph-name="backslash" unicode="\" horiz-adv-x="267" 
d="M10 585h58l188 -600h-59z" />
    <glyph glyph-name="bracketright" unicode="]" horiz-adv-x="252" 
d="M15 -72h84v591h-84v51h150v-693h-150v51z" />
    <glyph glyph-name="asciicircum" unicode="^" horiz-adv-x="480" 
d="M217 544h46l179 -339h-60l-141 269l-143 -269h-60z" />
    <glyph glyph-name="underscore" unicode="_" horiz-adv-x="400" 
d="M0 -60h400v-40h-400v40z" />
    <glyph glyph-name="grave" unicode="`" horiz-adv-x="163" 
d="M-27 571h86l71 -113h-54z" />
    <glyph glyph-name="a" unicode="a" horiz-adv-x="400" 
d="M275 263c0 28 -6.49902 48.001 -19.499 60.001s-36.5 18 -70.5 18c-50 0 -76.333 -26.333 -79 -79l-65 5c4 44 18.5 75.833 43.5 95.5s58.833 29.5 101.5 29.5c16 0 33 -1.5 51 -4.5s34.667 -8.66699 50 -17s28 -20.333 38 -36s15 -35.834 15 -60.501v-178
c0 -18.667 3 -30.667 9 -36s12.333 -8 19 -8c5.33301 0 12.333 1.66699 21 5v-55c-7.33301 -1.33301 -14.333 -2.5 -21 -3.5s-13.334 -1.5 -20.001 -1.5c-20 0 -35.167 4.33301 -45.5 13s-17.833 22 -22.5 40c-35.333 -39.333 -80.333 -59 -135 -59
c-17.333 0 -33.333 2.66699 -48 8s-27.5 12.666 -38.5 21.999s-19.667 20.333 -26 33s-9.5 26.667 -9.5 42c0 26 5.66699 47.333 17 64s27.833 29.834 49.5 39.501s48 16.667 79 21s66.5 7.5 106.5 9.5v33zM275.001 187.001c-26.667 -4 -51.168 -8.00195 -73.501 -12.002
s-41.666 -9.16699 -57.999 -15.5s-29 -14.166 -38 -23.499s-13.5 -21.333 -13.5 -36c0 -12 2.5 -21.667 7.5 -29s11.167 -13.166 18.5 -17.499s15.333 -7.33301 24 -9s16.667 -2.5 24 -2.5c32 0 58.167 8.66699 78.5 26s30.5 42 30.5 74v45z" />
    <glyph glyph-name="b" unicode="b" horiz-adv-x="450" 
d="M352 192c0 18.667 -2.16699 36.667 -6.5 54s-11.333 32.666 -21 45.999s-22 24 -37 32s-33.167 12 -54.5 12c-19.333 0 -36.333 -4 -51 -12s-27 -18.667 -37 -32s-17.667 -28.666 -23 -45.999s-8 -35.333 -8 -54c0 -19.333 2.33301 -37.666 7 -54.999
s11.667 -32.666 21 -45.999s21.5 -24 36.5 -32s33.167 -12 54.5 -12s39.5 4 54.5 12s27.333 18.667 37 32s16.667 28.666 21 45.999s6.5 35.666 6.5 54.999zM50 570l66 -0.00195312v-236h1c14 20 31.667 34.667 53 44s45 14 71 14c32 0 59.5 -5.66699 82.5 -17
s41.833 -26.333 56.5 -45s25.5 -40 32.5 -64s10.5 -48.667 10.5 -74c0 -26 -3.16699 -51.167 -9.5 -75.5s-17 -45.666 -32 -63.999s-34.5 -33.166 -58.5 -44.499s-53.333 -17 -88 -17c-24 0 -46.333 4.5 -67 13.5s-37.667 22.833 -51 41.5h-1v-46h-66v570z" />
    <glyph glyph-name="c" unicode="c" horiz-adv-x="415" 
d="M318 256c-4.66699 26 -16.166 46.668 -34.499 62.001s-40.5 23 -66.5 23c-24 0 -43.667 -4.66699 -59 -14s-27.5 -21.166 -36.5 -35.499s-15.167 -30.5 -18.5 -48.5s-5 -35.667 -5 -53c0 -18.667 2 -36.834 6 -54.501s10.667 -33.5 20 -47.5s21.5 -25.167 36.5 -33.5
s33.167 -12.5 54.5 -12.5c32.667 0 59 9 79 27s30.333 43.333 31 76l71 -6c-6.66699 -48 -25.834 -84.667 -57.501 -110s-71.834 -38 -120.501 -38c-62.667 0 -110.167 18 -142.5 54s-48.5 83.333 -48.5 142c0 29.333 4.16699 56.5 12.5 81.5s20.5 46.667 36.5 65
s35.833 32.666 59.5 42.999s50.834 15.5 81.501 15.5c20 0 39.333 -2.66699 58 -8s35.667 -13.333 51 -24s28.5 -24 39.5 -40s18.833 -35 23.5 -57z" />
    <glyph glyph-name="d" unicode="d" horiz-adv-x="450" 
d="M98 192c0 -19.333 2.33301 -37.666 7 -54.999s11.667 -32.666 21 -45.999s21.5 -24 36.5 -32s33.167 -12 54.5 -12s39.5 4 54.5 12s27.333 18.667 37 32s16.667 28.666 21 45.999s6.5 35.666 6.5 54.999c0 18.667 -2.66699 36.667 -8 54s-13 32.666 -23 45.999
s-22.5 24 -37.5 32s-31.833 12 -50.5 12c-21.333 0 -39.5 -4 -54.5 -12s-27.167 -18.667 -36.5 -32s-16.333 -28.666 -21 -45.999s-7 -35.333 -7 -54zM399 0l-65 0.00195312v46h-2c-12.667 -18.667 -29.334 -32.5 -50.001 -41.5s-43 -13.5 -67 -13.5
c-35.333 0 -64.833 5.66699 -88.5 17s-43 26.166 -58 44.499s-25.667 39.666 -32 63.999s-9.5 49.5 -9.5 75.5c0 25.333 3.33301 50 10 74s17.334 45.333 32.001 64s33.5 33.667 56.5 45s51.167 17 84.5 17c26 0 49.333 -4.66699 70 -14s38 -24 52 -44h2v236h65v-570z" />
    <glyph glyph-name="e" unicode="e" horiz-adv-x="415" 
d="M318 228c-4 32 -15.167 58.833 -33.5 80.5s-45.5 32.5 -81.5 32.5c-16 0 -30.333 -3.16699 -43 -9.5s-23.5 -14.833 -32.5 -25.5s-16 -22.667 -21 -36s-7.83301 -27.333 -8.5 -42h220zM98 177c0 -38 9.66992 -70.001 29.0029 -96.001s48 -39 86 -39
c57.333 0 93 28.667 107 86l65 -8c-12 -44 -33.333 -76.5 -64 -97.5s-67.334 -31.5 -110.001 -31.5c-30 0 -56.333 5 -79 15s-41.834 23.833 -57.501 41.5s-27.5 38.5 -35.5 62.5s-12 50 -12 78c0 62.667 15 112.334 45 149.001s76 55 138 55
c29.333 0 55.166 -5.16699 77.499 -15.5s41 -24.333 56 -42s26.333 -38.667 34 -63s11.5 -50.5 11.5 -78.5v-16h-291z" />
    <glyph glyph-name="f" unicode="f" horiz-adv-x="222" 
d="M68 326l-62.0039 -0.000976562v57h62v67c0 42.667 8.5 73.334 25.5 92.001s44.5 28 82.5 28c7.33301 0 14.333 -0.5 21 -1.5s13.334 -2.16699 20.001 -3.5v-50c-5.33301 2 -10.666 3.16699 -15.999 3.5s-12 0.5 -20 0.5c-5.33301 0 -10.666 -0.666992 -15.999 -2
s-10.166 -4 -14.499 -8s-8 -9.5 -11 -16.5s-4.5 -16.167 -4.5 -27.5v-82h70v-57h-70v-326h-67v326z" />
    <glyph glyph-name="g" unicode="g" horiz-adv-x="450" 
d="M334 383l65.0059 -0.00195312v-386c0 -14.667 -1.33301 -32 -4 -52s-9.83398 -39.167 -21.501 -57.5s-29.334 -34 -53.001 -47s-56.167 -19.5 -97.5 -19.5c-23.333 0 -45.5 2.5 -66.5 7.5s-39.5 13.167 -55.5 24.5s-28.833 25.833 -38.5 43.5s-15.167 39.167 -16.5 64.5
h70c-0.666992 -15.333 1.66602 -28.666 6.99902 -39.999s13 -20.666 23 -27.999s21.5 -12.666 34.5 -15.999s26.5 -5 40.5 -5c27.333 0 48.666 4.33301 63.999 13s26.666 19.667 33.999 33s11.666 27.666 12.999 42.999s2 30 2 44v54h-2
c-17.333 -23.333 -36.333 -40.5 -57 -51.5s-45 -16.5 -73 -16.5c-16.667 0 -35.167 2.66699 -55.5 8s-39.333 15.5 -57 30.5s-32.5 35.5 -44.5 61.5s-18 59.667 -18 101c0 28 3.5 54.167 10.5 78.5s17.667 45.5 32 63.5s32.5 32.167 54.5 42.5s48.333 15.5 79 15.5
s57.167 -5.5 79.5 -16.5s38.833 -25.833 49.5 -44.5l2 -2v54zM211.006 335.998c-34 0 -62.335 -12 -85.002 -36s-34 -60 -34 -108c0 -20.667 2.66699 -39.834 8 -57.501s13 -33 23 -46s22.333 -23.167 37 -30.5s31.667 -11 51 -11c18.667 0 35.667 4 51 12
s28.333 18.833 39 32.5s18.834 29.334 24.501 47.001s8.5 36.167 8.5 55.5c-1.33301 52 -13.166 88.667 -35.499 110s-51.5 32 -87.5 32z" />
    <glyph glyph-name="h" unicode="h" horiz-adv-x="415" 
d="M50 570h65.998v-238h1c12.667 18.667 28.5 33.334 47.5 44.001s40.833 16 65.5 16c18.667 0 36.334 -2.33301 53.001 -7s31 -12.5 43 -23.5s21.5 -25.333 28.5 -43s10.5 -39.834 10.5 -66.501v-252h-65v246c0 32.667 -7.66699 55.167 -23 67.5s-34.666 18.5 -57.999 18.5
c-30.667 0 -55.5 -9 -74.5 -27s-28.5 -43 -28.5 -75v-230h-66v570z" />
    <glyph glyph-name="i" unicode="i" horiz-adv-x="163" 
d="M49 570h65v-75h-65v75zM49 383h65v-383h-65v383z" />
    <glyph glyph-name="j" unicode="j" horiz-adv-x="163" 
d="M49 570h65v-75h-65v75zM114 -74c0 -16.667 -1.16797 -32.001 -3.50098 -46.001s-6.66602 -26.167 -12.999 -36.5s-15.5 -18.333 -27.5 -24s-27.667 -8.5 -47 -8.5c-14 0 -23.833 0.333008 -29.5 1s-10.5 1.33398 -14.5 2.00098v56c4 0 7.66699 -0.5 11 -1.5
s7.33301 -1.5 12 -1.5c5.33301 0 10.833 0.5 16.5 1.5s10.667 3 15 6s8 7.5 11 13.5s4.5 13.667 4.5 23v472h65v-457z" />
    <glyph glyph-name="k" unicode="k" horiz-adv-x="385" 
d="M50 570h66v-351l151 162h78l-139 -151l172 -230h-82l-134 182l-46 -49v-133h-66v570z" />
    <glyph glyph-name="l" unicode="l" horiz-adv-x="163" 
d="M49 570h65v-570h-65v570z" />
    <glyph glyph-name="m" unicode="m" horiz-adv-x="622" 
d="M50 383h61.9971v-49h1c12 16 27.333 29.667 46 41s39 17 61 17c20.667 0 41.834 -5 63.501 -15s37.834 -27 48.501 -51c13.333 18.667 30.666 34.334 51.999 47.001s42.333 19 63 19c16 0 31.5 -2 46.5 -6s28.333 -11.333 40 -22s21 -24.834 28 -42.501
s10.5 -40.5 10.5 -68.5v-253h-66v256c0 24 -5.33301 42.667 -16 56s-27.667 20 -51 20c-10 0 -20.5 -1.5 -31.5 -4.5s-21.167 -7.83301 -30.5 -14.5s-17.166 -15.167 -23.499 -25.5s-9.5 -22.5 -9.5 -36.5v-251h-66v256c0 24 -5.33301 42.667 -16 56s-27.667 20 -51 20
c-10 0 -20.5 -1.5 -31.5 -4.5s-21.167 -7.83301 -30.5 -14.5s-17.166 -15.167 -23.499 -25.5s-9.5 -22.5 -9.5 -36.5v-251h-66v383z" />
    <glyph glyph-name="n" unicode="n" horiz-adv-x="415" 
d="M50 383h65.998v-51h1c12.667 18.667 28.5 33.334 47.5 44.001s40.833 16 65.5 16c18.667 0 36.334 -2.33301 53.001 -7s31 -12.5 43 -23.5s21.5 -25.333 28.5 -43s10.5 -39.834 10.5 -66.501v-252h-65v246c0 32.667 -7.66699 55.167 -23 67.5s-34.666 18.5 -57.999 18.5
c-30.667 0 -55.5 -9 -74.5 -27s-28.5 -43 -28.5 -75v-230h-66v383z" />
    <glyph glyph-name="o" unicode="o" horiz-adv-x="429" 
d="M98 192c0 -16 1.66699 -32.833 5 -50.5s9.16602 -33.834 17.499 -48.501s20 -26.834 35 -36.501s34.5 -14.5 58.5 -14.5c23.333 0 42.666 4.83301 57.999 14.5s27.5 21.834 36.5 36.501s15.167 30.834 18.5 48.501s5 34.5 5 50.5c0 15.333 -1.66699 31.833 -5 49.5
s-9.5 33.834 -18.5 48.501s-21.167 26.834 -36.5 36.501s-34.666 14.5 -57.999 14.5c-24 0 -43.5 -4.83301 -58.5 -14.5s-26.667 -21.834 -35 -36.501s-14.166 -30.834 -17.499 -48.501s-5 -34.167 -5 -49.5zM27 192c0 28.667 4.16699 55.167 12.5 79.5s20.5 45.5 36.5 63.5
s35.667 32 59 42s49.666 15 78.999 15c30 0 56.5 -5 79.5 -15s42.5 -24 58.5 -42s28.167 -39.167 36.5 -63.5s12.5 -50.833 12.5 -79.5c0 -29.333 -4.16699 -56.333 -12.5 -81s-20.5 -45.834 -36.5 -63.501s-35.5 -31.5 -58.5 -41.5s-49.5 -15 -79.5 -15
c-29.333 0 -55.666 5 -78.999 15s-43 23.833 -59 41.5s-28.167 38.834 -36.5 63.501s-12.5 51.667 -12.5 81z" />
    <glyph glyph-name="p" unicode="p" horiz-adv-x="450" 
d="M352 192c0 18.667 -2.16699 36.667 -6.5 54s-11.333 32.666 -21 45.999s-22 24 -37 32s-33.167 12 -54.5 12s-39.5 -4 -54.5 -12s-27.167 -18.667 -36.5 -32s-16.333 -28.666 -21 -45.999s-7 -35.333 -7 -54c0 -19.333 2.66699 -37.666 8 -54.999s13 -32.666 23 -45.999
s22.333 -24 37 -32s31.667 -12 51 -12c21.333 0 39.5 4 54.5 12s27.333 18.667 37 32s16.667 28.666 21 45.999s6.5 35.666 6.5 54.999zM50 383l66 -0.000976562v-46h1c10.667 14.667 26.667 27.5 48 38.5s46 16.5 74 16.5c34 0 62.667 -5.66699 86 -17
s42.333 -26.333 57 -45s25.167 -40 31.5 -64s9.5 -48.667 9.5 -74c0 -26 -3.5 -51.167 -10.5 -75.5s-17.833 -45.666 -32.5 -63.999s-33.5 -33.166 -56.5 -44.499s-50.5 -17 -82.5 -17c-26 0 -49.667 4.66699 -71 14s-39 23.666 -53 42.999h-1v-227h-66v562z" />
    <glyph glyph-name="q" unicode="q" horiz-adv-x="450" 
d="M98 192c0 -19.333 2.33301 -37.666 7 -54.999s11.667 -32.666 21 -45.999s21.5 -24 36.5 -32s33.167 -12 54.5 -12c18.667 0 35.5 4 50.5 12s27.5 18.667 37.5 32s17.667 28.666 23 45.999s8 35.666 8 54.999c0 18.667 -2.16699 36.667 -6.5 54
s-11.333 32.666 -21 45.999s-22 24 -37 32s-33.167 12 -54.5 12s-39.5 -4 -54.5 -12s-27.167 -18.667 -36.5 -32s-16.333 -28.666 -21 -45.999s-7 -35.333 -7 -54zM399 -179l-65.002 0.000976562v227h-2c-14 -19.333 -31.333 -33.666 -52 -42.999s-44 -14 -70 -14
c-33.333 0 -61.5 5.66699 -84.5 17s-41.833 26.166 -56.5 44.499s-25.334 39.666 -32.001 63.999s-10 49.5 -10 75.5c0 25.333 3.16699 50 9.5 74s16.833 45.333 31.5 64s33.834 33.667 57.501 45s52.834 17 87.501 17c23.333 0 46.333 -5.5 69 -16.5
s39.334 -23.833 50.001 -38.5h2v46h65v-562z" />
    <glyph glyph-name="r" unicode="r" horiz-adv-x="267" 
d="M50 383h66.002v-66h1c16 26 34.167 44.333 54.5 55s47.5 16 81.5 16v-72c-6.66699 0 -14.167 0.166992 -22.5 0.5s-15.5 0.5 -21.5 0.5c-16 0 -29.833 -3.33301 -41.5 -10s-21.334 -15 -29.001 -25s-13.334 -21 -17.001 -33s-5.5 -23.667 -5.5 -35v-214h-66v383z" />
    <glyph glyph-name="s" unicode="s" horiz-adv-x="385" 
d="M96 135c0 -18 3.16406 -32.999 9.49707 -44.999s14.5 -21.5 24.5 -28.5s21.5 -12 34.5 -15s26.167 -4.5 39.5 -4.5c7.33301 0 15.833 0.833008 25.5 2.5s19 4.66699 28 9s16.667 10.833 23 19.5s9.5 20 9.5 34c0 16 -6.16699 28 -18.5 36s-27.833 14.333 -46.5 19
s-38.667 8.66699 -60 12s-41.333 8.83301 -60 16.5s-34.167 18.334 -46.5 32.001s-18.5 32.834 -18.5 57.501c0 20 4.33301 37 13 51s19.834 25.5 33.501 34.5s29 15.667 46 20s34.167 6.5 51.5 6.5c12.667 0 28.5 -1.83301 47.5 -5.5s37 -10.334 54 -20.001
s31.667 -22.5 44 -38.5s18.5 -36 18.5 -60l-65 -9c0 13.333 -2.66699 25.166 -8 35.499s-12.5 19 -21.5 26s-19.167 12.167 -30.5 15.5s-23.333 5 -36 5c-9.33301 0 -18.666 -0.833008 -27.999 -2.5s-18 -4.5 -26 -8.5s-14.5 -9.66699 -19.5 -17s-7.5 -17 -7.5 -29
c0 -14 6.33301 -24.667 19 -32s28.334 -13.5 47.001 -18.5s39 -9.5 61 -13.5s42.333 -10.167 61 -18.5s34.334 -19.833 47.001 -34.5s19 -34.334 19 -59.001c0 -20 -4.66699 -37.5 -14 -52.5s-21.833 -27.167 -37.5 -36.5s-33.334 -16.333 -53.001 -21
s-39.834 -7 -60.501 -7c-21.333 0 -41.666 2.5 -60.999 7.5s-36.833 13 -52.5 24s-28.5 24.833 -38.5 41.5s-16 37 -18 61z" />
    <glyph glyph-name="t" unicode="t" horiz-adv-x="222" 
d="M6 383h61.998v119h67v-119h70v-57h-70v-243c0 -8.66699 1 -16.834 3 -24.501s9.66699 -11.5 23 -11.5c7.33301 0 14.333 0.5 21 1.5s13.334 3.16699 20.001 6.5v-56c-10.667 -3.33301 -21.5 -5.5 -32.5 -6.5s-21.833 -1.5 -32.5 -1.5c-16.667 0 -29.667 1.83301 -39 5.5
s-16.166 8.83398 -20.499 15.501s-7 14.5 -8 23.5s-1.5 19.167 -1.5 30.5v260h-62v57z" />
    <glyph glyph-name="u" unicode="u" horiz-adv-x="415" 
d="M365 0l-64.998 0.000976562v51h-2c-12.667 -18.667 -28.334 -33.334 -47.001 -44.001s-40.334 -16 -65.001 -16c-19.333 0 -37.333 2.16699 -54 6.5s-31 11.833 -43 22.5s-21.5 25 -28.5 43s-10.5 40.333 -10.5 67v253h66v-253c0 -26.667 7.5 -46.5 22.5 -59.5
s34.5 -19.5 58.5 -19.5c30.667 0 55.5 9.16699 74.5 27.5s28.5 42.833 28.5 73.5v231h65v-383z" />
    <glyph glyph-name="v" unicode="v" horiz-adv-x="356" 
d="M9 383h67l103 -285h2l98 285h68l-136 -383h-62z" />
    <glyph glyph-name="w" unicode="w" horiz-adv-x="593" 
d="M10 383h72l95 -282h2l91 282h56l89 -282h2l99 282h67l-140 -383h-57l-90 280h-2l-92 -280h-58z" />
    <glyph glyph-name="x" unicode="x" horiz-adv-x="326" 
d="M125 194l-110 189h74l74 -131l80 131h74l-116 -189l116 -194h-74l-80 135l-81 -135h-73z" />
    <glyph glyph-name="y" unicode="y" horiz-adv-x="356" 
d="M278 383h67.002l-166 -467c-4.66699 -14 -9.83398 -27.5 -15.501 -40.5s-12.834 -24.167 -21.501 -33.5s-19 -16.833 -31 -22.5s-27 -8.5 -45 -8.5c-10 0 -19.667 1.33301 -29 4s-18.333 5 -27 7v57c4.66699 -0.666992 11.167 -2 19.5 -4s15.833 -3 22.5 -3
c14.667 0 27 3.5 37 10.5s18.333 21.5 25 43.5l27 73l-128 384h69l94 -290h2z" />
    <glyph glyph-name="z" unicode="z" horiz-adv-x="341" 
d="M18 56l219 270h-198v57h279v-55l-222 -272h227v-56h-305v56z" />
    <glyph glyph-name="braceleft" unicode="{" horiz-adv-x="267" 
d="M225 519h-38.999c-12 0 -20.667 -2.83301 -26 -8.5s-8 -16.167 -8 -31.5v-140c0 -22 -1.83301 -39.833 -5.5 -53.5s-8.33398 -24.834 -14.001 -33.501s-12.167 -15 -19.5 -19s-14.333 -7.33301 -21 -10c6.66699 -2.66699 13.5 -6.16699 20.5 -10.5
s13.5 -10.666 19.5 -18.999s10.833 -19.333 14.5 -33s5.5 -31.167 5.5 -52.5v-140c0 -15.333 2.66699 -25.833 8 -31.5s14 -8.5 26 -8.5h39v-51h-45c-32 0 -55.5 6.83301 -70.5 20.5s-22.5 37.5 -22.5 71.5v139c0 25.333 -4.66699 46.5 -14 63.5s-24.666 25.5 -45.999 25.5
v52c21.333 0 36.666 8.5 45.999 25.5s14 38.5 14 64.5v138c0 34 7.5 58 22.5 72s38.5 21 70.5 21h45v-51z" />
    <glyph glyph-name="bar" unicode="|" horiz-adv-x="178" 
d="M60 629h57v-800h-57v800z" />
    <glyph glyph-name="braceright" unicode="}" horiz-adv-x="267" 
d="M42 -72l39 0.00195312c11.333 0 19.666 2.83301 24.999 8.5s8 16.167 8 31.5v140c0 21.333 2 38.833 6 52.5s8.83301 24.667 14.5 33s12 14.666 19 18.999s13.5 7.83301 19.5 10.5c-6 2.66699 -12.5 6.16699 -19.5 10.5s-13.333 10.666 -19 18.999s-10.5 19.333 -14.5 33
s-6 31.5 -6 53.5v140c0 15.333 -2.66699 25.833 -8 31.5s-13.666 8.5 -24.999 8.5h-39v51h45c32 0 55.5 -7 70.5 -21s22.5 -38 22.5 -72v-138c0 -26 4.5 -47.5 13.5 -64.5s24.167 -25.5 45.5 -25.5v-52c-21.333 0 -36.5 -8.5 -45.5 -25.5s-13.5 -38.167 -13.5 -63.5v-139
c0 -34 -7.5 -57.833 -22.5 -71.5s-38.5 -20.5 -70.5 -20.5h-45v51z" />
    <glyph glyph-name="asciitilde" unicode="~" horiz-adv-x="480" 
d="M55 188c9.33301 17.333 21.6689 32.999 37.002 46.999s36.333 21 63 21c15.333 0 30.833 -2.5 46.5 -7.5s30.834 -11.167 45.501 -18.5c15.333 -7.33301 29.666 -13.5 42.999 -18.5s25.333 -7.5 36 -7.5c17.333 0 31.166 6.16699 41.499 18.5s20.166 24.833 29.499 37.5
l28 -43c-12 -17.333 -25.5 -33.166 -40.5 -47.499s-34.833 -21.5 -59.5 -21.5c-16 0 -30.5 2.83301 -43.5 8.5s-26.167 12.167 -39.5 19.5c-14 6.66699 -28 12.5 -42 17.5s-30 7.5 -48 7.5s-32.333 -6 -43 -18s-19 -24.667 -25 -38z" />
    <glyph glyph-name="exclamdown" unicode="&#xa1;" horiz-adv-x="237" 
d="M83 391h71v-75h-71v75zM152 57v-236h-67v236l21 215h25z" />
    <glyph glyph-name="cent" unicode="&#xa2;" horiz-adv-x="445" 
d="M203 -9c-27.333 2 -51.1631 8.33105 -71.4961 18.998s-37.333 24.667 -51 42s-24 37.5 -31 60.5s-10.5 47.833 -10.5 74.5c0 56.667 13.5 102.834 40.5 138.501s68.167 57.167 123.5 64.5v79h46v-78c18 -2 35.167 -6 51.5 -12s31.166 -14.167 44.499 -24.5
s24.833 -23.166 34.5 -38.499s16.5 -33 20.5 -53l-71 -7c-3.33301 22.667 -12.333 41.167 -27 55.5s-32.334 23.833 -53.001 28.5v-298c26 4 46.667 14.667 62 32s23.666 41 24.999 71l71 -6c-5.33301 -44 -22.333 -79 -51 -105s-64.334 -40.333 -107.001 -43v-82h-46v82z
M203.003 338.998c-18 -3.33301 -33.168 -10.1689 -45.501 -20.502s-22.166 -22.333 -29.499 -36s-12.5 -28.667 -15.5 -45s-4.5 -32.166 -4.5 -47.499c0 -16.667 1.83301 -33.167 5.5 -49.5s9.16699 -31.333 16.5 -45s17 -25.167 29 -34.5s26.667 -15.666 44 -18.999v297z
" />
    <glyph glyph-name="sterling" unicode="&#xa3;" horiz-adv-x="445" 
d="M21 270l84 0.00488281c-16.667 19.333 -29.834 39.666 -39.501 60.999s-14.5 41.666 -14.5 60.999c0 26 5.16699 48.667 15.5 68s23.833 35.666 40.5 48.999s35.5 23.333 56.5 30s42.167 10 63.5 10c24.667 0 47.667 -2.83301 69 -8.5s40 -14.667 56 -27
s28.667 -28 38 -47s14.666 -41.833 15.999 -68.5l-71 -12c-0.666992 10.667 -2.66699 22 -6 34s-9 23 -17 33s-18.667 18.333 -32 25s-30 10 -50 10c-17.333 0 -32 -3 -44 -9s-22 -13.333 -30 -22s-13.833 -18.334 -17.5 -29.001s-5.5 -20.334 -5.5 -29.001
c0 -13.333 2 -25.5 6 -36.5s9 -21.5 15 -31.5s12.5 -20 19.5 -30s13.5 -20.333 19.5 -31h154v-51h-129c3.33301 -12 5.83301 -23.5 7.5 -34.5s2.5 -20.833 2.5 -29.5c0 -12.667 -1.5 -24.334 -4.5 -35.001s-8.5 -21.667 -16.5 -33
c15.333 -7.33301 29.5 -13.666 42.5 -18.999s27.833 -8 44.5 -8c24.667 0 42.5 8.83301 53.5 26.5s16.5 37.5 16.5 59.5h70c-0.666992 -21.333 -4 -41.333 -10 -60s-14.667 -34.667 -26 -48s-25.166 -23.833 -41.499 -31.5s-35.166 -11.5 -56.499 -11.5
s-42.5 4.83301 -63.5 14.5s-40.833 19.167 -59.5 28.5c-11.333 -14 -23.833 -24.667 -37.5 -32s-30.167 -11 -49.5 -11c-21.333 0 -40 5.16699 -56 15.5s-24 26.833 -24 49.5c0 14.667 3 26.5 9 35.5s13.333 16 22 21s17.5 8.33301 26.5 10s16.5 2.5 22.5 2.5
c23.333 0 45.333 -6.66699 66 -20c4.66699 11.333 7 22 7 32c0 14 -2.33301 27.5 -7 40.5s-10 25.5 -16 37.5h-119v51zM62 60.0049c0 -6.66699 3.33105 -11.334 9.99805 -14.001s13.334 -4 20.001 -4c8 0 15.833 1.5 23.5 4.5s12.834 7.5 15.501 13.5c-6 4 -12.667 8 -20 12
s-14.333 6 -21 6c-7.33301 0 -13.833 -1.16699 -19.5 -3.5s-8.5 -7.16602 -8.5 -14.499z" />
    <glyph glyph-name="currency" unicode="&#xa4;" horiz-adv-x="445" 
d="M80 272c0 -21.333 3.33301 -41 10 -59s16 -33.667 28 -47s26.833 -23.666 44.5 -30.999s37.5 -11 59.5 -11s41.833 3.66699 59.5 11s32.667 17.666 45 30.999s22 29 29 47s10.5 37.667 10.5 59c0 20.667 -3.5 40.167 -10.5 58.5s-16.667 34.166 -29 47.499
s-27.333 23.833 -45 31.5s-37.5 11.5 -59.5 11.5s-41.833 -3.83301 -59.5 -11.5s-32.5 -18.167 -44.5 -31.5s-21.333 -29.166 -28 -47.499s-10 -37.833 -10 -58.5zM222 472c21.333 0 42.666 -3 63.999 -9s40 -16 56 -30l43 42l41 -38l-44 -44
c12.667 -16 22.5 -34.333 29.5 -55s10.5 -42.667 10.5 -66c0 -22.667 -3.5 -44.334 -10.5 -65.001s-16.833 -39.667 -29.5 -57l44 -43l-41 -39l-43 44c-16 -14.667 -34.667 -24.834 -56 -30.501s-42.666 -8.5 -63.999 -8.5c-20 0 -40.667 2.83301 -62 8.5
s-40 15.834 -56 30.501l-44 -44l-41 39l44 43c-12.667 17.333 -22.5 36.333 -29.5 57s-10.5 42.334 -10.5 65.001c0 23.333 3.5 45.333 10.5 66s16.833 39 29.5 55l-44 44l41 38l44 -42c16 14 34.667 24 56 30s42 9 62 9z" />
    <glyph glyph-name="yen" unicode="&#xa5;" horiz-adv-x="445" 
d="M189 132h-116v47h116v67h-116v47h90l-156 251h81l134 -226l136 226h80l-156 -251h90v-47h-117v-67h117v-47h-117v-132h-66v132z" />
    <glyph glyph-name="brokenbar" unicode="&#xa6;" horiz-adv-x="178" 
d="M60 529h57v-200h-57v200zM60 129h57v-200h-57v200z" />
    <glyph glyph-name="section" unicode="&#xa7;" horiz-adv-x="445" 
d="M79 -36c22.667 -12.667 46.3291 -23.832 70.9961 -33.499s50.334 -14.5 77.001 -14.5c9.33301 0 19.166 0.666992 29.499 2s19.666 4.33301 27.999 9s15.166 10.834 20.499 18.501s8 18.167 8 31.5c0 10.667 -3 20 -9 28s-13.167 15 -21.5 21s-17.333 11.333 -27 16
s-18.5 9 -26.5 13l-107 56c-31.333 14.667 -55.833 32.5 -73.5 53.5s-26.5 50.5 -26.5 88.5c0 28.667 7.66699 53.5 23 74.5s36.333 36.833 63 47.5c-15.333 12 -27.5 24.5 -36.5 37.5s-13.5 29.833 -13.5 50.5s5 38.667 15 54s22.833 28 38.5 38s33 17.5 52 22.5
s37.5 7.5 55.5 7.5c30 0 59.667 -5.5 89 -16.5s57 -24.833 83 -41.5l-32 -55c-22 14.667 -44.667 26.834 -68 36.501s-47.666 14.5 -72.999 14.5c-9.33301 0 -19 -0.833008 -29 -2.5s-19.167 -4.83398 -27.5 -9.50098s-15.166 -10.667 -20.499 -18s-8 -16.333 -8 -27
c0 -16 4 -27.167 12 -33.5s18.667 -12.833 32 -19.5l168 -87c26.667 -13.333 46.334 -28.833 59.001 -46.5s19 -40.5 19 -68.5c0 -32 -8.16699 -59.167 -24.5 -81.5s-40.5 -37.5 -72.5 -45.5c42 -23.333 63 -59.333 63 -108c0 -20.667 -4.33301 -38.5 -13 -53.5
s-20 -27.5 -34 -37.5s-29.833 -17.5 -47.5 -22.5s-35.5 -7.5 -53.5 -7.5c-19.333 0 -37.166 1.16699 -53.499 3.5s-32.166 5.66602 -47.499 9.99902s-30.666 9.66602 -45.999 15.999s-32 13.833 -50 22.5zM261.995 120.002c10.667 1.33301 21.499 4.16699 32.499 8.5
s20.833 9.83301 29.5 16.5s15.667 14.5 21 23.5s8 19.167 8 30.5c0 17.333 -5 31 -15 41s-21.333 18 -34 24l-148 77c-3.33301 -0.666992 -8.5 -2.66699 -15.5 -6s-14.167 -8.5 -21.5 -15.5s-13.666 -15.667 -18.999 -26s-8 -22.833 -8 -37.5
c0 -18.667 6.16699 -34.5 18.5 -47.5s26.5 -23.833 42.5 -32.5z" />
    <glyph glyph-name="dieresis" unicode="&#xa8;" horiz-adv-x="163" 
d="M111 549h70v-80h-70v80zM-17 549h69v-80h-69v80z" />
    <glyph glyph-name="copyright" unicode="&#xa9;" horiz-adv-x="641" 
d="M72 285c0 -34.667 6.66699 -67.334 20 -98.001s31.166 -57.5 53.499 -80.5s48.5 -41.167 78.5 -54.5s62 -20 96 -20s66 6.66699 96 20s56.167 31.5 78.5 54.5s40.166 49.833 53.499 80.5s20 63.334 20 98.001s-6.66699 67.334 -20 98.001s-31.166 57.5 -53.499 80.5
s-48.5 41.167 -78.5 54.5s-62 20 -96 20s-66 -6.66699 -96 -20s-56.167 -31.5 -78.5 -54.5s-40.166 -49.833 -53.499 -80.5s-20 -63.334 -20 -98.001zM21 285c0 41.333 7.83301 80.166 23.5 116.499s37 68.166 64 95.499s58.667 48.833 95 64.5s75.166 23.5 116.499 23.5
s80.166 -7.83301 116.499 -23.5s68 -37.167 95 -64.5s48.333 -59.166 64 -95.499s23.5 -75.166 23.5 -116.499s-7.83301 -80.166 -23.5 -116.499s-37 -68.166 -64 -95.499s-58.667 -48.833 -95 -64.5s-75.166 -23.5 -116.499 -23.5s-80.166 7.83301 -116.499 23.5
s-68 37.167 -95 64.5s-48.333 59.166 -64 95.499s-23.5 75.166 -23.5 116.499zM477 226c-4.66699 -38.667 -20.665 -69.6699 -47.998 -93.0029s-62.333 -35 -105 -35c-24.667 0 -47.5 4.83301 -68.5 14.5s-39 23 -54 40s-26.667 37 -35 60s-12.5 47.5 -12.5 73.5
c0 26.667 4 51.334 12 74.001s19.333 42.334 34 59.001s32.667 29.834 54 39.501s45.666 14.5 72.999 14.5c39.333 0 72.833 -10.833 100.5 -32.5s44.167 -52.5 49.5 -92.5h-55c-1.33301 20 -10 38 -26 54s-38.667 24 -68 24c-18.667 0 -35.334 -3.83301 -50.001 -11.5
s-27 -17.834 -37 -30.501s-17.667 -27.5 -23 -44.5s-8 -34.833 -8 -53.5c0 -17.333 2.66699 -34.5 8 -51.5s13 -32.167 23 -45.5s22 -24 36 -32s29.667 -12 47 -12c30 0 52.667 7.33301 68 22s25.333 34.334 30 59.001h55z" />
    <glyph glyph-name="ordfeminine" unicode="&#xaa;" horiz-adv-x="260" 
d="M176 472c0 15.333 -4.00195 25.835 -12.002 31.502s-22 8.5 -42 8.5c-16.667 0 -29.334 -2.83301 -38.001 -8.5s-13.334 -16.167 -14.001 -31.5l-42 2c2.66699 26 12 45 28 57s38 18 66 18c10.667 0 21.834 -0.833008 33.501 -2.5s22.5 -5.16699 32.5 -10.5
s18.167 -12.666 24.5 -21.999s9.5 -21.333 9.5 -36v-95c0 -14.667 1 -24.834 3 -30.501s7.66699 -8.16699 17 -7.5h5.5c1.66699 0 3.83398 1 6.50098 3v-36c-8 -2.66699 -16 -4 -24 -4c-10.667 0 -20.167 2.83301 -28.5 8.5s-14.166 14.5 -17.499 26.5
c-23.333 -23.333 -52.666 -35 -87.999 -35c-22.667 0 -41.667 6.16699 -57 18.5s-23 27.5 -23 45.5c0 19.333 5.83301 34.333 17.5 45s25.834 18.667 42.501 24s34.167 8.66602 52.5 9.99902s34.166 2.66602 47.499 3.99902v17zM175.998 423.002
c-33.333 -4.66699 -60.5 -10.167 -81.5 -16.5s-31.5 -17.166 -31.5 -32.499c0 -12 4.83301 -19.833 14.5 -23.5s20.167 -5.5 31.5 -5.5c21.333 0 37.833 3.16699 49.5 9.5s17.5 21.166 17.5 44.499v24z" />
    <glyph glyph-name="guillemotleft" unicode="&#xab;" horiz-adv-x="326" 
d="M153 332v-74l-62 -55l62 -54v-75l-109 94v70zM282 332v-74l-62 -55l62 -54v-75l-109 94v70z" />
    <glyph glyph-name="logicalnot" unicode="&#xac;" horiz-adv-x="480" 
d="M386 254h-348v56h404v-223h-56v167z" />
    <glyph glyph-name="registered" unicode="&#xae;" horiz-adv-x="641" 
d="M72 285c0 -34.667 6.66699 -67.334 20 -98.001s31.166 -57.5 53.499 -80.5s48.5 -41.167 78.5 -54.5s62 -20 96 -20s66 6.66699 96 20s56.167 31.5 78.5 54.5s40.166 49.833 53.499 80.5s20 63.334 20 98.001s-6.66699 67.334 -20 98.001s-31.166 57.5 -53.499 80.5
s-48.5 41.167 -78.5 54.5s-62 20 -96 20s-66 -6.66699 -96 -20s-56.167 -31.5 -78.5 -54.5s-40.166 -49.833 -53.499 -80.5s-20 -63.334 -20 -98.001zM21 285c0 41.333 7.83301 80.166 23.5 116.499s37 68.166 64 95.499s58.667 48.833 95 64.5s75.166 23.5 116.499 23.5
s80.166 -7.83301 116.499 -23.5s68 -37.167 95 -64.5s48.333 -59.166 64 -95.499s23.5 -75.166 23.5 -116.499s-7.83301 -80.166 -23.5 -116.499s-37 -68.166 -64 -95.499s-58.667 -48.833 -95 -64.5s-75.166 -23.5 -116.499 -23.5s-80.166 7.83301 -116.499 23.5
s-68 37.167 -95 64.5s-48.333 59.166 -64 95.499s-23.5 75.166 -23.5 116.499zM262 308h62.001c12 0 23 0.666992 33 2s18.667 4 26 8s13.166 9.5 17.499 16.5s6.5 16.5 6.5 28.5c0 18.667 -7.33301 32 -22 40s-33.667 12 -57 12h-66v-107zM211.001 461l131 0.000976562
c77.333 0 116 -32.667 116 -98c0 -33.333 -8.66699 -57.833 -26 -73.5s-37.333 -24.834 -60 -27.501l99 -154h-58l-97 154h-54v-154h-51v353z" />
    <glyph glyph-name="macron" unicode="&#xaf;" horiz-adv-x="163" 
d="M-28 544h220v-46h-220v46z" />
    <glyph glyph-name="macron" unicode="&#x2c9;" horiz-adv-x="163" 
d="M-28 544h220v-46h-220v46z" />
    <glyph glyph-name="degree" unicode="&#xb0;" horiz-adv-x="320" 
d="M46 434c0 16 3 31 9 45s14 26.167 24 36.5s22 18.5 36 24.5s29 9 45 9s30.833 -3 44.5 -9s25.834 -14.167 36.501 -24.5s19 -22.5 25 -36.5s9 -29 9 -45s-3 -31 -9 -45s-14.333 -26 -25 -36s-22.834 -18 -36.501 -24s-28.5 -9 -44.5 -9s-31 3 -45 9s-26 14 -36 24
s-18 22 -24 36s-9 29 -9 45zM88 434c0 -8.66699 2 -17.334 6 -26.001s9.33301 -16.5 16 -23.5s14.334 -12.667 23.001 -17s17.667 -6.5 27 -6.5s18.333 2.16699 27 6.5s16.5 10 23.5 17s12.5 14.833 16.5 23.5s6 17.334 6 26.001c0 9.33301 -2 18.333 -6 27
s-9.5 16.5 -16.5 23.5s-14.833 12.5 -23.5 16.5s-17.667 6 -27 6s-18.333 -2 -27 -6s-16.334 -9.5 -23.001 -16.5s-12 -14.833 -16 -23.5s-6 -17.667 -6 -27z" />
    <glyph glyph-name="plusminus" unicode="&#xb1;" horiz-adv-x="480" 
d="M38 56h404v-56h-404v56zM212 215h-174v56h174v134h56v-134h174v-56h-174v-133h-56v133z" />
    <glyph glyph-name="uni00B2" unicode="&#xb2;" horiz-adv-x="288" 
d="M32 269c16 7.33301 33.668 17.667 53.001 31s37.333 28 54 44s30.5 32.5 41.5 49.5s16.5 33.5 16.5 49.5c0 36.667 -18.667 55 -56 55c-10.667 0 -19.334 -1.66699 -26.001 -5s-12 -7.33301 -16 -12s-6.83301 -10 -8.5 -16s-2.5 -11.333 -2.5 -16
c0 -6.66699 0.5 -13.5 1.5 -20.5s1.83301 -13.833 2.5 -20.5h-56c-2.66699 12.667 -4 25.667 -4 39c0 30 8.83301 54.5 26.5 73.5s46.5 28.5 86.5 28.5c34 0 61.5 -9.33301 82.5 -28s31.5 -44 31.5 -76c0 -20.667 -5.33301 -40.167 -16 -58.5s-23.5 -34.833 -38.5 -49.5
s-30.833 -27.5 -47.5 -38.5s-30.667 -19.833 -42 -26.5v-2h147v-51h-230v50z" />
    <glyph glyph-name="uni00B3" unicode="&#xb3;" horiz-adv-x="288" 
d="M112 414c6 0 11.5049 -0.164062 16.5049 -0.49707s10.5 -0.5 16.5 -0.5c4 0 9.16699 0.333008 15.5 1s12.5 2.33398 18.5 5.00098s11.167 6.66699 15.5 12s6.5 12.666 6.5 21.999c0 4.66699 -0.5 9.66699 -1.5 15s-3.33301 10.166 -7 14.499s-9.16699 8 -16.5 11
s-17.333 4.5 -30 4.5c-22 0 -37.833 -6.16699 -47.5 -18.5s-14.5 -27.166 -14.5 -44.499l-56 3c2 36 12.333 63.5 31 82.5s48 28.5 88 28.5c20.667 0 38.167 -2.83301 52.5 -8.5s26.166 -12.834 35.499 -21.501s16.166 -18.667 20.499 -30s6.5 -22.333 6.5 -33
c0 -15.333 -3.33301 -29 -10 -41s-17.334 -20.333 -32.001 -25v-1c16.667 -6 29.5 -16.333 38.5 -31s13.5 -30.667 13.5 -48c0 -8 -1.5 -17.5 -4.5 -28.5s-9 -21.5 -18 -31.5s-21.833 -18.5 -38.5 -25.5s-38.334 -10.5 -65.001 -10.5
c-38.667 0 -69.834 9.16699 -93.501 27.5s-35.5 46.5 -35.5 84.5h56c2 -22.667 9.16699 -38.334 21.5 -47.001s29.5 -13 51.5 -13s38.333 4.66699 49 14s16 21 16 35c0 9.33301 -2.16699 17 -6.5 23s-9.66602 10.667 -15.999 14s-13.5 5.66602 -21.5 6.99902
s-15.667 2 -23 2h-16h-8c-2.66699 0 -5.33398 -0.333008 -8.00098 -1v54z" />
    <glyph glyph-name="acute" unicode="&#xb4;" horiz-adv-x="163" 
d="M104 571h86l-103 -113h-54z" />
    <glyph glyph-name="mu" unicode="&#xb5;" horiz-adv-x="445" 
d="M365 83c0 -11.333 1.33301 -20.001 4 -26.001c2.66699 -4.66699 6.16699 -7.5 10.5 -8.5s8.83301 -1.5 13.5 -1.5s10 0.5 16 1.5s13.667 3.16699 23 6.5v-56c-10 -2.66699 -21.5 -4.66699 -34.5 -6s-24.167 -2 -33.5 -2c-8.66699 0 -17.167 0.666992 -25.5 2
s-15.833 6 -22.5 14c-5.33301 6 -9.33301 13 -12 21s-4 15.667 -4 23h-2c-7.33301 -12 -17.333 -23.333 -30 -34c-23.333 -17.333 -50.666 -26 -81.999 -26c-6.66699 0 -14.5 0.166992 -23.5 0.5s-17.5 2.5 -25.5 6.5c-6.66699 2.66699 -13.667 6.33398 -21 11.001v-188h-66
v562h66v-253c0 -8.66699 1.33301 -18.667 4 -30s9.33398 -21.333 20.001 -30c5.33301 -4.66699 12.666 -9 21.999 -13s21 -6 35 -6s26.667 2.33301 38 7c11.333 3.33301 21 8.33301 29 15c15.333 11.333 25.166 23.833 29.499 37.5s6.5 27.5 6.5 41.5v231h65v-300z" />
    <glyph glyph-name="paragraph" unicode="&#xb6;" horiz-adv-x="480" 
d="M217 266c-24 0 -46.333 4 -67 12s-38.334 18.833 -53.001 32.5s-26.167 29.5 -34.5 47.5s-12.5 37.333 -12.5 58c0 52 15.833 90.667 47.5 116s75.834 38 132.501 38h183v-700h-47v664h-103v-664h-46v396z" />
    <glyph glyph-name="periodcentered" unicode="&#xb7;" horiz-adv-x="222" 
d="M66 249c0 13.333 4.16699 24.333 12.5 33s19.5 13 33.5 13c12.667 0 23.334 -4.33301 32.001 -13s13 -19.667 13 -33c0 -14.667 -4.33301 -26.334 -13 -35.001s-19.334 -13 -32.001 -13c-14 0 -25.167 4.33301 -33.5 13s-12.5 20.334 -12.5 35.001z" />
    <glyph glyph-name="periodcentered" unicode="&#x2219;" horiz-adv-x="222" 
d="M66 249c0 13.333 4.16699 24.333 12.5 33s19.5 13 33.5 13c12.667 0 23.334 -4.33301 32.001 -13s13 -19.667 13 -33c0 -14.667 -4.33301 -26.334 -13 -35.001s-19.334 -13 -32.001 -13c-14 0 -25.167 4.33301 -33.5 13s-12.5 20.334 -12.5 35.001z" />
    <glyph glyph-name="cedilla" unicode="&#xb8;" horiz-adv-x="163" 
d="M9 -130c9.33301 -4 18 -7.16504 26 -9.49805s17 -3.5 27 -3.5c9.33301 0 19 2.33301 29 7s15 13 15 25s-3.66699 20.333 -11 25s-16.333 7 -27 7c-9.33301 0 -20 -1.66699 -32 -5l-13 16l51 68h38l-37 -50h1c4 1.33301 8.16699 2.16602 12.5 2.49902
s8.16602 0.5 11.499 0.5c18.667 0 34.667 -4.83301 48 -14.5s20 -24.5 20 -44.5c0 -14 -3.5 -25.667 -10.5 -35s-15.333 -16.833 -25 -22.5s-19.667 -9.83398 -30 -12.501s-19.166 -4 -26.499 -4c-6.66699 0 -11 0.333008 -13 1c-22 2.66699 -44.667 8 -68 16z" />
    <glyph glyph-name="uni00B9" unicode="&#xb9;" horiz-adv-x="288" 
d="M128 448l-69.999 -0.000976562v42c22.667 0.666992 41.667 4.33398 57 11.001s25.666 21 30.999 43h43v-325h-61v229z" />
    <glyph glyph-name="ordmasculine" unicode="&#xba;" horiz-adv-x="279" 
d="M70 429c0 -9.33301 1 -19 3 -29s5.5 -19 10.5 -27s12 -14.667 21 -20s20.5 -8 34.5 -8c14.667 0 26.667 2.66699 36 8s16.5 12 21.5 20s8.5 17 10.5 27s3 19.667 3 29c0 8.66699 -1 18 -3 28s-5.5 19 -10.5 27s-12.167 14.667 -21.5 20s-21.333 8 -36 8
c-14 0 -25.5 -2.66699 -34.5 -8s-16 -12 -21 -20s-8.5 -17 -10.5 -27s-3 -19.333 -3 -28zM18 429c0 16.667 2.83398 32.334 8.50098 47.001s13.667 27.334 24 38.001s23 19.167 38 25.5s31.833 9.5 50.5 9.5s35.667 -3.16699 51 -9.5s28.166 -14.833 38.499 -25.5
s18.333 -23.334 24 -38.001s8.5 -30.334 8.5 -47.001c0 -36 -10.667 -65.167 -32 -87.5s-51.333 -33.5 -90 -33.5c-37.333 0 -66.833 11.167 -88.5 33.5s-32.5 51.5 -32.5 87.5z" />
    <glyph glyph-name="guillemotright" unicode="&#xbb;" horiz-adv-x="326" 
d="M173 74v75l62 54l-62 55v74l109 -94v-70zM44 74v75l62 54l-62 55v74l109 -94v-70z" />
    <glyph glyph-name="onequarter" unicode="&#xbc;" horiz-adv-x="668" 
d="M114 448l-70 -0.000976562v42c24 0.666992 43.333 4.33398 58 11.001s24.667 21 30 43h44v-325h-62v229zM477 569.999h54l-344 -595h-55zM541 242.999h-1l-95 -124h96v124zM541 66.999h-152v49l164 209h50v-206h43v-52h-43v-67h-62v67z" />
    <glyph glyph-name="onehalf" unicode="&#xbd;" horiz-adv-x="668" 
d="M380 50c16 8 33.5 18.501 52.5 31.501s36.833 27.333 53.5 43s30.667 32.167 42 49.5s17 34.333 17 51s-5.16699 29.667 -15.5 39s-23.833 14 -40.5 14c-10.667 0 -19.5 -1.5 -26.5 -4.5s-12.5 -7 -16.5 -12s-6.83301 -10.333 -8.5 -16s-2.5 -10.834 -2.5 -15.501
c0 -6.66699 0.666992 -13.5 2 -20.5s2.33301 -13.833 3 -20.5h-56c-2.66699 11.333 -4 24.333 -4 39c0 30 8.66699 54.333 26 73s46 28 86 28c34.667 0 62.167 -9.33301 82.5 -28s30.5 -44 30.5 -76c0 -20.667 -5.33301 -40 -16 -58s-23.5 -34.333 -38.5 -49
s-30.5 -27.5 -46.5 -38.5s-29.667 -20.167 -41 -27.5v-1h147v-51h-230v50zM114 448.001l-70 -0.000976562v42c24 0.666992 43.333 4.33398 58 11.001s24.667 21 30 43h44v-325h-62v229zM439 570h55l-345 -595h-54z" />
    <glyph glyph-name="threequarters" unicode="&#xbe;" horiz-adv-x="668" 
d="M138 414c6.66699 0 12.5029 -0.164062 17.5029 -0.49707s10.5 -0.5 16.5 -0.5c4 0 9.16699 0.333008 15.5 1s12.5 2.33398 18.5 5.00098s11.167 6.66699 15.5 12s6.5 12.666 6.5 21.999c0 4.66699 -0.5 9.66699 -1.5 15s-3.16699 10.166 -6.5 14.499s-8.83301 8 -16.5 11
s-17.834 4.5 -30.501 4.5c-22 0 -37.667 -6.16699 -47 -18.5s-14 -27.166 -14 -44.499l-56 3c1.33301 36 11.333 63.5 30 82.5s48 28.5 88 28.5c20.667 0 38.334 -2.83301 53.001 -8.5s26.5 -12.834 35.5 -21.501s15.5 -18.667 19.5 -30s6 -22.333 6 -33
c0 -15.333 -3.16699 -29 -9.5 -41s-16.833 -20.333 -31.5 -25v-1c16.667 -6 29.667 -16.333 39 -31s14 -30.667 14 -48c0 -8 -1.5 -17.5 -4.5 -28.5s-9.16699 -21.5 -18.5 -31.5s-22.333 -18.5 -39 -25.5s-38.334 -10.5 -65.001 -10.5
c-38.667 0 -69.834 9.16699 -93.501 27.5s-35.5 46.5 -35.5 84.5h56c2.66699 -22.667 10 -38.334 22 -47.001s29 -13 51 -13c21.333 0 37.5 4.66699 48.5 14s16.5 21 16.5 35c0 9.33301 -2 17 -6 23s-9.33301 10.667 -16 14s-13.834 5.66602 -21.501 6.99902
s-15.5 2 -23.5 2h-16h-8c-2.66699 0 -5.66699 -0.333008 -9 -1v54zM524.003 570.003h55l-344 -595h-55zM541.003 243.003h-1l-95 -124h96v124zM541.003 67.0029h-152v49l164 209h50v-206h43v-52h-43v-67h-62v67z" />
    <glyph glyph-name="questiondown" unicode="&#xbf;" horiz-adv-x="459" 
d="M268 316h-71v75h71v-75zM266 76l-29.999 0.000976562c-46 0 -78.167 -9 -96.5 -27s-27.5 -43.333 -27.5 -76c0 -14 3.16699 -27 9.5 -39s14.666 -22.667 24.999 -32s22.166 -16.666 35.499 -21.999s27 -8 41 -8c42 0 72.167 11.667 90.5 35s27.833 56 28.5 98h71
c0 -29.333 -4.5 -55.833 -13.5 -79.5s-21.667 -44 -38 -61s-35.666 -30.167 -57.999 -39.5s-46.833 -14 -73.5 -14c-24.667 0 -48 3.83301 -70 11.5s-41.333 18.667 -58 33s-30 32.166 -40 53.499s-15 46 -15 74c0 46 13.667 83.667 41 113s65 44.666 113 45.999v126h65
v-192z" />
    <glyph glyph-name="Agrave" unicode="&#xc0;" horiz-adv-x="519" 
d="M264 477h-1l-86 -236h170zM225 570h81l206 -570h-81l-62 174h-215l-66 -174h-81zM150 722h87l71 -113h-54z" />
    <glyph glyph-name="Aacute" unicode="&#xc1;" horiz-adv-x="519" 
d="M264 477h-1l-86 -236h170zM225 570h81l206 -570h-81l-62 174h-215l-66 -174h-81zM282 722h86l-104 -113h-53z" />
    <glyph glyph-name="Acircumflex" unicode="&#xc2;" horiz-adv-x="519" 
d="M264 477h-1l-86 -236h170zM225 570h81l206 -570h-81l-62 174h-215l-66 -174h-81zM221 722h74l81 -113h-65l-52 76l-54 -76h-63z" />
    <glyph glyph-name="Atilde" unicode="&#xc3;" horiz-adv-x="519" 
d="M264 477h-1l-86 -236h170zM225 570h81l206 -570h-81l-62 174h-215l-66 -174h-81zM123 617c2.66699 23.333 10.8311 43.334 24.498 60.001s33.167 25 58.5 25c10.667 0 21.167 -1.33301 31.5 -4s20.166 -5.66699 29.499 -9c8.66699 -4.66699 17.334 -8.5 26.001 -11.5
s15.334 -4.5 20.001 -4.5c12.667 0 23.167 3 31.5 9s12.5 15 12.5 27h39c-4 -22.667 -12.667 -42.834 -26 -60.501s-32.666 -26.5 -57.999 -26.5c-8 0 -17.167 1.66699 -27.5 5s-20.833 7 -31.5 11c-10.667 3.33301 -20.667 6.5 -30 9.5s-18 4.5 -26 4.5
c-8.66699 0 -16.667 -3.83301 -24 -11.5s-11 -15.5 -11 -23.5h-39z" />
    <glyph glyph-name="Adieresis" unicode="&#xc4;" horiz-adv-x="519" 
d="M264 477h-1l-86 -236h170zM225 570h81l206 -570h-81l-62 174h-215l-66 -174h-81zM288 700h71v-80h-71v80zM160 700h70v-80h-70v80z" />
    <glyph glyph-name="Aring" unicode="&#xc5;" horiz-adv-x="519" 
d="M264 477h-1l-86 -236h170zM225 570h81l206 -570h-81l-62 174h-215l-66 -174h-81zM215 669c0 -12.667 5 -24.167 15 -34.5s21.333 -15.5 34 -15.5c14 0 26 5.16699 36 15.5s15 21.833 15 34.5c0 13.333 -5 24.833 -15 34.5s-22 14.5 -36 14.5
c-12.667 0 -24 -4.83301 -34 -14.5s-15 -21.167 -15 -34.5zM184 669c0 11.333 2.16699 22.002 6.5 32.002s10.166 18.667 17.499 26s15.833 13.166 25.5 17.499s19.834 6.5 30.501 6.5c23.333 0 43 -8 59 -24s24 -35.333 24 -58s-8 -42 -24 -58s-35.667 -24 -59 -24
c-10.667 0 -20.834 2.16699 -30.501 6.5s-18.167 10.166 -25.5 17.499s-13.166 16 -17.499 26s-6.5 20.667 -6.5 32z" />
    <glyph glyph-name="AE" unicode="&#xc6;" horiz-adv-x="845" 
d="M415 495h-1l-158 -242h159v242zM415 187h-202l-125 -187h-88l386 570h433v-66h-329v-186h250v-65h-250v-187h341v-66h-416v187z" />
    <glyph glyph-name="Ccedilla" unicode="&#xc7;" horiz-adv-x="622" 
d="M300 -13c-40.667 2.66699 -77.168 11.6689 -109.501 27.002s-59.666 36 -81.999 62s-39.5 56.667 -51.5 92s-18 74.333 -18 117c0 44 6.66699 84.5 20 121.5s32.333 68.667 57 95s54.667 46.833 90 61.5s75.333 22 120 22c62 0 116.167 -14.833 162.5 -44.5
s78.5 -73.834 96.5 -132.501l-79 -15c-10.667 40 -32.667 71.667 -66 95s-71.333 35 -114 35c-36 0 -66.833 -6.5 -92.5 -19.5s-46.834 -30.5 -63.501 -52.5s-29 -47.333 -37 -76s-12 -58.667 -12 -90s4 -61.333 12 -90s20.333 -54 37 -76s37.834 -39.5 63.501 -52.5
s56.5 -19.5 92.5 -19.5c49.333 0 90.833 15.333 124.5 46s54.167 71.334 61.5 122.001l80 -10c-7.33301 -31.333 -18.833 -60.333 -34.5 -87s-34.667 -49.667 -57 -69s-47.5 -34.5 -75.5 -45.5s-57.333 -16.833 -88 -17.5l-27 -36h1
c3.33301 1.33301 7.16602 2.16602 11.499 2.49902s8.5 0.5 12.5 0.5c18.667 0 34.334 -4.83301 47.001 -14.5s19 -24.5 19 -44.5c0 -14 -3.33301 -25.667 -10 -35s-14.667 -16.833 -24 -22.5s-19.166 -9.83398 -29.499 -12.501s-19.5 -4 -27.5 -4
c-6 0 -10.667 0.333008 -14 1c-10.667 1.33301 -21.667 3.33301 -33 6s-22.333 6 -33 10l14 33c9.33301 -4 18 -7.16699 26 -9.5s16.667 -3.5 26 -3.5c10 0 20 2.33301 30 7s15 13 15 25s-3.83301 20.333 -11.5 25s-16.834 7 -27.501 7c-5.33301 0 -10.5 -0.5 -15.5 -1.5
s-10.167 -2.16699 -15.5 -3.5l-13 16z" />
    <glyph glyph-name="Egrave" unicode="&#xc8;" horiz-adv-x="489" 
d="M57 570h400v-66h-325v-176h283v-66h-283v-196h333v-66h-408v570zM136 722h86l72 -113h-53z" />
    <glyph glyph-name="Eacute" unicode="&#xc9;" horiz-adv-x="489" 
d="M57 570h400v-66h-325v-176h283v-66h-283v-196h333v-66h-408v570zM268 722h85l-103 -113h-54z" />
    <glyph glyph-name="Ecircumflex" unicode="&#xca;" horiz-adv-x="489" 
d="M57 570h400v-66h-325v-176h283v-66h-283v-196h333v-66h-408v570zM207 722h73l81 -113h-65l-52 76l-52 -76h-64z" />
    <glyph glyph-name="Edieresis" unicode="&#xcb;" horiz-adv-x="489" 
d="M57 570h400v-66h-325v-176h283v-66h-283v-196h333v-66h-408v570zM274 700h70v-80h-70v80zM146 700h71v-80h-71v80z" />
    <glyph glyph-name="Igrave" unicode="&#xcc;" horiz-adv-x="206" 
d="M66 570h75v-570h-75v570zM-6 722h87l71 -113h-54z" />
    <glyph glyph-name="Iacute" unicode="&#xcd;" horiz-adv-x="206" 
d="M66 570h75v-570h-75v570zM125 722h87l-104 -113h-53z" />
    <glyph glyph-name="Icircumflex" unicode="&#xce;" horiz-adv-x="206" 
d="M66 570h75v-570h-75v570zM66 722h73l81 -113h-65l-52 76l-53 -76h-64z" />
    <glyph glyph-name="Idieresis" unicode="&#xcf;" horiz-adv-x="206" 
d="M66 570h75v-570h-75v570zM132 700h71v-80h-71v80zM5 700h69v-80h-69v80z" />
    <glyph glyph-name="Eth" unicode="&#xd0;" horiz-adv-x="563" 
d="M132 66l127.001 -0.00292969c34 0 62.667 5.33301 86 16s42.166 25.834 56.499 45.501s24.666 43 30.999 70s9.5 57.167 9.5 90.5c0 32.667 -3.33301 62.334 -10 89.001s-17 49.334 -31 68.001s-32.167 33.167 -54.5 43.5s-49.166 15.5 -80.499 15.5h-134v-176h163v-56
h-163v-206zM57.001 271.997l-55.001 -0.00195312v56h55v242h215c43.333 0 80.833 -7 112.5 -21s57.834 -33.667 78.501 -59s36 -55.666 46 -90.999s15 -74.333 15 -117c0 -41.333 -5.16699 -79.166 -15.5 -113.499s-26 -64 -47 -89s-47.167 -44.5 -78.5 -58.5
s-68.333 -21 -111 -21h-215v272z" />
    <glyph glyph-name="Ntilde" unicode="&#xd1;" horiz-adv-x="563" 
d="M57 570h76l301 -450h3v450h69v-570h-75l-302 449h-1v-449h-71v570zM146 617c2 23.333 9.83301 43.334 23.5 60.001s33.5 25 59.5 25c10.667 0 21.167 -1.33301 31.5 -4s19.5 -5.66699 27.5 -9c9.33301 -4.66699 18.166 -8.5 26.499 -11.5s15.5 -4.5 21.5 -4.5
c12.667 0 23.167 3 31.5 9s12.5 15 12.5 27h37c-2.66699 -22.667 -10.5 -42.834 -23.5 -60.501s-32.833 -26.5 -59.5 -26.5c-7.33301 0 -16.166 1.66699 -26.499 5s-20.833 7 -31.5 11c-11.333 3.33301 -21.833 6.5 -31.5 9.5s-18.167 4.5 -25.5 4.5
c-9.33301 0 -17.5 -3.83301 -24.5 -11.5s-10.5 -15.5 -10.5 -23.5h-38z" />
    <glyph glyph-name="Ograve" unicode="&#xd2;" horiz-adv-x="652" 
d="M121 285c0 -31.333 4 -61.333 12 -90s20.333 -54 37 -76s37.834 -39.5 63.501 -52.5s56.5 -19.5 92.5 -19.5c34.667 0 64.834 6.5 90.501 19.5s47 30.5 64 52.5s29.5 47.333 37.5 76s12 58.667 12 90s-4 61.333 -12 90s-20.5 54 -37.5 76s-38.333 39.5 -64 52.5
s-55.834 19.5 -90.501 19.5c-36 0 -66.833 -6.5 -92.5 -19.5s-46.834 -30.5 -63.501 -52.5s-29 -47.333 -37 -76s-12 -58.667 -12 -90zM39 285c0 44 6.66699 84.5 20 121.5s32.333 68.667 57 95s54.667 46.833 90 61.5s75.333 22 120 22c44 0 83.667 -7.33301 119 -22
s65.333 -35.167 90 -61.5s43.667 -58 57 -95s20 -77.5 20 -121.5c0 -44.667 -6.66699 -85.334 -20 -122.001s-32.333 -68.167 -57 -94.5s-54.667 -46.833 -90 -61.5s-75 -22 -119 -22c-44.667 0 -84.667 7.33301 -120 22s-65.333 35.167 -90 61.5s-43.667 57.833 -57 94.5
s-20 77.334 -20 122.001zM217 722h86l72 -113h-54z" />
    <glyph glyph-name="Oacute" unicode="&#xd3;" horiz-adv-x="652" 
d="M121 285c0 -31.333 4 -61.333 12 -90s20.333 -54 37 -76s37.834 -39.5 63.501 -52.5s56.5 -19.5 92.5 -19.5c34.667 0 64.834 6.5 90.501 19.5s47 30.5 64 52.5s29.5 47.333 37.5 76s12 58.667 12 90s-4 61.333 -12 90s-20.5 54 -37.5 76s-38.333 39.5 -64 52.5
s-55.834 19.5 -90.501 19.5c-36 0 -66.833 -6.5 -92.5 -19.5s-46.834 -30.5 -63.501 -52.5s-29 -47.333 -37 -76s-12 -58.667 -12 -90zM39 285c0 44 6.66699 84.5 20 121.5s32.333 68.667 57 95s54.667 46.833 90 61.5s75.333 22 120 22c44 0 83.667 -7.33301 119 -22
s65.333 -35.167 90 -61.5s43.667 -58 57 -95s20 -77.5 20 -121.5c0 -44.667 -6.66699 -85.334 -20 -122.001s-32.333 -68.167 -57 -94.5s-54.667 -46.833 -90 -61.5s-75 -22 -119 -22c-44.667 0 -84.667 7.33301 -120 22s-65.333 35.167 -90 61.5s-43.667 57.833 -57 94.5
s-20 77.334 -20 122.001zM348 722h86l-103 -113h-54z" />
    <glyph glyph-name="Ocircumflex" unicode="&#xd4;" horiz-adv-x="652" 
d="M121 285c0 -31.333 4 -61.333 12 -90s20.333 -54 37 -76s37.834 -39.5 63.501 -52.5s56.5 -19.5 92.5 -19.5c34.667 0 64.834 6.5 90.501 19.5s47 30.5 64 52.5s29.5 47.333 37.5 76s12 58.667 12 90s-4 61.333 -12 90s-20.5 54 -37.5 76s-38.333 39.5 -64 52.5
s-55.834 19.5 -90.501 19.5c-36 0 -66.833 -6.5 -92.5 -19.5s-46.834 -30.5 -63.501 -52.5s-29 -47.333 -37 -76s-12 -58.667 -12 -90zM39 285c0 44 6.66699 84.5 20 121.5s32.333 68.667 57 95s54.667 46.833 90 61.5s75.333 22 120 22c44 0 83.667 -7.33301 119 -22
s65.333 -35.167 90 -61.5s43.667 -58 57 -95s20 -77.5 20 -121.5c0 -44.667 -6.66699 -85.334 -20 -122.001s-32.333 -68.167 -57 -94.5s-54.667 -46.833 -90 -61.5s-75 -22 -119 -22c-44.667 0 -84.667 7.33301 -120 22s-65.333 35.167 -90 61.5s-43.667 57.833 -57 94.5
s-20 77.334 -20 122.001zM288 722h73l81 -113h-65l-52 76l-53 -76h-63z" />
    <glyph glyph-name="Otilde" unicode="&#xd5;" horiz-adv-x="652" 
d="M121 285c0 -31.333 4 -61.333 12 -90s20.333 -54 37 -76s37.834 -39.5 63.501 -52.5s56.5 -19.5 92.5 -19.5c34.667 0 64.834 6.5 90.501 19.5s47 30.5 64 52.5s29.5 47.333 37.5 76s12 58.667 12 90s-4 61.333 -12 90s-20.5 54 -37.5 76s-38.333 39.5 -64 52.5
s-55.834 19.5 -90.501 19.5c-36 0 -66.833 -6.5 -92.5 -19.5s-46.834 -30.5 -63.501 -52.5s-29 -47.333 -37 -76s-12 -58.667 -12 -90zM39 285c0 44 6.66699 84.5 20 121.5s32.333 68.667 57 95s54.667 46.833 90 61.5s75.333 22 120 22c44 0 83.667 -7.33301 119 -22
s65.333 -35.167 90 -61.5s43.667 -58 57 -95s20 -77.5 20 -121.5c0 -44.667 -6.66699 -85.334 -20 -122.001s-32.333 -68.167 -57 -94.5s-54.667 -46.833 -90 -61.5s-75 -22 -119 -22c-44.667 0 -84.667 7.33301 -120 22s-65.333 35.167 -90 61.5s-43.667 57.833 -57 94.5
s-20 77.334 -20 122.001zM189 617c2.66699 23.333 11.0029 43.334 25.0029 60.001s33.333 25 58 25c10.667 0 21.167 -1.33301 31.5 -4s20.166 -5.66699 29.499 -9c9.33301 -4.66699 18.166 -8.5 26.499 -11.5s15.166 -4.5 20.499 -4.5c12.667 0 23 3 31 9s12 15 12 27h39
c-4 -22.667 -12.667 -42.834 -26 -60.501s-32.666 -26.5 -57.999 -26.5c-7.33301 0 -16.333 1.66699 -27 5s-21.334 7 -32.001 11c-10.667 3.33301 -20.667 6.5 -30 9.5s-18 4.5 -26 4.5c-8.66699 0 -16.667 -3.83301 -24 -11.5s-11 -15.5 -11 -23.5h-39z" />
    <glyph glyph-name="Odieresis" unicode="&#xd6;" horiz-adv-x="652" 
d="M121 285c0 -31.333 4 -61.333 12 -90s20.333 -54 37 -76s37.834 -39.5 63.501 -52.5s56.5 -19.5 92.5 -19.5c34.667 0 64.834 6.5 90.501 19.5s47 30.5 64 52.5s29.5 47.333 37.5 76s12 58.667 12 90s-4 61.333 -12 90s-20.5 54 -37.5 76s-38.333 39.5 -64 52.5
s-55.834 19.5 -90.501 19.5c-36 0 -66.833 -6.5 -92.5 -19.5s-46.834 -30.5 -63.501 -52.5s-29 -47.333 -37 -76s-12 -58.667 -12 -90zM39 285c0 44 6.66699 84.5 20 121.5s32.333 68.667 57 95s54.667 46.833 90 61.5s75.333 22 120 22c44 0 83.667 -7.33301 119 -22
s65.333 -35.167 90 -61.5s43.667 -58 57 -95s20 -77.5 20 -121.5c0 -44.667 -6.66699 -85.334 -20 -122.001s-32.333 -68.167 -57 -94.5s-54.667 -46.833 -90 -61.5s-75 -22 -119 -22c-44.667 0 -84.667 7.33301 -120 22s-65.333 35.167 -90 61.5s-43.667 57.833 -57 94.5
s-20 77.334 -20 122.001zM355 700h70v-80h-70v80zM227 700h69v-80h-69v80z" />
    <glyph glyph-name="multiply" unicode="&#xd7;" horiz-adv-x="480" 
d="M241 163l-145 -146l-41 40l146 146l-146 145l41 40l145 -145l144 145l40 -40l-145 -145l145 -146l-40 -40z" />
    <glyph glyph-name="Oslash" unicode="&#xd8;" horiz-adv-x="652" 
d="M91 100c-16.667 25.333 -29.499 53.332 -38.499 83.999s-13.5 64.334 -13.5 101.001c0 44 6.66699 84.5 20 121.5s32.333 68.667 57 95s54.667 46.833 90 61.5s75.333 22 120 22c42 0 79.167 -6.33301 111.5 -19s60.5 -30 84.5 -52l55 53l40 -39l-58 -56
c35.333 -50.667 53 -113 53 -187c0 -44.667 -6.66699 -85.334 -20 -122.001s-32.333 -68.167 -57 -94.5s-54.667 -46.833 -90 -61.5s-75 -22 -119 -22c-42 0 -79.333 6.33301 -112 19s-61.334 30.334 -86.001 53.001l-52 -50l-40 40zM180.001 106.999
c16.667 -18 37.166 -32.5 61.499 -43.5s52.5 -16.5 84.5 -16.5c34.667 0 64.834 6.5 90.501 19.5s47 30.5 64 52.5s29.5 47.333 37.5 76s12 58.667 12 90c0 50 -9.33301 94 -28 132zM470 463.999c-16.667 18.667 -36.833 33.167 -60.5 43.5s-51.5 15.5 -83.5 15.5
c-36 0 -66.833 -6.5 -92.5 -19.5s-46.834 -30.5 -63.501 -52.5s-29 -47.333 -37 -76s-12 -58.667 -12 -90c0 -24 2.33301 -46.833 7 -68.5s11.334 -42.167 20.001 -61.5z" />
    <glyph glyph-name="Ugrave" unicode="&#xd9;" horiz-adv-x="547" 
d="M490 187c0 -64.667 -19 -114.5 -57 -149.5s-91 -52.5 -159 -52.5c-66.667 0 -119.5 17.5 -158.5 52.5s-58.5 84.833 -58.5 149.5v383h75v-369c0 -50.667 11.167 -88.334 33.5 -113.001s58.5 -37 108.5 -37s86 12.333 108 37s33 62.334 33 113.001v369h75v-383zM165 722
h86l72 -113h-54z" />
    <glyph glyph-name="Uacute" unicode="&#xda;" horiz-adv-x="547" 
d="M490 187c0 -64.667 -19 -114.5 -57 -149.5s-91 -52.5 -159 -52.5c-66.667 0 -119.5 17.5 -158.5 52.5s-58.5 84.833 -58.5 149.5v383h75v-369c0 -50.667 11.167 -88.334 33.5 -113.001s58.5 -37 108.5 -37s86 12.333 108 37s33 62.334 33 113.001v369h75v-383zM296 722
h87l-105 -113h-53z" />
    <glyph glyph-name="Ucircumflex" unicode="&#xdb;" horiz-adv-x="547" 
d="M490 187c0 -64.667 -19 -114.5 -57 -149.5s-91 -52.5 -159 -52.5c-66.667 0 -119.5 17.5 -158.5 52.5s-58.5 84.833 -58.5 149.5v383h75v-369c0 -50.667 11.167 -88.334 33.5 -113.001s58.5 -37 108.5 -37s86 12.333 108 37s33 62.334 33 113.001v369h75v-383zM236 722
h74l81 -113h-65l-54 76l-52 -76h-63z" />
    <glyph glyph-name="Udieresis" unicode="&#xdc;" horiz-adv-x="547" 
d="M490 187c0 -64.667 -19 -114.5 -57 -149.5s-91 -52.5 -159 -52.5c-66.667 0 -119.5 17.5 -158.5 52.5s-58.5 84.833 -58.5 149.5v383h75v-369c0 -50.667 11.167 -88.334 33.5 -113.001s58.5 -37 108.5 -37s86 12.333 108 37s33 62.334 33 113.001v369h75v-383zM302 700
h71v-80h-71v80zM174 700h71v-80h-71v80z" />
    <glyph glyph-name="Yacute" unicode="&#xdd;" horiz-adv-x="503" 
d="M213 262l-204 308h90l152 -236l153 236h90l-206 -308v-262h-75v262zM274 722h86l-104 -113h-53z" />
    <glyph glyph-name="Thorn" unicode="&#xde;" horiz-adv-x="504" 
d="M132 226h174.999c32.667 0 58.834 7.33301 78.501 22s29.5 40 29.5 76c0 32 -7.66699 56.167 -23 72.5s-40.333 24.5 -75 24.5h-185v-195zM56.999 570l75 -0.00195312v-83h210c17.333 0 34.833 -2.66699 52.5 -8s33.5 -14.5 47.5 -27.5s25.5 -30 34.5 -51
s13.5 -46.833 13.5 -77.5c0 -28.667 -4.66699 -53.167 -14 -73.5s-21.333 -37.166 -36 -50.499s-31.167 -23.166 -49.5 -29.499s-36.833 -9.5 -55.5 -9.5h-203v-160h-75v570z" />
    <glyph glyph-name="germandbls" unicode="&#xdf;" horiz-adv-x="445" 
d="M405 189c0 -19.333 -1.83105 -40.499 -5.49805 -63.499s-11.667 -44.5 -24 -64.5s-30 -36.667 -53 -50s-53.833 -20 -92.5 -20c-12.667 0 -25.334 1.16699 -38.001 3.5s-25 5.16602 -37 8.49902v64c12 -4.66699 24.833 -8.5 38.5 -11.5s27.5 -4.5 41.5 -4.5
c34 0 59.833 11.667 77.5 35s26.5 56 26.5 98c0 26 -5 47.167 -15 63.5s-23.167 29 -39.5 38s-35.333 15.167 -57 18.5s-44.167 5 -67.5 5v61c5.33301 0 10.166 -0.166992 14.499 -0.5s8.83301 -0.5 13.5 -0.5c13.333 0 26.333 1.16699 39 3.5s24 6.5 34 12.5
s18 14.167 24 24.5s9 23.5 9 39.5c0 15.333 -2.33301 27.833 -7 37.5s-11 17.167 -19 22.5s-17.333 9 -28 11s-22 3 -34 3c-32 0 -55 -8.66699 -69 -26s-21 -40 -21 -68v-429h-66v426c0 50.667 13.333 89.834 40 117.501s65 41.5 115 41.5
c48.667 0 86.667 -10.833 114 -32.5s41 -56.167 41 -103.5c0 -23.333 -5.83301 -44.833 -17.5 -64.5s-28.5 -33.834 -50.5 -42.501v-1c38.667 -8 67.167 -25.833 85.5 -53.5s27.5 -60.5 27.5 -98.5z" />
    <glyph glyph-name="agrave" unicode="&#xe0;" horiz-adv-x="400" 
d="M275 263c0 28 -6.49902 48.001 -19.499 60.001s-36.5 18 -70.5 18c-50 0 -76.333 -26.333 -79 -79l-65 5c4 44 18.5 75.833 43.5 95.5s58.833 29.5 101.5 29.5c16 0 33 -1.5 51 -4.5s34.667 -8.66699 50 -17s28 -20.333 38 -36s15 -35.834 15 -60.501v-178
c0 -18.667 3 -30.667 9 -36s12.333 -8 19 -8c5.33301 0 12.333 1.66699 21 5v-55c-7.33301 -1.33301 -14.333 -2.5 -21 -3.5s-13.334 -1.5 -20.001 -1.5c-20 0 -35.167 4.33301 -45.5 13s-17.833 22 -22.5 40c-35.333 -39.333 -80.333 -59 -135 -59
c-17.333 0 -33.333 2.66699 -48 8s-27.5 12.666 -38.5 21.999s-19.667 20.333 -26 33s-9.5 26.667 -9.5 42c0 26 5.66699 47.333 17 64s27.833 29.834 49.5 39.501s48 16.667 79 21s66.5 7.5 106.5 9.5v33zM275.001 187.001c-26.667 -4 -51.168 -8.00195 -73.501 -12.002
s-41.666 -9.16699 -57.999 -15.5s-29 -14.166 -38 -23.499s-13.5 -21.333 -13.5 -36c0 -12 2.5 -21.667 7.5 -29s11.167 -13.166 18.5 -17.499s15.333 -7.33301 24 -9s16.667 -2.5 24 -2.5c32 0 58.167 8.66699 78.5 26s30.5 42 30.5 74v45zM92 570.999h86l71 -113h-54z" />
    <glyph glyph-name="aacute" unicode="&#xe1;" horiz-adv-x="400" 
d="M275 263c0 28 -6.49902 48.001 -19.499 60.001s-36.5 18 -70.5 18c-50 0 -76.333 -26.333 -79 -79l-65 5c4 44 18.5 75.833 43.5 95.5s58.833 29.5 101.5 29.5c16 0 33 -1.5 51 -4.5s34.667 -8.66699 50 -17s28 -20.333 38 -36s15 -35.834 15 -60.501v-178
c0 -18.667 3 -30.667 9 -36s12.333 -8 19 -8c5.33301 0 12.333 1.66699 21 5v-55c-7.33301 -1.33301 -14.333 -2.5 -21 -3.5s-13.334 -1.5 -20.001 -1.5c-20 0 -35.167 4.33301 -45.5 13s-17.833 22 -22.5 40c-35.333 -39.333 -80.333 -59 -135 -59
c-17.333 0 -33.333 2.66699 -48 8s-27.5 12.666 -38.5 21.999s-19.667 20.333 -26 33s-9.5 26.667 -9.5 42c0 26 5.66699 47.333 17 64s27.833 29.834 49.5 39.501s48 16.667 79 21s66.5 7.5 106.5 9.5v33zM275.001 187.001c-26.667 -4 -51.168 -8.00195 -73.501 -12.002
s-41.666 -9.16699 -57.999 -15.5s-29 -14.166 -38 -23.499s-13.5 -21.333 -13.5 -36c0 -12 2.5 -21.667 7.5 -29s11.167 -13.166 18.5 -17.499s15.333 -7.33301 24 -9s16.667 -2.5 24 -2.5c32 0 58.167 8.66699 78.5 26s30.5 42 30.5 74v45zM223 570.999h86l-103 -113h-54z
" />
    <glyph glyph-name="acircumflex" unicode="&#xe2;" horiz-adv-x="400" 
d="M275 263c0 28 -6.49902 48.001 -19.499 60.001s-36.5 18 -70.5 18c-50 0 -76.333 -26.333 -79 -79l-65 5c4 44 18.5 75.833 43.5 95.5s58.833 29.5 101.5 29.5c16 0 33 -1.5 51 -4.5s34.667 -8.66699 50 -17s28 -20.333 38 -36s15 -35.834 15 -60.501v-178
c0 -18.667 3 -30.667 9 -36s12.333 -8 19 -8c5.33301 0 12.333 1.66699 21 5v-55c-7.33301 -1.33301 -14.333 -2.5 -21 -3.5s-13.334 -1.5 -20.001 -1.5c-20 0 -35.167 4.33301 -45.5 13s-17.833 22 -22.5 40c-35.333 -39.333 -80.333 -59 -135 -59
c-17.333 0 -33.333 2.66699 -48 8s-27.5 12.666 -38.5 21.999s-19.667 20.333 -26 33s-9.5 26.667 -9.5 42c0 26 5.66699 47.333 17 64s27.833 29.834 49.5 39.501s48 16.667 79 21s66.5 7.5 106.5 9.5v33zM275.001 187.001c-26.667 -4 -51.168 -8.00195 -73.501 -12.002
s-41.666 -9.16699 -57.999 -15.5s-29 -14.166 -38 -23.499s-13.5 -21.333 -13.5 -36c0 -12 2.5 -21.667 7.5 -29s11.167 -13.166 18.5 -17.499s15.333 -7.33301 24 -9s16.667 -2.5 24 -2.5c32 0 58.167 8.66699 78.5 26s30.5 42 30.5 74v45zM163 570.999h73l81 -113h-65
l-52 76l-53 -76h-63z" />
    <glyph glyph-name="atilde" unicode="&#xe3;" horiz-adv-x="400" 
d="M275 263c0 28 -6.49902 48.001 -19.499 60.001s-36.5 18 -70.5 18c-50 0 -76.333 -26.333 -79 -79l-65 5c4 44 18.5 75.833 43.5 95.5s58.833 29.5 101.5 29.5c16 0 33 -1.5 51 -4.5s34.667 -8.66699 50 -17s28 -20.333 38 -36s15 -35.834 15 -60.501v-178
c0 -18.667 3 -30.667 9 -36s12.333 -8 19 -8c5.33301 0 12.333 1.66699 21 5v-55c-7.33301 -1.33301 -14.333 -2.5 -21 -3.5s-13.334 -1.5 -20.001 -1.5c-20 0 -35.167 4.33301 -45.5 13s-17.833 22 -22.5 40c-35.333 -39.333 -80.333 -59 -135 -59
c-17.333 0 -33.333 2.66699 -48 8s-27.5 12.666 -38.5 21.999s-19.667 20.333 -26 33s-9.5 26.667 -9.5 42c0 26 5.66699 47.333 17 64s27.833 29.834 49.5 39.501s48 16.667 79 21s66.5 7.5 106.5 9.5v33zM275.001 187.001c-26.667 -4 -51.168 -8.00195 -73.501 -12.002
s-41.666 -9.16699 -57.999 -15.5s-29 -14.166 -38 -23.499s-13.5 -21.333 -13.5 -36c0 -12 2.5 -21.667 7.5 -29s11.167 -13.166 18.5 -17.499s15.333 -7.33301 24 -9s16.667 -2.5 24 -2.5c32 0 58.167 8.66699 78.5 26s30.5 42 30.5 74v45zM64 464.999
c2.66699 24.667 11.0029 45.334 25.0029 62.001s33.333 25 58 25c10.667 0 21.167 -1.5 31.5 -4.5s20.166 -6.5 29.499 -10.5c9.33301 -4.66699 18.166 -8.33398 26.499 -11.001s15.166 -4 20.499 -4c12.667 0 23 2.83301 31 8.5s12 14.5 12 26.5h39
c-4 -22 -12.5 -41.833 -25.5 -59.5s-32.167 -26.5 -57.5 -26.5c-8.66699 0 -18.167 1.5 -28.5 4.5s-20.833 6.83301 -31.5 11.5c-10.667 3.33301 -20.667 6.33301 -30 9s-18 4 -26 4c-8.66699 0 -16.667 -3.66699 -24 -11s-11 -15.333 -11 -24h-39z" />
    <glyph glyph-name="adieresis" unicode="&#xe4;" horiz-adv-x="400" 
d="M275 263c0 28 -6.49902 48.001 -19.499 60.001s-36.5 18 -70.5 18c-50 0 -76.333 -26.333 -79 -79l-65 5c4 44 18.5 75.833 43.5 95.5s58.833 29.5 101.5 29.5c16 0 33 -1.5 51 -4.5s34.667 -8.66699 50 -17s28 -20.333 38 -36s15 -35.834 15 -60.501v-178
c0 -18.667 3 -30.667 9 -36s12.333 -8 19 -8c5.33301 0 12.333 1.66699 21 5v-55c-7.33301 -1.33301 -14.333 -2.5 -21 -3.5s-13.334 -1.5 -20.001 -1.5c-20 0 -35.167 4.33301 -45.5 13s-17.833 22 -22.5 40c-35.333 -39.333 -80.333 -59 -135 -59
c-17.333 0 -33.333 2.66699 -48 8s-27.5 12.666 -38.5 21.999s-19.667 20.333 -26 33s-9.5 26.667 -9.5 42c0 26 5.66699 47.333 17 64s27.833 29.834 49.5 39.501s48 16.667 79 21s66.5 7.5 106.5 9.5v33zM275.001 187.001c-26.667 -4 -51.168 -8.00195 -73.501 -12.002
s-41.666 -9.16699 -57.999 -15.5s-29 -14.166 -38 -23.499s-13.5 -21.333 -13.5 -36c0 -12 2.5 -21.667 7.5 -29s11.167 -13.166 18.5 -17.499s15.333 -7.33301 24 -9s16.667 -2.5 24 -2.5c32 0 58.167 8.66699 78.5 26s30.5 42 30.5 74v45zM230 548.999h70v-80h-70v80z
M102 548.999h69v-80h-69v80z" />
    <glyph glyph-name="aring" unicode="&#xe5;" horiz-adv-x="400" 
d="M275 263c0 28 -6.49902 48.001 -19.499 60.001s-36.5 18 -70.5 18c-50 0 -76.333 -26.333 -79 -79l-65 5c4 44 18.5 75.833 43.5 95.5s58.833 29.5 101.5 29.5c16 0 33 -1.5 51 -4.5s34.667 -8.66699 50 -17s28 -20.333 38 -36s15 -35.834 15 -60.501v-178
c0 -18.667 3 -30.667 9 -36s12.333 -8 19 -8c5.33301 0 12.333 1.66699 21 5v-55c-7.33301 -1.33301 -14.333 -2.5 -21 -3.5s-13.334 -1.5 -20.001 -1.5c-20 0 -35.167 4.33301 -45.5 13s-17.833 22 -22.5 40c-35.333 -39.333 -80.333 -59 -135 -59
c-17.333 0 -33.333 2.66699 -48 8s-27.5 12.666 -38.5 21.999s-19.667 20.333 -26 33s-9.5 26.667 -9.5 42c0 26 5.66699 47.333 17 64s27.833 29.834 49.5 39.501s48 16.667 79 21s66.5 7.5 106.5 9.5v33zM275.001 187.001c-26.667 -4 -51.168 -8.00195 -73.501 -12.002
s-41.666 -9.16699 -57.999 -15.5s-29 -14.166 -38 -23.499s-13.5 -21.333 -13.5 -36c0 -12 2.5 -21.667 7.5 -29s11.167 -13.166 18.5 -17.499s15.333 -7.33301 24 -9s16.667 -2.5 24 -2.5c32 0 58.167 8.66699 78.5 26s30.5 42 30.5 74v45zM151 525.999
c0 -13.333 5 -24.833 15 -34.5s21.667 -14.5 35 -14.5c12.667 0 24 4.83301 34 14.5s15 21.167 15 34.5c0 12.667 -5 24.167 -15 34.5s-21.333 15.5 -34 15.5c-13.333 0 -25 -5.16699 -35 -15.5s-15 -21.833 -15 -34.5zM119 525.999c0 22 8 41.167 24 57.5
s35.333 24.5 58 24.5c22 0 41 -8.16699 57 -24.5s24 -35.5 24 -57.5s-8 -41 -24 -57s-35 -24 -57 -24c-22.667 0 -42 8 -58 24s-24 35 -24 57z" />
    <glyph glyph-name="ae" unicode="&#xe6;" horiz-adv-x="652" 
d="M239 172c-12.667 0 -27.333 -0.49707 -44 -1.49707s-32.667 -3.83301 -48 -8.5s-28.333 -11.834 -39 -21.501s-16 -23.167 -16 -40.5c0 -12 2.5 -21.667 7.5 -29s11.167 -13 18.5 -17s15.333 -6.83301 24 -8.5s16.667 -2.5 24 -2.5c19.333 0 36.333 3.66699 51 11
s27 17.166 37 29.499s17.5 26.166 22.5 41.499s7.5 31 7.5 47h-45zM619.001 114.003c-5.33301 -20 -13.6729 -37.6641 -25.0059 -52.9971s-24.666 -28.166 -39.999 -38.499s-32.166 -18.166 -50.499 -23.499s-36.833 -8 -55.5 -8c-24 0 -44.5 3.33301 -61.5 10
s-31 14.167 -42 22.5s-19.5 16.666 -25.5 24.999s-10.333 14.166 -13 17.499c-13.333 -14 -25.666 -25.833 -36.999 -35.5s-23.166 -17.5 -35.499 -23.5s-25.5 -10.167 -39.5 -12.5s-30 -3.5 -48 -3.5c-17.333 0 -33.5 2.66699 -48.5 8s-28 12.5 -39 21.5
s-19.667 19.667 -26 32s-9.5 25.5 -9.5 39.5c0 24.667 4.83301 45.334 14.5 62.001s23.334 30.167 41.001 40.5s39.334 17.666 65.001 21.999s54.5 6.5 86.5 6.5h54c0 32.667 -6.83301 60.5 -20.5 83.5s-36.834 34.5 -69.501 34.5c-28 0 -48.667 -5.66699 -62 -17
s-22 -32 -26 -62l-65 5c15.333 83.333 63.666 125 144.999 125c28 0 53.333 -4.83301 76 -14.5s41 -27.5 55 -53.5c16.667 24 35.834 41.333 57.501 52s45.834 16 72.501 16c30 0 56.167 -5.66699 78.5 -17s40.833 -27 55.5 -47s25.667 -43.333 33 -70
s11 -55.334 11 -86.001h-276c0 -16.667 2.16699 -32.834 6.5 -48.501s11 -29.5 20 -41.5s20 -21.667 33 -29s28.5 -11 46.5 -11c26.667 -0.666992 48.167 6.66602 64.5 21.999s27.5 35 33.5 59zM554.994 223.006c-2 14.667 -5.66602 29.167 -10.999 43.5s-12.333 27 -21 38
s-19.334 19.833 -32.001 26.5s-27 10 -43 10c-15.333 0 -29.166 -3.5 -41.499 -10.5s-22.833 -16 -31.5 -27s-15.334 -23.5 -20.001 -37.5s-6.66699 -28.333 -6 -43h206z" />
    <glyph glyph-name="ccedilla" unicode="&#xe7;" horiz-adv-x="415" 
d="M195 -8c-54.667 4.66699 -96.334 24.8359 -125.001 60.5029s-43 80.5 -43 134.5c0 29.333 4.16699 56.5 12.5 81.5s20.5 46.667 36.5 65s35.833 32.666 59.5 42.999s50.834 15.5 81.501 15.5c20 0 39.333 -2.66699 58 -8s35.667 -13.333 51 -24s28.5 -24 39.5 -40
s18.833 -35 23.5 -57l-71 -7c-4.66699 26 -16.167 46.667 -34.5 62s-40.5 23 -66.5 23c-24 0 -43.667 -4.66699 -59 -14s-27.5 -21.166 -36.5 -35.499s-15.167 -30.5 -18.5 -48.5s-5 -35.667 -5 -53c0 -18.667 2 -36.834 6 -54.501s10.667 -33.5 20 -47.5
s21.5 -25.167 36.5 -33.5s33.167 -12.5 54.5 -12.5c32.667 0 59 9 79 27s30.333 43.333 31 76l71 -6c-5.33301 -44 -22.666 -79 -51.999 -105s-66.333 -40.333 -111 -43l-31 -41h1c4 1.33301 8 2.16602 12 2.49902s8 0.5 12 0.5c18 0 33.667 -4.83301 47 -14.5
s20 -24.5 20 -44.5c0 -14 -3.5 -25.667 -10.5 -35s-15.167 -16.833 -24.5 -22.5s-19.333 -9.83398 -30 -12.501s-19.334 -4 -26.001 -4s-11.334 0.333008 -14.001 1c-11.333 1.33301 -22.666 3.33301 -33.999 6s-22.333 6 -33 10l14 33c8.66699 -4 17 -7.16699 25 -9.5
s17 -3.5 27 -3.5s20 2.33301 30 7s15 13 15 25s-3.66699 20.333 -11 25s-16.333 7 -27 7c-9.33301 0 -20 -1.66699 -32 -5l-14 16z" />
    <glyph glyph-name="egrave" unicode="&#xe8;" horiz-adv-x="415" 
d="M318 228c-4 32 -15.167 58.833 -33.5 80.5s-45.5 32.5 -81.5 32.5c-16 0 -30.333 -3.16699 -43 -9.5s-23.5 -14.833 -32.5 -25.5s-16 -22.667 -21 -36s-7.83301 -27.333 -8.5 -42h220zM98 177c0 -38 9.66992 -70.001 29.0029 -96.001s48 -39 86 -39
c57.333 0 93 28.667 107 86l65 -8c-12 -44 -33.333 -76.5 -64 -97.5s-67.334 -31.5 -110.001 -31.5c-30 0 -56.333 5 -79 15s-41.834 23.833 -57.501 41.5s-27.5 38.5 -35.5 62.5s-12 50 -12 78c0 62.667 15 112.334 45 149.001s76 55 138 55
c29.333 0 55.166 -5.16699 77.499 -15.5s41 -24.333 56 -42s26.333 -38.667 34 -63s11.5 -50.5 11.5 -78.5v-16h-291zM100.003 570.999h86l71 -113h-54z" />
    <glyph glyph-name="eacute" unicode="&#xe9;" horiz-adv-x="415" 
d="M318 228c-4 32 -15.167 58.833 -33.5 80.5s-45.5 32.5 -81.5 32.5c-16 0 -30.333 -3.16699 -43 -9.5s-23.5 -14.833 -32.5 -25.5s-16 -22.667 -21 -36s-7.83301 -27.333 -8.5 -42h220zM98 177c0 -38 9.66992 -70.001 29.0029 -96.001s48 -39 86 -39
c57.333 0 93 28.667 107 86l65 -8c-12 -44 -33.333 -76.5 -64 -97.5s-67.334 -31.5 -110.001 -31.5c-30 0 -56.333 5 -79 15s-41.834 23.833 -57.501 41.5s-27.5 38.5 -35.5 62.5s-12 50 -12 78c0 62.667 15 112.334 45 149.001s76 55 138 55
c29.333 0 55.166 -5.16699 77.499 -15.5s41 -24.333 56 -42s26.333 -38.667 34 -63s11.5 -50.5 11.5 -78.5v-16h-291zM231.003 570.999h86l-103 -113h-54z" />
    <glyph glyph-name="ecircumflex" unicode="&#xea;" horiz-adv-x="415" 
d="M318 228c-4 32 -15.167 58.833 -33.5 80.5s-45.5 32.5 -81.5 32.5c-16 0 -30.333 -3.16699 -43 -9.5s-23.5 -14.833 -32.5 -25.5s-16 -22.667 -21 -36s-7.83301 -27.333 -8.5 -42h220zM98 177c0 -38 9.66992 -70.001 29.0029 -96.001s48 -39 86 -39
c57.333 0 93 28.667 107 86l65 -8c-12 -44 -33.333 -76.5 -64 -97.5s-67.334 -31.5 -110.001 -31.5c-30 0 -56.333 5 -79 15s-41.834 23.833 -57.501 41.5s-27.5 38.5 -35.5 62.5s-12 50 -12 78c0 62.667 15 112.334 45 149.001s76 55 138 55
c29.333 0 55.166 -5.16699 77.499 -15.5s41 -24.333 56 -42s26.333 -38.667 34 -63s11.5 -50.5 11.5 -78.5v-16h-291zM171.003 570.999h73l81 -113h-65l-52 76l-53 -76h-63z" />
    <glyph glyph-name="edieresis" unicode="&#xeb;" horiz-adv-x="415" 
d="M318 228c-4 32 -15.167 58.833 -33.5 80.5s-45.5 32.5 -81.5 32.5c-16 0 -30.333 -3.16699 -43 -9.5s-23.5 -14.833 -32.5 -25.5s-16 -22.667 -21 -36s-7.83301 -27.333 -8.5 -42h220zM98 177c0 -38 9.66992 -70.001 29.0029 -96.001s48 -39 86 -39
c57.333 0 93 28.667 107 86l65 -8c-12 -44 -33.333 -76.5 -64 -97.5s-67.334 -31.5 -110.001 -31.5c-30 0 -56.333 5 -79 15s-41.834 23.833 -57.501 41.5s-27.5 38.5 -35.5 62.5s-12 50 -12 78c0 62.667 15 112.334 45 149.001s76 55 138 55
c29.333 0 55.166 -5.16699 77.499 -15.5s41 -24.333 56 -42s26.333 -38.667 34 -63s11.5 -50.5 11.5 -78.5v-16h-291zM238.003 548.999h70v-80h-70v80zM110.003 548.999h69v-80h-69v80z" />
    <glyph glyph-name="igrave" unicode="&#xec;" horiz-adv-x="163" 
d="M49 383h65v-383h-65v383zM-27 571h86l71 -113h-54z" />
    <glyph glyph-name="iacute" unicode="&#xed;" horiz-adv-x="163" 
d="M49 383h65v-383h-65v383zM104 571h86l-103 -113h-54z" />
    <glyph glyph-name="icircumflex" unicode="&#xee;" horiz-adv-x="163" 
d="M49 383h65v-383h-65v383zM44 571h73l81 -113h-65l-52 76l-53 -76h-63z" />
    <glyph glyph-name="idieresis" unicode="&#xef;" horiz-adv-x="163" 
d="M49 383h65v-383h-65v383zM111 549h70v-80h-70v80zM-17 549h69v-80h-69v80z" />
    <glyph glyph-name="eth" unicode="&#xf0;" horiz-adv-x="429" 
d="M98 192c0 -16 1.66699 -32.833 5 -50.5s9.16602 -33.834 17.499 -48.501s20 -26.834 35 -36.501s34.5 -14.5 58.5 -14.5c23.333 0 42.666 4.83301 57.999 14.5s27.5 21.834 36.5 36.501s15.167 30.834 18.5 48.501s5 34.5 5 50.5c0 15.333 -1.66699 31.833 -5 49.5
s-9.5 33.834 -18.5 48.501s-21.167 26.834 -36.5 36.501s-34.666 14.5 -57.999 14.5c-24 0 -43.5 -4.83301 -58.5 -14.5s-26.667 -21.834 -35 -36.501s-14.166 -30.834 -17.499 -48.501s-5 -34.167 -5 -49.5zM88 461l77.0029 42.999c-6.66699 7.33301 -16 14.5 -28 21.5
s-23.333 13.167 -34 18.5l51 41c10.667 -5.33301 22.5 -12.166 35.5 -20.499s25.5 -16.833 37.5 -25.5l81 46l26 -28l-75 -43c50 -42.667 86.167 -89.834 108.5 -141.501s33.5 -103.5 33.5 -155.5c0 -32 -3.5 -61.833 -10.5 -89.5s-18.167 -51.5 -33.5 -71.5
s-34.833 -35.833 -58.5 -47.5s-51.834 -17.5 -84.501 -17.5c-29.333 0 -55.666 5 -78.999 15s-43 23.833 -59 41.5s-28.167 38.834 -36.5 63.501s-12.5 51.667 -12.5 81c0 28.667 4.16699 55.167 12.5 79.5s20.5 45.5 36.5 63.5s35.667 32 59 42s49.666 15 78.999 15
c16 0 31.667 -3.33301 47 -10s28 -15.334 38 -26.001v2c-10.667 24 -24.834 46.833 -42.501 68.5s-36.834 39.834 -57.501 54.501l-84 -47z" />
    <glyph glyph-name="ntilde" unicode="&#xf1;" horiz-adv-x="415" 
d="M50 383h65.998v-51h1c12.667 18.667 28.5 33.334 47.5 44.001s40.833 16 65.5 16c18.667 0 36.334 -2.33301 53.001 -7s31 -12.5 43 -23.5s21.5 -25.333 28.5 -43s10.5 -39.834 10.5 -66.501v-252h-65v246c0 32.667 -7.66699 55.167 -23 67.5s-34.666 18.5 -57.999 18.5
c-30.667 0 -55.5 -9 -74.5 -27s-28.5 -43 -28.5 -75v-230h-66v383zM71.998 465c2.66699 24.667 11.0029 45.334 25.0029 62.001s33.333 25 58 25c10.667 0 21.167 -1.5 31.5 -4.5s20.166 -6.5 29.499 -10.5c9.33301 -4.66699 18.166 -8.33398 26.499 -11.001
s15.166 -4 20.499 -4c12.667 0 23 2.83301 31 8.5s12 14.5 12 26.5h39c-4 -22 -12.5 -41.833 -25.5 -59.5s-32.167 -26.5 -57.5 -26.5c-8.66699 0 -18.167 1.5 -28.5 4.5s-20.833 6.83301 -31.5 11.5c-10.667 3.33301 -20.667 6.33301 -30 9s-18 4 -26 4
c-8.66699 0 -16.667 -3.66699 -24 -11s-11 -15.333 -11 -24h-39z" />
    <glyph glyph-name="ograve" unicode="&#xf2;" horiz-adv-x="429" 
d="M98 192c0 -16 1.66699 -32.833 5 -50.5s9.16602 -33.834 17.499 -48.501s20 -26.834 35 -36.501s34.5 -14.5 58.5 -14.5c23.333 0 42.666 4.83301 57.999 14.5s27.5 21.834 36.5 36.501s15.167 30.834 18.5 48.501s5 34.5 5 50.5c0 15.333 -1.66699 31.833 -5 49.5
s-9.5 33.834 -18.5 48.501s-21.167 26.834 -36.5 36.501s-34.666 14.5 -57.999 14.5c-24 0 -43.5 -4.83301 -58.5 -14.5s-26.667 -21.834 -35 -36.501s-14.166 -30.834 -17.499 -48.501s-5 -34.167 -5 -49.5zM27 192c0 28.667 4.16699 55.167 12.5 79.5s20.5 45.5 36.5 63.5
s35.667 32 59 42s49.666 15 78.999 15c30 0 56.5 -5 79.5 -15s42.5 -24 58.5 -42s28.167 -39.167 36.5 -63.5s12.5 -50.833 12.5 -79.5c0 -29.333 -4.16699 -56.333 -12.5 -81s-20.5 -45.834 -36.5 -63.501s-35.5 -31.5 -58.5 -41.5s-49.5 -15 -79.5 -15
c-29.333 0 -55.666 5 -78.999 15s-43 23.833 -59 41.5s-28.167 38.834 -36.5 63.501s-12.5 51.667 -12.5 81zM106 571h86l71 -113h-54z" />
    <glyph glyph-name="oacute" unicode="&#xf3;" horiz-adv-x="429" 
d="M98 192c0 -16 1.66699 -32.833 5 -50.5s9.16602 -33.834 17.499 -48.501s20 -26.834 35 -36.501s34.5 -14.5 58.5 -14.5c23.333 0 42.666 4.83301 57.999 14.5s27.5 21.834 36.5 36.501s15.167 30.834 18.5 48.501s5 34.5 5 50.5c0 15.333 -1.66699 31.833 -5 49.5
s-9.5 33.834 -18.5 48.501s-21.167 26.834 -36.5 36.501s-34.666 14.5 -57.999 14.5c-24 0 -43.5 -4.83301 -58.5 -14.5s-26.667 -21.834 -35 -36.501s-14.166 -30.834 -17.499 -48.501s-5 -34.167 -5 -49.5zM27 192c0 28.667 4.16699 55.167 12.5 79.5s20.5 45.5 36.5 63.5
s35.667 32 59 42s49.666 15 78.999 15c30 0 56.5 -5 79.5 -15s42.5 -24 58.5 -42s28.167 -39.167 36.5 -63.5s12.5 -50.833 12.5 -79.5c0 -29.333 -4.16699 -56.333 -12.5 -81s-20.5 -45.834 -36.5 -63.501s-35.5 -31.5 -58.5 -41.5s-49.5 -15 -79.5 -15
c-29.333 0 -55.666 5 -78.999 15s-43 23.833 -59 41.5s-28.167 38.834 -36.5 63.501s-12.5 51.667 -12.5 81zM237 571h86l-103 -113h-54z" />
    <glyph glyph-name="ocircumflex" unicode="&#xf4;" horiz-adv-x="429" 
d="M98 192c0 -16 1.66699 -32.833 5 -50.5s9.16602 -33.834 17.499 -48.501s20 -26.834 35 -36.501s34.5 -14.5 58.5 -14.5c23.333 0 42.666 4.83301 57.999 14.5s27.5 21.834 36.5 36.501s15.167 30.834 18.5 48.501s5 34.5 5 50.5c0 15.333 -1.66699 31.833 -5 49.5
s-9.5 33.834 -18.5 48.501s-21.167 26.834 -36.5 36.501s-34.666 14.5 -57.999 14.5c-24 0 -43.5 -4.83301 -58.5 -14.5s-26.667 -21.834 -35 -36.501s-14.166 -30.834 -17.499 -48.501s-5 -34.167 -5 -49.5zM27 192c0 28.667 4.16699 55.167 12.5 79.5s20.5 45.5 36.5 63.5
s35.667 32 59 42s49.666 15 78.999 15c30 0 56.5 -5 79.5 -15s42.5 -24 58.5 -42s28.167 -39.167 36.5 -63.5s12.5 -50.833 12.5 -79.5c0 -29.333 -4.16699 -56.333 -12.5 -81s-20.5 -45.834 -36.5 -63.501s-35.5 -31.5 -58.5 -41.5s-49.5 -15 -79.5 -15
c-29.333 0 -55.666 5 -78.999 15s-43 23.833 -59 41.5s-28.167 38.834 -36.5 63.501s-12.5 51.667 -12.5 81zM177 571h73l81 -113h-65l-52 76l-53 -76h-63z" />
    <glyph glyph-name="otilde" unicode="&#xf5;" horiz-adv-x="429" 
d="M98 192c0 -16 1.66699 -32.833 5 -50.5s9.16602 -33.834 17.499 -48.501s20 -26.834 35 -36.501s34.5 -14.5 58.5 -14.5c23.333 0 42.666 4.83301 57.999 14.5s27.5 21.834 36.5 36.501s15.167 30.834 18.5 48.501s5 34.5 5 50.5c0 15.333 -1.66699 31.833 -5 49.5
s-9.5 33.834 -18.5 48.501s-21.167 26.834 -36.5 36.501s-34.666 14.5 -57.999 14.5c-24 0 -43.5 -4.83301 -58.5 -14.5s-26.667 -21.834 -35 -36.501s-14.166 -30.834 -17.499 -48.501s-5 -34.167 -5 -49.5zM27 192c0 28.667 4.16699 55.167 12.5 79.5s20.5 45.5 36.5 63.5
s35.667 32 59 42s49.666 15 78.999 15c30 0 56.5 -5 79.5 -15s42.5 -24 58.5 -42s28.167 -39.167 36.5 -63.5s12.5 -50.833 12.5 -79.5c0 -29.333 -4.16699 -56.333 -12.5 -81s-20.5 -45.834 -36.5 -63.501s-35.5 -31.5 -58.5 -41.5s-49.5 -15 -79.5 -15
c-29.333 0 -55.666 5 -78.999 15s-43 23.833 -59 41.5s-28.167 38.834 -36.5 63.501s-12.5 51.667 -12.5 81zM78 465c2.66699 24.667 11.0029 45.334 25.0029 62.001s33.333 25 58 25c10.667 0 21.167 -1.5 31.5 -4.5s20.166 -6.5 29.499 -10.5
c9.33301 -4.66699 18.166 -8.33398 26.499 -11.001s15.166 -4 20.499 -4c12.667 0 23 2.83301 31 8.5s12 14.5 12 26.5h39c-4 -22 -12.5 -41.833 -25.5 -59.5s-32.167 -26.5 -57.5 -26.5c-8.66699 0 -18.167 1.5 -28.5 4.5s-20.833 6.83301 -31.5 11.5
c-10.667 3.33301 -20.667 6.33301 -30 9s-18 4 -26 4c-8.66699 0 -16.667 -3.66699 -24 -11s-11 -15.333 -11 -24h-39z" />
    <glyph glyph-name="odieresis" unicode="&#xf6;" horiz-adv-x="429" 
d="M98 192c0 -16 1.66699 -32.833 5 -50.5s9.16602 -33.834 17.499 -48.501s20 -26.834 35 -36.501s34.5 -14.5 58.5 -14.5c23.333 0 42.666 4.83301 57.999 14.5s27.5 21.834 36.5 36.501s15.167 30.834 18.5 48.501s5 34.5 5 50.5c0 15.333 -1.66699 31.833 -5 49.5
s-9.5 33.834 -18.5 48.501s-21.167 26.834 -36.5 36.501s-34.666 14.5 -57.999 14.5c-24 0 -43.5 -4.83301 -58.5 -14.5s-26.667 -21.834 -35 -36.501s-14.166 -30.834 -17.499 -48.501s-5 -34.167 -5 -49.5zM27 192c0 28.667 4.16699 55.167 12.5 79.5s20.5 45.5 36.5 63.5
s35.667 32 59 42s49.666 15 78.999 15c30 0 56.5 -5 79.5 -15s42.5 -24 58.5 -42s28.167 -39.167 36.5 -63.5s12.5 -50.833 12.5 -79.5c0 -29.333 -4.16699 -56.333 -12.5 -81s-20.5 -45.834 -36.5 -63.501s-35.5 -31.5 -58.5 -41.5s-49.5 -15 -79.5 -15
c-29.333 0 -55.666 5 -78.999 15s-43 23.833 -59 41.5s-28.167 38.834 -36.5 63.501s-12.5 51.667 -12.5 81zM244 549h70v-80h-70v80zM116 549h69v-80h-69v80z" />
    <glyph glyph-name="divide" unicode="&#xf7;" horiz-adv-x="480" 
d="M193 39c0 12.667 4.66699 23.835 14 33.502s20.666 14.5 33.999 14.5c12 0 22.833 -4.83301 32.5 -14.5s14.5 -20.834 14.5 -33.501c0 -12 -4.5 -23 -13.5 -33s-20.167 -15 -33.5 -15s-24.666 4.66699 -33.999 14s-14 20.666 -14 33.999zM193 367.001
c0 12.667 4.66699 23.833 14 33.5s20.666 14.5 33.999 14.5c12 0 22.833 -5 32.5 -15s14.5 -21 14.5 -33c0 -12.667 -4.5 -24 -13.5 -34s-20.167 -15 -33.5 -15s-24.666 5 -33.999 15s-14 21.333 -14 34zM38 230h404v-56h-404v56z" />
    <glyph glyph-name="oslash" unicode="&#xf8;" horiz-adv-x="430" 
d="M58 73c-20.667 32.667 -30.999 72.334 -30.999 119.001c0 28.667 4.16699 55.167 12.5 79.5s20.5 45.5 36.5 63.5s35.667 32 59 42s49.666 15 78.999 15c26.667 0 50.5 -4 71.5 -12s39.167 -18.667 54.5 -32l35 34l30 -29l-38 -37c22.667 -34.667 34 -76 34 -124
c0 -29.333 -4.16699 -56.333 -12.5 -81s-20.5 -45.834 -36.5 -63.501s-35.5 -31.5 -58.5 -41.5s-49.5 -15 -79.5 -15c-28 0 -52.667 4.33301 -74 13s-40 20.667 -56 36l-32 -31l-27 31zM128.001 82c8.66699 -12 20.168 -21.6689 34.501 -29.002s31.5 -11 51.5 -11
c23.333 0 42.666 4.83301 57.999 14.5s27.5 21.834 36.5 36.501s15.167 30.834 18.5 48.501s5 34.5 5 50.5c0 12 -1 24.667 -3 38s-5.66699 26.333 -11 39zM296.002 305.998c-8 10 -18.834 18.335 -32.501 25.002s-30.167 10 -49.5 10c-24 0 -43.5 -4.83301 -58.5 -14.5
s-26.667 -21.834 -35 -36.501s-14.166 -30.834 -17.499 -48.501s-5 -34.167 -5 -49.5c0 -12 0.5 -24 1.5 -36s3.83301 -23.333 8.5 -34z" />
    <glyph glyph-name="ugrave" unicode="&#xf9;" horiz-adv-x="415" 
d="M365 0l-64.998 0.000976562v51h-2c-12.667 -18.667 -28.334 -33.334 -47.001 -44.001s-40.334 -16 -65.001 -16c-19.333 0 -37.333 2.16699 -54 6.5s-31 11.833 -43 22.5s-21.5 25 -28.5 43s-10.5 40.333 -10.5 67v253h66v-253c0 -26.667 7.5 -46.5 22.5 -59.5
s34.5 -19.5 58.5 -19.5c30.667 0 55.5 9.16699 74.5 27.5s28.5 42.833 28.5 73.5v231h65v-383zM100.002 571.001h86l71 -113h-54z" />
    <glyph glyph-name="uacute" unicode="&#xfa;" horiz-adv-x="415" 
d="M365 0l-64.998 0.000976562v51h-2c-12.667 -18.667 -28.334 -33.334 -47.001 -44.001s-40.334 -16 -65.001 -16c-19.333 0 -37.333 2.16699 -54 6.5s-31 11.833 -43 22.5s-21.5 25 -28.5 43s-10.5 40.333 -10.5 67v253h66v-253c0 -26.667 7.5 -46.5 22.5 -59.5
s34.5 -19.5 58.5 -19.5c30.667 0 55.5 9.16699 74.5 27.5s28.5 42.833 28.5 73.5v231h65v-383zM231.002 571.001h86l-103 -113h-54z" />
    <glyph glyph-name="ucircumflex" unicode="&#xfb;" horiz-adv-x="415" 
d="M365 0l-64.998 0.000976562v51h-2c-12.667 -18.667 -28.334 -33.334 -47.001 -44.001s-40.334 -16 -65.001 -16c-19.333 0 -37.333 2.16699 -54 6.5s-31 11.833 -43 22.5s-21.5 25 -28.5 43s-10.5 40.333 -10.5 67v253h66v-253c0 -26.667 7.5 -46.5 22.5 -59.5
s34.5 -19.5 58.5 -19.5c30.667 0 55.5 9.16699 74.5 27.5s28.5 42.833 28.5 73.5v231h65v-383zM171.002 571.001h73l81 -113h-65l-52 76l-53 -76h-63z" />
    <glyph glyph-name="udieresis" unicode="&#xfc;" horiz-adv-x="415" 
d="M365 0l-64.998 0.000976562v51h-2c-12.667 -18.667 -28.334 -33.334 -47.001 -44.001s-40.334 -16 -65.001 -16c-19.333 0 -37.333 2.16699 -54 6.5s-31 11.833 -43 22.5s-21.5 25 -28.5 43s-10.5 40.333 -10.5 67v253h66v-253c0 -26.667 7.5 -46.5 22.5 -59.5
s34.5 -19.5 58.5 -19.5c30.667 0 55.5 9.16699 74.5 27.5s28.5 42.833 28.5 73.5v231h65v-383zM238.002 549.001h70v-80h-70v80zM110.002 549.001h69v-80h-69v80z" />
    <glyph glyph-name="yacute" unicode="&#xfd;" horiz-adv-x="356" 
d="M278 383h67.002l-166 -467c-4.66699 -14 -9.83398 -27.5 -15.501 -40.5s-12.834 -24.167 -21.501 -33.5s-19 -16.833 -31 -22.5s-27 -8.5 -45 -8.5c-10 0 -19.667 1.33301 -29 4s-18.333 5 -27 7v57c4.66699 -0.666992 11.167 -2 19.5 -4s15.833 -3 22.5 -3
c14.667 0 27 3.5 37 10.5s18.333 21.5 25 43.5l27 73l-128 384h69l94 -290h2zM200.002 571h86l-103 -113h-54z" />
    <glyph glyph-name="thorn" unicode="&#xfe;" horiz-adv-x="450" 
d="M352 192c0 18.667 -2.16699 36.667 -6.5 54s-11.333 32.666 -21 45.999s-22 24 -37 32s-33.167 12 -54.5 12s-39.5 -4 -54.5 -12s-27.167 -18.667 -36.5 -32s-16.333 -28.666 -21 -45.999s-7 -35.333 -7 -54c0 -19.333 2.66699 -37.666 8 -54.999s13 -32.666 23 -45.999
s22.333 -24 37 -32s31.667 -12 51 -12c21.333 0 39.5 4 54.5 12s27.333 18.667 37 32s16.667 28.666 21 45.999s6.5 35.666 6.5 54.999zM116 570l0.00195312 -233.001h1c13.333 18 30.666 31.667 51.999 41s43.333 14 66 14c36 0 66.167 -5.66699 90.5 -17
s43.666 -26.333 57.999 -45s24.5 -40 30.5 -64s9 -48.667 9 -74c0 -26 -3.16699 -51.167 -9.5 -75.5s-16.5 -45.666 -30.5 -63.999s-32.667 -33.166 -56 -44.499s-52 -17 -86 -17c-26 0 -49.667 4.66699 -71 14s-39 23.666 -53 42.999h-1v-227h-66v749h66z" />
    <glyph glyph-name="ydieresis" unicode="&#xff;" horiz-adv-x="356" 
d="M278 383h67.002l-166 -467c-4.66699 -14 -9.83398 -27.5 -15.501 -40.5s-12.834 -24.167 -21.501 -33.5s-19 -16.833 -31 -22.5s-27 -8.5 -45 -8.5c-10 0 -19.667 1.33301 -29 4s-18.333 5 -27 7v57c4.66699 -0.666992 11.167 -2 19.5 -4s15.833 -3 22.5 -3
c14.667 0 27 3.5 37 10.5s18.333 21.5 25 43.5l27 73l-128 384h69l94 -290h2zM207.002 549h70v-80h-70v80zM79.002 549h69v-80h-69v80z" />
    <glyph glyph-name="dotlessi" unicode="&#x131;" horiz-adv-x="163" 
d="M49 383h65v-383h-65v383z" />
    <glyph glyph-name="Lslash" unicode="&#x141;" horiz-adv-x="445" 
d="M57 230l-43 -26v59l43 25v282h75v-237l145 85v-59l-145 -85v-208h284v-66h-359v230z" />
    <glyph glyph-name="lslash" unicode="&#x142;" horiz-adv-x="163" 
d="M49 276l-51 -38v54l51 37v241h65v-194l51 37v-54l-51 -36v-323h-65v276z" />
    <glyph glyph-name="OE" unicode="&#x152;" horiz-adv-x="919" 
d="M121 285c0 -29.333 4.00098 -58.333 12.001 -87s20 -54.167 36 -76.5s36.167 -40.333 60.5 -54s53.166 -20.5 86.499 -20.5c28.667 0 54.167 5.83301 76.5 17.5s41.166 28 56.499 49s26.833 46 34.5 75s11.5 61.167 11.5 96.5c0 29.333 -2.66699 58.333 -8 87
s-14.833 54.167 -28.5 76.5s-32 40.333 -55 54s-52.167 20.5 -87.5 20.5c-33.333 0 -62.166 -6.83301 -86.499 -20.5s-44.5 -31.667 -60.5 -54s-28 -47.833 -36 -76.5s-12 -57.667 -12 -87zM495.001 63c-24.667 -25.333 -53.334 -44.666 -86.001 -57.999
s-66.334 -20 -101.001 -20c-42.667 0 -80.667 7.66699 -114 23s-61.5 36.5 -84.5 63.5s-40.5 58.833 -52.5 95.5s-18 76 -18 118c0 39.333 5.83301 77.166 17.5 113.499s28.834 68.333 51.501 96s50.834 49.667 84.501 66s72.167 24.5 115.5 24.5
c34.667 0 68.5 -5.5 101.5 -16.5s61.5 -29.167 85.5 -54.5v56h403v-66h-328v-176h264v-66h-264v-196h335v-66h-410v63z" />
    <glyph glyph-name="oe" unicode="&#x153;" horiz-adv-x="697" 
d="M598 223c-1.33301 14.667 -4.83398 29.167 -10.501 43.5s-13.167 27 -22.5 38s-20.5 19.833 -33.5 26.5s-27.5 10 -43.5 10c-15.333 0 -29.333 -3.5 -42 -10.5s-23.667 -16 -33 -27s-16.666 -23.667 -21.999 -38s-8 -28.5 -8 -42.5h215zM206.999 341
c-22 0 -40 -4.83301 -54 -14.5s-25.167 -21.834 -33.5 -36.501s-14 -30.834 -17 -48.501s-4.5 -34.167 -4.5 -49.5c0 -16 1.5 -32.833 4.5 -50.5s8.66699 -33.834 17 -48.501s19.5 -26.834 33.5 -36.501s32 -14.5 54 -14.5c22.667 0 41.167 4.83301 55.5 14.5
s25.5 21.834 33.5 36.501s13.5 30.834 16.5 48.501s4.5 34.5 4.5 50.5c0 15.333 -1.5 31.833 -4.5 49.5s-8.5 33.834 -16.5 48.501s-19.167 26.834 -33.5 36.501s-32.833 14.5 -55.5 14.5zM662.999 114c-4 -20 -11.6621 -37.6709 -22.9951 -53.0039
s-24.833 -28.166 -40.5 -38.499s-32.834 -18.166 -51.501 -23.499s-37.334 -8 -56.001 -8c-28.667 0 -55.834 5.83301 -81.501 17.5s-46.5 30.167 -62.5 55.5c-14 -22.667 -32.833 -40.5 -56.5 -53.5s-51.834 -19.5 -84.501 -19.5c-27.333 0 -52.166 5 -74.499 15
s-41.333 23.833 -57 41.5s-27.667 38.834 -36 63.501s-12.5 51.667 -12.5 81c0 28.667 4.16699 55.167 12.5 79.5s20.333 45.5 36 63.5s34.667 32 57 42s47.166 15 74.499 15c30 0 58.167 -5.33301 84.5 -16s46.166 -28 59.499 -52c16.667 23.333 36.5 40.5 59.5 51.5
s47.5 16.5 73.5 16.5c33.333 0 61.833 -5.5 85.5 -16.5s42.834 -26.333 57.501 -46s25.334 -43 32.001 -70s10 -56.167 10 -87.5h-286c-0.666992 -17.333 1.66602 -33.833 6.99902 -49.5s13.166 -29.667 23.499 -42s22.833 -22.166 37.5 -29.499s31 -11 49 -11
c26 0 47.333 7.83301 64 23.5s27.667 35.5 33 59.5z" />
    <glyph glyph-name="Scaron" unicode="&#x160;" horiz-adv-x="534" 
d="M415 402c-0.666992 21.333 -4.99609 39.6611 -12.9961 54.9941s-18.667 27.833 -32 37.5s-28.666 16.834 -45.999 21.501s-36 7 -56 7c-13.333 0 -27.5 -1.33301 -42.5 -4s-28.833 -7.16699 -41.5 -13.5s-23 -15 -31 -26s-12 -24.833 -12 -41.5
c0 -19.333 5.16699 -34.666 15.5 -45.999s24 -20.666 41 -27.999s36.333 -13.166 58 -17.499s43.834 -9 66.501 -14s44.834 -11.167 66.501 -18.5s41 -17.166 58 -29.499s30.667 -28.333 41 -48s15.5 -44.167 15.5 -73.5c0 -30.667 -6.5 -57.167 -19.5 -79.5
s-29.833 -40.833 -50.5 -55.5s-44 -25.5 -70 -32.5s-52.333 -10.5 -79 -10.5c-34 0 -65.833 3.66699 -95.5 11s-55.834 19 -78.501 35s-41 36.667 -55 62s-22 56 -24 92l82 8c2 -52.667 17.833 -90.167 47.5 -112.5s69.5 -33.5 119.5 -33.5c18 0 35.5 2.16699 52.5 6.5
s32 11 45 20s23.5 20.667 31.5 35s12 31.5 12 51.5c0 26 -9 45.667 -27 59s-40.333 23.833 -67 31.5s-55.667 14.334 -87 20.001s-60.333 13.834 -87 24.501s-49 25.667 -67 45s-27 46.666 -27 81.999c0 27.333 6.16699 51.166 18.5 71.499s28.166 37.333 47.499 51
s41.166 23.834 65.499 30.501s48.5 10 72.5 10c29.333 0 57.166 -3.5 83.499 -10.5s49.666 -17.833 69.999 -32.5s37.166 -33.167 50.499 -55.5s21.666 -48.833 24.999 -79.5zM150.004 721.995h64l53 -76l52 76h65l-81 -113h-73z" />
    <glyph glyph-name="scaron" unicode="&#x161;" horiz-adv-x="385" 
d="M96 135c0 -18 3.16406 -32.999 9.49707 -44.999s14.5 -21.5 24.5 -28.5s21.5 -12 34.5 -15s26.167 -4.5 39.5 -4.5c7.33301 0 15.833 0.833008 25.5 2.5s19 4.66699 28 9s16.667 10.833 23 19.5s9.5 20 9.5 34c0 16 -6.16699 28 -18.5 36s-27.833 14.333 -46.5 19
s-38.667 8.66699 -60 12s-41.333 8.83301 -60 16.5s-34.167 18.334 -46.5 32.001s-18.5 32.834 -18.5 57.501c0 20 4.33301 37 13 51s19.834 25.5 33.501 34.5s29 15.667 46 20s34.167 6.5 51.5 6.5c12.667 0 28.5 -1.83301 47.5 -5.5s37 -10.334 54 -20.001
s31.667 -22.5 44 -38.5s18.5 -36 18.5 -60l-65 -9c0 13.333 -2.66699 25.166 -8 35.499s-12.5 19 -21.5 26s-19.167 12.167 -30.5 15.5s-23.333 5 -36 5c-9.33301 0 -18.666 -0.833008 -27.999 -2.5s-18 -4.5 -26 -8.5s-14.5 -9.66699 -19.5 -17s-7.5 -17 -7.5 -29
c0 -14 6.33301 -24.667 19 -32s28.334 -13.5 47.001 -18.5s39 -9.5 61 -13.5s42.333 -10.167 61 -18.5s34.334 -19.833 47.001 -34.5s19 -34.334 19 -59.001c0 -20 -4.66699 -37.5 -14 -52.5s-21.833 -27.167 -37.5 -36.5s-33.334 -16.333 -53.001 -21
s-39.834 -7 -60.501 -7c-21.333 0 -41.666 2.5 -60.999 7.5s-36.833 13 -52.5 24s-28.5 24.833 -38.5 41.5s-16 37 -18 61zM76.9971 571.001h63l53 -76l52 76h65l-81 -113h-73z" />
    <glyph glyph-name="Ydieresis" unicode="&#x178;" horiz-adv-x="503" 
d="M213 262l-204 308h90l152 -236l153 236h90l-206 -308v-262h-75v262zM280 700h71v-80h-71v80zM152 700h70v-80h-70v80z" />
    <glyph glyph-name="Zcaron" unicode="&#x17d;" horiz-adv-x="489" 
d="M17 72l357 432h-328v66h410v-71l-358 -433h374v-66h-455v72zM128 722h65l51 -76l52 76h65l-81 -113h-73z" />
    <glyph glyph-name="zcaron" unicode="&#x17e;" horiz-adv-x="341" 
d="M18 56l219 270h-198v57h279v-55l-222 -272h227v-56h-305v56zM54 571h63l53 -76l52 76h65l-81 -113h-73z" />
    <glyph glyph-name="florin" unicode="&#x192;" horiz-adv-x="445" 
d="M52 -111c14 -5.33301 28.665 -8.00195 43.998 -8.00195c20.667 0 34.334 6.33301 41.001 19s12 34.667 16 66l28 249h-89l5 52h90l18 167c2.66699 16 6 31 10 45s9.66699 26.167 17 36.5s16.833 18.5 28.5 24.5s26.834 9 45.501 9c21.333 0 43.666 -3.66699 66.999 -11
l-9 -57c-8.66699 2 -16.667 3.66699 -24 5s-16.333 2 -27 2c-13.333 0 -23.666 -4.66699 -30.999 -14s-12.333 -29.666 -15 -60.999l-16 -146h89l-3 -52h-93l-29 -251c-2.66699 -27.333 -6.5 -50 -11.5 -68s-11.833 -32.667 -20.5 -44s-19.167 -19.333 -31.5 -24
s-27.166 -7 -44.499 -7c-10 0 -20.333 0.833008 -31 2.5s-20.334 3.83398 -29.001 6.50098z" />
    <glyph glyph-name="circumflex" unicode="&#x2c6;" horiz-adv-x="163" 
d="M44 571h73l81 -113h-65l-52 76l-53 -76h-63z" />
    <glyph glyph-name="caron" unicode="&#x2c7;" horiz-adv-x="163" 
d="M-35 571h63l53 -76l52 76h65l-81 -113h-73z" />
    <glyph glyph-name="breve" unicode="&#x2d8;" horiz-adv-x="163" 
d="M0 571c3.33301 -22.667 12.6689 -38.501 28.002 -47.501s33.333 -13.5 54 -13.5c22.667 0 40.5 4.33301 53.5 13s22.167 24.667 27.5 48h42c-4.66699 -34 -17.334 -60.5 -38.001 -79.5s-48.334 -28.5 -83.001 -28.5c-38 0 -67.5 8.33301 -88.5 25
s-33.5 44.334 -37.5 83.001h42z" />
    <glyph glyph-name="dotaccent" unicode="&#x2d9;" horiz-adv-x="163" 
d="M47 557h70v-80h-70v80z" />
    <glyph glyph-name="ring" unicode="&#x2da;" horiz-adv-x="163" 
d="M32 526c0 -13.333 5 -24.833 15 -34.5s21.667 -14.5 35 -14.5c12.667 0 24 4.83301 34 14.5s15 21.167 15 34.5c0 12.667 -5 24.167 -15 34.5s-21.333 15.5 -34 15.5c-13.333 0 -25 -5.16699 -35 -15.5s-15 -21.833 -15 -34.5zM0 526c0 22 8 41.167 24 57.5
s35.333 24.5 58 24.5c22 0 41 -8.16699 57 -24.5s24 -35.5 24 -57.5s-8 -41 -24 -57s-35 -24 -57 -24c-22.667 0 -42 8 -58 24s-24 35 -24 57z" />
    <glyph glyph-name="ogonek" unicode="&#x2db;" horiz-adv-x="163" 
d="M125 -172c-12 -4.66699 -25.667 -6.99902 -41 -6.99902c-23.333 0 -43.166 6.66699 -59.499 20s-24.5 32.666 -24.5 57.999c0 10 2.5 19.667 7.5 29s11.5 18.333 19.5 27s16.667 16.834 26 24.501s18.333 14.5 27 20.5h51c-5.33301 -6 -12 -13.333 -20 -22
s-15.833 -17.667 -23.5 -27s-14.167 -18.833 -19.5 -28.5s-8 -18.834 -8 -27.501c0 -12 3.33301 -21.333 10 -28s14 -10 22 -10c7.33301 0 13.166 0.666992 17.499 2s9.5 3 15.5 5v-36z" />
    <glyph glyph-name="tilde" unicode="&#x2dc;" horiz-adv-x="163" 
d="M-55 465c2.66699 24.667 11.0029 45.334 25.0029 62.001s33.333 25 58 25c10.667 0 21.167 -1.5 31.5 -4.5s20.166 -6.5 29.499 -10.5c9.33301 -4.66699 18.166 -8.33398 26.499 -11.001s15.166 -4 20.499 -4c12.667 0 23 2.83301 31 8.5s12 14.5 12 26.5h39
c-4 -22 -12.5 -41.833 -25.5 -59.5s-32.167 -26.5 -57.5 -26.5c-8.66699 0 -18.167 1.5 -28.5 4.5s-20.833 6.83301 -31.5 11.5c-10.667 3.33301 -20.667 6.33301 -30 9s-18 4 -26 4c-8.66699 0 -16.667 -3.66699 -24 -11s-11 -15.333 -11 -24h-39z" />
    <glyph glyph-name="hungarumlaut" unicode="&#x2dd;" horiz-adv-x="163" 
d="M176 571h87l-106 -113h-52zM31 571h86l-104 -113h-54z" />
    <glyph glyph-name="pi" unicode="&#x3c0;" horiz-adv-x="496" 
d="M98 0l-0.00292969 326.004c-5.33301 0 -12.166 -0.5 -20.499 -1.5s-17.5 -4.83301 -27.5 -11.5c-8 -4.66699 -15.333 -10.334 -22 -17.001l-29 48c8 8 19.833 16.5 35.5 25.5s36.834 13.5 63.501 13.5h380v-57h-68v-243v-8c0 -1.33301 0.666992 -4 2 -8
c0.666992 -1.33301 1 -3 1 -5s0.666992 -3.66699 2 -5c1.33301 -3.33301 3.66602 -5.66602 6.99902 -6.99902c2.66699 -2 5.33398 -3 8.00098 -3h9h11c10 1.33301 19.333 4 28 8v-56c-8 -2.66699 -15.333 -4.33398 -22 -5.00098s-13.667 -1.33398 -21 -2.00098
c-4 -0.666992 -8.33301 -1 -13 -1h-13c-8 0 -16.167 0.666992 -24.5 2s-16.166 6 -23.499 14c-8.66699 9.33301 -13.5 19.166 -14.5 29.499s-1.5 20.166 -1.5 29.499v260h-181v-326h-66z" />
    <glyph glyph-name="uni066D" unicode="&#x66d;" horiz-adv-x="565" 
d="M229 258l53 165l54 -165h174l-140 -106l55 -164l-143 100l-142 -100l55 164l-140 106h174z" />
    <glyph glyph-name="uni0E01" unicode="&#xe01;" horiz-adv-x="476" 
d="M349 0l-0.000976562 274.001c0 16 -2.66699 31.5 -8 46.5s-13 28 -23 39s-22.167 19.833 -36.5 26.5s-30.5 10 -48.5 10c-21.333 0 -39.5 -3.33301 -54.5 -10s-27.333 -14.834 -37 -24.501s-16.667 -19.5 -21 -29.5s-6.5 -18.333 -6.5 -25h94v-34
c-23.333 0 -42.166 -7.66699 -56.499 -23s-21.5 -37 -21.5 -65v-185h-61v185c0 18 3.66699 34.667 11 50s16.333 25.333 27 30h-57c0 24 4 47 12 69s19.667 41.5 35 58.5s34.333 30.667 57 41s49 15.5 79 15.5c27.333 0 51.833 -5 73.5 -15s40.167 -23.167 55.5 -39.5
s27 -35 35 -56s12 -42.5 12 -64.5v-274h-60z" />
    <glyph glyph-name="uni0E02" unicode="&#xe02;" horiz-adv-x="377" 
d="M62 0v173c0 28 7.66699 52 23 72s32 35.667 50 47c-12 -4 -21.333 -6 -28 -6c-10 0 -20 2 -30 6s-18.667 9.83301 -26 17.5s-13.333 16.5 -18 26.5s-7 21 -7 33c0 24 8.33301 44.167 25 60.5s36.667 24.5 60 24.5c26 0 47.333 -9 64 -27s25 -40 25 -66
c0 -29.333 -4 -51.5 -12 -66.5s-16.833 -27.667 -26.5 -38s-18.5 -21 -26.5 -32s-12 -27.167 -12 -48.5v-123h126v388h60v-441h-247zM147 369c0 10 -3.49902 18.5 -10.499 25.5s-14.833 10.5 -23.5 10.5c-10.667 0 -19.334 -3.5 -26.001 -10.5s-10 -15.167 -10 -24.5
c0 -10 3.33301 -18.5 10 -25.5s14.667 -10.5 24 -10.5c10 0 18.5 3.5 25.5 10.5s10.5 15.167 10.5 24.5z" />
    <glyph glyph-name="uni0E03" unicode="&#xe03;" horiz-adv-x="470" 
d="M88 0l-0.00195312 120c0 21.333 3.83301 40.166 11.5 56.499s17 31 28 44s23.167 24.667 36.5 35s25.5 20.333 36.5 30s20.333 19.334 28 29.001s11.5 20.167 11.5 31.5c0 16.667 -2.33301 28.667 -7 36c-0.666992 -4.66699 -3.66699 -12.334 -9 -23.001
s-13 -21.5 -23 -32.5s-22.333 -20.667 -37 -29s-31.667 -12.5 -51 -12.5c-24 0 -44.333 8 -61 24s-25 36 -25 60s8.33301 44.167 25 60.5s37 24.5 61 24.5c20.667 0 37.834 -6.66699 51.501 -20s21.167 -28 22.5 -44c8.66699 5.33301 16.334 12.333 23.001 21
s10.667 18.667 12 30h42c6 -6 12.333 -18 19 -36s10 -36.667 10 -56s-3.5 -35.666 -10.5 -48.999s-15.5 -25.5 -25.5 -36.5s-21.167 -21.167 -33.5 -30.5s-23.5 -19.333 -33.5 -30s-18.5 -23 -25.5 -37s-10.5 -30.667 -10.5 -50v-62h184v387h60v-441h-310zM147.998 369
c0 10 -3.49902 18.5 -10.499 25.5s-14.833 10.5 -23.5 10.5c-10.667 0 -19.334 -3.5 -26.001 -10.5s-10 -15.167 -10 -24.5c0 -10 3.33301 -18.5 10 -25.5s15 -10.5 25 -10.5c9.33301 0 17.5 3.5 24.5 10.5s10.5 15.167 10.5 24.5z" />
    <glyph glyph-name="uni0E04" unicode="&#xe04;" horiz-adv-x="507" 
d="M380 0l-0.000976562 282.002c0 17.333 -3.16699 33.166 -9.5 47.499s-15.166 26.833 -26.499 37.5s-24.666 18.834 -39.999 24.501s-32 8.5 -50 8.5c-20.667 0 -38.834 -3.5 -54.501 -10.5s-29 -16.167 -40 -27.5s-19.333 -24.166 -25 -38.499s-8.5 -28.833 -8.5 -43.5
v-81c10.667 30 28 54.5 52 73.5s49.333 28.5 76 28.5c24 0 44.5 -8.16699 61.5 -24.5s25.5 -36.833 25.5 -61.5c0 -23.333 -8.33301 -43.166 -25 -59.499s-37 -24.5 -61 -24.5c-11.333 0 -21.666 2.16699 -30.999 6.5s-17.333 9.66602 -24 15.999
s-11.834 13.166 -15.501 20.499s-5.5 14 -5.5 20c-14 -12.667 -25.333 -31.334 -34 -56.001s-13 -54 -13 -88v-50h-65v285c0 23.333 4.5 45.333 13.5 66s21.833 38.667 38.5 54s36.5 27.333 59.5 36s48.167 13 75.5 13s52.5 -4.66699 75.5 -14s42.667 -22 59 -38
s29 -34.833 38 -56.5s13.5 -44.834 13.5 -69.501v-276h-60zM290.999 216.002c0 9.33301 -3.5 17.667 -10.5 25s-15.167 11 -24.5 11c-10 0 -18.333 -3.66699 -25 -11s-10 -15.333 -10 -24c0 -10 3.33301 -18.333 10 -25s14.667 -10 24 -10c10 0 18.5 3.33301 25.5 10
s10.5 14.667 10.5 24z" />
    <glyph glyph-name="uni0E05" unicode="&#xe05;" horiz-adv-x="507" 
d="M380 0l0.00195312 327.001c0 52 -17.333 78 -52 78c-18.667 0 -31.334 -5 -38.001 -15s-11.334 -20.333 -14.001 -31h-43c-2.66699 10.667 -7.16699 20.834 -13.5 30.501s-17.5 14.5 -33.5 14.5c-18.667 0 -33.334 -7.16699 -44.001 -21.5s-16 -34.5 -16 -60.5v-122
c10.667 30 28 54.5 52 73.5s49.333 28.5 76 28.5c24 0 44.5 -8.16699 61.5 -24.5s25.5 -36.5 25.5 -60.5c0 -23.333 -8.33301 -43.333 -25 -60s-37 -25 -61 -25c-11.333 0 -21.666 2.16699 -30.999 6.5s-17.333 9.66602 -24 15.999s-11.834 13.166 -15.501 20.499
s-5.5 14 -5.5 20c-14 -12.667 -25.333 -31.167 -34 -55.5s-13 -53.833 -13 -88.5v-51h-65v326c0 42 10.667 73.833 32 95.5s48 32.5 80 32.5c38 0 63 -12 75 -36c12.667 24 37.334 36 74.001 36c38 0 66.167 -11.333 84.5 -34s27.5 -54 27.5 -94v-326h-60zM291.002 218.001
c0 9.33301 -3.5 17.501 -10.5 24.501s-15.167 10.5 -24.5 10.5c-10 0 -18.333 -3.5 -25 -10.5s-10 -14.833 -10 -23.5c0 -10.667 3.33301 -19.334 10 -26.001s14.667 -10 24 -10c10 0 18.5 3.33301 25.5 10s10.5 15 10.5 25z" />
    <glyph glyph-name="uni0E06" unicode="&#xe06;" horiz-adv-x="504" 
d="M378 0c-6.66699 13.333 -16.667 27.1689 -30 41.502s-28 27.666 -44 39.999s-32.667 23 -50 32s-33.333 14.833 -48 17.5c8.66699 -16.667 13 -32.334 13 -47.001c0 -13.333 -2.66699 -25.833 -8 -37.5s-12.333 -21.834 -21 -30.501s-19 -15.5 -31 -20.5
s-24.333 -7.5 -37 -7.5c-26.667 0 -49.334 9.33301 -68.001 28s-28 41.334 -28 68.001c0 12.667 2.5 24.834 7.5 36.501s11.833 22 20.5 31s18.834 16 30.501 21s24.167 7.5 37.5 7.5c3.33301 0 7.83301 -0.666992 13.5 -2s9.83398 -3 12.501 -5c-1.33301 6 -2 9.5 -2 10.5
v16.5c0 18 5.16699 33.167 15.5 45.5s21.833 23.5 34.5 33.5s24.167 19.833 34.5 29.5s15.5 21.167 15.5 34.5c0 8.66699 -0.833008 15.334 -2.5 20.001s-3.5 9.33398 -5.5 14.001c-0.666992 -5.33301 -3.66699 -13.333 -9 -24s-13 -21.5 -23 -32.5s-22.333 -20.667 -37 -29
s-32 -12.5 -52 -12.5c-24 0 -44.167 8 -60.5 24s-24.5 35.667 -24.5 59c0 24 8.16699 44.333 24.5 61s36.5 25 60.5 25c21.333 0 38.833 -6.66699 52.5 -20s21.5 -28 23.5 -44c7.33301 6 14.333 13.167 21 21.5s11 18.166 13 29.499h47
c5.33301 -6.66699 11.166 -18.667 17.499 -36s9.5 -35.333 9.5 -54c0 -22.667 -4.66699 -40.334 -14 -53.001s-19.833 -23.5 -31.5 -32.5s-22.167 -18 -31.5 -27s-14 -21.5 -14 -37.5v-16c32 -6.66699 62.667 -18.834 92 -36.501s53 -37.167 71 -58.5v357h66v-441h-61z
M153 363.003c0 10 -3.50098 18.333 -10.501 25s-15.167 10 -24.5 10s-17.666 -3.33301 -24.999 -10s-11 -14.667 -11 -24c0 -10 3.66699 -18.5 11 -25.5s15.333 -10.5 24 -10.5c10 0 18.5 3.5 25.5 10.5s10.5 15.167 10.5 24.5zM161.999 85.0029
c0 10.667 -3.66699 19.834 -11 27.501s-16.666 11.5 -27.999 11.5s-21 -3.83301 -29 -11.5s-12 -16.834 -12 -27.501c0 -11.333 4 -21 12 -29s17.667 -12 29 -12s20.666 4 27.999 12s11 17.667 11 29z" />
    <glyph glyph-name="uni0E07" unicode="&#xe07;" horiz-adv-x="382" 
d="M123 0c-1.33301 28.667 -4.83105 58.833 -10.498 90.5s-12.5 63 -20.5 94s-16.833 60.833 -26.5 89.5s-19.167 54.334 -28.5 77.001l61 5c7.33301 -19.333 15.166 -41.5 23.499 -66.5s16.333 -51 24 -78s14.334 -54.167 20.001 -81.5s9.5 -53 11.5 -77h78v202
c0 5.33301 0.166992 10.166 0.5 14.499s1.16602 8.5 2.49902 12.5c0.666992 3.33301 1 8 1 14c-3.33301 -4 -7.83301 -7.16699 -13.5 -9.5s-10.834 -3.5 -15.501 -3.5c-23.333 0 -43.166 8.33301 -59.499 25s-24.5 37 -24.5 61s8.16699 44.167 24.5 60.5
s36.166 24.5 59.499 24.5c24 0 44.333 -8.16699 61 -24.5s25 -36.5 25 -60.5v-369h-193zM266.002 368.999c0 10 -3.33398 18.5 -10.001 25.5s-14.667 10.5 -24 10.5c-10 0 -18.5 -3.5 -25.5 -10.5s-10.5 -15.167 -10.5 -24.5c0 -10 3.5 -18.5 10.5 -25.5
s14.833 -10.5 23.5 -10.5c10.667 0 19.334 3.5 26.001 10.5s10 15.167 10 24.5z" />
    <glyph glyph-name="uni0E08" unicode="&#xe08;" horiz-adv-x="465" 
d="M373 0l-151.001 -0.00195312l-11 113c-0.666992 6 -1 11 -1 15v12c0 3.33301 0.333008 6 1 8c-2 -4 -6.66699 -8 -14 -12s-15 -6 -23 -6c-24 0 -44.167 7.83301 -60.5 23.5s-24.5 35.5 -24.5 59.5s8.16699 44.333 24.5 61s36.5 25 60.5 25s43.667 -8.33301 59 -25
s24 -37 26 -61l14 -161h45l20 220c2 16.667 1 32.667 -3 48s-10.833 28.833 -20.5 40.5s-21.834 20.834 -36.501 27.501s-32 10 -52 10c-38.667 0 -67.167 -8.5 -85.5 -25.5s-27.5 -37.5 -27.5 -61.5h-66c0 16.667 3.66699 33.5 11 50.5s18.333 32.333 33 46
s33.167 24.834 55.5 33.501s48.833 13 79.5 13c28.667 0 54.334 -5.16699 77.001 -15.5s41.834 -24 57.501 -41s27 -36.5 34 -58.5s8.83301 -45 5.5 -69zM209.999 212.998c0 10 -3.66602 18.5 -10.999 25.5s-15.333 10.5 -24 10.5c-10 0 -18.333 -3.5 -25 -10.5
s-10 -15.167 -10 -24.5s3.33301 -17.5 10 -24.5s14.667 -10.5 24 -10.5s17.666 3.5 24.999 10.5s11 14.833 11 23.5z" />
    <glyph glyph-name="uni0E09" unicode="&#xe09;" horiz-adv-x="516" 
d="M458 71c0 -23.333 -8.33398 -43.332 -25.001 -59.999s-37 -25 -61 -25c-23.333 0 -43.166 8.33301 -59.499 25s-24.5 36.667 -24.5 60c0 18 5 34.667 15 50c-16.667 0 -30.667 -2.83301 -42 -8.5s-20.333 -13 -27 -22s-11.5 -19.333 -14.5 -31s-4.5 -23.5 -4.5 -35.5v-24
h-58v88c0 4.66699 0.333008 9.16699 1 13.5s1.33398 8.83301 2.00098 13.5l2 12c-2.66699 -4 -6.83398 -7 -12.501 -9s-10.834 -3 -15.501 -3c-24 0 -44 8.16699 -60 24.5s-24 36.5 -24 60.5s8 44.167 24 60.5s36 24.5 60 24.5s44.333 -8.16699 61 -24.5s25 -36.5 25 -60.5
v-60c6 9.33301 16.833 17.666 32.5 24.999s36.5 11 62.5 11c18.667 0 32 4.33301 40 13s12 22.334 12 41.001v47c0 40 -10.333 70.333 -31 91s-53 31 -97 31c-38 0 -66.333 -8.66699 -85 -26s-28 -38 -28 -62h-65c0 16.667 3.5 33.5 10.5 50.5s17.833 32.333 32.5 46
s33.167 24.834 55.5 33.501s48.833 13 79.5 13c62.667 0 109.834 -15.833 141.501 -47.5s47.5 -74.834 47.5 -129.501v-66c0 -12 -2.83301 -23.333 -8.5 -34s-13.167 -19.334 -22.5 -26.001c18 -3.33301 32.667 -12.5 44 -27.5s17 -32.5 17 -52.5zM407.999 71.001
c0 10.667 -3.5 19.333 -10.5 26s-15.167 10 -24.5 10s-17.5 -3.33301 -24.5 -10s-10.5 -15 -10.5 -25c0 -9.33301 3.5 -17.5 10.5 -24.5s14.833 -10.5 23.5 -10.5c10 0 18.5 3.5 25.5 10.5s10.5 14.833 10.5 23.5zM169.999 200c0 9.33301 -3.5 17.667 -10.5 25
s-15.167 11 -24.5 11s-17.5 -3.66699 -24.5 -11s-10.5 -15.333 -10.5 -24c0 -10 3.5 -18.333 10.5 -25s14.833 -10 23.5 -10c10 0 18.5 3.33301 25.5 10s10.5 14.667 10.5 24z" />
    <glyph glyph-name="uni0E0A" unicode="&#xe0a;" horiz-adv-x="420" 
d="M378 477c0 -24 -7.33301 -45.167 -22 -63.5s-33 -30.5 -55 -36.5c14 -6 26 -16.167 36 -30.5s15 -37.5 15 -69.5v-277h-290v173c0 28 7.66699 52 23 72s32 35.667 50 47c-12 -4 -21.333 -6 -28 -6c-10 0 -20 2 -30 6s-18.667 9.83301 -26 17.5s-13.333 16.5 -18 26.5
s-7 21 -7 33c0 24 8.33301 44.167 25 60.5s36.667 24.5 60 24.5c26 0 47.333 -9 64 -27s25 -40 25 -66c0 -29.333 -4 -51.5 -12 -66.5s-16.833 -27.667 -26.5 -38s-18.5 -21 -26.5 -32s-12 -27.167 -12 -48.5v-123h166v229c0 46 -19.667 69 -59 69h-10v46h7
c26 0 46.5 7.33301 61.5 22s22.5 33 22.5 55v19h67v-16zM147 369c0 10 -3.49902 18.5 -10.499 25.5s-14.833 10.5 -23.5 10.5c-10.667 0 -19.334 -3.5 -26.001 -10.5s-10 -15.167 -10 -24.5c0 -10 3.33301 -18.5 10 -25.5s14.667 -10.5 24 -10.5c10 0 18.5 3.5 25.5 10.5
s10.5 15.167 10.5 24.5z" />
    <glyph glyph-name="uni0E0B" unicode="&#xe0b;" horiz-adv-x="470" 
d="M426 477c0 -24 -7.00098 -45.167 -21.001 -63.5s-32 -30.5 -54 -36.5c13.333 -6 24.833 -16.167 34.5 -30.5s14.5 -37.5 14.5 -69.5v-277h-312v120c0 21.333 3.83301 40.166 11.5 56.499s17 31 28 44s23.167 24.667 36.5 35s25.5 20.333 36.5 30s20.333 19.334 28 29.001
s11.5 20.167 11.5 31.5c0 16.667 -2.33301 28.667 -7 36c-0.666992 -4.66699 -3.66699 -12.334 -9 -23.001s-13 -21.5 -23 -32.5s-22.333 -20.667 -37 -29s-31.667 -12.5 -51 -12.5c-24 0 -44.333 8 -61 24s-25 36 -25 60s8.33301 44.167 25 60.5s37 24.5 61 24.5
c20.667 0 37.834 -6.66699 51.501 -20s21.167 -28 22.5 -44c8.66699 5.33301 16.334 12.333 23.001 21s10.667 18.667 12 30h42c6.66699 -8 13.667 -22.667 21 -44c23.333 1.33301 41.666 9.33301 54.999 24s20 32.334 20 53.001v19h66v-16zM147.999 369
c0 10 -3.49902 18.5 -10.499 25.5s-14.833 10.5 -23.5 10.5c-10.667 0 -19.334 -3.5 -26.001 -10.5s-10 -15.167 -10 -24.5c0 -10 3.33301 -18.5 10 -25.5s15 -10.5 25 -10.5c9.33301 0 17.5 3.5 24.5 10.5s10.5 15.167 10.5 24.5zM338 282c0 39.333 -15 61.668 -45 67.001
c0 -18 -3.33301 -33.667 -10 -47s-15.167 -25.333 -25.5 -36s-21.333 -20.834 -33 -30.501s-22.667 -20.167 -33 -31.5s-18.833 -24 -25.5 -38s-10 -30.667 -10 -50v-63h182v229z" />
    <glyph glyph-name="uni0E0C" unicode="&#xe0c;" horiz-adv-x="692" 
d="M566 0c-6 8 -14.165 16.166 -24.498 24.499s-21.5 16.333 -33.5 24s-24.5 15 -37.5 22s-25.167 12.833 -36.5 17.5l3 -7c0.666992 -1.33301 1 -5.66602 1 -12.999c0 -21.333 -8.33301 -39.833 -25 -55.5s-36.667 -23.5 -60 -23.5c-24 0 -44 8 -60 24s-24 35.667 -24 59
c0 24 7.83301 44 23.5 60s35.5 24 59.5 24c4 0 9.33301 -1 16 -3s11 -4.33301 13 -7c0 2.66699 -0.333008 5 -1 7c-0.666992 3.33301 -1.16699 6.33301 -1.5 9s-0.5 5.66699 -0.5 9v103c0 16 -3 31.333 -9 46s-14.5 27.667 -25.5 39s-24 20.333 -39 27s-31.5 10 -49.5 10
c-24 0 -44.167 -3.33301 -60.5 -10s-29.5 -14.834 -39.5 -24.501s-17.167 -19.5 -21.5 -29.5s-6.5 -18.333 -6.5 -25h94v-34c-22.667 0 -41.334 -7.66699 -56.001 -23s-22 -34.666 -22 -57.999v-21c0 -9.33301 -0.333008 -15 -1 -17l-2 -8
c2 2.66699 6.16699 5.16699 12.5 7.5s11.833 3.5 16.5 3.5c23.333 0 43.166 -8.16699 59.499 -24.5s24.5 -36.5 24.5 -60.5c0 -23.333 -8.33301 -43.166 -25 -59.499s-36.667 -24.5 -60 -24.5c-24 0 -44.333 8.16699 -61 24.5s-25 36.166 -25 59.499v113
c0 19.333 3.83301 36.333 11.5 51s16.834 24.334 27.501 29.001h-58c0 24 3.66699 47 11 69s18.833 41.5 34.5 58.5s35.5 30.667 59.5 41s53 15.5 87 15.5c26.667 0 51.167 -4.83301 73.5 -14.5s41.666 -22.667 57.999 -39s29 -35 38 -56s13.5 -42.833 13.5 -65.5v-134
c26 -8.66699 50.5 -19.334 73.5 -32.001s40.5 -24.667 52.5 -36v369h61v-441h-59zM388.002 70.999c0 10.667 -3.33301 19.333 -10 26s-14.667 10 -24 10c-10 0 -18.5 -3.33301 -25.5 -10s-10.5 -15 -10.5 -25c0 -9.33301 3.5 -17.5 10.5 -24.5s15.167 -10.5 24.5 -10.5
c10 0 18.333 3.5 25 10.5s10 14.833 10 23.5zM202.002 70.998c0 10.667 -3.33301 19.333 -10 26s-14.667 10 -24 10c-10 0 -18.5 -3.33301 -25.5 -10s-10.5 -15 -10.5 -25c0 -9.33301 3.5 -17.5 10.5 -24.5s15.167 -10.5 24.5 -10.5c10 0 18.333 3.5 25 10.5
s10 14.833 10 23.5z" />
    <glyph glyph-name="uni0E0D" unicode="&#xe0d;" horiz-adv-x="660" 
d="M333 0l0.000976562 273.999c0 16 -2.33301 31.333 -7 46s-11.667 27.667 -21 39s-20.833 20.333 -34.5 27s-29.5 10 -47.5 10c-20.667 0 -38 -3.33301 -52 -10s-25.167 -14.834 -33.5 -24.501s-14.333 -19.5 -18 -29.5s-5.5 -18.333 -5.5 -25h94v-34
c-22.667 0 -41.334 -7.66699 -56.001 -23s-22 -34.666 -22 -57.999v-21c0 -9.33301 -0.333008 -15 -1 -17l-3 -8c2.66699 2.66699 7.16699 5.16699 13.5 7.5s11.833 3.5 16.5 3.5c24 0 43.833 -8.16699 59.5 -24.5s23.5 -36.5 23.5 -60.5
c0 -23.333 -8.16699 -43.166 -24.5 -59.499s-36.5 -24.5 -60.5 -24.5s-44.167 8.16699 -60.5 24.5s-24.5 36.166 -24.5 59.499v113c0 19.333 3.66699 36.333 11 51s16.333 24.334 27 29.001h-57c0 24 3.5 47 10.5 69s17.833 41.5 32.5 58.5s32.667 30.667 54 41
s46.666 15.5 75.999 15.5c26.667 0 50.667 -4.83301 72 -14.5s39.333 -22.667 54 -39s25.834 -35 33.501 -56s11.5 -42.833 11.5 -65.5v-222h141v389h58v-441h-260zM590.001 -24.001c0 -18 -3.33203 -34.666 -9.99902 -49.999s-16.334 -28.666 -29.001 -39.999
s-27.667 -20.166 -45 -26.499s-36.333 -9.5 -57 -9.5c-43.333 0 -73.333 7.16699 -90 21.5s-25 31.5 -25 51.5c0 17.333 5.83301 31.5 17.5 42.5s25.834 16.5 42.501 16.5c17.333 0 31.666 -5.83301 42.999 -17.5s17 -25.834 17 -42.501c0 -4.66699 -1 -10.334 -3 -17.001
s-6 -11.334 -12 -14.001c32 0 55 7.66699 69 23s22 36 24 62h58zM417.002 -79c0 6.66699 -2.16699 12.334 -6.5 17.001s-9.83301 7 -16.5 7s-12.167 -2.33301 -16.5 -7s-6.5 -10.334 -6.5 -17.001s2.16699 -12 6.5 -16s9.83301 -6 16.5 -6s12.167 2 16.5 6
s6.5 9.33301 6.5 16zM188.002 71c0 10.667 -3.33398 19.333 -10.001 26s-14.667 10 -24 10s-17.666 -3.33301 -24.999 -10s-11 -15 -11 -25c0 -9.33301 3.66699 -17.5 11 -24.5s15.333 -10.5 24 -10.5c10 0 18.333 3.5 25 10.5s10 14.833 10 23.5z" />
    <glyph glyph-name="uni0E0E" unicode="&#xe0e;" horiz-adv-x="517" 
d="M449 -92c0 -34.667 -10.1641 -61.501 -30.4971 -80.501s-45.5 -28.5 -75.5 -28.5c-10 0 -20 1.33301 -30 4s-17.333 7.33398 -22 14.001c-3.33301 -6.66699 -10.333 -13.334 -21 -20.001s-24.334 -10 -41.001 -10c-22.667 0 -42 7.66699 -58 23s-24 35 -24 59
s8.16699 44.333 24.5 61s35.833 25 58.5 25c12.667 0 25.5 -4 38.5 -12s21.167 -16 24.5 -24c6 6.66699 9.5 13.5 10.5 20.5s0.5 16.5 -1.5 28.5h54c0 -28 -3.83301 -49.167 -11.5 -63.5s-19.5 -26.166 -35.5 -35.499c6 -10.667 18 -16 36 -16c15.333 0 26.333 5 33 15
s10 23.333 10 40v366c0 16 -2.66699 31.333 -8 46s-13 27.667 -23 39s-22.5 20.333 -37.5 27s-31.833 10 -50.5 10c-20 0 -37.667 -3.33301 -53 -10s-28 -14.834 -38 -24.501s-17.5 -19.5 -22.5 -29.5s-7.5 -18.333 -7.5 -25h93v-34c-11.333 0 -20.833 -4.5 -28.5 -13.5
s-11.5 -23.167 -11.5 -42.5v-145c0 -23.333 -8.33301 -43.166 -25 -59.499s-36.667 -24.5 -60 -24.5c-24 0 -44.333 8.16699 -61 24.5s-25 36.166 -25 59.499c0 24 8.16699 44.167 24.5 60.5s36.5 24.5 60.5 24.5c4 0 9.33301 -1.16699 16 -3.5s11 -4.83301 13 -7.5
c0 3.33301 -0.333008 6 -1 8c-0.666992 3.33301 -1.16699 6.33301 -1.5 9s-0.5 5.33398 -0.5 8.00098v52c0 8.66699 2 17.167 6 25.5s10.333 13.833 19 16.5h-82c0 24 4 47 12 69s19.833 41.5 35.5 58.5s35 30.667 58 41s49.5 15.5 79.5 15.5
c28 0 53.167 -4.83301 75.5 -14.5s41.166 -22.667 56.499 -39s27.166 -35 35.499 -56s12.5 -42.833 12.5 -65.5v-366zM151.003 70.999c0 10.667 -3.33398 19.333 -10.001 26s-14.667 10 -24 10s-17.666 -3.33301 -24.999 -10s-11 -15 -11 -25
c0 -9.33301 3.66699 -17.5 11 -24.5s15.333 -10.5 24 -10.5c10 0 18.333 3.5 25 10.5s10 14.833 10 23.5zM266.002 -130.002c0 10 -3.33301 18.5 -10 25.5s-15.334 10.5 -26.001 10.5s-19.334 -3.5 -26.001 -10.5s-10 -15.5 -10 -25.5c0 -10.667 3.33301 -19.5 10 -26.5
s15.334 -10.5 26.001 -10.5s19.334 3.5 26.001 10.5s10 15.833 10 26.5z" />
    <glyph glyph-name="uni0E0F" unicode="&#xe0f;" horiz-adv-x="517" 
d="M449 -92c0 -32 -9.16797 -58.332 -27.501 -78.999s-41.833 -31 -70.5 -31c-15.333 0 -29.333 2.33301 -42 7s-22.334 11.667 -29.001 21c-6.66699 -6.66699 -12.667 -11.667 -18 -15s-12.666 -5 -21.999 -5c-11.333 0 -19.833 1.66699 -25.5 5
s-10.167 6.66602 -13.5 9.99902c0 -2 -1.66699 -5 -5 -9s-7.66602 -7.83301 -12.999 -11.5s-11.666 -6.83398 -18.999 -9.50098s-15.333 -4 -24 -4c-23.333 0 -43.166 7.66699 -59.499 23s-24.5 35 -24.5 59s8.33301 44.333 25 61s36.667 25 60 25c12 0 24.333 -4 37 -12
s21 -16 25 -24c6 6.66699 9.33301 13.5 10 20.5s0.333984 16.5 -0.999023 28.5h54c0 -28 -3.83301 -49.167 -11.5 -63.5s-19.167 -26.166 -34.5 -35.499c5.33301 -7.33301 13.666 -11 24.999 -11c8.66699 0.666992 16.667 4 24 10s12 14 14 24h34c0 -26 12 -39 36 -39
c12 0 20.833 4.83301 26.5 14.5s8.5 21.5 8.5 35.5v371c0 16 -2.66699 31.333 -8 46s-13 27.667 -23 39s-22.5 20.333 -37.5 27s-31.833 10 -50.5 10c-20 0 -37.667 -3.33301 -53 -10s-28 -14.834 -38 -24.501s-17.5 -19.5 -22.5 -29.5s-7.5 -18.333 -7.5 -25h93v-34
c-11.333 0 -20.833 -4.5 -28.5 -13.5s-11.5 -23.167 -11.5 -42.5v-145c0 -23.333 -8.33301 -43.166 -25 -59.499s-36.667 -24.5 -60 -24.5c-24 0 -44.333 8.16699 -61 24.5s-25 36.166 -25 59.499c0 24 8.16699 44.167 24.5 60.5s36.5 24.5 60.5 24.5
c4 0 9.33301 -1.16699 16 -3.5s11 -4.83301 13 -7.5c0 3.33301 -0.333008 6 -1 8c-0.666992 3.33301 -1.16699 6.33301 -1.5 9s-0.5 5.33398 -0.5 8.00098v52c0 8.66699 2 17.167 6 25.5s10.333 13.833 19 16.5h-82c0 24 4 47 12 69s19.833 41.5 35.5 58.5s35 30.667 58 41
s49.5 15.5 79.5 15.5c28 0 53.167 -4.83301 75.5 -14.5s41.166 -22.667 56.499 -39s27.166 -35 35.499 -56s12.5 -42.833 12.5 -65.5v-366zM150.999 71.001c0 10.667 -3.33398 19.333 -10.001 26s-14.667 10 -24 10s-17.666 -3.33301 -24.999 -10s-11 -15 -11 -25
c0 -9.33301 3.66699 -17.5 11 -24.5s15.333 -10.5 24 -10.5c10 0 18.333 3.5 25 10.5s10 14.833 10 23.5zM175.998 -130c0 10 -3.33301 18.5 -10 25.5s-15 10.5 -25 10.5c-11.333 0 -20.333 -3.5 -27 -10.5s-10 -15.5 -10 -25.5c0 -10.667 3.33301 -19.5 10 -26.5
s15.667 -10.5 27 -10.5c10 0 18.333 3.5 25 10.5s10 15.833 10 26.5z" />
    <glyph glyph-name="uni0E10" unicode="&#xe10;" horiz-adv-x="452" 
d="M387 380c-17.333 -6 -33.332 -8.50293 -47.999 -7.50293s-29 3.5 -43 7.5s-28.5 8 -43.5 12s-31.167 6 -48.5 6c-10 0 -19.5 -1.66699 -28.5 -5s-17.167 -7.83301 -24.5 -13.5s-13.166 -12.167 -17.499 -19.5s-6.5 -15 -6.5 -23h109c25.333 0 47.666 -3.66699 66.999 -11
s35.166 -17.333 47.499 -30s21.5 -27.167 27.5 -43.5s8.33301 -33.833 7 -52.5l-18 -200h-180l-5 71v21c0 4.66699 0.333008 8.33398 1 11.001c-2.66699 -5.33301 -7.66699 -9.66602 -15 -12.999s-14.333 -5 -21 -5c-24 0 -44.167 8 -60.5 24s-24.5 36 -24.5 60
c0 23.333 8.16699 43.333 24.5 60s36.5 25 60.5 25s43.667 -8.33301 59 -25s24 -36.667 26 -60l8 -117h66l14 149c3.33301 25.333 -2.66699 45 -18 59s-37.333 21 -66 21h-178v27c0 18.667 3.5 36.667 10.5 54s16.833 32.5 29.5 45.5s27.667 23.5 45 31.5
s36.666 12 57.999 12c16.667 0 32.334 -1.66699 47.001 -5s29 -6.66602 43 -9.99902s28.167 -5.5 42.5 -6.5s29.5 0.833008 45.5 5.5zM408.001 -97.0029c0 -42 -9.00098 -73.332 -27.001 -93.999s-41 -31 -69 -31c-40 0 -68.333 13 -85 39
c-8.66699 -18.667 -23.667 -28 -45 -28c-16.667 0 -29.667 4.66699 -39 14c-9.33301 -13.333 -24.333 -20 -45 -20c-18.667 0 -34.334 6.33301 -47.001 19s-19 28.667 -19 48c0 18.667 6.33301 34.334 19 47.001s28.334 19 47.001 19c10 0 19.5 -2.33301 28.5 -7
s15.5 -10.334 19.5 -17.001c3.33301 5.33301 4.83301 11 4.5 17s-0.833008 12.333 -1.5 19h48v-5c0 -20 -3 -35.667 -9 -47s-15 -20.333 -27 -27c3.33301 -4 6.33301 -6.83301 9 -8.5s6.66699 -2.5 12 -2.5c6.66699 0 12.834 4.16699 18.501 12.5s8.5 17.833 8.5 28.5v4h36
c3.33301 -17.333 11.666 -31 24.999 -41s28.333 -15 45 -15c18.667 0 30.667 4.66699 36 14c-5.33301 -2 -11.666 -3 -18.999 -3c-20.667 0 -38 6.66699 -52 20s-21 30 -21 50s7 37.167 21 51.5s31.333 21.5 52 21.5c10 0 19.5 -2 28.5 -6s17 -9.5 24 -16.5
s12.667 -15.333 17 -25s6.5 -19.834 6.5 -30.501zM183 168.998c0 10 -3.66602 18.332 -10.999 24.999s-15.333 10 -24 10c-10 0 -18.333 -3.33301 -25 -10s-10 -14.667 -10 -24s3.33301 -17.666 10 -24.999s14.667 -11 24 -11s17.666 3.66699 24.999 11s11 15.333 11 24z
M359.001 -91.0029c0 7.33301 -2.66699 13.5 -8 18.5s-11.666 7.5 -18.999 7.5c-8 0 -14.5 -2.5 -19.5 -7.5s-7.5 -11.167 -7.5 -18.5c0 -8 2.5 -14.5 7.5 -19.5s11.5 -7.5 19.5 -7.5c7.33301 0 13.666 2.5 18.999 7.5s8 11.5 8 19.5zM123.001 -150.003
c0 6 -2.5 11.499 -7.5 16.499s-10.833 7.5 -17.5 7.5c-6 0 -11.167 -2.5 -15.5 -7.5s-6.5 -10.5 -6.5 -16.5c0 -16 7.33301 -24 22 -24c6.66699 0 12.5 2.33301 17.5 7s7.5 10.334 7.5 17.001z" />
    <glyph glyph-name="uni0E11" unicode="&#xe11;" horiz-adv-x="545" 
d="M400 0l0.000976562 311.004c0 23.333 -4.5 40.666 -13.5 51.999s-20.5 17 -34.5 17c-30.667 0 -48.334 -16.333 -53.001 -49c-4 -22.667 -13.167 -41 -27.5 -55s-29.333 -27.5 -45 -40.5s-29.667 -27.667 -42 -44s-18.5 -37.833 -18.5 -64.5v-127h-70v135
c0 20 3.66699 37.5 11 52.5s16.666 28.5 27.999 40.5s23.333 22.667 36 32s24.667 18.5 36 27.5s20.666 18.167 27.999 27.5s11 19.666 11 30.999c0 15.333 -2.66699 27.333 -8 36c-0.666992 -4.66699 -3.5 -12.334 -8.5 -23.001s-12.167 -21.5 -21.5 -32.5
s-21.166 -20.667 -35.499 -29s-31.5 -12.5 -51.5 -12.5c-24 0 -44.167 8 -60.5 24s-24.5 36 -24.5 60s8.16699 44.167 24.5 60.5s36.5 24.5 60.5 24.5c21.333 0 38.833 -6.66699 52.5 -20s21.167 -28 22.5 -44c16.667 10.667 27 27.667 31 51h38c6 -6 10 -11 12 -15
s4 -10.333 6 -19c6 9.33301 16 17.833 30 25.5s28 11.5 42 11.5c32.667 0 59.334 -11.833 80.001 -35.5s31 -54.834 31 -93.501v-315h-66zM157.001 369.004c0 10 -3.66602 18.5 -10.999 25.5s-15.333 10.5 -24 10.5c-10 0 -18.333 -3.5 -25 -10.5s-10 -15.167 -10 -24.5
c0 -10 3.33301 -18.5 10 -25.5s14.667 -10.5 24 -10.5s17.666 3.5 24.999 10.5s11 15.167 11 24.5z" />
    <glyph glyph-name="uni0E12" unicode="&#xe12;" horiz-adv-x="697" 
d="M570 0c-6 8 -14.166 16.1699 -24.499 24.5029s-21.666 16.5 -33.999 24.5s-25.166 15.333 -38.499 22s-25.333 12.334 -36 17.001l2 -7c0.666992 -1.33301 1 -5.66602 1 -12.999c0 -21.333 -8.16699 -39.833 -24.5 -55.5s-36.5 -23.5 -60.5 -23.5s-44.167 8 -60.5 24
s-24.5 35.667 -24.5 59c0 24 8 44.167 24 60.5s36 24.5 60 24.5c4 0 9.33301 -1.16699 16 -3.5s11.334 -4.83301 14.001 -7.5c0 0.666992 -0.666992 3 -2 7c-0.666992 3.33301 -1.16699 6.33301 -1.5 9s-0.5 5.66699 -0.5 9v156c0 52 -17.333 78 -52 78
c-18.667 0 -31.334 -5 -38.001 -15s-11.334 -20.333 -14.001 -31h-43c-2.66699 10.667 -7.16699 20.834 -13.5 30.501s-17.5 14.5 -33.5 14.5c-18.667 0 -33.334 -7.16699 -44.001 -21.5s-16 -34.5 -16 -60.5v-259c6 2.66699 14.667 8.16699 26 16.5
s22.666 17.166 33.999 26.499s21.5 18.166 30.5 26.499s14.167 14.166 15.5 17.499c-10 -2.66699 -20.333 -2.83398 -31 -0.500977s-20.334 6.83301 -29.001 13.5s-15.834 15.5 -21.501 26.5s-8.5 23.5 -8.5 37.5c0 24 8 44 24 60s36 24 60 24
c24.667 0 44.667 -8.33301 60 -25s23 -38.334 23 -65.001c0 -18 -4 -36 -12 -54s-18.167 -35.167 -30.5 -51.5s-26.333 -31.5 -42 -45.5s-31.167 -26.167 -46.5 -36.5s-29.666 -18.5 -42.999 -24.5s-24 -9 -32 -9h-36v326c0 42 10.667 73.833 32 95.5s48 32.5 80 32.5
c38 0 63 -12 75 -36c12.667 24 37.334 36 74.001 36c38 0 66.167 -11.333 84.5 -34s27.5 -54 27.5 -94v-186c26 -8.66699 50.833 -19.334 74.5 -32.001s41.167 -24.667 52.5 -36v369h62v-441h-59zM262.001 228.003c0 8.66699 -3.66699 16.667 -11 24s-15.333 11 -24 11
c-10 0 -18.333 -3.66699 -25 -11s-10 -15.333 -10 -24c0 -10 3.33301 -18.333 10 -25s15 -10 25 -10c8.66699 0 16.667 3.33301 24 10s11 15 11 25zM391.001 72.0029c0 10.667 -3.5 19.167 -10.5 25.5s-15.5 9.5 -25.5 9.5c-8.66699 0 -16.667 -3.16699 -24 -9.5
s-11 -14.833 -11 -25.5c0 -9.33301 3.66699 -17.5 11 -24.5s15.333 -10.5 24 -10.5c10 0 18.5 3.5 25.5 10.5s10.5 15.167 10.5 24.5z" />
    <glyph glyph-name="uni0E13" unicode="&#xe13;" horiz-adv-x="676" 
d="M633 71c0 -23.333 -8.33301 -43.334 -25 -60.001s-37 -25 -61 -25c-23.333 0 -43.333 8.33301 -60 25s-25 36.667 -25 60c0 18.667 5.33301 35.334 16 50.001c-8.66699 0 -17.334 -3.5 -26.001 -10.5s-16.5 -15.833 -23.5 -26.5s-12.833 -22.167 -17.5 -34.5
s-7 -23.833 -7 -34.5v-15h-60v274c0 16 -2.66699 31.333 -8 46s-12.833 27.667 -22.5 39s-21.667 20.333 -36 27s-30.5 10 -48.5 10c-20.667 0 -38.167 -3.33301 -52.5 -10s-26.166 -14.834 -35.499 -24.501s-16.166 -19.5 -20.499 -29.5s-6.5 -18.333 -6.5 -25h94v-34
c-22.667 0 -41.334 -7.66699 -56.001 -23s-22 -34.666 -22 -57.999v-21c0 -9.33301 -0.333008 -15 -1 -17l-3 -8c2.66699 2.66699 7.16699 5.16699 13.5 7.5s11.833 3.5 16.5 3.5c24 0 43.833 -8.16699 59.5 -24.5s23.5 -36.5 23.5 -60.5
c0 -23.333 -8.16699 -43.166 -24.5 -59.499s-36.5 -24.5 -60.5 -24.5s-44.167 8.16699 -60.5 24.5s-24.5 36.166 -24.5 59.499v113c0 19.333 3.66699 36.333 11 51s16.333 24.334 27 29.001h-57c0 24 4 47 12 69s19.5 41.5 34.5 58.5s33.667 30.667 56 41
s47.833 15.5 76.5 15.5c26.667 0 50.834 -4.83301 72.501 -14.5s40.167 -22.667 55.5 -39s27.166 -35 35.499 -56s12.5 -42.833 12.5 -65.5v-151c8 15.333 20.333 28 37 38s33.334 15 50.001 15c34 0 51 18 51 54v211h62v-230c0 -12 -3.33301 -23.333 -10 -34
s-14.334 -19.334 -23.001 -26.001c18 -3.33301 32.667 -12.5 44 -27.5s17 -32.5 17 -52.5zM583 70.999c0 10.667 -3.33496 19.333 -10.002 26s-14.667 10 -24 10s-17.666 -3.33301 -24.999 -10s-11 -15 -11 -25c0 -9.33301 3.66699 -17.5 11 -24.5s15 -10.5 23 -10.5
c10.667 0 19.334 3.5 26.001 10.5s10 14.833 10 23.5zM187.998 70.998c0 10.667 -3.33398 19.333 -10.001 26s-14.667 10 -24 10s-17.666 -3.33301 -24.999 -10s-11 -15 -11 -25c0 -9.33301 3.66699 -17.5 11 -24.5s15.333 -10.5 24 -10.5c10 0 18.333 3.5 25 10.5
s10 14.833 10 23.5z" />
    <glyph glyph-name="uni0E14" unicode="&#xe14;" horiz-adv-x="500" 
d="M373 0l-0.00195312 281.998c0 17.333 -3.16699 33.166 -9.5 47.499s-15.166 26.833 -26.499 37.5s-24.5 18.834 -39.5 24.501s-31.5 8.5 -49.5 8.5c-20.667 0 -38.834 -3.5 -54.501 -10.5s-29 -16.167 -40 -27.5s-19.333 -24.166 -25 -38.499s-8.5 -28.833 -8.5 -43.5
v-218c4 0.666992 12.833 4.66699 26.5 12s27.834 16 42.501 26s27.834 20 39.501 30s17.834 18 18.501 24c-10 -3.33301 -20.333 -3.66602 -31 -0.999023s-20.5 7.5 -29.5 14.5s-16.333 16 -22 27s-8.5 23.5 -8.5 37.5c0 23.333 8 43.333 24 60s36 25 60 25
c24.667 0 45.167 -8.66699 61.5 -26s24.5 -39 24.5 -65c0 -22 -4.66699 -42.833 -14 -62.5s-21 -37.834 -35 -54.501s-29.667 -31.667 -47 -45s-34.5 -24.666 -51.5 -33.999s-32.833 -16.666 -47.5 -21.999s-26.334 -8 -35.001 -8h-35v285c0 23.333 4.5 45.333 13.5 66
s21.833 38.667 38.5 54s36.5 27.333 59.5 36s48.167 13 75.5 13c28.667 0 54.5 -4.66699 77.5 -14s42.5 -22 58.5 -38s28.333 -34.833 37 -56.5s13 -44.834 13 -69.501v-276h-61zM275.998 231.998c0 10 -3.5 18.332 -10.5 24.999s-15.167 10 -24.5 10
s-17.5 -3.33301 -24.5 -10s-10.5 -14.667 -10.5 -24s3.5 -17.666 10.5 -24.999s14.833 -11 23.5 -11c10 0 18.5 3.66699 25.5 11s10.5 15.333 10.5 24z" />
    <glyph glyph-name="uni0E15" unicode="&#xe15;" horiz-adv-x="500" 
d="M373 0l-0.00292969 326.996c0 26.667 -4.5 46.334 -13.5 59.001s-21.5 19 -37.5 19c-19.333 0 -32.166 -5 -38.499 -15s-10.833 -20.333 -13.5 -31h-43c-2.66699 10.667 -7.33398 20.834 -14.001 30.501s-17.667 14.5 -33 14.5c-19.333 0 -34.166 -7.16699 -44.499 -21.5
s-15.5 -34.5 -15.5 -60.5v-260c4 0.666992 12.833 4.66699 26.5 12s27.834 16 42.501 26s27.834 20 39.501 30s17.834 18 18.501 24c-10 -3.33301 -20.333 -3.66602 -31 -0.999023s-20.5 7.5 -29.5 14.5s-16.333 16 -22 27s-8.5 23.5 -8.5 37.5c0 23.333 8 43.333 24 60
s36 25 60 25c24.667 0 45.167 -8.66699 61.5 -26s24.5 -39 24.5 -65c0 -22 -4.66699 -42.833 -14 -62.5s-21 -37.834 -35 -54.501s-29.667 -31.667 -47 -45s-34.5 -24.666 -51.5 -33.999s-32.833 -16.666 -47.5 -21.999s-26.334 -8 -35.001 -8h-35v326
c0 42 10.667 73.833 32 95.5s48 32.5 80 32.5c36.667 0 61.667 -12 75 -36c12 24 36.667 36 74 36c38 0 66.167 -11.333 84.5 -34s27.5 -54 27.5 -94v-326h-61zM275.997 231.996c0 10 -3.5 18.332 -10.5 24.999s-15.167 10 -24.5 10s-17.5 -3.33301 -24.5 -10
s-10.5 -14.667 -10.5 -24s3.5 -17.666 10.5 -24.999s14.833 -11 23.5 -11c10 0 18.5 3.66699 25.5 11s10.5 15.333 10.5 24z" />
    <glyph glyph-name="uni0E16" unicode="&#xe16;" horiz-adv-x="474" 
d="M346 0l0.00390625 273.999c0 16 -2.66699 31.333 -8 46s-13 27.667 -23 39s-22.167 20.333 -36.5 27s-30.5 10 -48.5 10c-20 0 -37.333 -3.33301 -52 -10s-26.834 -14.834 -36.501 -24.501s-16.667 -19.5 -21 -29.5s-6.5 -18.333 -6.5 -25h94v-34
c-22.667 0 -41.334 -7.66699 -56.001 -23s-22 -34.666 -22 -57.999v-21c0 -9.33301 -0.333008 -15 -1 -17l-3 -8c2.66699 2.66699 7.16699 5.16699 13.5 7.5s11.833 3.5 16.5 3.5c24 0 43.833 -8.16699 59.5 -24.5s23.5 -36.5 23.5 -60.5
c0 -23.333 -8.16699 -43.166 -24.5 -59.499s-36.5 -24.5 -60.5 -24.5s-44.167 8.16699 -60.5 24.5s-24.5 36.166 -24.5 59.499v113c0 19.333 3.66699 36.333 11 51s16.333 24.334 27 29.001h-57c0 24 4 47 12 69s19.667 41.5 35 58.5s34.166 30.667 56.499 41
s47.833 15.5 76.5 15.5c26.667 0 51 -4.83301 73 -14.5s40.667 -22.667 56 -39s27.166 -35 35.499 -56s12.5 -42.833 12.5 -65.5v-274h-61zM188.004 70.999c0 10.667 -3.33398 19.333 -10.001 26s-14.667 10 -24 10s-17.666 -3.33301 -24.999 -10s-11 -15 -11 -25
c0 -9.33301 3.66699 -17.5 11 -24.5s15.333 -10.5 24 -10.5c10 0 18.333 3.5 25 10.5s10 14.833 10 23.5z" />
    <glyph glyph-name="uni0E17" unicode="&#xe17;" horiz-adv-x="523" 
d="M391 0l0.00195312 311.003c0 25.333 -5.33301 43.166 -16 53.499s-24.334 15.5 -41.001 15.5c-18 0 -35.167 -7.66699 -51.5 -23s-30.833 -34.333 -43.5 -57s-22.834 -46.667 -30.501 -72s-11.5 -48 -11.5 -68v-160h-65v256c0 5.33301 0.333008 10.166 1 14.499
s1.33398 8.5 2.00098 12.5l3 13c-3.33301 -4 -7.83301 -7.16699 -13.5 -9.5s-10.834 -3.5 -15.501 -3.5c-23.333 0 -43.166 8.33301 -59.499 25s-24.5 37 -24.5 61s8.16699 44.167 24.5 60.5s36.166 24.5 59.499 24.5c24.667 0 45.167 -8.16699 61.5 -24.5
s24.5 -36.5 24.5 -60.5v-7c0 -4.66699 -1.16699 -13 -3.5 -25s-4.83301 -23.667 -7.5 -35c5.33301 16 12.833 32.333 22.5 49s21 32 34 46s27.5 25.333 43.5 34s32.667 13 50 13c38 0 68 -11.833 90 -35.5s33 -54.834 33 -93.501v-315h-66zM146.002 369.003
c0 10 -3.66797 18.5 -11.001 25.5s-15.333 10.5 -24 10.5c-10 0 -18.333 -3.5 -25 -10.5s-10 -15.167 -10 -24.5c0 -10 3.33301 -18.5 10 -25.5s14.334 -10.5 23.001 -10.5c10 0 18.667 3.5 26 10.5s11 15.167 11 24.5z" />
    <glyph glyph-name="uni0E18" unicode="&#xe18;" horiz-adv-x="462" 
d="M397 380c-17.333 -6 -33.333 -8.50098 -48 -7.50098s-29 3.5 -43 7.5s-28.5 8 -43.5 12s-31.167 6 -48.5 6c-10 0 -19.5 -1.66699 -28.5 -5s-17.167 -7.83301 -24.5 -13.5s-13.166 -12.167 -17.499 -19.5s-6.5 -15 -6.5 -23h109c50.667 0 88 -13.667 112 -41
c24.667 -26.667 37 -58.667 37 -96v-200h-310v230h65v-178h182v150c0 52.667 -28.667 79 -86 79h-178v27c0 18.667 3.5 36.667 10.5 54s16.833 32.5 29.5 45.5s27.667 23.5 45 31.5s36.666 12 57.999 12c16.667 0 32.334 -1.66699 47.001 -5s29 -6.66602 43 -9.99902
s28.167 -5.5 42.5 -6.5s29.166 0.833008 44.499 5.5z" />
    <glyph glyph-name="uni0E19" unicode="&#xe19;" horiz-adv-x="519" 
d="M466 71c0 -23.333 -8.16895 -43.333 -24.502 -60s-36.5 -25 -60.5 -25s-44.167 8.33301 -60.5 25s-24.5 36.667 -24.5 60c0 18.667 5.33301 35.334 16 50.001c-18 0 -34.333 -2.66699 -49 -8s-27.167 -12.5 -37.5 -21.5s-18.5 -19.333 -24.5 -31s-9 -23.5 -9 -35.5v-25
h-60v256c0 5.33301 0.333008 10.166 1 14.499s1.33398 8.5 2.00098 12.5l3 13c-3.33301 -4 -7.83301 -7.16699 -13.5 -9.5s-10.834 -3.5 -15.501 -3.5c-23.333 0 -43.166 8.33301 -59.499 25s-24.5 37 -24.5 61s8.16699 44.167 24.5 60.5s36.166 24.5 59.499 24.5
c24.667 0 45.167 -8.16699 61.5 -24.5s24.5 -36.5 24.5 -60.5v-243c8.66699 13.333 23.834 25 45.501 35s49.5 15 83.5 15c18.667 0 31.834 4.33301 39.501 13s11.5 22.334 11.5 41.001v211h62v-230c0 -12 -2.83301 -23.333 -8.5 -34s-13.167 -19.334 -22.5 -26.001
c18 -3.33301 32.5 -12.5 43.5 -27.5s16.5 -32.5 16.5 -52.5zM145.998 369c0 10 -3.66797 18.5 -11.001 25.5s-15.333 10.5 -24 10.5c-10 0 -18.333 -3.5 -25 -10.5s-10 -15.167 -10 -24.5c0 -10 3.33301 -18.5 10 -25.5s14.334 -10.5 23.001 -10.5c10 0 18.667 3.5 26 10.5
s11 15.167 11 24.5zM416.997 71c0 10.667 -3.50098 19.333 -10.501 26s-15.167 10 -24.5 10s-17.666 -3.33301 -24.999 -10s-11 -15 -11 -25c0 -9.33301 3.66699 -17.5 11 -24.5s15.333 -10.5 24 -10.5c10 0 18.5 3.5 25.5 10.5s10.5 14.833 10.5 23.5z" />
    <glyph glyph-name="uni0E1A" unicode="&#xe1a;" horiz-adv-x="505" 
d="M132 0v256.001c0 5.33301 0.333008 10.166 1 14.499s1.33398 8.5 2.00098 12.5l3 13c-3.33301 -4 -7.83301 -7.16699 -13.5 -9.5s-10.834 -3.5 -15.501 -3.5c-23.333 0 -43.166 8.33301 -59.499 25s-24.5 37 -24.5 61s8.16699 44.167 24.5 60.5s36.166 24.5 59.499 24.5
c24.667 0 45.167 -8.16699 61.5 -24.5s24.5 -36.5 24.5 -60.5v-314h178v386h66v-441h-307zM146 369.001c0 10 -3.66797 18.5 -11.001 25.5s-15.333 10.5 -24 10.5c-10 0 -18.333 -3.5 -25 -10.5s-10 -15.167 -10 -24.5c0 -10 3.33301 -18.5 10 -25.5
s14.334 -10.5 23.001 -10.5c10 0 18.667 3.5 26 10.5s11 15.167 11 24.5z" />
    <glyph glyph-name="uni0E1B" unicode="&#xe1b;" horiz-adv-x="505" 
d="M132 0v256.001c0 5.33301 0.333008 10.166 1 14.499s1.33398 8.5 2.00098 12.5l3 13c-3.33301 -4 -7.83301 -7.16699 -13.5 -9.5s-10.834 -3.5 -15.501 -3.5c-23.333 0 -43.166 8.33301 -59.499 25s-24.5 37 -24.5 61s8.16699 44.167 24.5 60.5s36.166 24.5 59.499 24.5
c24.667 0 45.167 -8.16699 61.5 -24.5s24.5 -36.5 24.5 -60.5v-314h185v564h66v-619h-314zM146 369.001c0 10 -3.66797 18.5 -11.001 25.5s-15.333 10.5 -24 10.5c-10 0 -18.333 -3.5 -25 -10.5s-10 -15.167 -10 -24.5c0 -10 3.33301 -18.5 10 -25.5
s14.334 -10.5 23.001 -10.5c10 0 18.667 3.5 26 10.5s11 15.167 11 24.5z" />
    <glyph glyph-name="uni0E1C" unicode="&#xe1c;" horiz-adv-x="492" 
d="M353 0l-103.999 176.999l-108 -177h-77v369c0 24 8.33301 44.167 25 60.5s36.667 24.5 60 24.5c24 0 44.333 -8.16699 61 -24.5s25 -36.5 25 -60.5s-8.33301 -44.333 -25 -61s-37 -25 -61 -25c-4 0 -8.83301 1.16699 -14.5 3.5s-10.167 5.5 -13.5 9.5l3 -13
c1.33301 -4 2.16602 -8.16699 2.49902 -12.5s0.5 -9.16602 0.5 -14.499v-184l105 169h37l95 -163v363h62v-441h-73zM184.001 368.999c0 10 -3.66602 18.5 -10.999 25.5s-15.333 10.5 -24 10.5c-10 0 -18.333 -3.5 -25 -10.5s-10 -15.167 -10 -24.5
c0 -10 3.33301 -18.5 10 -25.5s14.667 -10.5 24 -10.5s17.666 3.5 24.999 10.5s11 15.167 11 24.5z" />
    <glyph glyph-name="uni0E1D" unicode="&#xe1d;" horiz-adv-x="492" 
d="M353 0l-103.999 176.999l-108 -177h-77v369c0 24 8.33301 44.167 25 60.5s36.667 24.5 60 24.5c24 0 44.333 -8.16699 61 -24.5s25 -36.5 25 -60.5s-8.33301 -44.333 -25 -61s-37 -25 -61 -25c-4 0 -8.83301 1.16699 -14.5 3.5s-10.167 5.5 -13.5 9.5l3 -13
c1.33301 -4 2.16602 -8.16699 2.49902 -12.5s0.5 -9.16602 0.5 -14.499v-184l105 169h37l95 -163v541h62v-619h-73zM184.001 368.999c0 10 -3.66602 18.5 -10.999 25.5s-15.333 10.5 -24 10.5c-10 0 -18.333 -3.5 -25 -10.5s-10 -15.167 -10 -24.5
c0 -10 3.33301 -18.5 10 -25.5s14.667 -10.5 24 -10.5s17.666 3.5 24.999 10.5s11 15.167 11 24.5z" />
    <glyph glyph-name="uni0E1E" unicode="&#xe1e;" horiz-adv-x="544" 
d="M414 0l-121.002 314.001l-118 -314h-60v256c0 5.33301 0.333008 10.166 1 14.499s1.33398 8.5 2.00098 12.5l3 13c-3.33301 -4 -8 -7.16699 -14 -9.5s-11 -3.5 -15 -3.5c-24 0 -44 8.33301 -60 25s-24 37 -24 61s8 44.167 24 60.5s36 24.5 60 24.5
c24.667 0 45 -8.16699 61 -24.5s24 -36.5 24 -60.5v-182c0 -4.66699 -0.166992 -10 -0.5 -16s-0.833008 -11.667 -1.5 -17c-1.33301 -8 -2.66602 -14.333 -3.99902 -19l104 279h32l110 -276c0 4 -0.666992 9.33301 -2 16c-0.666992 4.66699 -1.16699 10.667 -1.5 18
s-0.5 14.333 -0.5 21v248h63v-441h-62zM128.998 369.001c0 10 -3.66699 18.5 -11 25.5s-15.333 10.5 -24 10.5c-10 0 -18.5 -3.5 -25.5 -10.5s-10.5 -15.167 -10.5 -24.5c0 -10 3.5 -18.5 10.5 -25.5s14.833 -10.5 23.5 -10.5c10 0 18.667 3.5 26 10.5s11 15.167 11 24.5z
" />
    <glyph glyph-name="uni0E1F" unicode="&#xe1f;" horiz-adv-x="544" 
d="M415 0l-121.003 314l-119 -314h-60v256c0 5.33301 0.333008 10.166 1 14.499s1.33398 8.5 2.00098 12.5l3 13c-3.33301 -4 -8 -7.16699 -14 -9.5s-11 -3.5 -15 -3.5c-24 0 -44 8.33301 -60 25s-24 37 -24 61s8 44.167 24 60.5s36 24.5 60 24.5
c24.667 0 45 -8.16699 61 -24.5s24 -36.5 24 -60.5v-182c0 -4.66699 -0.166992 -10 -0.5 -16s-0.833008 -11.667 -1.5 -17c-1.33301 -8 -2.66602 -14.333 -3.99902 -19l105 279h32l110 -276v8c0 2.66699 -0.333008 5.33398 -1 8.00098
c-1.33301 4.66699 -2.16602 10.667 -2.49902 18s-0.5 14.333 -0.5 21v426h63v-619h-62zM128.997 369c0 10 -3.66699 18.5 -11 25.5s-15.333 10.5 -24 10.5c-10 0 -18.5 -3.5 -25.5 -10.5s-10.5 -15.167 -10.5 -24.5c0 -10 3.5 -18.5 10.5 -25.5s14.833 -10.5 23.5 -10.5
c10 0 18.667 3.5 26 10.5s11 15.167 11 24.5z" />
    <glyph glyph-name="uni0E20" unicode="&#xe20;" horiz-adv-x="510" 
d="M381 0l0.00292969 274c0 16 -2.83301 31.333 -8.5 46s-13.5 27.667 -23.5 39s-22.167 20.333 -36.5 27s-30.166 10 -47.499 10c-20.667 0 -38.334 -3.33301 -53.001 -10s-26.834 -14.834 -36.501 -24.501s-16.667 -19.5 -21 -29.5s-6.5 -18.333 -6.5 -25h93v-34
c-11.333 0 -20.833 -4.5 -28.5 -13.5s-11.5 -23.167 -11.5 -42.5v-145c0 -23.333 -8.33301 -43.166 -25 -59.499s-36.667 -24.5 -60 -24.5c-24 0 -44.333 8.16699 -61 24.5s-25 36.166 -25 59.499c0 24 8.16699 44.167 24.5 60.5s36.5 24.5 60.5 24.5
c4 0 9.33301 -1.16699 16 -3.5s11 -4.83301 13 -7.5c0 3.33301 -0.333008 6 -1 8c-0.666992 3.33301 -1.16699 6.33301 -1.5 9s-0.5 5.33398 -0.5 8.00098v52c0 8.66699 2 17.167 6 25.5s10.333 13.833 19 16.5h-82c0 24 4 47 12 69s19.667 41.5 35 58.5
s34.166 30.667 56.499 41s48.166 15.5 77.499 15.5c26.667 0 51 -4.83301 73 -14.5s40.5 -22.667 55.5 -39s26.667 -35 35 -56s12.5 -42.833 12.5 -65.5v-274h-60zM151.003 71c0 10.667 -3.33398 19.333 -10.001 26s-14.667 10 -24 10s-17.666 -3.33301 -24.999 -10
s-11 -15 -11 -25c0 -9.33301 3.66699 -17.5 11 -24.5s15.333 -10.5 24 -10.5c10 0 18.333 3.5 25 10.5s10 14.833 10 23.5z" />
    <glyph glyph-name="uni0E21" unicode="&#xe21;" horiz-adv-x="502" 
d="M378 0c-6.66699 13.333 -16.668 27.1689 -30.001 41.502s-28 27.666 -44 39.999s-32.667 23 -50 32s-33.333 14.833 -48 17.5c8.66699 -16.667 13 -32.334 13 -47.001c0 -13.333 -2.66699 -25.833 -8 -37.5s-12.333 -21.834 -21 -30.501s-19 -15.5 -31 -20.5
s-24.333 -7.5 -37 -7.5c-26.667 0 -49.334 9.33301 -68.001 28s-28 41.334 -28 68.001c0 12.667 2.5 24.834 7.5 36.501s11.833 22 20.5 31s18.834 16 30.501 21s24.167 7.5 37.5 7.5c3.33301 0 8.5 -0.666992 15.5 -2s11.5 -3.66602 13.5 -6.99902
c-3.33301 16.667 -5 29.667 -5 39v52c0 7.33301 1.66699 18.666 5 33.999c-2.66699 -4 -6.66699 -7.16699 -12 -9.5s-10.666 -3.5 -15.999 -3.5c-23.333 0 -43.333 8.33301 -60 25s-25 37 -25 61s8.33301 44.167 25 60.5s36.667 24.5 60 24.5c24 0 44.333 -8.16699 61 -24.5
s25 -36.5 25 -60.5v-190c31.333 -6.66699 62 -18.834 92 -36.501s54 -37.167 72 -58.5v357h66v-441h-61zM158.999 369.003c0 10 -3.5 18.5 -10.5 25.5s-15.167 10.5 -24.5 10.5c-10 0 -18.333 -3.5 -25 -10.5s-10 -15.167 -10 -24.5c0 -10 3.33301 -18.5 10 -25.5
s14.667 -10.5 24 -10.5c10 0 18.5 3.5 25.5 10.5s10.5 15.167 10.5 24.5zM161.999 85.0029c0 10.667 -3.66699 19.834 -11 27.501s-16.666 11.5 -27.999 11.5s-21 -3.83301 -29 -11.5s-12 -16.834 -12 -27.501c0 -11.333 4 -21 12 -29s17.667 -12 29 -12s20.666 4 27.999 12
s11 17.667 11 29z" />
    <glyph glyph-name="uni0E22" unicode="&#xe22;" horiz-adv-x="452" 
d="M60 0l0.000976562 125.999c0 20 3.33301 36.167 10 48.5s17.667 22.833 33 31.5c-22.667 5.33301 -41.5 19.333 -56.5 42s-22.5 50.334 -22.5 83.001c0 20 2.83301 37.5 8.5 52.5s13.5 27.833 23.5 38.5s21.667 18.667 35 24s27.333 8 42 8
c24 0 44.333 -8.16699 61 -24.5s25 -36.5 25 -60.5s-8.33301 -44.333 -25 -61s-37 -25 -61 -25c-8.66699 0 -17.334 2.16699 -26.001 6.5s-15 9.5 -19 15.5c-2 -15.333 3 -29 15 -41s31 -18 57 -18h80v-45h-46c-18 0 -34.167 -6.83301 -48.5 -20.5s-21.5 -30.5 -21.5 -50.5
v-74h202v385h62v-441h-328zM169.001 368.999c0 10 -3.50098 18.5 -10.501 25.5s-15.167 10.5 -24.5 10.5s-17.666 -3.5 -24.999 -10.5s-11 -15.167 -11 -24.5c0 -10 3.66699 -18.5 11 -25.5s15.333 -10.5 24 -10.5c10 0 18.5 3.5 25.5 10.5s10.5 15.167 10.5 24.5z" />
    <glyph glyph-name="uni0E23" unicode="&#xe23;" horiz-adv-x="394" 
d="M351 380c-17.333 -6 -33.502 -8.50098 -48.502 -7.50098s-29.5 3.5 -43.5 7.5s-28.333 8 -43 12s-30.667 6 -48 6c-10 0 -19.667 -1.66699 -29 -5s-17.666 -7.83301 -24.999 -13.5s-13.166 -12.167 -17.499 -19.5s-6.5 -15 -6.5 -23h81c26 0 47.833 -3.33301 65.5 -10
s32 -15.667 43 -27s19 -24.833 24 -40.5s7.5 -32.5 7.5 -50.5v-128c0 -26.667 -8 -48.667 -24 -66s-36.333 -26 -61 -26c-24 0 -44.167 8.16699 -60.5 24.5s-24.5 36.5 -24.5 60.5c0 23.333 8.16699 43.166 24.5 59.499s36.5 24.5 60.5 24.5c4 0 8.83301 -0.666992 14.5 -2
s9.83398 -3.66602 12.501 -6.99902c-2 4.66699 -3.16699 9.5 -3.5 14.5s-0.5 11.167 -0.5 18.5v29c0 24.667 -5.83301 42.5 -17.5 53.5s-31.834 16.5 -60.501 16.5h-150v27c0 18.667 3.5 36.667 10.5 54s16.833 32.5 29.5 45.5s27.667 23.5 45 31.5s36.666 12 57.999 12
c16.667 0 32.334 -1.66699 47.001 -5s29 -6.66602 43 -9.99902s28.167 -5.5 42.5 -6.5s29.5 0.833008 45.5 5.5zM261.998 73.999c0 10 -3.66602 18.334 -10.999 25.001s-15.333 10 -24 10c-10 0 -18.333 -3.33301 -25 -10s-10 -14.334 -10 -23.001
c0 -10 3.33301 -18.667 10 -26s14.667 -11 24 -11s17.666 3.66699 24.999 11s11 15.333 11 24z" />
    <glyph glyph-name="uni0E24" unicode="&#xe24;" horiz-adv-x="471" 
d="M344 -180l0.000976562 453.999c0 16 -2.66699 31.333 -8 46s-13 27.667 -23 39s-22.167 20.333 -36.5 27s-30.5 10 -48.5 10c-20.667 0 -38.334 -3.33301 -53.001 -10s-26.834 -14.834 -36.501 -24.501s-16.667 -19.5 -21 -29.5s-6.5 -18.333 -6.5 -25h93v-34
c-22 0 -40.333 -7.66699 -55 -23s-22 -34.666 -22 -57.999v-21c0 -9.33301 -0.333008 -15 -1 -17l-3 -8c2.66699 2.66699 7.33398 5.16699 14.001 7.5s12 3.5 16 3.5c23.333 0 43.166 -8.16699 59.499 -24.5s24.5 -36.5 24.5 -60.5c0 -23.333 -8.33301 -43.166 -25 -59.499
s-37 -24.5 -61 -24.5c-23.333 0 -43.166 8.16699 -59.499 24.5s-24.5 36.166 -24.5 59.499v113c0 19.333 3.66699 36.333 11 51s16.333 24.334 27 29.001h-58c0 24 4 47 12 69s19.667 41.5 35 58.5s34.166 30.667 56.499 41s48.166 15.5 77.499 15.5
c26.667 0 50.834 -4.83301 72.501 -14.5s40.334 -22.667 56.001 -39s27.667 -35 36 -56s12.5 -42.833 12.5 -65.5v-454h-61zM186.001 70.999c0 10.667 -3.33398 19.333 -10.001 26s-15 10 -25 10c-9.33301 0 -17.5 -3.33301 -24.5 -10s-10.5 -15 -10.5 -25
c0 -9.33301 3.5 -17.5 10.5 -24.5s14.833 -10.5 23.5 -10.5c10.667 0 19.334 3.5 26.001 10.5s10 14.833 10 23.5z" />
    <glyph glyph-name="uni0E25" unicode="&#xe25;" horiz-adv-x="485" 
d="M351 0l-0.000976562 108.999c0 17.333 -3 34 -9 50s-14.5 30 -25.5 42s-24.5 21.667 -40.5 29s-34 11 -54 11c-28 0 -49.667 -6.33301 -65 -19s-23 -27 -23 -43v-12c0 -5.33301 -1 -10 -3 -14l-5 -7c3.33301 3.33301 7.83301 6.16602 13.5 8.49902s10.5 3.5 14.5 3.5
c24 0 44.167 -8.33301 60.5 -25s24.5 -37 24.5 -61c0 -23.333 -8.16699 -43.166 -24.5 -59.499s-36.5 -24.5 -60.5 -24.5s-44.167 8.16699 -60.5 24.5s-24.5 36.166 -24.5 59.499v85c0 42 12.167 76 36.5 102s62.5 39 114.5 39c20 0 38 -2.5 54 -7.5s29.667 -11 41 -18
s20.333 -14.667 27 -23s11.334 -15.5 14.001 -21.5c0 4.66699 -0.333008 8.33398 -1 11.001c-0.666992 4.66699 -1 9 -1 13v12v24c0 36 -9 63.5 -27 82.5s-47 28.5 -87 28.5c-38 0 -66.5 -8.66699 -85.5 -26s-28.5 -38 -28.5 -62h-65c0 16.667 3.5 33.5 10.5 50.5
s17.833 32.333 32.5 46s33.5 24.834 56.5 33.501s50.5 13 82.5 13c56 0 99.167 -14.167 129.5 -42.5s45.5 -68.5 45.5 -120.5v-291h-67zM187.999 70.999c0 10.667 -3.33398 19.333 -10.001 26s-14.667 10 -24 10s-17.666 -3.33301 -24.999 -10s-11 -15 -11 -25
c0 -9.33301 3.66699 -17.5 11 -24.5s15.333 -10.5 24 -10.5c10 0 18.333 3.5 25 10.5s10 14.833 10 23.5z" />
    <glyph glyph-name="uni0E26" unicode="&#xe26;" horiz-adv-x="507" 
d="M381 -180l0.00292969 454c0 16 -2.83301 31.333 -8.5 46s-13.5 27.667 -23.5 39s-22.167 20.333 -36.5 27s-30.166 10 -47.499 10c-20.667 0 -38.334 -3.33301 -53.001 -10s-26.834 -14.834 -36.501 -24.501s-16.667 -19.5 -21 -29.5s-6.5 -18.333 -6.5 -25h93v-34
c-11.333 0 -20.833 -4.5 -28.5 -13.5s-11.5 -23.167 -11.5 -42.5v-145c0 -23.333 -8.33301 -43.166 -25 -59.499s-36.667 -24.5 -60 -24.5c-24 0 -44.333 8.16699 -61 24.5s-25 36.166 -25 59.499c0 24 8.16699 44.167 24.5 60.5s36.5 24.5 60.5 24.5
c4 0 9.33301 -1.16699 16 -3.5s11 -4.83301 13 -7.5c0 3.33301 -0.333008 6 -1 8c-0.666992 3.33301 -1.16699 6.33301 -1.5 9s-0.5 5.33398 -0.5 8.00098v52c0 8.66699 2 17.167 6 25.5s10.333 13.833 19 16.5h-82c0 24 4 47 12 69s19.667 41.5 35 58.5
s34.166 30.667 56.499 41s48.166 15.5 77.499 15.5c26.667 0 51 -4.83301 73 -14.5s40.5 -22.667 55.5 -39s26.667 -35 35 -56s12.5 -42.833 12.5 -65.5v-454h-60zM151.003 71c0 10.667 -3.33398 19.333 -10.001 26s-14.667 10 -24 10s-17.666 -3.33301 -24.999 -10
s-11 -15 -11 -25c0 -9.33301 3.66699 -17.5 11 -24.5s15.333 -10.5 24 -10.5c10 0 18.333 3.5 25 10.5s10 14.833 10 23.5z" />
    <glyph glyph-name="uni0E27" unicode="&#xe27;" horiz-adv-x="438" 
d="M371 81c0 -26.667 -7.83496 -48.668 -23.502 -66.001s-36.167 -26 -61.5 -26c-24 0 -44.167 8.16699 -60.5 24.5s-24.5 36.5 -24.5 60.5c0 23.333 8.16699 43.166 24.5 59.499s36.5 24.5 60.5 24.5c4 0 8.83301 -0.666992 14.5 -2s10.167 -3.66602 13.5 -6.99902
c-4.66699 7.33301 -7 18.666 -7 33.999v107c0 32 -8 58 -24 78s-41 30 -75 30c-40 0 -69 -8.5 -87 -25.5s-27 -37.5 -27 -61.5h-66c0 16.667 3.66699 33.5 11 50.5s18.333 32.333 33 46s33.334 24.834 56.001 33.501s49.334 13 80.001 13c52 0 92 -16 120 -48
c28.667 -31.333 43 -70.666 43 -117.999v-207zM321.998 73.999c0 10 -3.5 18.334 -10.5 25.001s-14.833 10 -23.5 10c-10 0 -18.5 -3.33301 -25.5 -10s-10.5 -14.334 -10.5 -23.001c0 -10 3.5 -18.667 10.5 -26s14.833 -11 23.5 -11c10 0 18.5 3.66699 25.5 11
s10.5 15.333 10.5 24z" />
    <glyph glyph-name="uni0E28" unicode="&#xe28;" horiz-adv-x="500" 
d="M441 510c-2.66699 -24 -12.167 -44.999 -28.5 -62.999s-37.5 -28.667 -63.5 -32c10.667 -2 21.167 -6.66699 31.5 -14s19.5 -17 27.5 -29s14.333 -25.833 19 -41.5s7 -32.5 7 -50.5v-280h-61v282c0 17.333 -3.16699 33.166 -9.5 47.499s-15.166 26.666 -26.499 36.999
s-24.5 18.333 -39.5 24s-31.5 8.5 -49.5 8.5c-20.667 0 -38.834 -3.33301 -54.501 -10s-29 -15.667 -40 -27s-19.333 -24.166 -25 -38.499s-8.5 -28.833 -8.5 -43.5v-81c4.66699 14.667 11.667 28.334 21 41.001s19.666 23.5 30.999 32.5s23.5 16 36.5 21
s26.167 7.5 39.5 7.5c12 0 23.167 -2.16699 33.5 -6.5s19.333 -10.333 27 -18s13.834 -16.834 18.501 -27.501s7 -22 7 -34c0 -23.333 -8.16699 -43.166 -24.5 -59.499s-36.5 -24.5 -60.5 -24.5c-23.333 0 -42 7.33301 -56 22c-13.333 15.333 -20 29 -20 41
c-14.667 -12.667 -26.167 -31.334 -34.5 -56.001s-12.5 -54 -12.5 -88v-50h-65v285c0 23.333 4.5 45.333 13.5 66s21.833 38.667 38.5 54s36.5 27.333 59.5 36s48.167 13 75.5 13c12 0 23.833 -0.833008 35.5 -2.5s22.667 -1.5 33 0.5s20 7.16699 29 15.5
s17.167 22.5 24.5 42.5h71zM285 215.001c0 10 -3.50098 18.666 -10.501 25.999s-15.167 11 -24.5 11s-17.666 -3.66699 -24.999 -11s-11 -15.333 -11 -24c0 -10 3.66699 -18.333 11 -25s15.333 -10 24 -10c10 0 18.5 3.33301 25.5 10s10.5 14.334 10.5 23.001z" />
    <glyph glyph-name="uni0E29" unicode="&#xe29;" horiz-adv-x="555" 
d="M529 288c1.33301 -27.333 -5.66699 -54.167 -21 -80.5s-38.333 -45.166 -69 -56.499v-151h-307v256c0 5.33301 0.333008 10.166 1 14.499s1.33398 8.5 2.00098 12.5l3 13c-3.33301 -4 -7.83301 -7.16699 -13.5 -9.5s-10.834 -3.5 -15.501 -3.5
c-23.333 0 -43.166 8.33301 -59.499 25s-24.5 37 -24.5 61s8.16699 44.167 24.5 60.5s36.166 24.5 59.499 24.5c24.667 0 45.167 -8.16699 61.5 -24.5s24.5 -36.5 24.5 -60.5v-314h178v87c-12.667 -3.33301 -27.334 -4 -44.001 -2s-32.667 6.83301 -48 14.5
s-28.333 17.834 -39 30.501s-16 27.667 -16 45c0 19.333 6.5 35.833 19.5 49.5s28.833 20.5 47.5 20.5c20.667 0 37.334 -6.33301 50.001 -19s19 -28.667 19 -48c0 -8.66699 -2.16699 -16.834 -6.5 -24.501s-9.16602 -12.5 -14.499 -14.5
c5.33301 -2.66699 11.166 -4.33398 17.499 -5.00098s11.166 1 14.499 5v247h66v-230c12.667 7.33301 20.834 18.333 24.501 33s5.5 29.334 5.5 44.001h60zM319 232.999c0 8 -2.66699 14.333 -8 19s-11.666 7 -18.999 7s-13.5 -2.33301 -18.5 -7s-7.5 -11 -7.5 -19
c0 -7.33301 2.5 -13.666 7.5 -18.999s11.167 -8 18.5 -8s13.666 2.66699 18.999 8s8 11.666 8 18.999zM146 368.999c0 10 -3.66797 18.5 -11.001 25.5s-15.333 10.5 -24 10.5c-10 0 -18.333 -3.5 -25 -10.5s-10 -15.167 -10 -24.5c0 -10 3.33301 -18.5 10 -25.5
s14.334 -10.5 23.001 -10.5c10 0 18.667 3.5 26 10.5s11 15.167 11 24.5z" />
    <glyph glyph-name="uni0E2A" unicode="&#xe2a;" horiz-adv-x="485" 
d="M437 510c-3.33301 -24 -13.0029 -45 -29.0029 -63s-37.333 -28.667 -64 -32c9.33301 -2 18.333 -5.66699 27 -11s16.5 -12.833 23.5 -22.5s12.667 -22 17 -37s6.5 -32.833 6.5 -53.5v-291h-67v109c0 17.333 -3 34 -9 50s-14.5 30 -25.5 42s-24.5 21.667 -40.5 29
s-34 11 -54 11c-28 0 -49.667 -6.33301 -65 -19s-23 -27 -23 -43v-12c0 -5.33301 -1 -10 -3 -14l-5 -7c3.33301 3.33301 7.83301 6.16602 13.5 8.49902s10.5 3.5 14.5 3.5c24 0 44.167 -8.33301 60.5 -25s24.5 -37 24.5 -61c0 -23.333 -8.16699 -43.166 -24.5 -59.499
s-36.5 -24.5 -60.5 -24.5s-44.167 8.16699 -60.5 24.5s-24.5 36.166 -24.5 59.499v85c0 20.667 2.83301 39.667 8.5 57s14.5 32.166 26.5 44.499s27.5 22 46.5 29s42.167 10.5 69.5 10.5c20 0 38 -2.5 54 -7.5s29.667 -11 41 -18s20.333 -14.667 27 -23
s11.334 -15.5 14.001 -21.5c0 4.66699 -0.333008 8.33398 -1 11.001c-0.666992 4.66699 -1 9 -1 13v12v24c0 36 -9 63.5 -27 82.5s-47 28.5 -87 28.5c-38 0 -66.5 -8.66699 -85.5 -26s-28.5 -38 -28.5 -62h-65c0 16.667 3.5 33.5 10.5 50.5s17.833 32.333 32.5 46
s33.5 24.834 56.5 33.501s50.5 13 82.5 13c12 0 23.833 -0.833008 35.5 -2.5s22.834 -1.5 33.501 0.5s20.334 7.16699 29.001 15.5s16.667 22.5 24 42.5h72zM187.997 71c0 10.667 -3.33398 19.333 -10.001 26s-14.667 10 -24 10s-17.666 -3.33301 -24.999 -10
s-11 -15 -11 -25c0 -9.33301 3.66699 -17.5 11 -24.5s15.333 -10.5 24 -10.5c10 0 18.333 3.5 25 10.5s10 14.833 10 23.5z" />
    <glyph glyph-name="uni0E2B" unicode="&#xe2b;" horiz-adv-x="494" 
d="M428 369c0 -18 -5.66406 -34 -16.9971 -48s-25.333 -24 -42 -30c14.667 -6.66699 27.834 -18.834 39.501 -36.501s17.5 -42.5 17.5 -74.5v-180h-65v179c0 47.333 -17.333 71 -52 71c-18 0 -34.5 -8.16699 -49.5 -24.5s-28.167 -35.666 -39.5 -57.999
s-20.166 -45.166 -26.499 -68.499s-9.5 -42 -9.5 -56v-43h-66v256c0 5.33301 0.5 10.166 1.5 14.499s1.83301 8.5 2.5 12.5l2 13c-2.66699 -4 -6.83398 -7.16699 -12.501 -9.5s-10.834 -3.5 -15.501 -3.5c-23.333 0 -43.333 8.33301 -60 25s-25 37 -25 61
s8.33301 44.167 25 60.5s36.667 24.5 60 24.5c24 0 44.333 -8.16699 61 -24.5s25 -36.5 25 -60.5v-136c0 -4.66699 -0.333008 -10 -1 -16s-1.33398 -11.667 -2.00098 -17c-0.666992 -2.66699 -1.33398 -5.5 -2.00098 -8.5s-1.33398 -6.16699 -2.00098 -9.5
c4 14 10 27.5 18 40.5s17.333 25 28 36s22 20.333 34 28s24.667 13.167 38 16.5c-23.333 17.333 -35 39.333 -35 66c0 24 8.16699 44.167 24.5 60.5s36.5 24.5 60.5 24.5s44.167 -8.16699 60.5 -24.5s24.5 -36.5 24.5 -60.5zM379.003 369c0 10 -3.5 18.5 -10.5 25.5
s-15.167 10.5 -24.5 10.5c-10 0 -18.5 -3.5 -25.5 -10.5s-10.5 -15.167 -10.5 -24.5c0 -10 3.5 -18.5 10.5 -25.5s15.167 -10.5 24.5 -10.5c10 0 18.5 3.5 25.5 10.5s10.5 15.167 10.5 24.5zM132.003 369c0 10 -3.5 18.5 -10.5 25.5s-15.167 10.5 -24.5 10.5
c-10 0 -18.333 -3.5 -25 -10.5s-10 -15.167 -10 -24.5c0 -10 3.33301 -18.5 10 -25.5s14.667 -10.5 24 -10.5c10 0 18.5 3.5 25.5 10.5s10.5 15.167 10.5 24.5z" />
    <glyph glyph-name="uni0E2C" unicode="&#xe2c;" horiz-adv-x="545" 
d="M501 516c0 -24.667 -7.00293 -46.166 -21.0029 -64.499s-32.333 -30.833 -55 -37.5c14.667 -5.33301 26.834 -15.333 36.501 -30s14.5 -37.334 14.5 -68.001v-316h-64l-126 314l-109 -314h-62v256c0 5.33301 0.333008 10.166 1 14.499s1.33398 8.5 2.00098 12.5l3 13
c-3.33301 -4 -8 -7.16699 -14 -9.5s-11 -3.5 -15 -3.5c-24 0 -44 8.33301 -60 25s-24 37 -24 61s8 44.167 24 60.5s36 24.5 60 24.5c24.667 0 45 -8.16699 61 -24.5s24 -36.5 24 -60.5v-182c0 -4.66699 -0.166992 -10 -0.5 -16s-0.833008 -11.667 -1.5 -17
c-1.33301 -8 -2.66602 -14.333 -3.99902 -19l96 279h33l117 -281l-3 16c-0.666992 5.33301 -1.16699 11.333 -1.5 18s-0.5 13.334 -0.5 20.001v133c0 45.333 -19.333 68 -58 68h-11v47h8c26 0 46.333 7.33301 61 22s22 33 22 55v19h67v-15zM128.997 369.001
c0 10 -3.66699 18.5 -11 25.5s-15.333 10.5 -24 10.5c-10 0 -18.5 -3.5 -25.5 -10.5s-10.5 -15.167 -10.5 -24.5c0 -10 3.5 -18.5 10.5 -25.5s14.833 -10.5 23.5 -10.5c10 0 18.667 3.5 26 10.5s11 15.167 11 24.5z" />
    <glyph glyph-name="uni0E2D" unicode="&#xe2d;" horiz-adv-x="457" 
d="M60 0l-0.00195312 193.999c0 23.333 8 43.333 24 60s36 25 60 25s44.167 -8.33301 60.5 -25s24.5 -36.667 24.5 -60c0 -24 -8.16699 -44.333 -24.5 -61s-36.5 -25 -60.5 -25c-4 0 -8.83301 1.16699 -14.5 3.5s-10.167 5.5 -13.5 9.5l2 -6
c0.666992 -2 1.33398 -4.33301 2.00098 -7c0.666992 -3.33301 1.16699 -7.33301 1.5 -12s0.5 -9.66699 0.5 -15v-27h210v229c0 32 -9.66699 59.167 -29 81.5s-45 33.5 -77 33.5c-38 0 -65.5 -8.5 -82.5 -25.5s-25.5 -37.5 -25.5 -61.5h-65c0 16.667 3.5 33.5 10.5 50.5
s17.667 32.333 32 46s32.333 24.834 54 33.501s47.167 13 76.5 13c26 0 49.333 -4.5 70 -13.5s38.334 -21.333 53.001 -37s26 -34 34 -55s12 -43.5 12 -67.5v-281h-335zM178.998 193.999c0 10 -3.50098 18.333 -10.501 25s-15.167 10 -24.5 10s-17.666 -3.33301 -24.999 -10
s-11 -14.667 -11 -24c0 -10 3.66699 -18.5 11 -25.5s15.333 -10.5 24 -10.5c10 0 18.5 3.5 25.5 10.5s10.5 15.167 10.5 24.5z" />
    <glyph glyph-name="uni0E2E" unicode="&#xe2e;" horiz-adv-x="462" 
d="M403 510c-4 -24 -13.999 -44.999 -29.999 -62.999s-37.333 -28.667 -64 -32c10.667 -2 21.167 -6.66699 31.5 -14s19.5 -17 27.5 -29s14.5 -25.833 19.5 -41.5s7.5 -32.5 7.5 -50.5v-280h-335v194c0 23.333 8 43.333 24 60s36 25 60 25s44.167 -8.33301 60.5 -25
s24.5 -36.667 24.5 -60c0 -24 -8.16699 -44.333 -24.5 -61s-36.5 -25 -60.5 -25c-4 0 -8.83301 1.16699 -14.5 3.5s-10.167 5.5 -13.5 9.5l2 -6c0.666992 -2 1.33398 -4.33301 2.00098 -7c0.666992 -3.33301 1.16699 -7.33301 1.5 -12s0.5 -9.66699 0.5 -15v-27h210v229
c0 32 -9.66699 59.167 -29 81.5s-45 33.5 -77 33.5c-38 0 -65.5 -8.5 -82.5 -25.5s-25.5 -37.5 -25.5 -61.5h-65c0 18.667 4 36.667 12 54s19.167 32.666 33.5 45.999s31.666 23.833 51.999 31.5s43.166 11.5 68.499 11.5c12.667 0 24.167 -0.833008 34.5 -2.5
s20 -1.5 29 0.5s17.333 7.16699 25 15.5s15.5 22.5 23.5 42.5h72zM179.001 194.001c0 10 -3.50098 18.333 -10.501 25s-15.167 10 -24.5 10s-17.666 -3.33301 -24.999 -10s-11 -14.667 -11 -24c0 -10 3.66699 -18.5 11 -25.5s15.333 -10.5 24 -10.5c10 0 18.5 3.5 25.5 10.5
s10.5 15.167 10.5 24.5z" />
    <glyph glyph-name="uni0E2F" unicode="&#xe2f;" horiz-adv-x="462" 
d="M396 12c0 -10 -1.16602 -20.498 -3.49902 -31.498s-5 -21.5 -8 -31.5s-6 -18.5 -9 -25.5s-5.16699 -11.167 -6.5 -12.5l-54 25c0.666992 1.33301 1.66699 4.83301 3 10.5s2.83301 12.167 4.5 19.5s3 15 4 23s1.5 15 1.5 21v225c0 12 -0.833008 24.667 -2.5 38
s-3.66699 26.166 -6 38.499s-5.16602 23.666 -8.49902 33.999s-7 18.5 -11 24.5c-2.66699 -7.33301 -8.33398 -16 -17.001 -26s-19.834 -19.5 -33.501 -28.5s-29.667 -16.667 -48 -23s-38.5 -9.5 -60.5 -9.5c-24.667 0 -45.334 8.33301 -62.001 25s-25 37 -25 61
s8.33301 44.167 25 60.5s37 24.5 61 24.5c12.667 0 24.334 -2.66699 35.001 -8s19.667 -12.166 27 -20.499s12.666 -17.833 15.999 -28.5s4.33301 -21.334 3 -32.001c34.667 16.667 53.334 44.334 56.001 83.001h54c8.66699 -15.333 17 -31.833 25 -49.5
s15 -35.834 21 -54.501s10.667 -37 14 -55s5 -35 5 -51v-226zM175.001 369.002c0 10 -3.5 18.5 -10.5 25.5s-14.833 10.5 -23.5 10.5c-10 0 -18.5 -3.5 -25.5 -10.5s-10.5 -15.167 -10.5 -24.5c0 -10 3.5 -18.5 10.5 -25.5s15.167 -10.5 24.5 -10.5s17.5 3.5 24.5 10.5
s10.5 15.167 10.5 24.5z" />
    <glyph glyph-name="uni0E30" unicode="&#xe30;" horiz-adv-x="424" 
d="M370 431c0 -25.333 -4.33691 -48.6689 -13.0039 -70.002s-20.667 -39.666 -36 -54.999s-33.666 -27.5 -54.999 -36.5s-44.666 -13.5 -69.999 -13.5c-21.333 0 -40.666 2.66699 -57.999 8s-32.5 12.833 -45.5 22.5s-23 21 -30 34s-10.5 27.5 -10.5 43.5
c0 22 7.5 40.833 22.5 56.5s33.833 23.5 56.5 23.5c22 0 40.667 -7.83301 56 -23.5s23 -34.5 23 -56.5c0 -11.333 -2.66699 -22.166 -8 -32.499s-12.666 -17.833 -21.999 -22.5c40 0 70.333 10.333 91 31s31 51 31 91h68zM369.996 175.997
c0 -24 -4.33594 -46.666 -13.0029 -67.999s-20.667 -39.833 -36 -55.5s-33.666 -28 -54.999 -37s-44.666 -13.5 -69.999 -13.5c-42 0 -76.5 10.167 -103.5 30.5s-40.5 46.5 -40.5 78.5c0 21.333 7.5 39.833 22.5 55.5s33.833 23.5 56.5 23.5c22 0 40.667 -7.83301 56 -23.5
s23 -34.167 23 -55.5c0 -11.333 -2.66699 -22.333 -8 -33s-12.666 -18.334 -21.999 -23.001c40 0 70.333 10.167 91 30.5s31 50.5 31 90.5h68zM163.993 364.998c0 9.33301 -3.33301 17 -10 23s-14.334 9 -23.001 9c-9.33301 0 -17.166 -3 -23.499 -9s-9.5 -13.667 -9.5 -23
c0 -8.66699 3.16699 -16.334 9.5 -23.001s14.166 -10 23.499 -10c8.66699 0 16.334 3.33301 23.001 10s10 14.334 10 23.001zM163.993 110.998c0 8.66699 -3.33301 16.334 -10 23.001s-14.334 10 -23.001 10c-9.33301 0 -17.166 -3.33301 -23.499 -10
s-9.5 -14.334 -9.5 -23.001c0 -9.33301 3.16699 -17 9.5 -23s14.166 -9 23.499 -9c8.66699 0 16.334 3 23.001 9s10 13.667 10 23z" />
    <glyph glyph-name="uni0E31" unicode="&#xe31;" 
d="M68 698c0 -22.667 -4.83398 -44.499 -14.501 -65.499s-23.667 -39.5 -42 -55.5s-40.5 -28.833 -66.5 -38.5s-55.333 -14.5 -88 -14.5c-42 0 -76.333 10 -103 30c-27.333 21.333 -41 47 -41 77c0 22.667 7.66699 41.667 23 57s34 23 56 23s40.5 -7.66699 55.5 -23
s22.5 -34.333 22.5 -57c0 -10 -2.66699 -20.333 -8 -31s-12.666 -18.334 -21.999 -23.001c52 0 91.667 11.5 119 34.5s41 51.833 41 86.5h68zM-175.001 633.001c0 8.66699 -3.33301 16.167 -10 22.5s-14.334 9.5 -23.001 9.5c-9.33301 0 -17 -3.16699 -23 -9.5
s-9 -13.833 -9 -22.5c0 -9.33301 3 -17.166 9 -23.499s13.667 -9.5 23 -9.5c8.66699 0 16.334 3.16699 23.001 9.5s10 14.166 10 23.499z" />
    <glyph glyph-name="uni0E32" unicode="&#xe32;" horiz-adv-x="406" 
d="M276 0l-0.000976562 288c0 38 -6.66699 65.833 -20 83.5s-37.333 26.5 -72 26.5c-38 0 -64.667 -8.5 -80 -25.5s-23 -37.5 -23 -61.5h-66c0 17.333 3 34.5 9 51.5s15.833 32.333 29.5 46s31.167 24.667 52.5 33s47.333 12.5 78 12.5c52.667 0 91.834 -14.667 117.501 -44
s38.5 -71 38.5 -125v-285h-64z" />
    <glyph glyph-name="uni0E33" unicode="&#xe33;" horiz-adv-x="410" 
d="M-16 598c0 -22.667 -8.16797 -41.834 -24.501 -57.501s-36.166 -23.5 -59.499 -23.5s-43 7.83301 -59 23.5s-24 34.834 -24 57.501c0 22 8 41.167 24 57.5s35.667 24.5 59 24.5c12 0 23 -2.16699 33 -6.5s18.833 -10.333 26.5 -18s13.667 -16.5 18 -26.5
s6.5 -20.333 6.5 -31zM278.999 0l0.00195312 288c0 38 -6.83301 65.833 -20.5 83.5s-37.834 26.5 -72.501 26.5c-39.333 0 -66.833 -8.5 -82.5 -25.5s-23.5 -37.5 -23.5 -61.5h-65c0 17.333 3.16699 34.5 9.5 51.5s16.166 32.333 29.499 46s30.833 24.667 52.5 33
s48.167 12.5 79.5 12.5c54 0 93.833 -14.667 119.5 -44s38.5 -71 38.5 -125v-285h-65zM-64.999 598c0 9.33301 -3.33301 17.333 -10 24s-15 10 -25 10c-8.66699 0 -16.5 -3.33301 -23.5 -10s-10.5 -14.667 -10.5 -24c0 -8.66699 3.5 -16.334 10.5 -23.001
s14.833 -10 23.5 -10c10 0 18.333 3.33301 25 10s10 14.334 10 23.001z" />
    <glyph glyph-name="uni0E34" unicode="&#xe34;" 
d="M-382 524c-0.666992 17.333 0.998047 35.5 4.99805 54.5s11.167 36.5 21.5 52.5s24 29.167 41 39.5s38.167 15.5 63.5 15.5c24.667 0 46.334 -4.16699 65.001 -12.5s35.834 -18.166 51.501 -29.499s30.5 -22.833 44.5 -34.5s28.667 -20.834 44 -27.501v-58h-336z
M-132.002 576l-11.999 12c-6 6 -13.5 12.167 -22.5 18.5s-19.667 12 -32 17s-26.5 7.5 -42.5 7.5c-18.667 0 -34.334 -5 -47.001 -15s-20.667 -23.333 -24 -40h180z" />
    <glyph glyph-name="uni0E35" unicode="&#xe35;" 
d="M-390 524c-1.33301 16.667 0 34.502 4 53.502s11 36.5 21 52.5s23.5 29.167 40.5 39.5s38.167 15.5 63.5 15.5c20.667 0 39 -2.83301 55 -8.5s29.5 -11.834 40.5 -18.501s19.5 -12.834 25.5 -18.501s9.33301 -8.5 10 -8.5v63h64v-170h-324zM-142 576.002
c-2 2 -5.83398 6 -11.501 12s-13 12.333 -22 19s-19.667 12.5 -32 17.5s-26.166 7.5 -41.499 7.5c-19.333 0 -35.333 -5.5 -48 -16.5s-20 -24.167 -22 -39.5h177z" />
    <glyph glyph-name="uni0E36" unicode="&#xe36;" 
d="M-40 618c-1.33301 -11.333 -3.83301 -20.168 -7.5 -26.501s-7.83398 -11.166 -12.501 -14.499s-9.5 -5.5 -14.5 -6.5s-8.83301 -1.5 -11.5 -1.5c2 -2 5.66699 -4.33301 11 -7c2 -1.33301 3.66699 -2.33301 5 -3l4 -2v-33h-338c-0.666992 17.333 1 35.5 5 54.5
s11 36.5 21 52.5s23.5 29.167 40.5 39.5s38.167 15.5 63.5 15.5c12.667 0 25.334 -2 38.001 -6s24.167 -8.66699 34.5 -14s19.166 -11 26.499 -17s12.333 -11 15 -15c0 4.66699 1 10.167 3 16.5s5.16699 12.166 9.5 17.499s10.333 9.83301 18 13.5s16.834 5.5 27.501 5.5
c22 0 38.333 -7.16699 49 -21.5s15 -30.166 13 -47.499zM-78 624.998c0 6.66699 -2.16699 12.334 -6.5 17.001s-10.166 7 -17.499 7c-6.66699 0 -12.167 -2.33301 -16.5 -7s-6.5 -10.334 -6.5 -17.001c0 -6 2.16699 -11.333 6.5 -16s9.83301 -7 16.5 -7
c7.33301 0 13.166 2.33301 17.499 7s6.5 10 6.5 16zM-157 575.998c-2 2 -6.33398 6 -13.001 12s-15 12.167 -25 18.5s-20.833 12 -32.5 17s-23.5 7.5 -35.5 7.5c-18.667 0 -34.167 -5.33301 -46.5 -16s-21.166 -23.667 -26.499 -39h179z" />
    <glyph glyph-name="uni0E37" unicode="&#xe37;" 
d="M-413 524c-0.666992 16.667 0.833984 34.499 4.50098 53.499s10.5 36.333 20.5 52s23.667 28.667 41 39s39.333 15.5 66 15.5c13.333 0 25.666 -1.66699 36.999 -5s21.166 -7.16602 29.499 -11.499s14.833 -8.16602 19.5 -11.499s7.33398 -5 8.00098 -5v46h46v-78
c1.33301 -2.66699 5.33301 -6.33398 12 -11.001s11 -7.66699 13 -9v98h50v-173h-347zM-167.999 575.999l-11.999 12c-6 6 -13.5 12.167 -22.5 18.5s-19.5 12 -31.5 17s-25.333 7.5 -40 7.5c-18.667 0 -33.834 -5.33301 -45.501 -16s-19.5 -23.667 -23.5 -39h175z" />
    <glyph glyph-name="uni0E38" unicode="&#xe38;" 
d="M-120 -256l0.00390625 56.999c0 7.33301 0.333008 12 1 14c1.33301 4 2 6.66699 2 8c-4 -4 -12 -6 -24 -6c-18.667 0 -34.334 7.16699 -47.001 21.5s-18.334 30.5 -17.001 48.5c1.33301 16.667 7.66602 32.167 18.999 46.5s28.666 21.5 51.999 21.5
c20.667 0 37.167 -6.66699 49.5 -20s18.5 -29.666 18.5 -48.999v-142h-54zM-105.996 -114.001c0 7.33301 -2.83301 14 -8.5 20s-12.834 9 -21.501 9c-7.33301 0 -14 -3 -20 -9s-9 -12.667 -9 -20c0 -8 3 -14.833 9 -20.5s12.667 -8.5 20 -8.5
c8.66699 0 15.834 2.83301 21.501 8.5s8.5 12.5 8.5 20.5z" />
    <glyph glyph-name="uni0E39" unicode="&#xe39;" 
d="M-236 -254l-0.00292969 70c0 3.33301 0.333008 5.66602 1 6.99902c-1.33301 -2 -4 -3.5 -8 -4.5s-7.66699 -1.5 -11 -1.5c-18.667 0 -34.167 7.16699 -46.5 21.5s-18.166 30.5 -17.499 48.5c0.666992 16.667 6.83398 32.167 18.501 46.5s28.834 21.5 51.501 21.5
c21.333 0 37.833 -6.66699 49.5 -20s17.5 -29.666 17.5 -48.999v-92h56v154h59v-202h-170zM-220.003 -114c0 7.33301 -2.83301 14 -8.5 20s-12.5 9 -20.5 9s-14.833 -3 -20.5 -9s-8.5 -12.667 -8.5 -20c0 -8 2.83301 -14.833 8.5 -20.5s12.5 -8.5 20.5 -8.5
s14.833 2.83301 20.5 8.5s8.5 12.5 8.5 20.5z" />
    <glyph glyph-name="uni0E3A" unicode="&#xe3a;" 
d="M-47 -105c0 -14 -5.33301 -26.167 -16 -36.5s-22.667 -15.5 -36 -15.5c-14.667 0 -27 5.16699 -37 15.5s-15 22.5 -15 36.5s5 26.167 15 36.5s22.333 15.5 37 15.5c13.333 0 25.333 -5.16699 36 -15.5s16 -22.5 16 -36.5z" />
    <glyph glyph-name="uni0E3F" unicode="&#xe3f;" horiz-adv-x="394" 
d="M373 127c0 -24 -3.99902 -44 -11.999 -60s-17.833 -29 -29.5 -39s-23.834 -17.167 -36.501 -21.5s-23.667 -6.5 -33 -6.5h-59v-97h-47v97h-130v444h130v97h47v-97h19c14 0 28.667 -2.16699 44 -6.5s29.5 -11.166 42.5 -20.499s23.667 -21 32 -35s12.5 -31 12.5 -51
c0 -20.667 -5.16699 -39.834 -15.5 -57.501s-25.5 -30.5 -45.5 -38.5c4 -1.33301 10.5 -3.83301 19.5 -7.5s18 -9.5 27 -17.5s17 -18.667 24 -32s10.5 -30.333 10.5 -51zM292.001 320c0 25.333 -6.16602 44 -18.499 56s-34.5 18 -66.5 18h-4v-142h12c18 0 32 2.33301 42 7
s17.667 10.5 23 17.5s8.66602 14.5 9.99902 22.5s2 15 2 21zM156.002 394h-67v-142h67v142zM313.002 131c0 15.333 -2.66602 27.833 -7.99902 37.5s-12.5 17.167 -21.5 22.5s-20 8.83301 -33 10.5s-26.833 2.5 -41.5 2.5h-6v-156h39c15.333 0 27.666 2.66699 36.999 8
s16.5 12.166 21.5 20.499s8.33301 17.333 10 27s2.5 18.834 2.5 27.501zM156.003 204h-67v-156h67v156z" />
    <glyph glyph-name="uni0E40" unicode="&#xe40;" horiz-adv-x="253" 
d="M236 77c0 -24 -8.33203 -44.332 -24.999 -60.999s-37 -25 -61 -25c-23.333 0 -43.333 8.33301 -60 25s-25 37 -25 61v364h66v-253c0 -3.33301 -0.166992 -7.33301 -0.5 -12s-0.833008 -9.33398 -1.5 -14.001l-3 -12c3.33301 4.66699 7.66602 7.5 12.999 8.5s9 1.5 11 1.5
c24 0 44.333 -7.83301 61 -23.5s25 -35.5 25 -59.5zM185.001 76.001c0 9.33301 -3.5 17.5 -10.5 24.5s-15.167 10.5 -24.5 10.5c-10 0 -18.333 -3.5 -25 -10.5s-10 -14.833 -10 -23.5c0 -10 3.33301 -18.5 10 -25.5s14.667 -10.5 24 -10.5c10 0 18.5 3.5 25.5 10.5
s10.5 15.167 10.5 24.5z" />
    <glyph glyph-name="uni0E41" unicode="&#xe41;" horiz-adv-x="465" 
d="M438 77c0 -24 -8.33203 -44.332 -24.999 -60.999s-36.667 -25 -60 -25c-24 0 -44.333 8.33301 -61 25s-25 37 -25 61v364h66v-253c0 -3.33301 -0.166992 -7.33301 -0.5 -12s-0.833008 -9.33398 -1.5 -14.001l-3 -12c3.33301 4.66699 7.66602 7.5 12.999 8.5
s9.33301 1.5 12 1.5c23.333 0 43.333 -7.83301 60 -23.5s25 -35.5 25 -59.5zM236.001 77.001c0 -24 -8.33203 -44.332 -24.999 -60.999s-37 -25 -61 -25c-23.333 0 -43.333 8.33301 -60 25s-25 37 -25 61v364h66v-253c0 -3.33301 -0.166992 -7.33301 -0.5 -12
s-0.833008 -9.33398 -1.5 -14.001l-3 -12c3.33301 4.66699 7.66602 7.5 12.999 8.5s9 1.5 11 1.5c24 0 44.333 -7.83301 61 -23.5s25 -35.5 25 -59.5zM387.002 76.002c0 9.33301 -3.33301 17.5 -10 24.5s-14.667 10.5 -24 10.5c-10 0 -18.5 -3.5 -25.5 -10.5
s-10.5 -14.833 -10.5 -23.5c0 -10 3.5 -18.5 10.5 -25.5s15.167 -10.5 24.5 -10.5c10 0 18.333 3.5 25 10.5s10 15.167 10 24.5zM185.002 76.002c0 9.33301 -3.5 17.5 -10.5 24.5s-15.167 10.5 -24.5 10.5c-10 0 -18.333 -3.5 -25 -10.5s-10 -14.833 -10 -23.5
c0 -10 3.33301 -18.5 10 -25.5s14.667 -10.5 24 -10.5c10 0 18.5 3.5 25.5 10.5s10.5 15.167 10.5 24.5z" />
    <glyph glyph-name="uni0E42" unicode="&#xe42;" horiz-adv-x="302" 
d="M299 662c-6.66699 -1.33301 -15.002 -2.66211 -25.002 -3.99512s-19.333 -2 -28 -2c-14 0 -27.333 1.5 -40 4.5s-25.167 6.33301 -37.5 10s-24.333 7 -36 10s-23.167 4.5 -34.5 4.5c-7.33301 0 -15.166 -0.833008 -23.499 -2.5s-16.333 -4.33398 -24 -8.00098
s-14.667 -8.16699 -21 -13.5s-10.5 -12 -12.5 -20h57c18 0 33.5 -3.16699 46.5 -9.5s23.833 -15 32.5 -26s15.167 -23.667 19.5 -38s6.5 -29.5 6.5 -45.5v-334c0 -10.667 -1.66699 -23.334 -5 -38.001c6.66699 6.66699 15 10 25 10c24 0 44 -7.83301 60 -23.5
s24 -35.5 24 -59.5s-8 -44.333 -24 -61s-36 -25 -60 -25c-24.667 0 -45 8.33301 -61 25s-24 37 -24 61v443c0 12 -0.666992 22.333 -2 31s-4 15.834 -8 21.501s-10 10 -18 13s-18.667 4.5 -32 4.5l-101 1v16c0 20 4 38 12 54s18.667 29.667 32 41s28.5 20.166 45.5 26.499
s34.833 9.5 53.5 9.5c12 0 24 -1.33301 36 -4s23.833 -5.83398 35.5 -9.50098s23.5 -6.83398 35.5 -9.50098s24 -4 36 -4c10.667 0 20.334 0.666992 29.001 2s16 2.66602 22 3.99902zM232.998 76.0039c0 9.33301 -3.5 17.5 -10.5 24.5s-14.833 10.5 -23.5 10.5
c-10 0 -18.667 -3.5 -26 -10.5s-11 -14.833 -11 -23.5c0 -10 3.66699 -18.5 11 -25.5s15.333 -10.5 24 -10.5c10 0 18.5 3.5 25.5 10.5s10.5 15.167 10.5 24.5z" />
    <glyph glyph-name="uni0E43" unicode="&#xe43;" horiz-adv-x="351" 
d="M334 77c0 -24 -8.16797 -44.334 -24.501 -61.001s-36.5 -25 -60.5 -25s-44.167 8.33301 -60.5 25s-24.5 37 -24.5 61v531c0 32 -7.16699 56.5 -21.5 73.5s-33.833 25.5 -58.5 25.5c-14 0 -26.167 -2.16699 -36.5 -6.5s-18.833 -9.66602 -25.5 -15.999
s-11 -13.5 -13 -21.5s-1.66699 -16 1 -24c4 10.667 10.667 19.834 20 27.501s22 11.5 38 11.5c20 0 37.333 -7.16699 52 -21.5s22 -32.166 22 -53.499s-7.66699 -39 -23 -53s-33.666 -21 -54.999 -21c-16 0 -30.667 2.83301 -44 8.5s-24.833 13.5 -34.5 23.5
s-17.167 21.833 -22.5 35.5s-8 28.5 -8 44.5s3 31.167 9 45.5s14.5 26.666 25.5 36.999s24.333 18.666 40 24.999s33.167 9.5 52.5 9.5c50 0 87 -14.333 111 -43s36 -65 36 -109v-418c0 -6 -0.333008 -12.167 -1 -18.5s-2 -12.833 -4 -19.5c6.66699 6.66699 15 10 25 10
c24 0 44.167 -7.83301 60.5 -23.5s24.5 -35.5 24.5 -59.5zM96.999 604.999c0 8.66699 -3 16 -9 22s-13.667 9 -23 9c-8.66699 0 -16 -3 -22 -9s-9 -13.333 -9 -22c0 -9.33301 3 -17.166 9 -23.499s13.333 -9.5 22 -9.5c9.33301 0 17 3.16699 23 9.5s9 14.166 9 23.499z
M282.999 75.999c0 9.33301 -3.33398 17.5 -10.001 24.5s-14.667 10.5 -24 10.5s-17.666 -3.5 -24.999 -10.5s-11 -14.833 -11 -23.5c0 -10 3.66699 -18.5 11 -25.5s15.333 -10.5 24 -10.5c10 0 18.333 3.5 25 10.5s10 15.167 10 24.5z" />
    <glyph glyph-name="uni0E44" unicode="&#xe44;" horiz-adv-x="324" 
d="M301 77c0 -24 -8.16309 -44.3311 -24.4961 -60.998s-36.833 -25 -61.5 -25c-23.333 0 -43.166 8.33301 -59.499 25s-24.5 37 -24.5 61v414c0 34 6.66699 65.833 20 95.5s29.666 53.5 48.999 71.5c-12 -9.33301 -28.167 -16.166 -48.5 -20.499s-39.166 -6.5 -56.499 -6.5
c-12 0 -24.5 1.5 -37.5 4.5s-25.667 7 -38 12s-24.333 10.667 -36 17s-21.834 13.166 -30.501 20.499l23 50c4.66699 -4 11.5 -8.83301 20.5 -14.5s19.167 -11.334 30.5 -17.001s23.166 -10.334 35.499 -14.001s23.833 -5.5 34.5 -5.5s22.167 1.16699 34.5 3.5
s24.666 5.33301 36.999 9s24.166 8 35.499 13s21.666 10.167 30.999 15.5l39 -50c-22 -22.667 -40.5 -50.667 -55.5 -84s-22.5 -69 -22.5 -107v-296c0 -6 -0.333008 -12.167 -1 -18.5s-1.66699 -12.833 -3 -19.5c6 6.66699 13.667 10 23 10
c24.667 0 45.167 -7.83301 61.5 -23.5s24.5 -35.5 24.5 -59.5zM250.004 76.002c0 9.33301 -3.5 17.5 -10.5 24.5s-15.167 10.5 -24.5 10.5s-17.5 -3.5 -24.5 -10.5s-10.5 -14.833 -10.5 -23.5c0 -10 3.5 -18.5 10.5 -25.5s14.833 -10.5 23.5 -10.5c10 0 18.5 3.5 25.5 10.5
s10.5 15.167 10.5 24.5z" />
    <glyph glyph-name="uni0E45" unicode="&#xe45;" horiz-adv-x="406" 
d="M276 -180l-0.000976562 468c0 38 -6.66699 65.833 -20 83.5s-37.333 26.5 -72 26.5c-38 0 -64.667 -8.5 -80 -25.5s-23 -37.5 -23 -61.5h-66c0 17.333 3 34.5 9 51.5s15.833 32.333 29.5 46s31.167 24.667 52.5 33s47.333 12.5 78 12.5
c52.667 0 91.834 -14.667 117.501 -44s38.5 -71 38.5 -125v-465h-64z" />
    <glyph glyph-name="uni0E46" unicode="&#xe46;" horiz-adv-x="576" 
d="M470 -188c0 -10 -1.16895 -20.8369 -3.50195 -32.5039s-5 -22.5 -8 -32.5s-6 -18.5 -9 -25.5s-5.16699 -10.833 -6.5 -11.5l-53 25c0.666992 1.33301 1.66699 4.83301 3 10.5s2.83301 12.334 4.5 20.001s3.16699 15.334 4.5 23.001s2 14.167 2 19.5v427
c0 12 -1 24.833 -3 38.5s-4.5 27 -7.5 40s-6.33301 25.167 -10 36.5s-7.5 20.333 -11.5 27c-4 -9.33301 -9.16699 -18.666 -15.5 -27.999s-13.166 -18.166 -20.499 -26.499s-15 -15.666 -23 -21.999s-15.333 -11.5 -22 -15.5h-26c0 2.66699 -0.333008 7 -1 13
s-1.83398 12.667 -3.50098 20s-4.16699 14.333 -7.5 21s-7.66602 11.667 -12.999 15c0 -9.33301 -2 -18.333 -6 -27s-9.5 -16.5 -16.5 -23.5s-15.5 -12.5 -25.5 -16.5s-20.333 -6 -31 -6c-23.333 0 -43.166 8.33301 -59.499 25s-24.5 37 -24.5 61s8.16699 43.833 24.5 59.5
s36.166 23.5 59.499 23.5c22.667 0 42.167 -4.33301 58.5 -13s30 -18.667 41 -30s19.333 -22.833 25 -34.5s9.16699 -20.5 10.5 -26.5c6.66699 4.66699 13.167 11 19.5 19s11.833 16.667 16.5 26s8.83398 19 12.501 29s6.5 19.333 8.5 28h52
c8.66699 -15.333 17 -31.833 25 -49.5s15 -35.834 21 -54.501s10.667 -37 14 -55s5 -35 5 -51v-426zM198.998 366.996c0 8.66699 -3.66699 16.334 -11 23.001s-16 10 -26 10c-9.33301 0 -17.5 -3.33301 -24.5 -10s-10.5 -14.334 -10.5 -23.001c0 -10 3.5 -18.5 10.5 -25.5
s15.167 -10.5 24.5 -10.5c10 0 18.667 3.5 26 10.5s11 15.5 11 25.5z" />
    <glyph glyph-name="uni0E47" unicode="&#xe47;" 
d="M-19 729c-17.333 -16 -36.666 -29.8311 -57.999 -41.498s-49.333 -17.5 -84 -17.5c-14 0 -30.167 1.16699 -48.5 3.5s-34.166 3.5 -47.499 3.5c-36.667 0 -55 -17.333 -55 -52c0 -16 3.66699 -28.667 11 -38s15.666 -14 24.999 -14c19.333 0 29 18.667 29 56h40
c0 -12 2.66699 -22.5 8 -31.5s12.333 -15.167 21 -18.5c-1.33301 4 -1.5 9.66699 -0.5 17s3.5 14.666 7.5 21.999s10 13.666 18 18.999s18 8 30 8c16 0 30 -6 42 -18s18 -26.333 18 -43c0 -16 -6.16699 -30 -18.5 -42s-26.833 -18 -43.5 -18
c-15.333 0 -28.833 1.5 -40.5 4.5s-21.5 6.83301 -29.5 11.5s-14.333 9.16699 -19 13.5s-7.33398 8.16602 -8.00098 11.499c-2.66699 -12 -9.33398 -21.5 -20.001 -28.5s-23.667 -10.5 -39 -10.5c-11.333 0 -21.833 2.5 -31.5 7.5s-18.167 11.833 -25.5 20.5
s-13.166 18.834 -17.499 30.501s-6.5 24.5 -6.5 38.5c0 32 10.167 56.833 30.5 74.5s44.833 26.5 73.5 26.5c6.66699 0 13 -0.5 19 -1.5s12.167 -2 18.5 -3s13.333 -2 21 -3s16.5 -1.5 26.5 -1.5c30.667 0 55 5.5 73 16.5s32.667 22.167 44 33.5zM-99 585.002
c0 7.33301 -2.5 13.333 -7.5 18s-10.5 7 -16.5 7c-6.66699 0 -12.167 -2.33301 -16.5 -7s-6.5 -10.667 -6.5 -18c0 -14.667 7.66699 -22 23 -22c6 0 11.5 2.16699 16.5 6.5s7.5 9.5 7.5 15.5z" />
    <glyph glyph-name="uni0E48" unicode="&#xe48;" 
d="M-132 527v132h66v-132h-66z" />
    <glyph glyph-name="uni0E49" unicode="&#xe49;" 
d="M-3 680c-1.33301 -24 -8.66602 -46.335 -21.999 -67.002s-30.333 -38.167 -51 -52.5s-44 -24.666 -70 -30.999s-52.333 -7.16602 -79 -2.49902l1 27c6.66699 1.33301 12.5 3.5 17.5 6.5s8.5 5.5 10.5 7.5c4.66699 3.33301 7.33398 6.33301 8.00098 9
c-18 0 -32.333 5.66699 -43 17s-15.334 25.333 -14.001 42c0 16 5.16699 29.167 15.5 39.5s24.166 15.5 41.499 15.5c18 0 32.667 -6 44 -18s17 -25.333 17 -40c0 -14 -1.5 -26 -4.5 -36s-7.16699 -17 -12.5 -21c16.667 3.33301 30.667 9.5 42 18.5s20.333 18.667 27 29
s11.5 20.833 14.5 31.5s4.5 19 4.5 25h53zM-165 632.998c0 6.66699 -2.16699 12 -6.5 16s-9.5 6 -15.5 6c-14.667 0 -22 -7.33301 -22 -22c0 -6 2 -11.167 6 -15.5s9.33301 -6.5 16 -6.5c6 0 11.167 2.16699 15.5 6.5s6.5 9.5 6.5 15.5z" />
    <glyph glyph-name="uni0E4A" unicode="&#xe4a;" 
d="M-39 677c0 -13.333 -2.33008 -27.3311 -6.99707 -41.998s-10.834 -28.834 -18.501 -42.501s-16.667 -26.167 -27 -37.5s-21.5 -20.333 -33.5 -27l-23 22c4 4 7.66699 11 11 21s5 19.667 5 29s-2 17.5 -6 24.5s-12.333 10.5 -25 10.5
c-15.333 0 -25.666 -7.66699 -30.999 -23h-13c-6 15.333 -17 23 -33 23c-10 0 -17.667 -4.33301 -23 -13s-6.33301 -17.667 -3 -27c2 3.33301 5.16699 6.5 9.5 9.5s10.166 4.5 17.499 4.5c13.333 0 23.666 -4 30.999 -12s11 -17.667 11 -29
c0.666992 -12 -3.16602 -22.167 -11.499 -30.5s-18.833 -12.833 -31.5 -13.5c-11.333 0 -21.333 2.16699 -30 6.5s-16 10.166 -22 17.499s-10.5 15.833 -13.5 25.5s-4.16699 19.5 -3.5 29.5c0.666992 18.667 8 34.5 22 47.5s30.333 19.5 49 19.5
c9.33301 0 16.166 -0.666992 20.499 -2s8.16602 -2.66602 11.499 -3.99902l4 -4l4 -4c1.33301 4 3 7 5 9c4 2 8.66699 4 14 6s12.666 3 21.999 3c12.667 0 22.834 -2.33301 30.501 -7s13.667 -10.334 18 -17.001s7 -13.5 8 -20.5s1.16699 -12.833 0.5 -17.5
c4 4 6.83301 9 8.5 15s3 12.167 4 18.5s1.5 12.333 1.5 18v13.5h47zM-224.997 568.002c0 10 -5.66699 15 -17 15c-10.667 0 -16 -5 -16 -15c0 -12 5.33301 -18 16 -18c11.333 0 17 6 17 18z" />
    <glyph glyph-name="uni0E4B" unicode="&#xe4b;" 
d="M-74 593v-66h-50v70h-74v48h74v66h50v-67h69v-51h-69z" />
    <glyph glyph-name="uni0E4C" unicode="&#xe4c;" 
d="M31 696c-8 -10.667 -17.834 -19.665 -29.501 -26.998s-23.667 -13.333 -36 -18s-23.833 -8 -34.5 -10s-19 -3 -25 -3c7.33301 -3.33301 15.166 -8.83301 23.499 -16.5s12.5 -18.834 12.5 -33.501c0 -18.667 -5.83301 -34 -17.5 -46s-26.834 -18 -45.501 -18
c-19.333 0 -35.5 6 -48.5 18s-19.5 27.667 -19.5 47c0 16.667 3.33301 30 10 40s15.334 18.333 26.001 25s22.834 12 36.501 16s27.334 8.66699 41.001 14s26.5 11.666 38.5 18.999s22.333 17.333 31 30zM-99.001 589.002c0 6 -2.16699 11.333 -6.5 16s-9.5 7 -15.5 7
c-6.66699 0 -12.334 -2.33301 -17.001 -7s-7 -10 -7 -16c0 -6.66699 2.33301 -12.167 7 -16.5s10.334 -6.5 17.001 -6.5c6 0 11.167 2.16699 15.5 6.5s6.5 9.83301 6.5 16.5z" />
    <glyph glyph-name="uni0E4D" unicode="&#xe4d;" 
d="M-16 605c0 -22.667 -8.16797 -41.834 -24.501 -57.501s-36.166 -23.5 -59.499 -23.5c-22.667 0 -42 7.83301 -58 23.5s-24 34.834 -24 57.501c0 22 8 41.167 24 57.5s35.333 24.5 58 24.5c12 0 23 -2.16699 33 -6.5s18.833 -10.333 26.5 -18s13.667 -16.5 18 -26.5
s6.5 -20.333 6.5 -31zM-65.001 605c0 9.33301 -3.16699 17.333 -9.5 24s-14.833 10 -25.5 10c-8.66699 0 -16.334 -3.33301 -23.001 -10s-10 -14.667 -10 -24c0 -8.66699 3.33301 -16.334 10 -23.001s14.334 -10 23.001 -10c10.667 0 19.167 3.33301 25.5 10
s9.5 14.334 9.5 23.001z" />
    <glyph glyph-name="uni0E4E" unicode="&#xe4e;" 
d="M-17 708c0 -22.667 -8 -42 -24 -58s-35.333 -24 -58 -24c-23.333 0 -43 8 -59 24s-24 35.333 -24 58c0 23.333 8 42.666 24 57.999s35.667 23 59 23c22.667 0 42 -7.66699 58 -23s24 -34.666 24 -57.999zM-65 708c0 9.33301 -3.16699 17.5 -9.5 24.5
s-14.5 10.5 -24.5 10.5c-9.33301 0 -17.333 -3.5 -24 -10.5s-10 -15.167 -10 -24.5s3.33301 -17.166 10 -23.499s14.667 -9.5 24 -9.5c10 0 18.167 3.16699 24.5 9.5s9.5 14.166 9.5 23.499z" />
    <glyph glyph-name="uni0E4F" unicode="&#xe4f;" horiz-adv-x="512" 
d="M501 230c0 -32.667 -6.33301 -63.5 -19 -92.5s-29.834 -54.333 -51.501 -76s-47 -38.834 -76 -51.501s-59.833 -19 -92.5 -19c-33.333 0 -64.666 6.33301 -93.999 19s-54.666 29.834 -75.999 51.501s-38.166 47 -50.499 76s-18.5 59.833 -18.5 92.5
c0 33.333 6.16699 64.666 18.5 93.999s29.166 54.833 50.499 76.5s46.666 38.667 75.999 51s60.666 18.5 93.999 18.5c32.667 0 63.5 -6.16699 92.5 -18.5s54.333 -29.333 76 -51s38.834 -47.167 51.501 -76.5s19 -60.666 19 -93.999zM452 230c0 26 -5 50.667 -15 74
s-23.5 43.833 -40.5 61.5s-37 31.5 -60 41.5s-47.833 15 -74.5 15s-51.5 -5 -74.5 -15s-43.167 -23.833 -60.5 -41.5s-31 -38.167 -41 -61.5s-15 -48 -15 -74s5 -50.5 15 -73.5s23.667 -43 41 -60s37.5 -30.5 60.5 -40.5s47.833 -15 74.5 -15s51.5 5 74.5 15
s43 23.5 60 40.5s30.5 37 40.5 60s15 47.5 15 73.5zM404 232c0 -19.333 -3.83301 -37.666 -11.5 -54.999s-18 -32.333 -31 -45s-28.167 -22.667 -45.5 -30s-35.333 -11 -54 -11c-19.333 0 -37.666 3.66699 -54.999 11s-32.333 17.333 -45 30s-22.667 27.667 -30 45
s-11 35.666 -11 54.999c0 20 3.66699 38.5 11 55.5s17.333 31.667 30 44s27.667 22.166 45 29.499s35.666 11 54.999 11c18.667 0 36.667 -3.66699 54 -11s32.5 -17.166 45.5 -29.499s23.333 -27 31 -44s11.5 -35.5 11.5 -55.5z" />
    <glyph glyph-name="uni0E50" unicode="&#xe50;" horiz-adv-x="505" 
d="M461 197c0 -28.667 -5.5 -55.667 -16.5 -81s-26 -47.5 -45 -66.5s-41.167 -34 -66.5 -45s-52.333 -16.5 -81 -16.5s-55.834 5.5 -81.501 16.5s-48 26 -67 45s-34 41.167 -45 66.5s-16.5 52.333 -16.5 81s5.5 55.834 16.5 81.501s26 48 45 67s41.333 34 67 45
s52.834 16.5 81.501 16.5s55.667 -5.5 81 -16.5s47.5 -26 66.5 -45s34 -41.333 45 -67s16.5 -52.834 16.5 -81.501zM398 199c0 20 -3.83301 38.833 -11.5 56.5s-18.167 33.167 -31.5 46.5s-28.833 23.833 -46.5 31.5s-36.5 11.5 -56.5 11.5s-38.833 -3.83301 -56.5 -11.5
s-33.334 -18.167 -47.001 -31.5s-24.334 -28.833 -32.001 -46.5s-11.5 -36.5 -11.5 -56.5s3.83301 -39 11.5 -57s18.334 -33.667 32.001 -47s29.334 -23.833 47.001 -31.5s36.5 -11.5 56.5 -11.5s38.833 3.83301 56.5 11.5s33.167 18.167 46.5 31.5s23.833 29 31.5 47
s11.5 37 11.5 57z" />
    <glyph glyph-name="uni0E51" unicode="&#xe51;" horiz-adv-x="512" 
d="M457 204c0 -29.333 -4.32715 -56.5049 -12.9941 -81.5049s-20.834 -47.167 -36.501 -66.5s-34.167 -35.333 -55.5 -48s-44.333 -21.334 -69 -26.001l-8 54c44 10.667 74.833 31.834 92.5 63.501s26.5 68.5 26.5 110.5c0 18 -3.33301 34.833 -10 50.5
s-16 29.334 -28 41.001s-26.5 20.667 -43.5 27s-35.833 9.5 -56.5 9.5c-22 0 -41.333 -3.83301 -58 -11.5s-30.834 -17.5 -42.501 -29.5s-20.334 -25.667 -26.001 -41s-8.5 -30.333 -8.5 -45s1.66699 -28.667 5 -42s8.5 -25.166 15.5 -35.499s15.667 -18.5 26 -24.5
s22.5 -9 36.5 -9c14.667 0 24.834 0.5 30.501 1.5s12.167 3.16699 19.5 6.5c-7.33301 -0.666992 -16 -0.166992 -26 1.5s-19.5 5.5 -28.5 11.5s-16.5 14.333 -22.5 25s-9 24.334 -9 41.001c0 22.667 8.16699 41.5 24.5 56.5s35.5 22.5 57.5 22.5
c25.333 0 46.5 -8.5 63.5 -25.5s25.5 -37.167 25.5 -60.5c0 -18 -3.33301 -35.167 -10 -51.5s-15.834 -30.666 -27.501 -42.999s-25.834 -22.166 -42.501 -29.499s-35 -11 -55 -11s-39 4.5 -57 13.5s-33.833 21 -47.5 36s-24.334 32.333 -32.001 52s-11.5 40.167 -11.5 61.5
c0 27.333 5.16699 52.5 15.5 75.5s24.666 42.833 42.999 59.5s39.833 29.667 64.5 39s51 14 79 14c30 0 57.167 -5.16699 81.5 -15.5s45.333 -24.333 63 -42s31.167 -38 40.5 -61s14 -47.5 14 -73.5zM288.006 179.995c0 10 -3.66602 18.334 -10.999 25.001
s-15.333 10 -24 10c-10 0 -18.5 -3.33301 -25.5 -10s-10.5 -14.334 -10.5 -23.001c0 -10 3.5 -18.5 10.5 -25.5s15.167 -10.5 24.5 -10.5s17.666 3.5 24.999 10.5s11 14.833 11 23.5z" />
    <glyph glyph-name="uni0E52" unicode="&#xe52;" horiz-adv-x="618" 
d="M562 171c0 -26.667 -2.33301 -50.6641 -7 -71.9971s-12.834 -39.333 -24.501 -54s-27.334 -25.834 -47.001 -33.501s-44.5 -11.5 -74.5 -11.5h-198c-50 0 -87 12.833 -111 38.5s-36 66.5 -36 122.5v109c0 36 -3.16699 69 -9.5 99s-14.833 56 -25.5 78l55 19
c6.66699 -12 12.5 -26.667 17.5 -44s9 -35.166 12 -53.499s5.16699 -36.333 6.5 -54s2 -32.834 2 -45.501v-111c0 -36.667 7 -63.167 21 -79.5s39.667 -24.5 77 -24.5h202c16 0 29.167 3.16699 39.5 9.5s18.5 14.666 24.5 24.999s10 21.833 12 34.5s3 25.334 3 38.001v121
c0 12 -1.83301 23.5 -5.5 34.5s-12.167 16.5 -25.5 16.5c-16 0 -28.333 -7.5 -37 -22.5s-14 -31.167 -16 -48.5l-5 -49h-40l-5 52c-3.33301 22 -12.5 39.833 -27.5 53.5s-33.833 20.5 -56.5 20.5c-16.667 0 -32.5 -6 -47.5 -18s-22.5 -30 -22.5 -54v-20
c0 -6 2 -12.333 6 -19c1.33301 8 6.83301 16 16.5 24s20.834 12 33.501 12c21.333 0 39.666 -7.5 54.999 -22.5s23 -33.5 23 -55.5s-7.66699 -40.5 -23 -55.5s-33.666 -22.5 -54.999 -22.5c-16.667 0 -31.834 4 -45.501 12s-25.334 18.5 -35.001 31.5
s-17.167 28.167 -22.5 45.5s-8 35.666 -8 54.999c0 18 3 35.333 9 52s14.5 31.667 25.5 45s24 24 39 32s31.5 12 49.5 12c19.333 0 35.5 -2 48.5 -6s23.667 -8.83301 32 -14.5s14.5 -11.667 18.5 -18s6.66699 -11.833 8 -16.5c2 4.66699 4.66699 10.167 8 16.5
s8 12.333 14 18s13.833 10.5 23.5 14.5s21.834 6 36.501 6s27.834 -3.33301 39.501 -10s21.334 -15.334 29.001 -26.001s13.5 -22.667 17.5 -36s6 -26.333 6 -39v-111zM302 185.003c0 9.33301 -3.33301 17.333 -10 24s-15 10 -25 10c-8.66699 0 -16.167 -3.33301 -22.5 -10
s-9.5 -14.667 -9.5 -24s3.16699 -17.5 9.5 -24.5s13.833 -10.5 22.5 -10.5c10 0 18.333 3.5 25 10.5s10 15.167 10 24.5z" />
    <glyph glyph-name="uni0E53" unicode="&#xe53;" horiz-adv-x="605" 
d="M550 210c0 -40.667 -5.6748 -80.998 -17.0078 -120.998c-11.333 -39.333 -24.333 -70 -39 -92l-51 15c12.667 28.667 23.167 60 31.5 94s12.5 68 12.5 102c0 12 -1 24.667 -3 38s-5.66699 25.666 -11 36.999s-12.5 20.666 -21.5 27.999s-20.5 11 -34.5 11
c-13.333 0 -25 -3.5 -35 -10.5s-18.333 -16 -25 -27s-11.667 -23.167 -15 -36.5s-5 -26.666 -5 -39.999l-2 -38h-43l-3 38c-0.666992 12.667 -3 25.5 -7 38.5s-9.66699 24.667 -17 35s-16.166 18.666 -26.499 24.999s-21.833 9.5 -34.5 9.5s-24.334 -3.16699 -35.001 -9.5
s-19.667 -14.5 -27 -24.5s-13.166 -21.5 -17.499 -34.5s-6.5 -26.167 -6.5 -39.5c0 -24.667 1.5 -45 4.5 -61s6.5 -27.333 10.5 -34c0.666992 6.66699 7 16.334 19 29.001s29 19 51 19c24.667 0 45.167 -8 61.5 -24s24.5 -35.667 24.5 -59c0 -24 -8.33301 -44.333 -25 -61
s-37 -25 -61 -25c-23.333 0 -44.166 6.33301 -62.499 19s-33.666 29.167 -45.999 49.5s-21.833 43 -28.5 68s-10 49.833 -10 74.5c0 22.667 3.66699 44.667 11 66s17.666 40.166 30.999 56.499s29.166 29.333 47.499 39s38.5 14.5 60.5 14.5
c18.667 0 34.334 -2.66699 47.001 -8s22.834 -11.5 30.501 -18.5s13.334 -14.167 17.001 -21.5s6.16699 -12.666 7.5 -15.999c2 4 5.33301 9.66699 10 17s11.334 14.666 20.001 21.999s19.334 13.666 32.001 18.999s28.334 8 47.001 8c24 0 44.333 -5 61 -15
s30.334 -23.167 41.001 -39.5s18.5 -34.666 23.5 -54.999s7.5 -40.833 7.5 -61.5zM239.992 77.002c0 10 -3.5 18.833 -10.5 26.5s-16.167 11.5 -27.5 11.5c-10.667 0 -19.334 -3.83301 -26.001 -11.5s-10 -16.5 -10 -26.5c0 -10.667 3.33301 -19.667 10 -27
s15.334 -11 26.001 -11c11.333 0 20.5 3.66699 27.5 11s10.5 16.333 10.5 27z" />
    <glyph glyph-name="uni0E54" unicode="&#xe54;" horiz-adv-x="623" 
d="M606 380c-5.33301 -7.33301 -12.6729 -15.6699 -22.0059 -25.0029s-20.5 -18 -33.5 -26s-27.667 -14.833 -44 -20.5s-34.5 -8.5 -54.5 -8.5s-37.333 1.5 -52 4.5s-28.834 6.33301 -42.501 10s-28 7 -43 10s-32.833 4.5 -53.5 4.5
c-21.333 0 -40.666 -3.83301 -57.999 -11.5s-32.166 -18 -44.499 -31s-21.833 -28.167 -28.5 -45.5s-10 -36 -10 -56c0 -42 14.833 -74.333 44.5 -97s68.834 -34 117.501 -34c-4 2.66699 -9.33301 6.33398 -16 11.001s-13.167 10.834 -19.5 18.501
s-11.833 17.167 -16.5 28.5s-7 25 -7 41c0 28 8.83301 50.667 26.5 68s39.834 26 66.501 26c24.667 0 44.834 -8.5 60.501 -25.5s23.5 -37.5 23.5 -61.5c0 -18.667 -6.5 -35.334 -19.5 -50.001s-26.833 -23.334 -41.5 -26.001h-9.5c-3 0 -6.83301 0.333008 -11.5 1
c-5.33301 1.33301 -9.33301 2 -12 2c4 -5.33301 8.33301 -9.66602 13 -12.999s10.334 -6 17.001 -8s14.834 -3.33301 24.501 -4s21.5 -1 35.5 -1c23.333 0 45.5 -2.83301 66.5 -8.5s39.5 -14.834 55.5 -27.501l-32 -48c-11.333 9.33301 -26 15.5 -44 18.5s-42 4.5 -72 4.5
h-132c-24 0 -46.667 4.5 -68 13.5s-40.166 21.667 -56.499 38s-29.166 35.833 -38.499 58.5s-14 47.334 -14 74.001s4.83301 52.334 14.5 77.001s23.167 46.334 40.5 65.001s37.833 33.5 61.5 44.5s49.5 16.5 77.5 16.5c23.333 0 43.166 -1.66699 59.499 -5
s31.5 -6.83301 45.5 -10.5s28 -7.16699 42 -10.5s30.333 -5 49 -5c43.333 0 78.666 21.333 105.999 64zM350.993 161.996c0 10 -3.66699 18.667 -11 26s-15.666 11 -24.999 11c-10 0 -18.5 -3.66699 -25.5 -11s-10.5 -16 -10.5 -26c0 -9.33301 3.5 -17.166 10.5 -23.499
s15.5 -9.5 25.5 -9.5c9.33301 0 17.666 3.16699 24.999 9.5s11 14.166 11 23.499z" />
    <glyph glyph-name="uni0E55" unicode="&#xe55;" horiz-adv-x="623" 
d="M606 380c-5.33301 -7.33301 -12.6729 -15.6719 -22.0059 -25.0049s-20.5 -18 -33.5 -26s-27.667 -14.833 -44 -20.5s-34.5 -8.5 -54.5 -8.5s-37.333 1.5 -52 4.5s-28.834 6.33301 -42.501 10s-28 7 -43 10s-32.833 4.5 -53.5 4.5
c-21.333 0 -40.666 -3.83301 -57.999 -11.5s-32.166 -18 -44.499 -31s-21.833 -28.167 -28.5 -45.5s-10 -36 -10 -56c0 -42 14.833 -74.333 44.5 -97s68.834 -34 117.501 -34c-4 2.66699 -9.33301 6.33398 -16 11.001s-13.167 10.834 -19.5 18.501
s-11.833 17.167 -16.5 28.5s-7 25 -7 41c0 28 8.83301 50.667 26.5 68s39.834 26 66.501 26c24.667 0 44.834 -8.5 60.501 -25.5s23.5 -37.5 23.5 -61.5c0 -18.667 -6.5 -35.334 -19.5 -50.001s-26.833 -23.334 -41.5 -26.001h-9.5c-3 0 -6.83301 0.333008 -11.5 1
c-5.33301 1.33301 -9.33301 2 -12 2c4 -5.33301 8.33301 -9.66602 13 -12.999s10.334 -6 17.001 -8s14.834 -3.33301 24.501 -4s21.5 -1 35.5 -1c23.333 0 45.5 -2.83301 66.5 -8.5s39.5 -14.834 55.5 -27.501l-32 -48c-11.333 9.33301 -26 15.5 -44 18.5s-42 4.5 -72 4.5
h-132c-24 0 -46.667 4.5 -68 13.5s-40.166 21.667 -56.499 38s-29.166 35.833 -38.499 58.5s-14 47.334 -14 74.001s4.83301 52.334 14.5 77.001s23.167 46.334 40.5 65.001s37.833 33.5 61.5 44.5s49.5 16.5 77.5 16.5c17.333 0 28.666 -2 33.999 -6
c-4.66699 4 -8 8.83301 -10 14.5s-3 10.167 -3 13.5c0 20.667 7.16699 38.334 21.5 53.001s31.5 22 51.5 22c20.667 0 38.167 -7.33301 52.5 -22s21.5 -31.667 21.5 -51c0 -12 -3 -22 -9 -30s-12.333 -14.333 -19 -19c6 -1.33301 13.5 -2.66602 22.5 -3.99902
s20.167 -2 33.5 -2c43.333 0 78.666 21.333 105.999 64zM381.993 411.994c0 8.66699 -3.33301 16.5 -10 23.5s-14.334 10.5 -23.001 10.5c-9.33301 0 -17.166 -3.5 -23.499 -10.5s-9.5 -14.833 -9.5 -23.5c0 -9.33301 3.16699 -17.166 9.5 -23.499s14.166 -9.5 23.499 -9.5
c8.66699 0 16.334 3.16699 23.001 9.5s10 14.166 10 23.499zM350.993 161.994c0 10 -3.66699 18.667 -11 26s-15.666 11 -24.999 11c-10 0 -18.5 -3.66699 -25.5 -11s-10.5 -16 -10.5 -26c0 -9.33301 3.5 -17.166 10.5 -23.499s15.5 -9.5 25.5 -9.5
c9.33301 0 17.666 3.16699 24.999 9.5s11 14.166 11 23.499z" />
    </font>
</defs>
</svg>
