<?xml version="1.0" standalone="no"?>
<!DOCTYPE svg PUBLIC "-//W3C//DTD SVG 1.1//EN" "http://www.w3.org/Graphics/SVG/1.1/DTD/svg11.dtd" >
<svg xmlns="http://www.w3.org/2000/svg">
<metadata></metadata>
<defs>
<font id="psl_bundititalic" horiz-adv-x="0" >
<font-face units-per-em="2048" ascent="1638" descent="-410" />
<missing-glyph horiz-adv-x="512" />
<glyph />
<glyph unicode="&#xd;" horiz-adv-x="512" />
<glyph unicode=" "  horiz-adv-x="512" />
<glyph unicode="&#x09;" horiz-adv-x="512" />
<glyph unicode="&#xa0;" horiz-adv-x="512" />
<glyph unicode="!" horiz-adv-x="331" d="M102 63l2 -30q4 -8 6.5 -13.5t4.5 -9.5q14 -18 49 -18l31 8q18 4 24 10q29 29 31 53l2 17q0 20 -14 35q-18 23 -48 22q-35 -6 -57 -22q-29 -29 -31 -52zM176 209h53l101 430l61 344h-100l-62 -344z" />
<glyph unicode="&#x22;" horiz-adv-x="436" d="M195 590h67l80 393h-88zM385 590h66l81 393h-90z" />
<glyph unicode="#" horiz-adv-x="874" d="M137 301h191l-99 -301h56l98 301h174l-94 -301h55l94 301h193l18 53h-194l53 166h192l19 55h-195l86 277h-53l-88 -277h-174l88 277h-53l-90 -277h-189l-16 -55h188l-53 -166h-188zM399 354l54 166h174l-52 -166h-176z" />
<glyph unicode="$" horiz-adv-x="688" d="M49 0h74l20 121q10 -20 20.5 -35.5t20.5 -30.5l31 -28q14 -10 33 -21l-27 -143h45l23 131q18 -8 39 -8q6 0 12 -2h10h15l45 4l-23 -125h43l23 131q94 29 160.5 98.5t80.5 161.5l4 25v24q0 76 -41 127q-39 53 -112 82l67 385q39 -27 56.5 -71t17.5 -93v-26l-4 -33h70 l55 309h-72l-20 -109q-4 8 -9.5 18.5t-7.5 14.5l-20 27q-20 27 -51 39l24 141h-43l-22 -125q-10 2 -20.5 5t-20.5 3q-4 2 -19 2h-18l-41 -2l20 117h-45l-20 -121q-98 -25 -162.5 -95.5t-79.5 -162.5q-2 -4 -2 -33q0 -33 10 -69q14 -37 31 -58q41 -49 115 -77l-74 -418 q-51 29 -67 72q-20 43 -21 108l4 55h-72zM262 719l6 49q10 41 45 86q23 25 44.5 41.5t50.5 24.5l-58 -332q-88 43 -88 131zM301 61l74 420l61 -22l31 -13l22 -8l-67 -385q-12 -4 -31 -4h-12q-39 0 -78 12zM391 569l64 361l14 4h20q45 0 84 -16l-69 -390l-6 2q-23 8 -37 13 l-31 10zM467 66l61 352q45 -25 64 -62q20 -33 20 -84l-2 -30q-29 -137 -143 -176z" />
<glyph unicode="%" horiz-adv-x="1067" d="M225 633q0 -74 31 -123q23 -25 45 -37q23 -10 64 -10q98 0 157 84q20 29 37 71q8 20 15.5 44t11.5 53q4 12 4 30v13l4 16v25v12q0 74 -27 119q-35 53 -108 53q-100 0 -162 -88q-25 -37 -40 -79t-24 -99l-6 -41zM250 0h59l672 983h-61zM293 625l4 47l6 45q16 84 39 133 q43 78 104 78q49 0 64.5 -29t15.5 -80l-4 -55l-8 -51q-16 -88 -39 -127q-47 -72 -102 -72q-41 0 -64 29q-16 29 -16 82zM633 174q0 -82 31 -127q18 -27 42.5 -37t65.5 -10q80 0 129 55q66 70 90 215q6 25 6 37q2 8 2 27v24q0 76 -30 119q-29 47 -105 47q-102 0 -159 -86 q-45 -63 -64 -172q-6 -23 -6 -33l-2 -22v-37zM698 168l4 49l7 29v20q0 2 3 13.5t6 23.5t5 22.5t2 14.5q8 31 25 55q43 76 104 76q49 0 66 -37q14 -27 14 -78l-2 -43l-6 -41l-19 -77q-4 -16 -10 -32t-10 -26q-43 -80 -109 -80q-45 0 -62.5 30t-17.5 81z" />
<glyph unicode="&#x26;" horiz-adv-x="1017" d="M125 207q0 -100 61 -164q68 -61 170 -61q49 0 96.5 9t86.5 23q90 39 157 107l84 -121h197l10 63h-141l-90 123q31 27 55 68q23 37 45 88q10 25 25.5 68t31.5 102h119l12 63h-301l-12 -63h105l-33 -104l-29 -68q-25 -55 -55 -92l-205 291q102 57 158 112q70 74 86 160 l2 16v13q0 78 -53 118q-53 43 -138 43q-98 0 -174 -57q-74 -57 -90 -143q-2 -4 -2 -31q0 -55 31 -117l22 -37l37 -59q-104 -47 -174 -121q-72 -82 -90 -176q-4 -16 -4 -27v-26zM215 219l4 41q20 82 77.5 142.5t139.5 95.5l223 -324q-53 -59 -124 -92q-63 -29 -97.5 -32 t-48.5 -3q-82 0 -129 47q-45 51 -45 125zM391 776l4 55q10 37 59.5 72t108.5 35q53 0 80 -33q31 -35 31 -78l-2 -26q-16 -72 -72 -127q-47 -51 -123 -82q-23 29 -36 50.5t-21 33.5q-16 29 -22.5 51.5t-6.5 48.5z" />
<glyph unicode="'" horiz-adv-x="249" d="M195 590h67l82 393h-90z" />
<glyph unicode="(" horiz-adv-x="380" d="M133 260q0 -254 105 -453l69 3q-25 63 -42 118.5t-27 102.5q-23 76 -23 121v81q0 92 18 203q37 229 166 426l58 90q18 29 35.5 54t33.5 41l-69 2q-29 -37 -56.5 -74t-54.5 -76q-29 -41 -47 -72.5t-39 -68.5q-82 -160 -110 -318q-6 -29 -10.5 -50t-4.5 -40z" />
<glyph unicode=")" horiz-adv-x="380" d="M4 -190l70 -3q33 35 57.5 68t48.5 72q49 70 92 159q23 43 40.5 87.5t29.5 82.5q31 86 44 160t13 162q0 121 -28 231q-16 66 -37 119t-41 101l-70 -2q18 -27 31 -76l22 -78q12 -39 19.5 -69.5t11.5 -67.5q4 -35 7 -70t3 -72l-4 -88l-10 -90q-18 -90 -43 -170 q-29 -86 -63.5 -155.5t-83.5 -143.5q-27 -41 -53.5 -80t-55.5 -77z" />
<glyph unicode="*" horiz-adv-x="559" d="M201 784l147 -45l29 -4l-29 -22l-127 -129l55 -52l107 146l23 31l8 -35l51 -142l72 48l-72 127l-23 24l27 4l166 43l-8 82l-162 -65l-27 -15l11 27l45 178h-76l-21 -180v-23l-20 15l-141 67z" />
<glyph unicode="+" horiz-adv-x="716" d="M96 317h277l-47 -276h82l47 276h276l14 82h-276l49 277h-82l-49 -277h-276z" />
<glyph unicode="," horiz-adv-x="319" d="M53 -129l27 -33q80 41 121 94q49 61 55 105q2 4 2 20q0 35 -18.5 57.5t-55.5 22.5q-35 0 -61 -22q-29 -29 -31 -54v-10q0 -27 12 -41q18 -18 48 -18l24 6l12 2q-2 -4 -5 -8t-7 -12q-2 -4 -6 -8.5t-8 -10.5l-29 -33q-37 -37 -80 -57z" />
<glyph unicode="-" horiz-adv-x="507" d="M154 375h331l15 74h-332z" />
<glyph unicode="." horiz-adv-x="319" d="M96 63l2 -30q4 -8 6 -13.5t5 -9.5q18 -18 49 -18l30 8q18 4 25 10q18 18 23 27q8 10 8 26l2 17q0 20 -15 35q-18 23 -47 22q-20 -4 -30 -8q-20 -8 -27 -16q-29 -23 -31 -50z" />
<glyph unicode="/" horiz-adv-x="483" d="M23 0h67l541 983h-66z" />
<glyph unicode="0" horiz-adv-x="716" d="M125 301q0 -156 58.5 -236.5t170.5 -80.5q147 0 247.5 131t143.5 377q18 104 19 192q0 156 -58.5 236.5t-170.5 80.5q-147 0 -248 -132t-144 -377q-18 -109 -18 -191zM215 289q0 94 21 203q37 211 104 317q74 117 182 117q76 0 117 -60q35 -57 35 -168q0 -45 -5.5 -96 t-15.5 -110q-37 -207 -102 -318q-74 -117 -182 -117q-154 0 -154 232z" />
<glyph unicode="1" horiz-adv-x="716" d="M190 0h424l11 63h-170l163 920h-86q-49 -43 -126 -102q-29 -23 -59 -43.5t-60 -40.5l-51 -35l38 -55q2 2 21.5 15t55.5 37.5t71 51.5q33 25 56.5 44t39.5 34l-147 -826h-170z" />
<glyph unicode="2" horiz-adv-x="716" d="M51 0h594l35 201h-78l-22 -129h-441q35 37 96.5 92t149.5 131t148.5 131t95.5 94q113 123 129 225q2 4 2 11q0 6 2 14v23q0 94 -57 145q-59 59 -168 59q-125 0 -219.5 -86t-116.5 -213h86q14 92 78 158q66 72 163 72q68 0 109 -41q37 -41 37 -103q0 -8 -1 -16t-3 -18 q-14 -90 -115 -203q-66 -72 -227 -215q-188 -164 -260 -236z" />
<glyph unicode="3" horiz-adv-x="716" d="M113 209q0 -104 63.5 -163.5t175.5 -59.5q131 0 221.5 73.5t112.5 196.5q2 16 3 29.5t1 23.5q0 76 -39 126t-114 65q188 61 221 237q6 31 6 51q0 94 -59.5 152.5t-169.5 58.5q-131 0 -222 -81q-88 -76 -106 -197h84q14 90 77.5 150.5t149.5 60.5q74 0 115 -41t41 -113 q0 -20 -4 -41q-16 -98 -90 -151q-70 -51 -181 -51l-12 -66q100 0 155.5 -47t55.5 -127q0 -10 -1 -20.5t-3 -20.5q-14 -86 -78.5 -143.5t-150.5 -57.5q-72 0 -117 49.5t-45 120.5q0 27 6 56h-88q-8 -35 -8 -70z" />
<glyph unicode="4" horiz-adv-x="716" d="M74 281h442l-39 -220h-151l-11 -61h373l10 61h-139l39 220h139l13 63h-140l113 639h-105l-528 -612zM158 344l467 545l-97 -545h-370z" />
<glyph unicode="5" horiz-adv-x="716" d="M123 209q0 -98 63.5 -160.5t173.5 -62.5q143 0 236.5 90t122.5 246q6 37 6 75q0 106 -55 168q-61 66 -174 66q-63 0 -121 -31q-51 -29 -86 -70l67 388h428l13 65h-504l-103 -571h80q29 61 84 102q59 47 123 47q78 0 121 -51q39 -47 39 -131q0 -33 -6 -66 q-23 -119 -92.5 -190.5t-163.5 -71.5q-74 0 -120 47t-46 117q0 20 6 49h-88q-2 -14 -3 -28.5t-1 -26.5z" />
<glyph unicode="6" horiz-adv-x="716" d="M125 264q0 -131 53 -203q61 -76 187 -75q135 0 235 96q92 92 113 217q8 33 8 78q0 111 -57 174q-63 70 -181 70q-76 0 -139 -36t-104 -98q14 86 38.5 160t63.5 137q88 147 211 148q72 0 113 -43q33 -35 32 -103l-1 -17t-3 -26h82q2 14 3 27.5t1 26.5q0 92 -51 143 q-53 59 -156 59q-123 0 -217 -86q-82 -76 -139 -213q-47 -117 -76 -272q-8 -47 -12 -88t-4 -76zM211 244q0 16 1 30.5t3 28.5q8 51 32.5 97t58.5 81t76 54.5t89 19.5q80 0 121 -53q39 -47 39 -133q0 -33 -6 -66q-10 -53 -33 -99t-55.5 -80t-74.5 -53.5t-87 -19.5 q-76 0 -120 53.5t-44 139.5z" />
<glyph unicode="7" horiz-adv-x="716" d="M195 768h75l27 145h442l-538 -913h90l530 909l15 74h-603z" />
<glyph unicode="8" horiz-adv-x="716" d="M113 205q0 -104 66.5 -161.5t178.5 -57.5q63 0 120 19.5t102 55t74.5 86t39.5 111.5q6 33 6 61q0 152 -139 191q170 61 205 233q2 14 3 27.5t1 24.5q0 94 -61.5 149t-171.5 55q-123 0 -211 -69.5t-109 -186.5q-2 -16 -3 -28.5t-1 -22.5q0 -129 127 -182 q-188 -47 -223 -252q-2 -16 -3 -29.5t-1 -23.5zM201 221q0 12 1 23.5t3 21.5q6 45 27.5 84t54 69t72.5 46t83 16q78 0 123 -48t45 -124l-1 -17q-1 -18 -3 -26q-14 -92 -82.5 -153.5t-156.5 -61.5q-76 0 -121 47t-45 123zM297 696q0 10 1 21.5t3 21.5q14 86 74.5 139.5 t146.5 53.5q76 0 118 -41t42 -113q0 -10 -1 -19.5t-3 -19.5q-16 -86 -76.5 -139t-146.5 -53q-76 0 -117 40t-41 109z" />
<glyph unicode="9" horiz-adv-x="716" d="M119 184q0 -90 51 -141q55 -57 156 -57q121 0 217 84q82 76 139 213q47 116 76 272q8 47 12 87t4 75q0 133 -53 205q-59 78 -186 77q-137 0 -236 -98q-92 -92 -113 -217q-6 -27 -7 -40t-1 -38q0 -111 58 -174q61 -70 178 -70q76 0 140 36t105 98q-27 -170 -104 -297 q-92 -147 -211 -148q-74 0 -111 43q-33 35 -32 101q0 12 1 23t3 22h-82q-2 -16 -3 -29.5t-1 -26.5zM268 614q0 31 6 66q8 53 32 99t55.5 80t72.5 53.5t88 19.5q78 0 122 -54.5t44 -140.5q0 -14 -1 -29.5t-3 -27.5q-10 -53 -33.5 -98t-57.5 -80t-77 -54.5t-88 -19.5 q-80 0 -120 50t-40 136z" />
<glyph unicode=":" horiz-adv-x="319" d="M96 63l2 -30q4 -8 6 -13.5t5 -9.5q18 -18 49 -18l30 8q18 4 25 10q18 18 23 27q8 10 8 26l2 17q0 20 -15 35q-18 23 -47 22q-20 -4 -30 -8q-20 -8 -27 -16q-29 -23 -31 -50zM193 586q0 -20 10 -37q20 -20 49 -21q33 4 55 21q27 22 33 53q0 25 -3 34t-9 19q-20 20 -49 21 q-35 -2 -58 -23q-27 -20 -26 -39z" />
<glyph unicode=";" horiz-adv-x="319" d="M53 -129l27 -33q80 41 121 94q49 61 55 105q2 4 2 20q0 35 -18.5 57.5t-55.5 22.5q-35 0 -61 -22q-29 -29 -31 -54v-10q0 -27 12 -41q18 -18 48 -18l24 6l12 2q-2 -4 -5 -8t-7 -12q-2 -4 -6 -8.5t-8 -10.5l-29 -33q-37 -37 -80 -57zM193 586q0 -20 10 -37q20 -20 49 -21 q33 4 55 21q27 22 33 53q0 25 -3 34t-9 19q-20 20 -49 21q-35 -2 -58 -23q-27 -20 -26 -39z" />
<glyph unicode="&#x3c;" horiz-adv-x="737" d="M102 322l594 -289l15 84l-502 241l588 242l14 84l-696 -289z" />
<glyph unicode="=" horiz-adv-x="716" d="M80 215h635l14 82h-635zM115 420h635l14 82h-635z" />
<glyph unicode="&#x3e;" horiz-adv-x="737" d="M51 33l697 289l12 73l-594 289l-14 -84l503 -242l-589 -241z" />
<glyph unicode="?" horiz-adv-x="688" d="M207 739h84q20 92 73.5 142.5t139.5 50.5q147 0 147 -139l-4 -39q-20 -104 -131 -199q-137 -119 -162 -166q-23 -41 -39 -88q-12 -47 -12 -80h82q16 133 227 324q104 94 123 205l4 24v25q0 98 -61 147q-59 53 -162 53q-63 0 -114.5 -18t-90.5 -51q-80 -68 -104 -191z M242 63q0 -39 12 -53q14 -18 49 -18q33 6 55 18q29 29 31 53l2 17q0 20 -14 35q-18 23 -47 22q-35 -6 -58 -22q-25 -25 -30 -52z" />
<glyph unicode="@" horiz-adv-x="1024" d="M141 492q0 -207 138 -353q137 -147 337 -147q137 0 261 67q63 37 106 83t70 108l-45 2q-59 -106 -165 -161.5t-225 -55.5q-188 0 -307 131q-121 133 -121 319q0 178 132 310q135 129 313 129q170 0 282.5 -100.5t112.5 -262.5q0 -115 -76 -209q-74 -96 -180 -96 q-53 0 -53 55q0 29 12 60l117 348l-51 2l-27 -70q-43 92 -133 92q-115 0 -199 -114q-80 -115 -80 -236q0 -39 11 -69q6 -20 12 -34t16 -24q39 -49 113 -49h14t29 4l39 17q41 23 74 57q23 -80 96 -80q129 0 221 106.5t92 237.5q0 180 -129 295q-127 115 -311 115 q-201 0 -348 -142q-147 -139 -148 -335zM422 387q0 104 61 203q70 113 166 112q37 0 66 -34q28 -33 28 -70q0 -35 -18 -84l-35 -90q-29 -72 -63 -113q-47 -53 -113 -53q-51 0 -72 37q-20 39 -20 92z" />
<glyph unicode="A" horiz-adv-x="993" d="M16 0h306l10 63h-133l153 283h404l51 -283h-133l-10 -63h311l10 63h-84l-180 920h-103l-509 -920h-82zM391 412l260 491l88 -491h-348z" />
<glyph unicode="B" horiz-adv-x="839" d="M29 0h420l51 2l57 6q51 10 92 33q137 82 162 235l4 13v22v15q0 158 -158 186q61 14 93 37q53 37 80.5 87t37.5 112l4 24v23q0 94 -67 141q-35 29 -76 37q-45 10 -92 10h-434l-13 -70h132l-150 -847h-131zM256 66l72 407h188q211 0 211 -158l-4 -53q-20 -106 -102 -153 q-72 -43 -179 -43h-186zM338 539l68 374h190q43 0 80 -9t59 -23q49 -35 49 -107q-4 -16 -4 -24v-23q-23 -102 -96 -147q-35 -23 -77 -32t-95 -9h-174z" />
<glyph unicode="C" horiz-adv-x="915" d="M143 369q0 -86 20.5 -155t55.5 -114q81 -112 255 -112h3q160 0 275 90q117 94 149 250h-84q-47 -133 -117 -197q-86 -74 -213 -74q-137 0 -198 97q-29 43 -41 95t-12 122q0 68 12 133q33 176 127 284q115 133 276 134q113 0 172.5 -67t59.5 -171l-4 -51h69l62 346h-72 l-25 -139q-16 39 -36 67q-23 29 -56 47q-35 20 -72.5 29.5t-84.5 9.5q-209 0 -347 -147q-125 -131 -161 -342q-12 -66 -13 -135z" />
<glyph unicode="D" horiz-adv-x="940" d="M33 0h352l92 2l80 12q100 25 166 68q106 70 166 188q27 47 46 104.5t30 123.5q8 31 8 59q0 10 2 18v19v20q0 111 -49 204t-142 132q-47 18 -98 25q-39 8 -113 8h-366l-12 -70h133l-150 -843h-133zM262 70l150 843h155q160 0 240 -81t80 -228l-2 -49l-8 -55 q-39 -207 -152 -314q-126 -116 -321 -116h-3h-139z" />
<glyph unicode="E" horiz-adv-x="839" d="M29 0h729l53 305h-74l-41 -239h-436l70 401h229l-29 -166h70l70 391h-70l-29 -160h-229l68 386h430l-41 -230h73l54 295h-723l-13 -65h134l-150 -852h-133z" />
<glyph unicode="F" horiz-adv-x="761" d="M25 0h381l10 63h-164l70 388h221l-29 -160h72l67 385h-71l-27 -158h-221l69 400h408l-41 -234h72l53 299h-696l-13 -65h131l-151 -855h-131z" />
<glyph unicode="G" horiz-adv-x="993" d="M133 352q0 -61 12 -116l19 -56l20 -45q53 -78 121 -112q20 -12 38.5 -18.5t41.5 -10.5q45 -10 86 -10q47 0 95 11t91 30.5t79 49t61 66.5l-25 -141h82l74 418h112l11 61h-353l-10 -61h158l-6 -31q-4 -23 -9.5 -46.5t-11.5 -45.5q-14 -45 -33 -78q-51 -86 -128.5 -125 t-170.5 -39q-133 0 -200 105q-57 88 -58 227q0 27 3.5 54.5t7.5 56.5q35 168 131 284q119 141 270 142q57 0 104.5 -17.5t77.5 -46.5q68 -66 68 -168q0 -31 -6 -61h71l62 348h-74l-22 -133q-41 84 -103 114q-33 20 -76 27q-31 6 -52 7t-40 1q-197 0 -340 -153 q-68 -70 -106.5 -153t-57.5 -187l-12 -86l-2 -33v-29z" />
<glyph unicode="H" horiz-adv-x="993" d="M31 0h352l10 63h-135l72 400h497l-71 -400h-133l-11 -63h351l10 63h-133l151 857h133l13 63h-351l-12 -63h133l-67 -388h-498l68 388h135l12 63h-352l-12 -63h131l-152 -857h-131z" />
<glyph unicode="I" horiz-adv-x="407" d="M25 0h358l10 61h-137l152 859h137l12 63h-358l-13 -63h138l-152 -859h-137z" />
<glyph unicode="J" horiz-adv-x="610" d="M70 184q0 -94 49 -145q25 -29 60.5 -40t86.5 -11q29 0 56.5 6t54.5 14q55 27 93 64t58 100q16 39 27 107l4 24l109 615h92l12 65h-323l-13 -65h146l-115 -646q-18 -102 -51 -149q-49 -66 -140 -66q-66 0 -92 37q-24 38 -24 100v5l4 51l8 55h-86l-10 -53q-6 -41 -6 -68z " />
<glyph unicode="K" horiz-adv-x="839" d="M33 0h344l10 61h-127l80 449l319 -449h-110l-10 -61h288l11 61h-76l-334 463l473 396h70l12 63h-281l-12 -65h111l-457 -386l68 386h127l12 65h-344l-12 -65h131l-152 -857h-131z" />
<glyph unicode="L" horiz-adv-x="761" d="M29 0h692l55 315h-76l-43 -247h-395l150 852h163l13 63h-385l-13 -63h134l-150 -852h-133z" />
<glyph unicode="M" horiz-adv-x="1220" d="M33 0h340l10 61h-123l152 859l157 -920h74l485 918l-151 -857h-127l-10 -61h344l10 61h-135l151 857h136l12 65h-275l-360 -686l-96 -193l-25 197l-117 682h-278l-12 -65h137l-152 -857h-137z" />
<glyph unicode="N" horiz-adv-x="993" d="M29 0h350l10 59h-135l70 420l73 422l37 -102l68 -185l231 -614h111l162 913h122l11 64h-340l-11 -64h140l-76 -424l-72 -403l-47 145l-53 152l-221 596h-258l-11 -66h136l-152 -854h-135z" />
<glyph unicode="O" horiz-adv-x="993" d="M145 367q0 -170 82 -271q92 -106 273 -106q49 0 100 12t100.5 35.5t93.5 54.5t76 68q16 20 29.5 39.5t24.5 38.5q25 39 43 90q35 90 49 180q6 18 6 27q2 6 2 18v16l2 21v18v23q0 88 -22.5 155.5t-59.5 114.5q-92 111 -266 111q-211 0 -354 -154q-129 -137 -166 -352 q-12 -78 -13 -139zM236 373q0 66 12 131q33 184 129 301q117 137 287 137q111 0 175 -53t83 -137q14 -55 14 -127l-2 -23v-18l-8 -78q-41 -195 -127 -305q-117 -147 -289 -148q-147 0 -215 97q-29 39 -45 96q-14 57 -14 127z" />
<glyph unicode="P" horiz-adv-x="761" d="M27 0h376l11 63h-160l63 351h154q158 0 252 65q104 76 129 221q6 39 6 66q0 111 -72 164q-37 29 -85 41t-109 12h-391l-13 -65h131l-151 -855h-131zM328 481l78 432h157q100 0 153.5 -36.5t53.5 -118.5v-25l-4 -28q-27 -123 -98 -177q-66 -47 -193 -47h-147z" />
<glyph unicode="Q" horiz-adv-x="993" d="M143 377q0 -170 76 -271q81 -112 255 -112h3q16 4 131 4l107 2h69h191l12 68h-151l-127 -7q63 33 112 81t88 112q70 113 95 254q8 31 8 59q0 8 2 15v22v21q0 160 -80 262q-91 110 -255 110h-3h-10q-96 0 -180 -35q-89 -38 -157.5 -106t-113.5 -157t-59 -187 q-12 -66 -13 -135zM231 385l2 59l9 60q33 178 135 295q59 70 131 101.5t158 31.5q133 0 198 -101q58 -84 58 -221l-2 -30v-23l-7 -47q-33 -178 -131 -301q-123 -150 -284 -150q-143 0 -209 101q-57 84 -58 225z" />
<glyph unicode="R" horiz-adv-x="864" d="M31 0h352l10 63h-131l68 383h162q88 0 118 -36q25 -25 35 -119l35 -291h168l10 63h-98l-29 246q-4 39 -11 65.5t-15 43.5q-20 41 -74 57q53 12 90 31.5t63 52.5q45 53 62.5 117.5t17.5 109.5q0 53 -18.5 92.5t-50.5 59.5q-72 45 -195 45h-395l-12 -68h135l-152 -852h-135 zM342 510l72 405h176q88 0 138 -35.5t50 -111.5l-4 -47q-23 -117 -89.5 -164t-182.5 -47h-160z" />
<glyph unicode="S" horiz-adv-x="712" d="M66 0h73l23 123q20 -72 76 -107q35 -16 61 -22q23 -6 36 -7t44 -1q61 0 116.5 20.5t99.5 57t72.5 87t39.5 111.5l4 21v18v16q0 137 -215 215q-111 41 -162 84t-51 93l2 34q6 43 28.5 78t53 58.5t68.5 37t77 13.5q98 0 141 -66q35 -49 35 -151l-2 -37q-2 -4 -2 -31h72 l57 336h-74l-18 -111q-53 127 -199 127q-125 0 -216 -70.5t-109 -193.5q-4 -16 -4 -24v-27q0 -131 215 -207q215 -78 215 -178l-5 -41q-23 -96 -83 -147q-74 -55 -158 -56q-47 0 -86 17q-37 20 -58 55q-38 56 -38 153v5v24l4 19v18h-72z" />
<glyph unicode="T" horiz-adv-x="839" d="M164 680h76l41 233h258l-152 -852h-158l-10 -61h402l10 61h-158l152 852h258l-41 -233h76l51 301h-754z" />
<glyph unicode="U" horiz-adv-x="915" d="M174 233q0 -12 4 -36l12 -41l7 -17q35 -80 98 -112q35 -20 71.5 -28.5t77.5 -8.5q170 0 285 108q102 102 133 277l96 543h105l12 65h-323l-13 -65h142l-95 -539q-27 -143 -100 -225q-86 -96 -221 -97q-133 0 -184 113q-18 45 -19 100l4 52l8 57l95 539h141l12 65h-329 l-13 -65h103l-95 -535l-12 -70l-2 -59v-21z" />
<glyph unicode="V" horiz-adv-x="915" d="M162 920h82l164 -920h100l487 920h86l13 63h-316l-12 -63h143l-348 -664l-84 -164l-8 39l-6 55l-12 72l-115 662h145l13 63h-320z" />
<glyph unicode="W" horiz-adv-x="1245" d="M166 918h80l45 -918h106l353 815l14 39l20 51l4 -92l62 -813h106l371 918h78l10 63h-303l-10 -63h145l-254 -637l-75 -203v65l-5 68l-57 770h-113l-342 -786l-41 -111q2 2 2 18v33v35v51l-30 697h145l10 63h-311z" />
<glyph unicode="X" horiz-adv-x="940" d="M0 0h311l11 55h-140l359 400l221 -400h-137l-11 -55h326l10 55h-88l-250 453l381 416h86l8 57h-301l-8 -57h125l-330 -365l-200 365h127l8 57h-311l-9 -57h82l234 -416l-410 -453h-84z" />
<glyph unicode="Y" horiz-adv-x="839" d="M164 920h80l205 -514l-62 -343h-158l-10 -63h399l11 63h-158l61 345l388 512h79l13 63h-299l-13 -63h129l-319 -426l-168 426h129l12 63h-307z" />
<glyph unicode="Z" horiz-adv-x="788" d="M43 0h698l56 309h-74l-43 -241h-539l746 835l12 78h-668l-51 -297h72l39 227h504l-738 -827z" />
<glyph unicode="[" horiz-adv-x="380" d="M102 -195h177l10 58h-103l201 1130h102l9 58h-176z" />
<glyph unicode="\" horiz-adv-x="483" d="M201 983l192 -983h70l-195 983h-67z" />
<glyph unicode="]" horiz-adv-x="380" d="M35 -195h178l219 1246h-178l-8 -58h102l-201 -1130h-102z" />
<glyph unicode="^" horiz-adv-x="737" d="M152 563h81l295 355l170 -355h84l-192 420h-94z" />
<glyph unicode="_" horiz-adv-x="716" d="M-29 -174h715l12 74h-714z" />
<glyph unicode="`" horiz-adv-x="737" d="M403 1006l127 -187h68l-94 187h-101z" />
<glyph unicode="a" horiz-adv-x="688" d="M78 154q0 -80 49 -123q57 -41 139 -41q174 0 256 137l-22 -127h168l10 63h-96l69 386l11 59v33q0 90 -48 137q-23 27 -61 37q-41 10 -92 10q-238 0 -299 -221h78q45 160 209 160q39 0 63 -11q27 -12 43 -28q25 -37 25 -95l-5 -51l-8 -57l-108 2q-35 0 -69 -3t-66 -7 q-33 -6 -57.5 -13.5t-45.5 -15.5q-119 -57 -139 -188l-4 -17v-26zM160 164q2 2 2 14l2 19q20 104 106 141q61 24 170 24h9h26l23 -2h12l29 -2h18q-14 -72 -33.5 -124t-42.5 -87q-72 -98 -196 -98q-59 0 -92 31q-33 33 -33 84z" />
<glyph unicode="b" horiz-adv-x="761" d="M18 0h179l22 131q18 -70 69.5 -105.5t127.5 -35.5q150 0 246 110q80 94 108 252q8 31 8 56q0 10 2 18v16v19q0 57 -12 106q-8 27 -18.5 46.5t-20.5 35.5q-59 78 -180 78q-158 0 -250 -141l72 399h-183l-12 -63h105l-152 -859h-100zM250 254l4 53l6 53q25 125 78 201 q76 100 186 101q92 0 135 -66q20 -31 25 -59q6 -27 8 -40.5t2 -50.5l-4 -45l-4 -49q-20 -121 -82 -200q-84 -98 -188 -99q-88 0 -131 62q-31 43 -33 83t-2 56z" />
<glyph unicode="c" horiz-adv-x="684" d="M127 266q0 -129 61.5 -202.5t184.5 -73.5q37 0 69 8q35 2 66 16q70 33 108 84l25 35q4 8 8 15.5t8.5 17.5t8.5 17t6 16l8 32h-70q-31 -86 -86 -131t-135 -45q-90 0 -137 66q-37 57 -37 149l2 43l6 43q6 31 14.5 59.5t18.5 51.5q20 49 51 90q76 98 187 98q86 0 127 -53 q35 -47 34 -127l-2 -35h64l45 262h-66l-14 -90q-18 55 -70 80q-25 16 -54.5 22.5t-63.5 6.5q-145 0 -244 -115q-49 -55 -76 -114.5t-39 -135.5q-6 -25 -6 -32l-2 -21v-37z" />
<glyph unicode="d" horiz-adv-x="761" d="M104 254q0 -117 56.5 -190.5t179.5 -73.5q74 0 141.5 36.5t106.5 100.5l-23 -127h172l11 61h-95l164 922h-192l-13 -61h115l-57 -324q-43 127 -199 127q-145 0 -244 -117q-88 -100 -112 -248q-6 -31 -7.5 -37t-1.5 -20q-2 -14 -2 -27v-22zM188 264l2 45l7 49 q27 125 86 205q76 98 190 99q90 0 131 -62q20 -27 27 -61q8 -27 8 -80l-2 -49l-6 -41q-25 -137 -78 -211q-74 -106 -188 -107q-51 0 -84 16.5t-54 41.5q-39 63 -39 155z" />
<glyph unicode="e" horiz-adv-x="688" d="M104 254q0 -127 56 -195q33 -41 81 -58t113 -17q106 0 193.5 61t122.5 172h-72q-63 -174 -231 -174q-43 0 -82 16q-33 18 -56 47q-43 70 -43 160q0 20 2 38t5 34h507q13 64 13 125q0 57 -14.5 105t-36.5 81q-57 76 -179 76q-154 0 -252 -111q-92 -100 -116 -254 q-6 -31 -7.5 -37t-1.5 -20q-2 -14 -2 -27v-22zM207 401q27 113 88 181q74 82 178 82q84 0 129 -64q20 -27 27 -61q8 -27 8 -80l-4 -58h-426z" />
<glyph unicode="f" horiz-adv-x="380" d="M33 0h311l10 59h-127l105 586h143l10 64h-143l10 59q16 78 45 117q39 43 107 43q2 -2 14 -2h17l26 -2l17 -6l12 67q-4 2 -8 3t-9 3l-20 4q-6 2 -23 2h-20q-96 0 -154 -53q-61 -61 -94 -235h-112l-11 -64h113l-105 -586h-104z" />
<glyph unicode="g" horiz-adv-x="761" d="M78 -90q0 -86 74 -123q57 -31 159 -31q287 0 336 281l107 606h104l12 62h-184l-22 -125q-23 72 -72 104q-57 39 -129 39q-139 0 -238 -111q-86 -98 -110 -243q-4 -20 -6.5 -33.5t-2.5 -20.5q-2 -6 -2 -22v-23q0 -123 55.5 -196.5t178.5 -73.5q162 0 248 135l-27 -139 q-16 -92 -81.5 -135t-153.5 -43q-76 0 -123 28q-43 33 -43 95h-78q-2 -4 -2 -31zM188 287q0 23 2.5 41t4.5 37q23 123 86 198q76 94 186 94q86 0 133 -59q20 -27 27 -59q8 -27 8 -78l-2 -41l-6 -49l-15 -64l-12 -51q-29 -74 -59 -106l-27 -27q-6 -4 -14 -12q-18 -16 -45 -25 q-47 -23 -99 -23q-86 0 -129 64q-39 70 -39 160z" />
<glyph unicode="h" horiz-adv-x="761" d="M27 0h299l10 61h-113l64 357q23 106 75 170q70 76 166 76q66 0 91.5 -35t25.5 -94q0 -33 -6 -70l-72 -404h-112l-11 -61h297l11 61h-105l76 431q6 33 6 61q0 174 -176 174q-39 0 -73 -8t-64 -23q-59 -35 -97 -92l68 379h-186l-13 -61h107l-152 -861h-106z" />
<glyph unicode="i" horiz-adv-x="356" d="M27 0h307l10 61h-108l114 650h-198l-11 -64h117l-104 -586h-117zM276 850h99l18 100h-98z" />
<glyph unicode="j" horiz-adv-x="329" d="M-47 -231q8 -4 14 -5h17l18 -4h16q94 0 138 56q37 49 51 139l133 756h-195l-10 -62h115l-123 -698l-12 -51q-4 -10 -8.5 -19.5t-8.5 -15.5q-23 -41 -73 -41q-20 0 -37 4l-25 4zM268 852h97l18 98h-96z" />
<glyph unicode="k" horiz-adv-x="688" d="M23 0h280l10 61h-96l37 205l141 121l129 -326h-82l-10 -61h236l10 61h-66l-153 385l235 203h78l10 60h-250l-10 -60h88l-342 -299l113 633h-184l-11 -59h105l-154 -863h-104z" />
<glyph unicode="l" horiz-adv-x="329" d="M18 0h301l11 61h-107l164 922h-194l-11 -59h113l-154 -863h-112z" />
<glyph unicode="m" horiz-adv-x="1144" d="M33 0h293l10 61h-109l62 340q8 53 24 95q20 45 43 75q68 86 158 86q63 0 88 -37.5t25 -95.5l-2 -41l-7 -41l-67 -381h-111l-10 -61h299l10 61h-106l63 355q20 102 62 162q58 77 147 77h2q68 0 99 -41q24 -34 24 -89q0 -39 -6 -76l-70 -388h-108l-10 -61h280l10 61h-92 l74 410q6 39 6 64q0 86 -42 136t-136 50q-33 0 -66.5 -11.5t-64.5 -29.5t-55.5 -43t-40.5 -53q-18 139 -166 139q-70 0 -131.5 -38t-96.5 -93l21 115h-178l-11 -62h103l-105 -584h-102z" />
<glyph unicode="n" horiz-adv-x="761" d="M31 0h299l10 61h-117l64 355q23 104 75 168q67 73 159 73h3q66 0 94 -36q29 -35 29 -97l-4 -51l-74 -412h-112l-11 -61h285l10 61h-92l78 441l2 26l2 19q0 80 -49 127q-27 27 -58.5 37t-76.5 10q-35 0 -69 -9.5t-64 -23.5q-66 -35 -97 -90l21 109h-182l-11 -62h105 l-105 -584h-104z" />
<glyph unicode="o" horiz-adv-x="712" d="M104 268q0 -66 15.5 -117t42.5 -85q35 -43 82 -62.5t114 -19.5q150 0 252 116q92 109 117 256l8 37v53q0 121 -57 197q-68 82 -189 82q-150 0 -253 -109q-96 -102 -123 -251l-5.5 -16.5t-3.5 -18.5v-23v-39zM188 268l2 45l7 49q20 119 88 203q82 98 190 99q90 0 135 -70 q37 -60 37 -154q0 -41 -6 -80q-25 -127 -84 -208q-78 -104 -192 -105q-98 0 -140 68q-37 55 -37 153z" />
<glyph unicode="p" horiz-adv-x="761" d="M-29 -227h297l11 59h-115l53 301q41 -145 199 -145q143 0 246 116q80 98 108 254q0 6 3 21.5t3 30.5l4 49q0 119 -55 186q-63 76 -182 76q-166 0 -248 -150l24 134h-184l-12 -62h106l-143 -811h-104zM250 264l2 45l6 41q25 129 78 205q37 53 82 77.5t102 24.5 q96 0 139 -63q18 -29 28.5 -65t10.5 -85l-4 -45q-2 -8 -3 -13t-1 -9v-19q-25 -125 -86 -206q-78 -102 -192 -103q-88 0 -125 61.5t-37 153.5z" />
<glyph unicode="q" horiz-adv-x="761" d="M111 254q0 -59 14 -109q14 -51 37 -82q65 -77 179 -77h3q160 0 240 133l-52 -287h-104l-10 -59h287l10 59h-103l146 813h102l10 60h-178l-22 -121q-35 141 -193 141q-141 0 -244 -109q-88 -96 -112 -247q-6 -29 -6 -39l-2 -25q-2 -6 -2 -24v-27zM193 262l2 55l8 56 q20 117 88 196q41 47 86 68.5t102 21.5q92 0 129 -57q33 -45 33 -137l-2 -53l-8 -54q-25 -127 -78 -206q-72 -102 -184 -103q-96 0 -142 64q-34 50 -34 144v5z" />
<glyph unicode="r" horiz-adv-x="456" d="M27 0h313l10 59h-133l59 336q20 117 76 178q68 74 170 74l25 -2l10 68l-43 6q-66 0 -120 -37t-83 -88l21 111h-180l-13 -62h101l-103 -584h-100z" />
<glyph unicode="s" horiz-adv-x="610" d="M53 0h64l16 90q39 -100 174 -100q100 0 185 55q82 61 98 158l4 22v21q0 109 -184 143q-182 35 -183 105v10q2 2 2 12q23 76 66 105q50 36 119 36h4q145 0 145 -137l-4 -41l-2 -16h61l44 244h-64l-14 -76q-47 92 -156 92q-51 0 -96 -15.5t-86 -41.5q-78 -59 -96 -156 l-5 -23v-20q0 -106 181 -137q182 -31 182 -109v-14l-2 -14q-16 -68 -72 -103q-63 -39 -123 -39q-41 0 -69.5 13.5t-44.5 33.5q-39 47 -39 121v14l2 27h-62z" />
<glyph unicode="t" horiz-adv-x="456" d="M123 649h125l-80 -448l-2 -13q-6 -37 -6 -69q0 -61 24 -94q27 -33 84 -33q70 0 112 38t60 95q14 31 21 78h-66l-14 -60l-14 -37q-31 -53 -78 -53q-29 0 -40 17.5t-11 48.5l2 31l4 28l4 23l80 448h192l10 64h-192l31 170l-84 -27l-27 -143h-125z" />
<glyph unicode="u" horiz-adv-x="761" d="M137 647h103l-70 -391l-4 -25l-4 -28v-35q0 -88 41 -135q23 -27 55.5 -36t83.5 -9q55 0 85 10t46 20q63 37 94 93l-20 -111h184l10 63h-104l115 646h-199l-10 -62h119l-58 -321q-23 -123 -69 -189q-63 -88 -175 -88q-66 0 -90 37q-26 38 -26 92q0 37 6 78l80 453h-183z " />
<glyph unicode="v" horiz-adv-x="688" d="M125 645h61l107 -645h98l336 645h57l11 62h-232l-10 -62h90l-178 -358q-68 -121 -74 -142l-35 -77l-4 55l-6 55l-10 58l-6 51l-56 358h93l10 62h-242z" />
<glyph unicode="w" horiz-adv-x="1093" d="M135 645h62l79 -645h101l215 479l37 80l18 39q10 23 12 33l7 -49q0 -8 2 -15v-14v-21l2 -18v-14v-21l47 -479h102l307 645h62l10 62h-242l-10 -62h103l-205 -434q-14 -27 -20.5 -38t-14.5 -34l-25 -63l-8 135l-51 498h-98l-228 -496l-55 -135l-12 133l-49 434h102l10 62 h-250z" />
<glyph unicode="x" horiz-adv-x="712" d="M-10 0h241l11 53h-95l259 273l161 -273h-98l-10 -53h256l10 53h-68l-186 314l274 288h74l10 54h-239l-10 -54h86l-234 -247l-147 247h88l10 54h-250l-10 -54h72l172 -288l-299 -314h-68z" />
<glyph unicode="y" horiz-adv-x="688" d="M72 -233q10 -6 20 -7.5t19 -3.5h12h16q59 0 103.5 31t97.5 129l395 731h51l11 60h-234l-10 -60h100l-239 -457l-45 -90l-17 101l-78 446h99l10 60h-246l-10 -60h59l123 -647l-90 -139q-41 -37 -82 -37q-47 0 -53 6z" />
<glyph unicode="z" horiz-adv-x="634" d="M61 0h506l39 217h-67l-29 -156h-352l514 572l14 74h-491l-35 -201h69l25 139h334l-512 -567z" />
<glyph unicode="{" horiz-adv-x="737" d="M276 336q37 -12 50 -37q10 -14 13 -26.5t3 -30.5l-4 -49l-43 -242l-8 -47v-39q0 -80 43 -107q25 -14 58.5 -21t90.5 -7l10 67q-117 0 -116 94q0 23 6 54l45 252q6 39 6 61q0 74 -51 107q57 29 72 59q23 43 30 100l47 267q18 82 52 108q35 33 110 33l15 74h-19 q-111 0 -167 -47.5t-75 -153.5l-47 -270l-14 -52q-10 -23 -23 -39q-12 -18 -28.5 -29.5t-44.5 -19.5z" />
<glyph unicode="|" horiz-adv-x="737" d="M426 -244h82v1227h-82v-1227z" />
<glyph unicode="}" horiz-adv-x="737" d="M164 -270q119 0 179 44t79 154l47 269q8 55 35 90q27 37 74 49l10 61q-63 27 -64 86q0 27 6 58l41 241q2 8 7 29q2 6 2 23q0 8 2 14v12v14q0 80 -43 106t-150 26l-12 -70q117 0 117 -94q0 -23 -7 -56l-45 -251q-6 -35 -6 -62q0 -29 10 -63q14 -25 39 -43q-53 -29 -69 -64 q-23 -35 -31 -98l-47 -262q-4 -23 -10 -40.5t-11 -27.5q-8 -14 -15 -23.5t-15 -17.5q-39 -33 -111 -33z" />
<glyph unicode="~" horiz-adv-x="983" d="M195 334l45 -35l39 47l30 29q47 35 92 35q57 0 148 -56q53 -29 84 -41q39 -12 67 -12q68 0 129 49q27 20 50.5 46t46.5 59l-43 34q-47 -57 -70 -73q-10 -8 -23.5 -16.5t-21.5 -10.5q-18 -6 -28.5 -7t-18.5 -1q-49 0 -119 35q-61 37 -110 53q-49 18 -72 18q-66 0 -129 -47 q-47 -35 -96 -106z" />
<glyph unicode="&#xab;" horiz-adv-x="610" d="M168 346l61 -301h72l-55 301l162 299h-72zM377 346l63 -301h70l-57 301l163 299h-69z" />
<glyph unicode="&#xac;" horiz-adv-x="716" d="M49 317h535v-186h84v268h-619v-82z" />
<glyph unicode="&#xad;" horiz-adv-x="716" d="M96 317h635l14 82h-634z" />
<glyph unicode="&#xae;" horiz-adv-x="1161" d="M166 492q0 -211 151 -359q150 -147 361 -147t360 145q78 78 115 166.5t37 194.5q0 213 -151.5 360t-360.5 147t-363 -149q-150 -150 -149 -358zM223 492q0 190 131 321q135 135 324 135q190 0 323 -135q132 -131 132 -321q0 -184 -134 -322q-133 -133 -321 -133 q-190 0 -322 135q-133 133 -133 320zM457 193h61v258h162q20 0 36.5 -2.5t31.5 -4.5q35 -8 58 -21t30 -38q6 -16 7 -22.5t1 -18.5v-45v-43l4 -29l10 -34l62 2q-16 29 -18.5 65.5t-2.5 71.5q0 115 -86 143q98 43 98 148q0 82 -60 118.5t-146 36.5h-248v-585zM518 498v231h176 q66 0 111 -26t45 -85q0 -68 -53 -98q-31 -18 -63 -20t-54 -2h-162z" />
<glyph unicode="&#xb0;" horiz-adv-x="540" d="M66 713q0 41 15 77.5t43 64.5t63.5 44t78.5 16t80 -15t64.5 -43t44 -64.5t16.5 -79.5t-16.5 -80t-44 -64.5t-64.5 -43t-80 -15.5q-41 0 -76.5 15.5t-63.5 43t-44 64.5t-16 80zM121 713q0 -59 43 -103.5t102 -44.5q61 0 105 43q45 45 45 105q0 59 -44.5 102t-105.5 43 t-103 -42t-42 -103z" />
<glyph unicode="&#xb6;" horiz-adv-x="661" d="M-8 698q0 43 7 74t19 57q43 70 113 104t180 34h355v-37h-95v-1243h-55v1243h-133v-1243h-49v741q-70 4 -121 12.5t-84 24.5q-70 33 -100 92q-37 68 -37 141z" />
<glyph unicode="&#xb7;" horiz-adv-x="337" d="M96 449q0 31 20.5 51t53.5 20q31 0 51.5 -21.5t20.5 -49.5q0 -31 -21.5 -52.5t-50.5 -21.5q-33 0 -53.5 20.5t-20.5 53.5z" />
<glyph unicode="&#xbb;" horiz-adv-x="610" d="M117 43h69l168 299l-63 301h-70l58 -301zM326 43h69l168 299l-63 301h-70l55 -301z" />
<glyph unicode="&#xd7;" horiz-adv-x="716" d="M82 119l47 -58l283 240l196 -240l68 58l-197 239l281 240l-47 57l-281 -239l-199 239l-67 -57l199 -240z" />
<glyph unicode="&#xf7;" horiz-adv-x="716" d="M96 317h635l14 82h-634zM309 141l2 -30q4 -8 6 -13.5t5 -9.5q18 -20 49 -20l30 6q8 6 13 6q4 2 6 4t6 4q29 29 31 53l2 17q0 20 -15 35q-18 23 -47 22l-30 -6q-20 -10 -27 -19q-29 -23 -31 -49zM385 561q0 -25 12 -39q18 -20 49 -20q35 6 56 20q27 26 33 53q0 35 -13 54 q-14 20 -49 20q-20 -4 -31 -8q-20 -8 -28 -14q-12 -12 -19.5 -23.5t-7.5 -28.5z" />
<glyph unicode="&#xe00;" horiz-adv-x="204" />
<glyph unicode="&#xe01;" horiz-adv-x="780" d="M113 0h82l67 385q14 76 68 125q31 29 60.5 42t66.5 17l10 62q-37 18 -90 31q-59 18 -119 24l70 35l47 18q47 23 76 23h49q92 0 141 -42t49 -124q-2 -2 -2 -21l-2 -22l-98 -553h80l100 571l4 25v25q0 98 -71.5 153t-184.5 55q-102 0 -203 -49l-73 -43l-72 -43l-10 -57 l61 -4l37 -4l57 -13l60 -16q-88 -33 -133 -90q-25 -31 -39.5 -60.5t-20.5 -68.5z" />
<glyph unicode="&#xe02;" horiz-adv-x="794" d="M102 586q0 -23 7 -47q8 -18 22 -37q35 -29 78 -29q47 0 92 39q23 18 37 45q12 23 16 51q2 4 2 13v12q0 96 -98 96l25 14q18 10 26 13q16 4 29.5 6t40.5 2q53 0 90 -31q37 -29 37 -74l-4 -36q-6 -27 -45 -68q-80 -90 -92 -156l-58 -327h-108l-13 -72h269q57 0 102 12.5 t78 32.5q63 45 82 148l110 626h-82l-106 -604q-10 -43 -23.5 -71.5t-33 -44t-49 -21.5t-72.5 -6h-74l57 321q12 51 93 154q37 49 43 82l6 47q0 78 -54.5 115.5t-142.5 37.5q-27 0 -48.5 -4t-45.5 -12q-47 -18 -88 -47q-90 -66 -103 -152q-2 -4 -2 -28zM166 586l2 16 q12 70 72 70q27 -2 39 -21q12 -12 12 -35l-2 -14q-2 -14 -13 -27l-16 -22q-23 -20 -45 -21q-31 6 -39 19q-10 16 -10 35z" />
<glyph unicode="&#xe03;" horiz-adv-x="794" d="M96 549q0 -51 29 -84q16 -16 35.5 -22.5t42.5 -6.5q25 0 49 11.5t43 27.5q25 23 36 46.5t17 51.5l2 23q0 41 -26 72q-29 29 -74 28q14 14 37 31l22 16l17 9q8 -10 18 -19.5t21 -17.5q12 -14 28 -23l82 58l17 -21q8 -8 10 -18q10 -18 10 -52l-4 -41q-6 -25 -70 -96 q-59 -70 -76 -139l-55 -311h-108l-13 -72h269q57 0 102 12.5t78 32.5q63 45 82 148l110 626h-82l-106 -604q-10 -43 -23.5 -71.5t-33 -44t-49 -21.5t-72.5 -6h-72l53 299q10 57 99 164q39 51 45 83l6 50q0 55 -29 96q-14 23 -30.5 37t-36.5 28l-90 -61l-66 61 q-88 -31 -152 -92q-78 -74 -90 -157q-2 -4 -2 -31zM164 553v12q10 35 22 45q27 18 47 19q23 0 39 -19q15 -20 13 -45q-6 -23 -27 -43q-29 -18 -47 -18q-29 6 -39 16q-8 16 -8 33z" />
<glyph unicode="&#xe04;" horiz-adv-x="798" d="M121 0h80l12 37l10 47l13 53q0 2 3 17.5t3 23.5q8 51 43 129q14 35 30.5 63.5t32.5 51.5q12 -39 37 -57q33 -18 59 -19q51 0 97 39q47 41 53 96q2 4 2 13v12q0 45 -29 74q-29 31 -75 30q-78 0 -148 -82q-59 -66 -106 -184l2 113l14 116q8 37 30.5 70t55.5 59.5t75 42 t91 15.5t89 -14.5t62 -36.5q45 -45 45 -123l-4 -47l-94 -539h82l96 551q6 32 6 55q0 109 -73 164q-39 33 -86 45q-43 14 -109 14q-127 0 -227 -75q-102 -78 -121 -181l-6 -45q-4 -16 -5 -31.5t-1 -27.5v-55l-2 -66v-121l-4 -82l-2 -32l-7 -35zM406 469v12q8 31 26 45 q27 18 47 19q29 0 40 -17.5t11 -33.5v-13q-6 -35 -29.5 -52t-45.5 -17q-29 6 -39 21.5t-10 35.5z" />
<glyph unicode="&#xe05;" horiz-adv-x="798" d="M115 0h82q8 16 15 39.5t11 58.5l17 72l26 76q39 90 74 155q23 -41 41 -51q27 -14 59 -14q53 0 98.5 38t51.5 91q2 2 2 12v12q0 47 -32 78t-75 31q-133 0 -233 -233l-19 -64l3 53l2 76l6 70l8 63q4 12 9 31.5t9 28.5q14 27 37 55q45 55 109 76l90 -95l119 95 q51 -20 67 -47q14 -18 16.5 -29.5t4.5 -24.5v-22l-4 -43l-105 -588h82l107 600l4 27v18q0 70 -47 123q-49 49 -127 61l-101 -73l-73 73q-104 -18 -182.5 -90.5t-96.5 -183.5q-10 -37 -10 -66l-4 -67q0 -20 -1 -52t-1 -44v-80q0 -90 -13 -160l-10 -43l-8 -23zM397 446l2 19 q6 29 25.5 48t48.5 19q31 -4 41 -20.5t10 -34.5v-12q-14 -70 -75 -70q-27 0 -41 19q-10 16 -11 32z" />
<glyph unicode="&#xe06;" horiz-adv-x="849" d="M119 547q0 -47 28 -80q29 -29 74 -29q20 0 45 11q35 20 63.5 51.5t28.5 60.5l4 27q0 35 -24 59q-29 35 -78 35q8 14 29 35q14 14 25.5 23.5t19.5 13.5l69 -64l89 58l12 -15q4 -4 8 -16q6 -10 6 -19l2 -22l-4 -35q-10 -29 -110 -135q-47 -51 -58 -107l-16 -102 q-76 0 -132.5 -46t-68.5 -112q-2 -4 -2 -26q0 -53 34 -87t83 -34q61 0 106 39q49 47 62 108l2 21q0 8 -4 16l-4 17l-7 14q39 -14 73 -34.5t67 -47.5q72 -59 106 -125h90l146 819h-82l-127 -719q-51 68 -133 119q-20 14 -33.5 21.5t-36.5 15.5q-14 8 -30.5 15.5t-32.5 11.5 l18 100q8 43 111 154q45 51 57 110l4 23v10q0 51 -24.5 91t-55.5 60l-100 -63l-68 63q-66 -20 -143 -102q-74 -76 -86 -156q-2 -4 -2 -26zM180 547l2 12q10 33 23 43q20 18 45 19q25 0 37 -19q12 -13 12 -31l-2 -12q-6 -25 -26.5 -42t-41.5 -17q-29 6 -39 16q-10 16 -10 31z M207 117l2 22q18 82 78 82q53 0 53 -59v-10l-2 -13q-6 -43 -31 -61q-20 -20 -49 -21q-31 2 -41 19.5t-10 40.5z" />
<glyph unicode="&#xe07;" horiz-adv-x="657" d="M96 547l369 -547h80l119 676l2 8v10v13q0 55 -34 88.5t-89 33.5q-61 0 -113 -45q-27 -25 -40 -49t-19 -59q-2 -2 -2 -25q0 -29 8 -53q10 -25 24 -41q20 -20 40 -27.5t48 -7.5q47 0 72 19l-76 -428l-321 481zM438 655l2 21q6 35 31 59.5t55 24.5q33 0 49 -25 q13 -16 13 -39l-2 -20q-8 -35 -33 -60q-29 -25 -55 -24q-31 0 -45 20q-14 23 -15 43z" />
<glyph unicode="&#xe08;" horiz-adv-x="733" d="M104 598l72 -25q23 41 55 76q18 20 31.5 32.5t30.5 25.5q76 53 162 53q80 0 133 -47q49 -49 49 -127v-23l-4 -24l-53 -306l-11 -104l-14 84l-41 115l-41 102q-47 90 -129 90q-57 0 -104 -41t-56 -94q-2 -2 -2 -25q0 -51 33 -86q35 -33 82 -32q20 0 39 6l37 20 q43 33 57 62q10 -18 19.5 -39t15.5 -39q10 -27 18.5 -52.5t10.5 -35.5q18 -45 24 -82q8 -29 10 -45.5t7 -36.5h86l96 547q6 32 6 57q0 106 -72 166q-39 33 -82 45q-43 14 -100 14q-117 0 -217 -69q-94 -63 -148 -162zM254 367v14q10 37 25 51q27 20 49 21q27 -2 41 -21 q12 -16 12 -39v-6l-2 -8q-10 -35 -30.5 -51.5t-45.5 -16.5q-31 4 -40 19.5t-9 36.5z" />
<glyph unicode="&#xe09;" horiz-adv-x="796" d="M113 387q0 -29 7 -47t21 -35q33 -33 78 -33l33 2l-8 -10q-2 -4 -4 -9t-4 -15l-43 -240h88q45 55 96 94q14 10 26.5 18.5t22.5 14.5l53 27q-6 -29 -6 -45q0 -53 31 -83t80 -30q57 0 102 41t55 102q2 2 2 21q0 18 -6 35.5t-14 27.5q-18 27 -43 37q57 47 70 115l32 188 q6 33 6 53q0 106 -73 160q-37 29 -82 41t-107 12q-106 0 -206.5 -63.5t-149.5 -147.5l72 -24q45 78 122.5 122t147.5 44q98 0 144 -46t46 -116l-4 -41l-30 -178q-18 -59 -47 -82l-70 -37l-123 -57q-41 -23 -70.5 -43.5t-62.5 -48.5l22 133q8 39 31 80q10 16 14.5 25t8.5 20 q6 14 10 45q2 4 2 22q0 51 -33 82q-29 35 -80 35q-55 0 -102 -41q-25 -20 -37 -45t-14 -43zM178 397l2 15q8 33 29 53q23 23 49 22q33 -2 43 -22q12 -19 12 -35l-2 -18q-10 -35 -28 -54q-29 -23 -52 -22q-35 6 -43 20q-10 25 -10 41zM545 119l2 18q6 33 28.5 54.5t45.5 21.5 q29 -4 40 -23.5t11 -37.5l-2 -15q-8 -39 -31 -59.5t-45 -20.5q-29 2 -39 20.5t-10 41.5z" />
<glyph unicode="&#xe0a;" horiz-adv-x="800" d="M102 586q0 -23 7 -47q8 -18 22 -37q35 -29 78 -29q47 0 92 39q23 18 37 45q12 23 16 51q2 4 2 13v12q0 96 -98 96l25 14q18 10 26 13q16 4 29.5 6t40.5 2q53 0 90 -31q37 -29 37 -74l-4 -36q-6 -27 -45 -68q-80 -90 -92 -156l-58 -327h-108l-13 -72h275q57 0 102 12.5 t78 32.5q63 45 82 148l51 294q2 4 2 13v12q0 100 -104 131q76 31 125 98q47 59 59 129h-88q-16 -78 -57 -125q-53 -59 -127 -77q0 78 -56 118q-53 43 -139 43q-27 0 -48.5 -4t-45.5 -12q-47 -18 -88 -47q-90 -66 -103 -152q-2 -4 -2 -28zM166 586l2 16q12 70 72 70 q27 -2 39 -21q12 -12 12 -35l-2 -14q-2 -14 -13 -27l-16 -22q-23 -20 -45 -21q-31 6 -39 19q-10 16 -10 35zM387 72l57 321q12 49 43 92q41 57 63.5 88t24.5 37q63 -12 87 -35q31 -35 30 -71v-15l-2 -14l-45 -260q-10 -43 -23.5 -71.5t-33 -44t-49 -21.5t-72.5 -6h-80z" />
<glyph unicode="&#xe0b;" horiz-adv-x="802" d="M96 549q0 -51 29 -84q16 -16 35.5 -22.5t42.5 -6.5q25 0 49 11.5t43 27.5q25 23 36 46.5t17 51.5l2 23q0 41 -26 72q-29 29 -74 28q14 14 37 31l22 16l17 9q8 -10 18 -19.5t21 -17.5q12 -14 28 -23l82 58l17 -21q8 -8 10 -18q10 -18 10 -52l-4 -41q-6 -25 -70 -96 q-59 -70 -76 -139l-55 -311h-108l-13 -72h277q57 0 102 12.5t76 32.5q66 47 84 148l51 294q2 4 2 13v12q0 100 -104 131q76 31 125 98q47 59 59 129h-88q-16 -74 -57 -127q-53 -59 -121 -73q0 41 -19.5 76.5t-42.5 56.5q-8 8 -16 14t-18 12l-90 -61l-66 61q-88 -31 -152 -92 q-78 -74 -90 -157q-2 -4 -2 -31zM164 553v12q10 35 22 45q27 18 47 19q23 0 39 -19q15 -20 13 -45q-6 -23 -27 -43q-29 -18 -47 -18q-29 6 -39 16q-8 16 -8 33zM389 72l53 299q6 29 25 63q20 39 45 66q31 37 48.5 64.5t23.5 45.5q111 -18 110 -106v-15l-2 -14l-45 -260 q-10 -43 -23.5 -71.5t-33 -44t-49 -21.5t-72.5 -6h-80z" />
<glyph unicode="&#xe0c;" horiz-adv-x="1128" d="M135 109q0 -55 32 -86t83 -31q55 0 106 41q49 41 60 104l2 17v12q0 55 -32 87t-83 32q-35 0 -61 -17l16 97q14 80 68 129q61 55 127 55l12 61q-78 43 -213 58l106 59q63 33 123 33q86 0 132 -39t46 -98l-4 -35l-43 -211q-6 -35 -6 -53q0 -41 29 -66q-18 -6 -37.5 -19.5 t-37 -29.5t-29 -31.5t-13.5 -26t-3 -17.5t-1 -11v-21q0 -49 32 -79.5t77 -30.5q31 0 60.5 13t52 35.5t35.5 52.5t13 61q51 -29 84 -62q27 -27 41 -49q18 -29 21 -43h86l145 819h-80l-125 -704q-23 31 -45 49t-59 41l-96 47q-20 14 -33.5 23.5t-22.5 15.5q-10 16 -10 45l4 39 l43 221q4 12 4 33v14q0 92 -62.5 139t-172.5 47q-102 0 -197 -55l-145 -100l-10 -58q23 0 48 -3t56 -7l64 -10l43 -12q-78 -31 -126.5 -87.5t-60.5 -119.5l-41 -240q-2 -4 -2 -28zM207 117l2 18q6 37 27.5 58.5t54.5 21.5q31 0 43 -25q14 -24 12 -55q-8 -35 -31 -57 q-16 -14 -26 -18.5t-27 -4.5q-33 2 -44 20.5t-11 41.5zM586 115v14q10 35 26 49q27 20 50 21q29 -2 41 -21t12 -37l-2 -12q-6 -37 -27 -53q-20 -20 -49 -21q-27 2 -41 21q-10 20 -10 39z" />
<glyph unicode="&#xe0d;" horiz-adv-x="1089" d="M135 109q0 -55 32 -86t83 -31q55 0 106 41q49 41 60 104l2 17v12q0 55 -32 87t-83 32q-35 0 -61 -17l16 97q14 80 68 129q61 55 127 55l12 61q-78 43 -213 58l106 59q63 33 123 33q86 0 132 -39t46 -100l-2 -33l-92 -516h-69l-13 -72h267q117 0 180 46t82 147l110 626 l-84 -2l-104 -602q-10 -43 -23.5 -71.5t-33 -44t-49 -21.5t-72.5 -6h-111l92 524l2 27l2 18q0 86 -65.5 137t-169.5 51q-102 0 -197 -55l-145 -100l-10 -58q23 0 48 -3t56 -7l64 -10l43 -12q-78 -31 -126.5 -87.5t-60.5 -119.5l-41 -240q-2 -4 -2 -28zM207 117l2 18 q6 37 27.5 58.5t54.5 21.5q31 0 43 -25q14 -24 12 -55q-8 -35 -31 -57q-16 -14 -26 -18.5t-27 -4.5q-33 2 -44 20.5t-11 41.5zM418 -184q0 -61 55 -95q25 -16 66 -26q23 -4 36 -6t50 -2q141 0 234 65t130 176h-80q-68 -180 -268 -180h-25q-4 2 -24 2l18 19l17 20 q18 20 18 39q4 16 4 31q0 43 -26.5 69.5t-69.5 26.5q-47 0 -86 -33q-10 -10 -19.5 -17t-13.5 -16q-10 -16 -12 -32zM479 -180l2 18q10 31 23 43l20 15q12 4 19 4q25 -2 35 -17q10 -21 10 -33l-2 -12q-12 -63 -66 -63q-41 0 -41 45z" />
<glyph unicode="&#xe0e;" horiz-adv-x="829" d="M-12 -250q0 -72 39 -98q41 -33 80.5 -34t56.5 -1q80 0 152.5 48t115.5 118q43 -37 73 -77t54 -93h90l172 983l2 27l2 18q0 86 -65.5 137t-169.5 51q-80 0 -154 -30l-184 -105l-10 -57l57 -2l55 -8l68 -15l31 -8q-78 -31 -119 -86q-43 -55 -49 -121l-17 -129 q-12 8 -24.5 12.5t-32.5 4.5q-29 0 -56.5 -11.5t-50 -32t-39 -47t-20.5 -57.5q-2 -4 -2 -26q0 -57 31.5 -88t83.5 -31q55 0 106 41q31 23 39 47q14 18 21 57l36 248q8 41 23 72q16 37 37 57q51 55 121 55l10 62q-74 41 -211 57q88 45 104 49q45 23 74 23h47q86 0 132 -39 t46 -100l-2 -33l-153 -867q-25 45 -60 76l-26 25l-35 26l10 23l12 37q14 31 15 55h-78l-8 -35l-6 -24l-9 -21q-23 12 -38 19l-46 12q-25 6 -45 6h-32l-74 -6q-59 -16 -115 -53q-59 -49 -65 -111zM61 -256q0 41 37 72q39 33 62 34l37 7h22q39 0 85.5 -12.5t62.5 -30.5 l-25 -37q-10 -10 -18.5 -19.5t-16.5 -17.5q-39 -37 -78 -49l-36 -13l-35 -2q-39 0 -68 18.5t-29 49.5zM113 117l2 18q10 39 28 55q27 25 56 25q33 -4 44 -22t11 -41l-2 -17q-18 -59 -41 -69.5t-41 -10.5q-31 0 -45 25q-12 18 -12 37z" />
<glyph unicode="&#xe0f;" horiz-adv-x="843" d="M-33 -289q0 -39 33 -65q39 -33 92 -33q100 0 178 78l37 -45l12 -17l9 -16h53l98 86l76 -86h94l172 983l2 27l2 18q0 86 -65.5 137t-169.5 51q-80 0 -154 -30l-184 -105l-10 -57l57 -2l55 -8l68 -15l31 -8q-78 -31 -119 -86q-43 -55 -49 -121l-17 -129q-12 8 -24.5 12.5 t-32.5 4.5q-29 0 -56.5 -11.5t-50 -32t-39 -47t-20.5 -57.5q-2 -4 -2 -26q0 -57 31.5 -88t83.5 -31q55 0 106 41q31 23 39 47q14 18 21 57l36 248q8 41 23 72q16 37 37 57q51 55 121 55l10 62q-74 41 -211 57q88 45 104 49q45 23 74 23h47q86 0 132 -39t46 -100l-2 -33 l-157 -893l-88 96l-125 -102l-56 67q23 33 29 64l8 26l8 41h-77l-13 -45l-10 -37q-47 43 -119 43q-61 0 -112 -34q-49 -35 -60 -88zM39 -272q6 27 31 41q27 14 59 14q67 0 92 -47q-23 -31 -51 -43q-8 -4 -16.5 -8t-16.5 -7l-33 -2q-31 2 -47 17q-18 20 -18 35zM113 117l2 18 q10 39 28 55q27 25 56 25q33 -4 44 -22t11 -41l-2 -17q-18 -59 -41 -69.5t-41 -10.5q-31 0 -45 25q-12 18 -12 37z" />
<glyph unicode="&#xe10;" horiz-adv-x="714" d="M-61 -295v-10q0 -35 26 -60q35 -29 74 -28q23 0 39 4t36.5 12t39 19.5t34.5 25.5q25 -29 31 -55h70l90 61l70 -61h90l43 248l2 16q0 33 -21 53q-29 29 -74 29q-47 0 -81.5 -28.5t-40.5 -69.5l-2 -17q0 -33 20 -53q29 -29 70 -29l24 5l10 4l-16 -97l-82 70l-117 -76 l-36 60q6 4 11 11t9 15q4 10 7 16.5t7 18.5q14 39 19 59h-70l-8 -32l-8 -21l-10 -20q-8 10 -19.5 17t-23.5 11q-14 8 -27 9q-6 2 -35 2q-27 0 -49 -9q-10 -4 -22.5 -10t-22.5 -14q-51 -33 -57 -76zM2 -297q8 25 26.5 37t41.5 12q66 0 84 -37q-14 -20 -45 -37 q-10 -4 -17.5 -8t-11.5 -6l-25 -2q-27 0 -41 12q-12 14 -12 29zM104 596h115q219 0 301 -35q80 -35 80 -92v-10q-2 -2 -2 -13l-39 -223l-6 -94l-16 96q-14 47 -37 107l-25 57l-20 47q-49 84 -127 84q-59 0 -105 -39q-45 -43 -55 -96q-2 -2 -2 -25q0 -53 32.5 -85.5 t82.5 -32.5q43 0 86 37q37 31 47 59q20 -41 35.5 -84t27.5 -84q29 -86 43 -170h82l80 453l4 16v18q0 117 -162 156q-84 20 -295 21l72 53q74 43 143 43q20 0 50 -6q8 -2 27.5 -10.5t25.5 -10.5q55 -27 94 -26q10 0 18.5 1t16.5 3q14 2 31 12l30 20l29 23l-49 51 q-39 -35 -52.5 -37t-29.5 -2q-8 0 -23 6l-47 19q-23 10 -42 18t-64 8q-121 0 -240 -98q-80 -68 -104 -80zM238 367v14q6 33 24 51q27 20 49 21q29 -2 40 -20.5t11 -39.5v-6v-8q-14 -37 -30 -51q-27 -16 -45 -17q-31 4 -40 19.5t-9 36.5zM424 -141q8 43 51 43q25 0 33 -12.5 t6 -30.5q-12 -43 -53 -43l-19 6l-12 8q-8 14 -6 29z" />
<glyph unicode="&#xe11;" horiz-adv-x="876" d="M100 559q0 -12 2 -24.5t4 -22.5q4 -12 10.5 -21.5t10.5 -15.5q29 -29 72 -29q51 0 91 39t48 86q2 2 2 21q0 47 -31 72q-27 27 -80 26q39 47 72 60l51 -58l72 58l14 -19l13 -18q8 -18 8 -47v-11q-2 -2 -2 -12q-2 -12 -8.5 -26.5t-12.5 -24.5q-8 -14 -17 -29.5t-24 -32.5 q-57 -72 -86.5 -121t-34.5 -77l-59 -332h117l416 743q49 0 49 -63l-4 -51l-111 -629h82l115 649l4 25v24q0 57 -32 89t-91 32h-51l-363 -651l-41 -86l25 98l24 146l90 159l86 160l2 10v11v12q0 51 -26.5 91t-65.5 60l-75 -59l-54 59q-78 -35 -135 -98q-59 -72 -72 -139 l-4 -23v-10zM170 567q10 33 22.5 43.5t19.5 13.5t19 3q20 0 31.5 -20t9.5 -40q-2 -10 -10 -22l-14 -19q-12 -12 -19 -14l-18 -2q-20 0 -33 18q-10 25 -8 39z" />
<glyph unicode="&#xe12;" horiz-adv-x="1161" d="M133 0h90q16 29 54 73t96 105l61 66l111 112l37 50q14 20 14 40q2 8 3 16.5t1 18.5q0 49 -31.5 81t-81.5 32q-27 0 -52 -11.5t-46.5 -29.5t-36 -44t-18.5 -52q-2 -2 -2 -25q0 -47 24 -74q29 -29 64 -34l-45 -45l-94 -101l-48 -65q8 20 13 43q6 27 6 43q2 6 2 26l2 23v12 v35q-4 12 -4 72l-2 106l2 14v15v18l6 45q16 74 57 121q10 14 22.5 23.5t24.5 17.5q23 16 52 23l90 -88l104 86q86 -31 86 -105l-4 -37l-45 -235q-4 -12 -4 -23v-20q0 -14 1 -20.5t3 -18.5q10 -25 17 -31q-45 -8 -80 -47q-33 -35 -38 -58.5t-5 -50.5q0 -25 8 -47 q8 -20 20 -35q35 -29 78 -28q59 0 107 45q49 49 55 113l47 -31l39 -29q51 -49 68 -90h88l145 819h-82l-127 -710q-51 59 -106 90l-103 53l-33 20l-10 11q-12 14 -12 45q0 18 6 47l51 260l2 8v10v13q0 61 -46 106t-126 57l-90 -75l-82 75q-96 0 -172 -79q-76 -76 -92 -181 q-6 -23 -6 -32l-2 -33l-2 -58l4 -34v-56l4 -80l2 -34l-2 -56l-8 -53l-12 -63zM399 444l2 15q10 31 25 45q20 20 47 20q31 -4 41 -20.5t10 -34.5v-12q-10 -35 -26 -49q-29 -18 -47 -19q-29 0 -40.5 16.5t-11.5 38.5zM608 111l2 18l11 27l14 20q27 20 49 21q27 -2 38 -21 t11 -35v-12q-16 -72 -74 -72q-27 2 -41 21q-10 16 -10 33z" />
<glyph unicode="&#xe13;" horiz-adv-x="1112" d="M135 109q0 -55 32 -86t83 -31q55 0 106 41q49 41 60 104l2 17v12q0 55 -32 87t-83 32q-35 0 -61 -17l16 97q14 80 68 129q61 55 127 55l12 61q-78 43 -213 58l106 59q63 33 123 33q86 0 132 -39t46 -100l-2 -33l-104 -588h88q63 82 154 147q-4 -16 -4 -20v-21 q0 -55 30 -86q35 -29 78 -28q57 0 102 39q43 43 54 98l2 14v13q0 82 -68 110q23 14 34 25.5t19 25.5q18 35 25 72l78 430h-82l-74 -416q-14 -86 -119 -139q-154 -88 -217 -147l84 479l2 27l2 18q0 86 -65.5 137t-169.5 51q-102 0 -197 -55l-145 -100l-10 -58q23 0 48 -3 t56 -7l64 -10l43 -12q-78 -31 -126.5 -87.5t-60.5 -119.5l-41 -240q-2 -4 -2 -28zM207 117l2 18q6 37 27.5 58.5t54.5 21.5q31 0 43 -25q14 -24 12 -55q-8 -35 -31 -57q-16 -14 -26 -18.5t-27 -4.5q-33 2 -44 20.5t-11 41.5zM860 119l2 18q6 33 27.5 54.5t46.5 21.5 q29 -4 39 -22.5t10 -38.5v-15q-12 -41 -29 -57q-23 -23 -47 -23q-27 2 -38 20.5t-11 41.5z" />
<glyph unicode="&#xe14;" horiz-adv-x="808" d="M135 0h86l58 72l75 88q20 23 42 47t44 47l86 86q16 16 28.5 30.5t20.5 28.5q20 31 25 50q4 20 4 34q0 51 -32.5 82t-82.5 31q-53 0 -98 -41q-47 -45 -51 -84l-4 -39q0 -86 84 -108l-51 -52q-29 -29 -54.5 -57.5t-48.5 -58.5l-39 -60l19 97l8 51v71l-4 17v20v37 q-2 16 -2 27v22v43q0 37 6 78q16 82 90 139q76 61 166 62q102 0 156 -53q49 -53 49 -125l-4 -43l-95 -539h82l97 549q4 17 4 37v16q0 109 -78 168q-39 33 -88 45q-49 14 -109 14q-127 0 -229 -75q-104 -74 -123 -181l-6 -28l-2 -35l-2 -31v-24q0 -41 6 -111q6 -72 6 -102 q0 -31 -6 -74l-8 -51zM401 442l2 19q6 29 25 47q20 20 47 20q33 -6 43 -20.5t10 -32.5l-2 -18q-10 -35 -26 -51q-20 -20 -47 -21q-31 4 -41 23q-10 20 -11 34z" />
<glyph unicode="&#xe15;" horiz-adv-x="808" d="M133 0h86l57 72l76 88q20 23 42 47t44 47l86 86q16 16 28.5 30.5t20.5 28.5q20 31 25 50q4 20 4 34q0 51 -32.5 82t-82.5 31q-53 0 -98 -41q-47 -45 -51 -84l-4 -39q0 -86 84 -108l-51 -52q-29 -29 -54.5 -57.5t-48.5 -58.5l-39 -58q12 47 14.5 60.5t4.5 25.5v27 q6 45 6 129v37l-2 31v65l2 14v17v20l4 17v26q8 33 25.5 65t40 56.5t46 39.5t44.5 20l104 -99l119 96q43 -23 59 -53q25 -35 25 -92v-25l-4 -28l-97 -547h80l103 578l4 24v23q0 41 -12 71q-6 16 -14.5 31.5t-20.5 28.5q-49 55 -117 73l-111 -88l-90 88q-92 -14 -170 -90 q-78 -72 -96 -170l-6 -28l-2 -35l-2 -57l4 -35v-56l4 -79l2 -37l-2 -58l-6 -49l-19 -74zM399 442l2 19q6 29 25 47q20 20 47 20q33 -6 43 -20.5t10 -32.5l-2 -18q-10 -35 -26 -51q-20 -20 -47 -21q-31 4 -41 23q-10 20 -11 34z" />
<glyph unicode="&#xe16;" horiz-adv-x="780" d="M135 109q0 -55 32 -86t83 -31q55 0 106 41q49 41 60 104l2 17v12q0 55 -32 87t-83 32q-35 0 -61 -17l20 117q14 76 68 125q31 29 60.5 42t66.5 17l10 62q-37 18 -90 31q-59 18 -119 24l70 35l47 18q47 23 76 23h49q92 0 141 -42t49 -124q-2 -2 -2 -21l-2 -22l-98 -553h80 l100 571l4 25v25q0 98 -71.5 153t-184.5 55q-102 0 -203 -49l-73 -43l-72 -43l-10 -57l61 -4l37 -4l57 -13l60 -16q-88 -33 -133 -90q-25 -31 -39.5 -60.5t-20.5 -68.5l-43 -244q-2 -4 -2 -28zM207 117l2 18q6 37 27.5 58.5t54.5 21.5q31 0 43 -25q14 -24 12 -55 q-8 -35 -31 -57q-16 -14 -26 -18.5t-27 -4.5q-33 2 -44 20.5t-11 41.5z" />
<glyph unicode="&#xe17;" horiz-adv-x="835" d="M139 655q0 -55 31 -88q33 -33 84 -32l31 2l-9 -13q-4 -4 -8 -24l-88 -500h88l326 653q23 49 43 70q33 35 63 35q59 0 60 -70l-4 -35l-115 -653h82l119 674l2 8v10v13q0 51 -31 88q-35 37 -96 36q-59 0 -101.5 -35.5t-72.5 -99.5l-217 -438l-50 -113l39 158l35 203 q8 25 16.5 47t18.5 43q31 53 37 88l2 14v13q0 55 -33 87.5t-86 32.5q-61 0 -106 -43q-47 -41 -58 -104q-2 -4 -2 -27zM211 659l2 21q6 37 27 55q27 25 53 25q33 0 45 -25q14 -24 12 -55q-8 -35 -31 -57q-16 -14 -26 -18.5t-27 -4.5q-33 2 -44 20.5t-11 38.5z" />
<glyph unicode="&#xe18;" horiz-adv-x="735" d="M57 0h330q117 0 186.5 56.5t85.5 148.5l37 213q4 20 4 37q0 119 -165 159q-39 10 -67 14.5t-52 4.5h-21q-16 0 -49 2q-31 2 -57 2h-49l86 80q35 25 59 33q31 10 59 10q14 0 52 -10l84 -29q23 -10 38 -12l44 -4q20 0 35.5 4t31.5 12q32 20 57 45l-47 53l-18 -18l-14 -10 q-23 -14 -50 -15q-10 4 -19 7t-17 8q-4 2 -8.5 3t-8.5 3l-51 14q-53 18 -94 18q-102 0 -193 -77l-76 -68l-59 -53l-10 -60h37h57q92 0 154.5 -5t111.5 -15q133 -37 133 -119l-2 -24l-34 -195q-29 -141 -193 -141h-143l69 393h-84l-69 -393h-88z" />
<glyph unicode="&#xe19;" horiz-adv-x="831" d="M139 655q0 -55 31 -88q33 -33 84 -32l31 2l-9 -13q-4 -4 -8 -24l-88 -500h90q20 23 47 45.5t62 44.5q74 49 133 68q-12 -41 -12 -60q0 -49 30 -80q29 -27 76 -26q31 0 58.5 12t49 31.5t35 45t17.5 52.5l2 17v12q0 76 -61 100l30 27q31 33 37 82l80 448h-82l-78 -434 q-18 -84 -139 -137q-203 -94 -274 -148l69 404q8 25 16.5 47t18.5 43q31 53 37 88l2 14v13q0 55 -33 87.5t-86 32.5q-61 0 -106 -43q-47 -41 -58 -104q-2 -4 -2 -27zM211 659l2 21q6 37 27 55q27 25 53 25q33 0 45 -25q14 -24 12 -55q-8 -35 -31 -57q-16 -14 -26 -18.5 t-27 -4.5q-33 2 -44 20.5t-11 38.5zM569 115l2 18q12 35 27 49q20 18 45 19q31 -4 39 -21q12 -16 12 -30l-2 -17q-8 -37 -26 -51q-27 -20 -48 -21q-49 0 -49 54z" />
<glyph unicode="&#xe1a;" horiz-adv-x="849" d="M76 0h426q57 0 102 12.5t78 32.5q63 45 82 148l110 626h-81l-107 -604q-10 -43 -23.5 -71.5t-33 -44t-49 -21.5t-72.5 -6h-234l76 432q8 25 16.5 47t18.5 43q31 53 37 88l2 14v13q0 55 -33 87.5t-86 32.5q-61 0 -106 -43q-47 -41 -58 -104q-2 -4 -2 -27q0 -55 31 -88 q33 -33 84 -32l31 2l-9 -13q-4 -4 -8 -24l-75 -428h-105zM211 659l2 21q6 37 27 55q27 25 53 25q33 0 45 -25q14 -24 12 -55q-8 -35 -31 -57q-16 -14 -26 -18.5t-27 -4.5q-33 2 -44 20.5t-11 38.5z" />
<glyph unicode="&#xe1b;" horiz-adv-x="849" d="M76 0h426q57 0 102 12.5t78 32.5q63 45 82 148l168 954h-82l-164 -932q-10 -43 -23.5 -71.5t-33 -44t-49 -21.5t-72.5 -6h-234l76 432q8 25 16.5 47t18.5 43q31 53 37 88l2 14v13q0 55 -33 87.5t-86 32.5q-61 0 -106 -43q-47 -41 -58 -104q-2 -4 -2 -27q0 -55 31 -88 q33 -33 84 -32l31 2l-9 -13q-4 -4 -8 -24l-75 -428h-105zM211 659l2 21q6 37 27 55q27 25 53 25q33 0 45 -25q14 -24 12 -55q-8 -35 -31 -57q-16 -14 -26 -18.5t-27 -4.5q-33 2 -44 20.5t-11 38.5z" />
<glyph unicode="&#xe1c;" horiz-adv-x="819" d="M113 0h88l272 352l143 -352h91l145 819h-82l-123 -694l-131 305h-63l-236 -301l74 422q12 -10 24 -12l31 -4q61 0 107.5 41.5t58.5 105.5l2 14v13q0 53 -33 86q-16 18 -35.5 26t-48.5 8q-59 0 -106 -43t-58 -104zM303 666l2 18q14 59 40 69.5t42 10.5q29 0 45 -25 q12 -19 12 -37l-2 -18q-8 -37 -32.5 -58.5t-51.5 -21.5q-29 2 -45 23q-10 16 -10 39z" />
<glyph unicode="&#xe1d;" horiz-adv-x="819" d="M113 0h88l272 352l143 -352h91l202 1147h-82l-180 -1022l-131 305h-63l-236 -301l74 422q12 -10 24 -12l31 -4q61 0 107.5 41.5t58.5 105.5l2 14v13q0 53 -33 86q-16 18 -35.5 26t-48.5 8q-59 0 -106 -43t-58 -104zM303 666l2 18q14 59 40 69.5t42 10.5q29 0 45 -25 q12 -19 12 -37l-2 -18q-8 -37 -32.5 -58.5t-51.5 -21.5q-29 2 -45 23q-10 16 -10 39z" />
<glyph unicode="&#xe1e;" horiz-adv-x="884" d="M139 655q0 -55 31 -88q33 -33 84 -32l31 2l-9 -13q-4 -4 -8 -24l-88 -500h82l338 692l88 -692h84l146 819h-80l-82 -463l-27 -182l-8 135l-66 510h-67l-248 -512l-53 -133l39 182l24 148q8 25 16.5 47t18.5 43q31 53 37 88l2 14v13q0 55 -33 87.5t-86 32.5 q-61 0 -106 -43q-47 -41 -58 -104q-2 -4 -2 -27zM211 659l2 21q6 37 27 55q27 25 53 25q33 0 45 -25q14 -24 12 -55q-8 -35 -31 -57q-16 -14 -26 -18.5t-27 -4.5q-33 2 -44 20.5t-11 38.5z" />
<glyph unicode="&#xe1f;" horiz-adv-x="884" d="M139 655q0 -55 31 -88q33 -33 84 -32l31 2l-9 -13q-4 -4 -8 -24l-88 -500h82l338 692l88 -692h84l203 1147h-80l-139 -791l-27 -182l-8 135l-66 510h-67l-248 -512l-53 -133l39 182l24 148q8 25 16.5 47t18.5 43q31 53 37 88l2 14v13q0 55 -33 87.5t-86 32.5 q-61 0 -106 -43q-47 -41 -58 -104q-2 -4 -2 -27zM211 659l2 21q6 37 27 55q27 25 53 25q33 0 45 -25q14 -24 12 -55q-8 -35 -31 -57q-16 -14 -26 -18.5t-27 -4.5q-33 2 -44 20.5t-11 38.5z" />
<glyph unicode="&#xe20;" horiz-adv-x="831" d="M43 111q0 -57 31.5 -88t83.5 -31q55 0 106 41q31 23 39 47q14 18 21 57l36 248q8 41 23 72q16 37 37 57q51 55 121 55l10 62q-74 41 -211 57q88 45 104 49q45 23 74 23h47q86 0 132 -39t46 -100l-2 -33l-104 -588h82l104 596l2 25l2 18q0 88 -66.5 139t-170.5 51 q-80 0 -154 -30l-184 -105l-10 -57l57 -2l55 -8l68 -15l31 -8q-78 -31 -119 -86q-43 -55 -49 -121l-17 -129q-12 8 -24.5 12.5t-32.5 4.5q-29 0 -56.5 -11.5t-50 -32t-39 -47t-20.5 -57.5q-2 -4 -2 -26zM113 117l2 18q10 39 28 55q27 25 56 25q33 -4 44 -22t11 -41l-2 -17 q-18 -59 -41 -69.5t-41 -10.5q-31 0 -45 25q-12 18 -12 37z" />
<glyph unicode="&#xe21;" horiz-adv-x="808" d="M88 113q0 -53 34 -87t83 -34q61 0 106 39q49 47 62 108l2 19q0 10 -4 18l-6 19l-5 14q39 -14 73 -34.5t67 -47.5q74 -66 106 -127h90l146 819h-82l-127 -719q-49 68 -131 119q-63 41 -133 64l71 399l2 14v13q0 53 -32.5 86.5t-83.5 33.5q-61 0 -108.5 -43t-55.5 -104 q-2 -4 -2 -29q0 -53 32.5 -85.5t81.5 -32.5q31 0 60 16l-43 -254q-76 0 -132.5 -46t-68.5 -112q-2 -4 -2 -26zM166 117l2 22q18 82 78 82q53 0 53 -59v-10l-2 -13q-6 -43 -31 -61q-20 -20 -49 -21q-31 2 -41 19.5t-10 40.5zM229 666l2 18q8 39 33 59.5t51 20.5q27 0 43 -25 q13 -17 13 -37l-2 -18q-18 -59 -41 -69.5t-41 -10.5q-31 0 -45 25q-12 14 -13 37z" />
<glyph unicode="&#xe22;" horiz-adv-x="798" d="M113 0h379q90 0 149 47q63 51 76 131l114 641h-79l-109 -606q-16 -80 -57 -111q-47 -31 -121 -30h-258l22 129q18 86 64.5 134t114.5 48h73l13 72q-6 -2 -21 -2h-16q-76 0 -129 28q-49 33 -49 74q14 -12 57 -12q59 0 106 41q49 41 60 100l2 16v11q0 55 -35 86 q-33 33 -92 32q-20 0 -39 -5t-27 -9q-29 -16 -55 -37q-55 -51 -68 -125q-4 -16 -4 -24v-29q0 -37 11 -74q8 -16 16 -31.5t18 -25.5q33 -41 93 -51q-68 -25 -113 -76t-55 -113zM285 686q6 35 31.5 54.5t54.5 19.5q37 -4 50 -24t13 -36l-2 -14q-6 -31 -31 -53q-20 -20 -55 -21 q-33 4 -49 21q-16 25 -12 53z" />
<glyph unicode="&#xe23;" horiz-adv-x="686" d="M127 604h63l101 -4l82 -6q186 -31 186 -131l-2 -29l-29 -164q-8 6 -20 11h-12q-16 4 -29 4q-61 0 -113.5 -43t-60.5 -105q-2 -2 -2 -24q0 -53 35 -88q33 -29 49 -30t39 -3q61 0 112 41q51 43 62 104l55 314l2 18v14q0 86 -84 133q-96 53 -319 54l53 39l37 22q35 18 57 23 q25 6 57 6q41 0 82 -19q88 -37 115 -36q35 0 51.5 8t32.5 18l41 35l-47 49l-21 -18l-16 -13q-14 -8 -39 -8q-20 0 -57 19q-70 35 -131 34q-92 0 -181 -57l-139 -106zM360 117l2 20q6 35 31 58q31 25 58 24q33 0 49 -24q12 -23 12 -37l-2 -21q-8 -39 -33 -59q-23 -23 -55 -23 q-37 2 -49 23q-12 14 -13 39z" />
<glyph unicode="&#xe24;" horiz-adv-x="780" d="M135 109q0 -55 32 -86t83 -31q55 0 106 41q49 41 60 104l2 17v12q0 55 -32 87t-83 32q-35 0 -61 -17l20 117q14 76 68 125q31 29 60.5 42t66.5 17l10 62q-37 18 -90 31q-59 18 -119 24l70 35l47 18q47 23 76 23h49q92 0 141 -42t49 -124q-2 -2 -2 -21l-2 -22l-156 -879 h80l158 897l4 25v25q0 98 -71.5 153t-184.5 55q-102 0 -203 -49l-73 -43l-72 -43l-10 -57l61 -4l37 -4l57 -13l60 -16q-88 -33 -133 -90q-25 -31 -39.5 -60.5t-20.5 -68.5l-43 -244q-2 -4 -2 -28zM207 117l2 18q6 37 27.5 58.5t54.5 21.5q31 0 43 -25q14 -24 12 -55 q-8 -35 -31 -57q-16 -14 -26 -18.5t-27 -4.5q-33 2 -44 20.5t-11 41.5z" />
<glyph unicode="&#xe25;" horiz-adv-x="796" d="M137 160q0 -47 12.5 -82t32.5 -55q33 -31 84 -31q31 0 59.5 13t51 34.5t39 48.5t22.5 55l4 13v18q0 53 -31.5 88t-88.5 35q-25 0 -52 -12l-22 -13l-21 -14q12 90 60 164q49 80 104 80q98 0 152.5 -130t54.5 -372h86l96 551q6 32 6 59q0 104 -69.5 160.5t-186.5 56.5 q-106 0 -202 -65q-86 -57 -131 -144l71 -24q37 70 92 111q76 55 158 55q47 0 85 -14.5t59 -36.5q41 -47 40 -121l-4 -47l-30 -168q-8 -23 -11 -70l-6 -61l-4 -45l-14 127q-8 29 -15.5 54t-17.5 48q-8 23 -18.5 39t-20.5 31q-61 76 -151 75q-98 0 -168 -98q-41 -49 -62 -104 q-12 -29 -20 -57.5t-15 -65.5l-8 -47v-39zM217 119l2 22q10 35 33 62q27 25 57 24q33 0 49 -24q13 -16 13 -39l-2 -23q-8 -25 -14.5 -37t-18.5 -24q-27 -27 -57 -27q-35 0 -50 25q-12 20 -12 41z" />
<glyph unicode="&#xe26;" horiz-adv-x="831" d="M43 111q0 -57 31.5 -88t83.5 -31q55 0 106 41q31 23 39 47q14 18 21 57l36 248q8 41 23 72q16 37 37 57q51 55 121 55l10 62q-74 41 -211 57q88 45 104 49q45 23 74 23h47q86 0 132 -39t46 -100l-2 -33l-161 -914h82l161 922l2 25l2 18q0 88 -66.5 139t-170.5 51 q-80 0 -154 -30l-184 -105l-10 -57l57 -2l55 -8l68 -15l31 -8q-78 -31 -119 -86q-43 -55 -49 -121l-17 -129q-12 8 -24.5 12.5t-32.5 4.5q-29 0 -56.5 -11.5t-50 -32t-39 -47t-20.5 -57.5q-2 -4 -2 -26zM113 117l2 18q10 39 28 55q27 25 56 25q33 -4 44 -22t11 -41l-2 -17 q-18 -59 -41 -69.5t-41 -10.5q-31 0 -45 25q-12 18 -12 37z" />
<glyph unicode="&#xe27;" horiz-adv-x="704" d="M104 596l72 -23q45 86 103 132q74 55 159 55q80 0 127 -43q27 -23 37 -50.5t10 -66.5l-4 -47l-51 -283q-10 8 -16 9.5t-17 1.5q-16 4 -28 4q-61 0 -112.5 -43t-61.5 -105q-2 -4 -3 -24q0 -53 35 -88q20 -20 40 -26.5t48 -6.5q61 0 113 41q51 43 61 104l76 428q6 33 6 56 q0 100 -68.5 154t-178.5 54q-115 0 -209 -67q-88 -59 -138 -166zM389 117l2 22q4 20 11.5 31.5t19.5 24.5q27 25 57 24q33 0 49 -24q13 -17 13 -37l-2 -21q-27 -82 -88 -82q-35 4 -48.5 22.5t-13.5 39.5z" />
<glyph unicode="&#xe28;" horiz-adv-x="798" d="M121 0h80l12 37l10 47l13 53q0 2 3 17.5t3 23.5q8 51 43 129q14 35 30.5 63.5t32.5 51.5q12 -39 37 -57q33 -18 59 -19q51 0 97 39q47 41 53 96q2 4 2 13v12q0 45 -29 74q-29 31 -75 30q-78 0 -148 -82q-59 -66 -106 -184l2 113l14 116q8 37 30.5 70t55.5 59.5t75 42 t91 15.5t89 -14.5t62 -36.5q45 -45 45 -123l-4 -47l-94 -539h82l96 551q6 33 6 55q0 55 -18 94t-55 70q55 23 92 51q37 31 47 78h-102q-8 -41 -31 -63q-14 -14 -27 -21l-28 -14q-35 14 -67 21t-79 7q-127 0 -227 -75q-102 -78 -121 -181l-6 -45q-4 -16 -5 -31.5t-1 -27.5 v-55l-2 -66v-121l-4 -82l-2 -32l-7 -35zM412 465v16q10 31 22 39q25 18 43 19q29 -4 39 -17q8 -14 8 -28v-13q-6 -29 -24 -47q-12 -10 -21 -12l-22 -4q-45 0 -45 47z" />
<glyph unicode="&#xe29;" horiz-adv-x="862" d="M76 0h426q57 0 102 12.5t78 32.5q63 45 82 148l24 139q41 14 72 39q37 25 62 55q51 60 69 119l-69 24q-18 -43 -43 -82q-20 -27 -39 -46t-39 -29l73 407h-81l-80 -444q-4 -2 -19 -2h-14q-37 0 -55 6q55 39 65 96l2 14v11q0 47 -28.5 75.5t-75.5 28.5q-27 0 -51.5 -10 t-44 -26.5t-33 -35t-15.5 -32.5l-4 -29v-20q0 -66 60 -109q63 -39 157 -39l43 2l-14 -90q-10 -43 -23.5 -71.5t-33 -44t-49 -21.5t-72.5 -6h-234l76 432q8 25 16.5 47t18.5 43q31 53 37 88l2 14v13q0 55 -33 87.5t-86 32.5q-61 0 -106 -43q-47 -41 -58 -104q-2 -4 -2 -27 q0 -55 31 -88q33 -33 84 -32l31 2l-9 -13q-4 -4 -8 -24l-75 -428h-105zM211 659l2 21q6 37 27 55q27 25 53 25q33 0 45 -25q14 -24 12 -55q-8 -35 -31 -57q-16 -14 -26 -18.5t-27 -4.5q-33 2 -44 20.5t-11 38.5zM512 444v17v14q12 66 66 66q47 0 47 -49l-2 -19 q-10 -35 -25 -49q-23 -18 -45 -18q-23 0 -35 18z" />
<glyph unicode="&#xe2a;" horiz-adv-x="796" d="M137 160q0 -47 12.5 -82t32.5 -55q33 -31 84 -31q31 0 59.5 13t51 34.5t39 48.5t22.5 55l4 13v18q0 53 -31.5 88t-88.5 35q-25 0 -52 -12l-22 -13l-21 -14q12 90 60 164q49 80 104 80q98 0 152.5 -130t54.5 -372h86l96 551q6 33 6 59q0 55 -18 92q-14 41 -51 68 q114 37 137 129h-102l-13 -37q-4 -8 -8 -14t-8 -10q-23 -25 -55 -37q-55 27 -138 26q-106 0 -202 -65q-86 -57 -131 -144l71 -24q37 70 92 111q76 55 158 55q47 0 85 -14.5t59 -36.5q41 -47 40 -121l-4 -47l-30 -168q-8 -23 -11 -70l-6 -61l-4 -45l-14 127q-8 29 -15.5 54 t-17.5 48q-8 23 -18.5 39t-20.5 31q-61 76 -151 75q-98 0 -168 -98q-41 -49 -62 -104q-12 -29 -20 -57.5t-15 -65.5l-8 -47v-39zM217 119l2 22q10 35 33 62q27 25 57 24q33 0 49 -24q13 -16 13 -39l-2 -23q-8 -25 -14.5 -37t-18.5 -24q-27 -27 -57 -27q-35 0 -50 25 q-12 20 -12 41z" />
<glyph unicode="&#xe2b;" horiz-adv-x="825" d="M139 655q0 -55 31 -88q33 -33 84 -32l31 2l-9 -13q-4 -4 -8 -24l-88 -500h86l307 461q27 37 39 47q27 14 54 12q41 -10 41 -69l-2 -37l-74 -414h82l75 430q4 20 5 35q0 18 -2 24l-9 23l-12 20l-12 17q37 25 59 53q27 35 33 74l2 16v13q0 55 -35 89.5t-88 34.5 q-63 0 -111.5 -45t-60.5 -108q-2 -4 -2 -29q0 -55 35 -90q-18 -8 -39 -25l-21 -20l-16 -20l-190 -295l-50 -78l27 98l49 287q8 25 16.5 47t18.5 43q31 53 37 88l2 14v13q0 55 -33 87.5t-86 32.5q-61 0 -106 -43q-47 -41 -58 -104q-2 -4 -2 -27zM211 659l2 21q6 37 27 55 q27 25 53 25q33 0 45 -25q14 -24 12 -55q-8 -35 -31 -57q-16 -14 -26 -18.5t-27 -4.5q-33 2 -44 20.5t-11 38.5zM625 655l2 21q12 41 32 61q27 27 58 27q35 0 49 -27q12 -19 12 -39l-2 -22q-10 -39 -33 -62q-29 -25 -57 -24q-31 0 -49 24q-12 20 -12 41z" />
<glyph unicode="&#xe2c;" horiz-adv-x="894" d="M139 655q0 -55 31 -88q33 -33 84 -32l31 2l-9 -13q-4 -4 -8 -24l-88 -500h82l299 457l127 -457h84l111 631l2 16v12q-2 6 -2 33q61 51 112 123l-51 41l-39 -49l-24 -29l-21 -16q-20 35 -63 55q-23 14 -46.5 18.5t-52.5 4.5q-39 0 -69 -11q-57 -16 -89 -48.5t-38 -67.5 q-2 -2 -2 -17q0 -49 43 -78.5t106 -29.5l45 4l39 8l41 21l31 18l-64 -360l-22 -160l-21 110l-88 314h-67l-205 -314l-62 -110l35 160l39 225q8 25 16.5 47t18.5 43q31 53 37 88l2 14v13q0 55 -33 87.5t-86 32.5q-61 0 -106 -43q-47 -41 -58 -104q-2 -4 -2 -27zM211 659l2 21 q6 37 27 55q27 25 53 25q33 0 45 -25q14 -24 12 -55q-8 -35 -31 -57q-16 -14 -26 -18.5t-27 -4.5q-33 2 -44 20.5t-11 38.5zM580 713q8 27 34 41q33 18 70 18t69 -18t44 -49q-72 -47 -127 -48q-8 0 -16.5 1t-18.5 4l-33 10q-27 18 -22 41z" />
<glyph unicode="&#xe2d;" horiz-adv-x="792" d="M123 0h379q180 0 211 180l65 381q4 17 4 37v14q0 104 -70.5 160.5t-193.5 56.5q-125 0 -225 -63q-84 -53 -146 -145l72 -27q39 70 111 113q84 53 176 53q45 0 78.5 -12.5t60.5 -32.5q53 -43 53 -119l-4 -37l-63 -360q-12 -70 -43 -101q-33 -27 -109 -26h-262l39 223 q12 -10 25 -12l30 -4q59 0 107 43q27 23 39 47t20 57l2 14v13q0 53 -33 86q-33 35 -84 34q-61 0 -107 -43t-56 -104zM268 410l2 18q8 37 29 57q14 14 25.5 18.5t27.5 4.5q29 0 45 -25q13 -17 13 -37l-2 -18q-8 -39 -33 -59.5t-51 -20.5q-31 2 -43.5 22.5t-12.5 39.5z" />
<glyph unicode="&#xe2e;" horiz-adv-x="792" d="M123 0h379q180 0 211 180l65 381q6 33 6 53q0 57 -24 101l80 76l-56 49l-71 -70q-70 59 -185 59q-104 0 -192 -49q-80 -45 -137 -116l-13 -70h340q86 0 162 59q2 -12 6 -30l4 -27l-4 -37l-63 -360q-12 -70 -43 -101q-33 -27 -109 -26h-262l37 202q12 -12 20 -14l33 -2 q59 0 108.5 42t57.5 106q2 6 2 14v12q0 57 -31.5 89t-83.5 32q-57 0 -106 -42t-59 -105zM264 387l2 21q8 37 29 57q23 23 53 22q29 0 45 -24q13 -17 13 -37l-3 -18q-6 -37 -30 -58q-29 -23 -54 -22q-29 6 -45 22q-10 25 -10 37zM295 664q55 47 104.5 71.5t116.5 24.5 q92 0 135 -49q-8 -6 -15 -12.5t-15 -10.5l-31 -14q-14 -8 -35 -8q-4 0 -10 -2h-13h-14h-223z" />
<glyph unicode="&#xe2f;" horiz-adv-x="708" d="M121 670q0 -57 42 -92t111 -35q94 0 183 59q82 57 123 143q55 0 55 -53l-2 -26l-117 -666h80l121 688l4 23v10q0 98 -107 98h-75q-12 -39 -31 -69.5t-39 -53.5q-31 -33 -61.5 -51t-69.5 -27q20 20 27 37q12 25 12 35q2 8 3 16.5t1 18.5q0 47 -28.5 75.5t-78.5 28.5 q-53 0 -98 -38q-25 -23 -37 -43q-6 -14 -10 -25.5t-6 -28.5q-2 -2 -2 -24zM193 682v12q10 35 26 49q23 20 45 21q29 -4 37 -21q10 -14 10 -34v-15q-10 -31 -26 -45q-25 -18 -45 -18q-27 0 -39 18q-8 16 -8 33z" />
<glyph unicode="&#xe30;" horiz-adv-x="665" d="M88 135q0 -59 47 -97t133 -38q174 0 273 104q76 82 94 191h-80q-20 -106 -87 -165.5t-159 -59.5l21 20l14 19q16 23 16 41q2 8 3.5 15t1.5 17q-6 53 -33 80q-33 33 -84 33t-103 -41q-51 -45 -53 -61q-2 -18 -3 -26.5t-1 -12.5v-19zM162 147v13q12 66 74 65q29 0 45 -18 q16 -22 12 -47q-6 -31 -29 -47q-23 -18 -51 -19q-31 0 -41 17.5t-10 35.5zM180 659q0 -57 49.5 -96t130.5 -39q176 0 275 105q76 75 94 190h-80q-20 -106 -87.5 -165.5t-160.5 -59.5q18 18 25 27l10 12q10 10 15 20l2 21q4 16 4 33q0 47 -34 79.5t-81 32.5q-53 0 -102 -43 q-49 -41 -54.5 -63.5t-5.5 -34.5v-19zM254 672v12q16 66 76 66q33 0 44 -18t11 -36v-12q-6 -31 -29.5 -48.5t-50.5 -17.5q-31 0 -43 19q-8 14 -8 35z" />
<glyph unicode="&#xe31;" d="M-276 1065q0 -68 65 -104q63 -39 166 -39q139 0 247.5 79.5t139.5 194.5h-88q-33 -104 -113 -155.5t-190 -51.5l-51 2l24 21l21 20q16 23 22 55q2 2 2 19q0 23 -7 40t-21 34q-29 29 -72 28q-53 0 -92 -37q-23 -16 -33 -34q-10 -12 -14 -29l-6 -35v-8zM-207 1071l2 16 q8 57 64 58q27 -2 37 -17q10 -16 10 -28l-2 -13q-12 -57 -66 -57q-45 0 -45 41z" />
<glyph unicode="&#xe32;" horiz-adv-x="667" d="M111 627l67 -29q37 76 98 119q63 43 136 43q164 0 163 -150l-4 -51l-98 -559h82l100 571q2 10 3 17.5t1 15.5l3 25q0 94 -66 147q-63 53 -174 53q-100 0 -184 -58t-127 -144z" />
<glyph unicode="&#xe33;" horiz-adv-x="667" d="M-104 1040q0 -27 9 -48t23 -36q33 -33 82 -32q27 0 54.5 11t50 30.5t37 44t18.5 51.5q2 2 2 12v12q0 49 -33 80q-33 33 -82 33q-29 0 -55.5 -11t-48 -30.5t-35.5 -44.5t-20 -51q-2 -2 -2 -21zM-41 1059q23 76 88 76q33 -4 48.5 -21.5t15.5 -40.5v-6l-2 -8q-6 -35 -31 -53 q-14 -14 -29 -17q-12 -4 -29 -4q-29 2 -46 23.5t-15 50.5zM111 627l67 -29q37 76 98 119q63 43 136 43q164 0 163 -150l-4 -51l-98 -559h82l100 571q2 10 3 17.5t1 15.5l3 25q0 94 -66 147q-63 53 -174 53q-100 0 -184 -58t-127 -144z" />
<glyph unicode="&#xe34;" d="M-569 942l133 4l110 -4l131 -2l99 -2l145 -16l17 84q-41 20 -56 32q-27 20 -48 37t-40 27l-53 33q-57 29 -141 28q-96 0 -177 -67l-49 -43l-61 -58zM-465 1001q72 59 84 66q51 33 115 33q76 0 153 -62l66 -49l-164 8l-74 7q-18 2 -34 2h-35z" />
<glyph unicode="&#xe35;" d="M-569 942l133 4l110 -4l131 -2l99 -2l145 -16l49 276h-82l-22 -145l-78 53l-55 31q-59 27 -133 26q-96 0 -177 -67l-49 -43l-61 -58zM-465 1001q72 59 84 66q51 33 115 33q76 0 153 -62l66 -49l-164 8l-74 7q-18 2 -34 2h-35z" />
<glyph unicode="&#xe36;" d="M-555 942l133 4l127 -4l131 -2q29 0 59.5 -2t63.5 -4l125 -14q-4 16 -4 32l-2 15l-2 18q74 39 86 107q2 4 2 20q0 43 -29 69.5t-76 26.5q-43 0 -82 -28q-43 -37 -51 -72q-84 55 -184 55q-96 0 -176 -67l-49 -43l-62 -58zM-451 1001q70 61 84 66q51 33 115 33 q76 0 154 -62l35 -26l30 -23l-164 8l-71 7q-20 2 -37 2h-35zM-16 1073l2 17q12 41 30.5 48t32.5 7q45 0 45 -43v-12q-6 -25 -24 -39q-8 -4 -13.5 -8.5t-9.5 -6.5l-18 -2q-45 0 -45 39z" />
<glyph unicode="&#xe37;" d="M-569 942l133 4l110 -4l131 -2l99 -2l145 -16l49 276h-82l-22 -145l-55 39l18 106h-82l-10 -63q-10 6 -22.5 10t-20.5 8l-21 4q-35 6 -73 6q-96 0 -177 -67l-49 -43l-61 -58zM-465 1001q72 59 84 66q51 33 115 33q76 0 153 -62l66 -49l-164 8l-74 7q-18 2 -34 2h-35z" />
<glyph unicode="&#xe38;" d="M-373 -223q0 -41 27 -67.5t65 -26.5l33 4l-24 -136h82l45 248q2 5 2 23q0 43 -25 72q-27 27 -70 26q-49 0 -88 -37q-37 -35 -41 -61zM-309 -211l2 21q2 12 12 24q20 27 45 27q27 -2 33 -17q6 -12 6 -30v-13q-14 -57 -59 -57q-29 4 -34 18.5t-5 26.5z" />
<glyph unicode="&#xe39;" d="M-557 -223q0 -41 26.5 -67.5t65.5 -26.5l33 4l-25 -136h199q35 0 55 21q20 18 25 49l51 289h-82l-45 -254q-8 -33 -37 -33h-71l32 176q2 4 2 23q0 43 -24 72q-27 27 -70 26q-45 0 -86 -35q-41 -37 -43 -63zM-496 -211l2 18q2 6 6.5 12.5t8.5 14.5q20 27 45 27 q25 -4 33 -16.5t8 -30.5l-2 -13q-14 -57 -60 -57q-29 4 -35 18.5t-6 26.5z" />
<glyph unicode="&#xe3a;" d="M-252 -168q0 -23 14 -35q20 -20 48 -20q33 2 55 22q12 12 18 23.5t11 25.5v11q0 16 -3 22l-10 19q-14 20 -47 20l-31 -6q-12 -4 -25.5 -14.5t-19.5 -22.5q-8 -10 -8 -24z" />
<glyph unicode="&#xe3f;" horiz-adv-x="839" d="M29 0h299l-25 -137h45l25 137h76h45l-25 -137h43l25 141l57 14l31 11l24 12q137 82 162 235l4 13v22v15q0 158 -158 186q61 14 93 37q53 37 80.5 87t37.5 112q4 16 4 32v15q0 78 -45 120q-47 47 -118 60l24 139h-43l-24 -133l-29 2h-90l22 131h-45l-22 -131l-301 -2 l-11 -68h132l-150 -847l-133 -3zM256 66l72 407h84l-72 -407h-84zM338 539l68 374h83l-67 -374h-84zM385 66l72 407h59l59 -4l-69 -399l-64 -4h-57zM467 539l68 374h61l57 -4l-63 -364l-78 -6h-45zM551 80l67 383q109 -35 109 -146v-24l-4 -31q-16 -78 -60.5 -121 t-111.5 -61zM635 555l61 346q88 -31 88 -125q-4 -20 -4 -49q-16 -76 -51 -111q-37 -47 -94 -61z" />
<glyph unicode="&#xe40;" horiz-adv-x="452" d="M176 109q0 -55 32 -86t83 -31q55 0 106 41q49 41 60 104l2 17v12q0 55 -32 87t-83 32q-35 0 -61 -17l98 551h-82l-121 -682q-2 -4 -2 -28zM248 117l2 18q10 37 26 58q23 23 56 22q31 0 43 -25q14 -24 12 -55q-8 -35 -31 -57q-16 -14 -26.5 -18.5t-26.5 -4.5 q-33 2 -44 20.5t-11 41.5z" />
<glyph unicode="&#xe41;" horiz-adv-x="794" d="M176 109q0 -55 32 -86t83 -31q55 0 106 41q49 41 60 104l2 17v12q0 55 -32 87t-83 32q-35 0 -61 -17l98 551h-82l-121 -682q-2 -4 -2 -28zM248 117l2 18q10 37 26 58q23 23 56 22q31 0 43 -25q14 -24 12 -55q-8 -35 -31 -57q-16 -14 -26.5 -18.5t-26.5 -4.5 q-33 2 -44 20.5t-11 41.5zM518 109q0 -55 32 -86t83 -31q55 0 106 41q49 41 60 104l2 17v12q0 55 -32 87t-83 32q-35 0 -61 -17l98 551h-82l-121 -682q-2 -4 -2 -28zM590 117l2 18q10 37 26 58q23 23 56 22q31 0 43 -25q14 -24 12 -55q-8 -35 -31 -57q-16 -14 -26 -18.5 t-27 -4.5q-33 2 -44 20.5t-11 41.5z" />
<glyph unicode="&#xe42;" horiz-adv-x="473" d="M100 1204q131 0 196.5 -25.5t65.5 -91.5l-4 -36l-159 -914q-2 -4 -2 -28q0 -55 30 -89q35 -29 84 -28q57 0 107.5 41t58.5 104l2 17v12q0 51 -30 86q-33 33 -84 33q-35 0 -62 -17l139 787q4 16 4 35v14q0 84 -59 121q-59 41 -184 41l63 43q66 41 119 41q23 0 47 -9 l57 -18q61 -27 105 -27l35 4l33 13l30 20l27 21l-47 51q-10 -4 -35 -25q-29 -12 -47 -12q-4 2 -29.5 11.5t-71.5 25.5q-23 8 -40 12t-41 4q-100 0 -203 -84l-94 -73zM268 117l2 18q6 35 27.5 57.5t54.5 22.5q31 0 43 -25q15 -22 13 -55q-8 -39 -33 -59.5t-51 -20.5 q-31 2 -43.5 22.5t-12.5 39.5z" />
<glyph unicode="&#xe43;" horiz-adv-x="473" d="M115 1190q0 -61 30 -92q33 -31 82 -31q53 0 97 37q47 43 53 90q2 2 2 20q0 43 -29 72q-31 31 -78 31l-41 -8q20 27 52 47q39 18 79 18q53 0 87 -33q20 -16 27 -35.5t7 -43.5l-4 -39q-8 -27 -43 -70q-78 -96 -86 -156l-151 -860q-2 -4 -2 -28q0 -55 30 -89q35 -29 84 -28 q57 0 107.5 41t58.5 104l2 17v12q0 51 -30 86q-33 33 -84 33q-18 0 -39 -6l-23 -11l129 729q10 47 45 97q74 100 80 141l6 49q0 72 -53 115q-59 43 -137 43q-90 0 -166 -64q-74 -61 -88 -149l-4 -21v-18zM188 1178l2 16l11 25l14 18q20 20 45 20q35 -6 43 -20q10 -15 10 -31 v-12q-16 -66 -75 -66q-27 0 -41 19q-8 14 -9 31zM268 117l2 18q6 35 27.5 57.5t54.5 22.5q31 0 43 -25q15 -22 13 -55q-8 -39 -33 -59.5t-51 -20.5q-31 2 -43.5 22.5t-12.5 39.5z" />
<glyph unicode="&#xe44;" horiz-adv-x="473" d="M84 1374q74 -45 115 -106q31 -49 43 -97l73 25q23 43 62 84q10 16 37 35l18 -15l37 -32q8 -8 20 -25q-10 -8 -25 -21.5t-20 -19.5q-23 -23 -34 -41q-25 -35 -37.5 -66.5t-18.5 -74.5l-155 -883q-2 -4 -2 -28q0 -55 30 -89q35 -29 84 -28q57 0 107.5 41t58.5 104l2 17v12 q0 51 -30 86q-33 33 -84 33q-18 0 -39 -6l-23 -11l135 760q14 68 57.5 131t90.5 96q-8 12 -19.5 26.5t-19.5 23.5q-25 29 -49 47l-43 34l-33 21l-33 -27l-33 -30q-49 -47 -67 -80q-47 92 -137 151zM268 117l2 18q6 35 27.5 57.5t54.5 22.5q31 0 43 -25q15 -22 13 -55 q-8 -39 -33 -59.5t-51 -20.5q-31 2 -43.5 22.5t-12.5 39.5z" />
<glyph unicode="&#xe45;" horiz-adv-x="667" d="M111 627l67 -29q37 76 98 119q63 43 136 43q164 0 163 -150l-4 -51l-155 -885h82l157 897q2 10 3 17.5t1 15.5l3 25q0 94 -66 147q-63 53 -174 53q-100 0 -184 -58t-127 -144z" />
<glyph unicode="&#xe46;" horiz-adv-x="739" d="M162 539q0 -63 33 -103q37 -37 84 -37q55 0 98 37q43 35 53 92q2 2 2 21q0 45 -31 74q-31 31 -75 30q-43 -6 -64 -14q8 16 21.5 33.5t29.5 36.5q39 39 64 45l98 -76l107 74q70 -39 69 -125l-4 -41l-160 -912h82l164 926l2 25l2 16q0 66 -39 117q-39 53 -106 71l-103 -67 l-92 67q-84 -23 -151.5 -90t-79.5 -151q-4 -12 -4 -25v-24zM242 514l2 21q2 18 24 36q25 18 45 19q49 0 49 -47v-13q-6 -25 -24 -47q-29 -18 -47 -18q-27 0 -38 15.5t-11 33.5z" />
<glyph unicode="&#xe47;" d="M-414 1077q0 -88 72 -131q6 10 13 19.5t18 19.5l22 25l15 14q23 -45 60.5 -63.5t86.5 -18.5q59 0 96 32t43 70l-4 37q-2 10 -4 16.5t-4 10.5q-23 29 -68 29q-43 0 -77 -29q-37 -31 -43 -70l2 -14v-12q-23 12 -35 41q-18 33 -19 53l-24 -14l-19 -15l-36 -33q-8 8 -9 15 q-6 8 -6 26l2 19q12 57 58 82q45 27 116 26l119 -8q41 0 61.5 9.5t32.5 13.5q49 24 78 59l-67 43q-10 -18 -23 -26l-25 -19q-18 -10 -32 -12l-43 -4l-95 6q-57 0 -100 -11.5t-76 -31.5q-70 -43 -82 -119q-4 -16 -4 -22v-13zM-133 1040q8 45 55 45q18 0 27.5 -12.5t9.5 -28.5 q-8 -45 -57 -45q-18 0 -27 15q-10 14 -8 26z" />
<glyph unicode="&#xe48;" d="M27 1260h82l34 190h-82z" />
<glyph unicode="&#xe49;" d="M-147 1260h32q86 0 163 18t132 51q121 73 152 182h-80q-18 -80 -102 -133q-80 -47 -168 -59q45 31 75 72q14 20 22.5 34.5t10.5 24.5l2 20l2 17q0 39 -24 63q-27 27 -66 27q-20 0 -40.5 -9t-39.5 -24q-37 -37 -43 -74l-2 -16q0 -35 21 -55q27 -31 67 -31 q-51 -47 -106 -70zM-63 1470q16 53 59 54q51 -9 43 -54q-14 -51 -62 -51q-25 2 -32 15q-12 14 -8 36z" />
<glyph unicode="&#xe4a;" d="M-160 1346q0 -86 78 -86q35 0 64 24q27 27 32 59v11q0 25 -14 45q-14 27 -51 26l-29 -4q35 47 84 60l55 -62l56 47q25 -35 24 -69l-4 -39l-6 -19l-10 -20q-12 -25 -31 -43l47 -16q63 31 98 71q29 31 58 99q10 23 18 39t13 24q20 25 45 35l-54 41l-20 -13l-19 -18 q-10 -18 -20 -48t-19.5 -59.5t-20.5 -54t-24 -33.5l-16 -14q4 8 8 16.5t6 18.5q6 8 7 18l4 19q2 2 2 18q0 33 -19 68q-16 35 -55 47l-57 -51l-50 53q-41 -10 -63 -23q-37 -20 -55 -38q-49 -43 -60 -105q-2 -2 -2 -24zM-102 1329v14q10 41 43 41q18 0 24 -14.5t6 -26.5 q-10 -41 -45 -40q-29 0 -28 26z" />
<glyph unicode="&#xe4b;" d="M-49 1350h92l-16 -90h82l16 90h94l10 61h-94l17 90h-82l-17 -90h-92z" />
<glyph unicode="&#xe4c;" d="M-104 1257q0 -37 20 -57q27 -27 66 -26q18 0 34 6q4 2 14.5 8t18.5 12q33 27 39 64v10q0 25 -12 47q-20 27 -51 33l127 43q49 24 67 61l-59 33q-16 -33 -46 -51.5t-77 -30.5q-125 -47 -139 -133zM-47 1264q8 43 47 43q43 0 37 -43q-8 -45 -49 -45q-20 0 -29 12 q-8 14 -6 33z" />
<glyph unicode="&#xe4d;" d="M-104 1040q0 -27 9 -48t23 -36q33 -33 82 -32q27 0 54.5 11t50 30.5t37 44t18.5 51.5q2 2 2 12v12q0 49 -33 80q-33 33 -82 33q-29 0 -55.5 -11t-48 -30.5t-35.5 -44.5t-20 -51q-2 -2 -2 -21zM-41 1059q23 76 88 76q33 -4 48.5 -21.5t15.5 -40.5v-6l-2 -8q-6 -35 -31 -53 q-14 -14 -29 -17q-12 -4 -29 -4q-29 2 -46 23.5t-15 50.5z" />
<glyph unicode="&#xe4e;" d="M-266 1114q0 -31 18 -51q29 -29 78 -35l14 -2h13q51 0 112 21l45 20l-20 63l-29 -14l-10 -2q-37 -14 -82 -14q-55 0 -55 30q4 29 31.5 47.5t72.5 30.5q33 12 50.5 15.5t37.5 3.5q51 10 80 10l16 74l-40 2q-68 0 -68 43l2 12q8 51 104 80q20 6 34 8t26 6h22q45 6 82 6 l13 -2h10h14h12l17 74h-4h-23l-125 -8l-71 -10q-18 -4 -31.5 -9.5t-24.5 -9.5q-25 -10 -48 -24.5t-42 -32.5q-43 -37 -47 -64q-6 -23 -6 -32q4 -29 16 -45q14 -18 31 -25q-16 0 -29.5 -2t-27.5 -4q-10 -4 -25.5 -9t-32.5 -12l-43 -26q-10 -8 -18 -15.5t-12 -11.5 q-31 -35 -37 -70v-16z" />
<glyph unicode="&#xe4f;" horiz-adv-x="942" d="M117 336q0 -150 98 -250q51 -51 111.5 -72.5t142.5 -21.5q174 0 319 123q147 125 175 295q6 38 6 73q0 156 -101 250q-100 96 -252 96q-178 0 -321 -122q-141 -123 -172 -297q-6 -41 -6 -74zM178 348q0 31 6 62q27 150 154 254q125 104 268 104q131 0 215 -86 q86 -84 86 -211q0 -31 -6 -61q-29 -152 -151 -256q-125 -102 -271 -103q-129 0 -217 84q-84 90 -84 213zM283 367q0 -90 59 -154q33 -33 70 -45q37 -14 86 -14q106 0 194 75.5t107 180.5l4 24v19q0 92 -61.5 152.5t-153.5 60.5q-53 0 -103.5 -20.5t-91.5 -55.5 q-88 -76 -106 -180l-4 -17v-26zM346 377l2 33q6 43 28.5 77.5t53.5 61t69 41t79 14.5q72 0 114 -47q25 -25 35 -51q8 -16 10 -30t2 -32l-2 -34q-8 -43 -30.5 -79t-53 -61.5t-67.5 -40t-76 -14.5q-31 0 -66 10q-16 8 -29.5 16.5t-23.5 18.5q-45 45 -45 117z" />
<glyph unicode="&#xe50;" horiz-adv-x="768" d="M123 266q0 -117 72 -198q39 -41 84 -58.5t102 -17.5q131 0 240 98q109 100 133 234q6 38 6 65q0 127 -72 201q-74 78 -188 78q-131 0 -238 -101q-109 -102 -133 -237q-6 -41 -6 -64zM205 274v25l4 31q20 115 100 188q41 39 86 57q41 20 92 21q92 0 141.5 -60.5 t49.5 -152.5l-4 -57q-29 -123 -103 -189q-82 -76 -178 -76q-82 0 -135 59.5t-53 153.5z" />
<glyph unicode="&#xe51;" horiz-adv-x="761" d="M133 330q0 -47 14 -82q14 -37 41 -64q57 -55 146 -55q74 0 133 46t72 114q2 6 2 14v12q0 49 -31 78q-31 31 -78 31q-55 0 -98 -38t-53 -99l-2 -13v-12q0 -33 18 -53q-47 10 -66 45q-18 45 -18 90l2 31q20 94 95 157.5t173 63.5q92 0 144.5 -56.5t52.5 -142.5l-4 -53 q-33 -147 -156 -248q-119 -100 -280 -123l6 -61q205 33 340 154q141 129 168 294q6 33 6 58q0 111 -72 174q-72 68 -184 67q-133 0 -240 -81q-106 -84 -127 -203l-4 -27v-18zM342 268l2 21q12 68 78 67q53 0 53 -49v-18q-14 -70 -78 -70q-55 0 -55 49z" />
<glyph unicode="&#xe52;" horiz-adv-x="946" d="M117 129q0 -63 33 -96q35 -33 104 -33h438q80 0 129 48t62 120l61 338l2 16v13q0 53 -31.5 83.5t-83.5 30.5q-82 0 -133 -69q-33 70 -114 69q-68 0 -138 -63q-39 -37 -62.5 -81t-31.5 -102q-8 -18 -8 -32v-23q-2 -4 -2 -39q0 -88 37 -131q33 -37 82 -37q51 0 91 36t48 85 q2 2 2 21q0 47 -29 71q-14 16 -29.5 22.5t-39.5 6.5q-49 0 -74 -27q0 37 10 74q8 20 16.5 39.5t18.5 36.5q49 76 103 76q41 0 57 -29q12 -23 12 -43l-2 -25l-10 -57h74l10 66q8 45 33 65q25 25 55 25q53 0 53 -68l-2 -33l-51 -284q-12 -70 -45 -101q-37 -31 -100 -30h-353 q-104 0 -104 86l4 45l86 483q2 4 2 23q2 6 2 26q0 84 -49 121l-82 -41q27 -27 33 -47q6 -12 8 -27.5t2 -21.5v-15q0 -25 -6 -57l-84 -475l-4 -21v-18zM422 242l2 20q12 61 70 62q31 -4 41 -17q10 -17 10 -33l-2 -12q-6 -29 -25.5 -45t-46.5 -16q-49 0 -49 41z" />
<glyph unicode="&#xe53;" horiz-adv-x="901" d="M115 195q0 -104 34.5 -153.5t92.5 -49.5q53 0 94 35q45 37 51 92q2 2 2 12v12q0 47 -29 76q-18 16 -32 23q-18 6 -41 6l-33 -4l-18 -6q-27 -12 -35 -21q0 121 63 246q70 123 164 123q41 0 66.5 -31t25.5 -80l-2 -33l-78 -442h76l80 449q12 66 45 98q39 39 80 39 q88 0 88 -99l-4 -38l-80 -449h84l82 463l4 24v17q0 68 -41 108q-41 43 -106 43q-115 0 -173 -104q-12 49 -47.5 76.5t-95.5 27.5q-96 0 -182 -90q-98 -96 -123 -252q-12 -72 -12 -118zM205 102v17q18 66 71 65q50 0 50 -45l-2 -20q-16 -66 -70 -66q-49 0 -49 49z" />
<glyph unicode="&#xe54;" horiz-adv-x="794" d="M121 244q0 -111 59.5 -178.5t159.5 -67.5q18 0 44 3t42 7q25 8 44 16.5t34 18.5q49 -25 99 -35t112 -10l28 2l11 59q-104 0 -175 27t-126 80q74 0 118 41q45 45 56 98l2 14v11q0 45 -31 80q-37 31 -78 30q-63 0 -108 -43q-47 -45 -54 -92l-6 -61q0 -41 9.5 -62.5 t13.5 -31.5q29 -49 71 -76q-16 -4 -22 -6l-23 -5l-41 -2q-37 0 -63 13q-29 16 -49 39q-43 51 -43 137q0 27 6 61q45 236 270 258q236 29 293 49q156 62 191 232h-86q-10 -49 -30 -84t-51.5 -58.5t-78.5 -36t-111 -18.5l-168 -20q-43 -8 -75 -19q-100 -35 -158 -110 q-61 -76 -80 -187q-6 -41 -6 -73zM426 283l2 18q16 72 80 72q31 -2 45 -21q12 -17 12 -33l-2 -18q-16 -74 -80 -74q-33 2 -47 21q-10 16 -10 35z" />
<glyph unicode="&#xe55;" horiz-adv-x="794" d="M121 244q0 -111 59.5 -178.5t159.5 -67.5q18 0 44 3t42 7q25 8 44 16.5t34 18.5q49 -25 99 -35t112 -10l28 2l11 59q-104 0 -175 27t-126 80q74 0 118 41q45 45 56 98l2 14v11q0 45 -31 80q-37 31 -78 30q-63 0 -108 -43q-47 -45 -54 -92l-6 -61q0 -41 9.5 -62.5 t13.5 -31.5q29 -49 71 -76q-16 -4 -22 -6l-23 -5l-41 -2q-37 0 -63 13q-29 16 -49 39q-43 51 -43 137q0 27 6 61q45 236 270 258q236 29 293 49q156 62 191 232h-86q-18 -86 -62.5 -127t-132.5 -59q20 27 27 63l2 16q0 39 -29 68q-35 37 -88 37q-57 0 -102 -39 q-49 -41 -56 -86l-2 -12v-11q0 -39 27 -63l-57 -10l-19 -4l-22 -9q-100 -35 -158 -110q-61 -76 -80 -187q-6 -41 -6 -73zM426 283l2 18q16 72 80 72q31 -2 45 -21q12 -17 12 -33l-2 -18q-16 -74 -80 -74q-33 2 -47 21q-10 16 -10 35zM506 705v14q16 66 78 65q31 -6 43 -18 q12 -19 12 -35l-2 -12q-6 -35 -27 -49q-23 -18 -51 -19q-31 0 -42 17.5t-11 36.5z" />
<glyph unicode="&#xe56;" horiz-adv-x="757" d="M139 426l72 -18q57 88 135 132t170 44q76 0 115 -39q43 -41 43 -105l-4 -41q-10 -47 -25 -80q-16 -39 -41 -73q-51 -74 -117 -121l2 18v15q0 115 -110 114q-55 0 -100 -43q-45 -39 -50 -59q-2 -16 -3 -25.5t-1 -13.5v-18q0 -27 8 -45q8 -23 25 -37q33 -31 86 -31 q129 0 256 123q131 129 156 276l4 13v22v15q0 92 -60.5 147t-154.5 55q-92 0 -178 -39q-39 -16 -74 -39.5t-60 -50.5q14 49 19 92q2 20 3 41t1 41v13q0 63 -7 98t-13 45l-89 -33q14 -25 19 -59q2 -16 3 -34.5t1 -39.5v-12q0 -63 -8 -125t-23 -123zM293 119l2 18q12 68 76 68 q53 0 53 -49l-2 -19q-14 -70 -76 -69q-29 0 -43 18q-10 16 -10 33z" />
<glyph unicode="&#xe57;" horiz-adv-x="1075" d="M115 195q0 -104 34.5 -153.5t92.5 -49.5q53 0 94 35q45 37 51 92q2 2 2 12v12q0 47 -29 76q-18 16 -32 23q-18 6 -41 6l-33 -4l-18 -6q-27 -12 -35 -21q0 121 63 246q70 123 164 123q41 0 66.5 -31t25.5 -80l-2 -33l-78 -442h76l80 449q12 66 45 98q39 39 80 39 q88 0 88 -99l-4 -38l-47 -269l-10 -37l-15 -32q-4 -10 -9 -17.5t-9 -15.5l-27 -27l53 -53q150 20 234 139q80 106 104 279l43 276q27 88 64 125l-76 35q-63 -68 -81.5 -157t-18.5 -220q0 -123 -52 -233q-51 -113 -135 -156l-30 -12q37 43 49 114l49 275l4 24v17 q0 68 -41 108q-41 43 -106 43q-115 0 -173 -104q-12 49 -47.5 76.5t-95.5 27.5q-96 0 -182 -90q-98 -96 -123 -252q-12 -72 -12 -118zM205 102v17q18 66 71 65q50 0 50 -45l-2 -20q-16 -66 -70 -66q-49 0 -49 49z" />
<glyph unicode="&#xe58;" horiz-adv-x="798" d="M121 240q0 -139 74 -240h88l10 53l12 51q20 59 47 93q0 -76 60 -140q61 -61 147 -61q72 0 128 45t69 109q2 4 2 22q0 49 -31 78q-31 31 -82 31q-27 0 -51.5 -11.5t-44.5 -27.5q-27 -20 -37 -41q-14 -27 -16 -51q-2 -2 -2 -19l8 -45q-45 37 -70.5 93.5t-25.5 109.5h-62 q-20 -20 -35 -41l-28 -45q-16 -29 -27 -58q-6 -14 -9 -25t-5 -32q-39 51 -39 158q0 41 6 82q29 135 104.5 194.5t229.5 59.5t250 59q104 70 141 209h-80q-25 -106 -97.5 -151.5t-201.5 -45.5q-172 0 -272 -65q-119 -80 -150 -250q-8 -27 -8 -51q-2 -16 -2 -27v-20zM559 129 l2 18q12 68 74 68q49 0 49 -49v-19q-14 -70 -74 -69q-31 0 -43 18q-6 12 -7 17.5t-1 15.5z" />
<glyph unicode="&#xe59;" horiz-adv-x="823" d="M135 297q0 -119 35 -205q43 -100 129 -100q55 0 101 39t55 92q2 2 2 12v12q0 51 -31 82t-80 31q-35 -2 -70 -20l-26 -17l-21 -20q-8 18 -8 30v23q-2 6 -2 27v28q0 100 31 181q31 82 86 81q55 0 112.5 -79.5t102.5 -227.5q76 -242 151 -266l62 59q-37 16 -59 43l-27 39 q-10 20 -21 52q-29 76 -49 159q-18 82 -18 131q0 33 12 62q14 31 45 30q39 0 76 -38q37 -43 49 -91l74 39q0 47 9 94.5t24 92.5q35 96 90 143l-70 35q-25 -23 -43 -51.5t-35 -71.5q-31 -84 -30 -170q-25 41 -52 61q-41 31 -84 31q-18 0 -44.5 -6t-55.5 -45t-29 -94 q-59 92 -94 114q-20 16 -40.5 22.5t-47.5 6.5q-37 0 -69.5 -16.5t-58.5 -44t-43 -64.5t-23 -76q-8 -45 -13 -77zM258 104l2 19q12 68 74 67q53 0 53 -49v-18q-14 -70 -76 -70q-29 0 -43 19q-10 16 -10 32z" />
<glyph unicode="&#xe5a;" horiz-adv-x="952" d="M223 662q0 -20 5 -36t8 -24q27 -39 66.5 -60.5t103.5 -21.5q72 0 149.5 31t132.5 86l-135 -637h102l131 621l64 28l29 21l26 20l-147 -690h102l150 702q6 28 6 46q0 72 -62 71h-16q-23 -49 -78 -86l-55 -31q4 16 4 33v13q0 72 -59 71h-25q-31 -90 -123 -153 q-82 -57 -147 -58q37 31 47 84l4 19v10q0 45 -33 78q-35 31 -80 30q-55 0 -106 -41q-12 -10 -21.5 -22t-17.5 -23q-10 -16 -17.5 -33.5t-7.5 -47.5zM305 678l2 14q6 31 25.5 45.5t46.5 14.5q25 0 37 -19q10 -14 10 -28v-13q-8 -35 -37 -51q-10 -4 -16 -6t-19 -2 q-37 6 -43 19.5t-6 25.5z" />
<glyph unicode="&#xe5b;" horiz-adv-x="1495" d="M168 305q0 -117 56.5 -181.5t154.5 -64.5q133 0 258 119q100 88 174 258l6 -129q0 -49 31 -49q59 0 131 170q4 -10 5 -18.5t1 -14.5q2 -8 4 -21.5t4 -31.5q8 -57 29 -57q35 0 65 59l13 29l14 39l25 -72q12 -33 28 -33q25 2 47 35q20 27 35 72l25 -68q6 -14 18 -14 q20 6 29 14l16 19l11 20l182 18l35 7q18 6 20 24q0 25 -43 31l-174 18q-33 -2 -55 -45q-31 76 -58 76q-25 0 -38 -31l-15 -28l-12 -29q-16 61 -32.5 90t-39.5 29q-29 -4 -41 -45l-20 -60q-4 16 -6 27q-8 33 -9 35l-14 43q-20 39 -43 39q-35 0 -51 -60l-14 -45l-27 -71l-4 81 l-10 64q-20 51 -48 51q-47 0 -71 -84q-35 -92 -73 -159.5t-85 -118.5q-98 -104 -194 -105q-70 0 -109 48t-39 130l2 43l8 48q16 63 40 115t50 87q68 80 132 80q41 0 65 -31q20 -27 21 -57l-3 -18l-30 6q-47 0 -92 -43q-45 -39 -52 -80l-6 -47q0 -20 6 -41q8 -23 21 -33 q29 -29 67 -29q59 0 108.5 55.5t68.5 141.5l4 14v17l4 16v21q0 45 -12.5 78.5t-32.5 60.5q-47 53 -121 53q-106 0 -203 -102q-94 -100 -125 -256q-12 -66 -12 -109zM461 430l2 23q8 27 26 45q27 18 41 18q23 0 35 -18q8 -15 8 -29l-2 -16q-14 -33 -26 -45q-23 -18 -43 -19 q-25 2 -33 14.5t-8 26.5z" />
<glyph unicode="&#x2000;" horiz-adv-x="799" />
<glyph unicode="&#x2001;" horiz-adv-x="1599" />
<glyph unicode="&#x2002;" horiz-adv-x="799" />
<glyph unicode="&#x2003;" horiz-adv-x="1599" />
<glyph unicode="&#x2004;" horiz-adv-x="533" />
<glyph unicode="&#x2005;" horiz-adv-x="399" />
<glyph unicode="&#x2006;" horiz-adv-x="266" />
<glyph unicode="&#x2007;" horiz-adv-x="266" />
<glyph unicode="&#x2008;" horiz-adv-x="199" />
<glyph unicode="&#x2009;" horiz-adv-x="319" />
<glyph unicode="&#x200a;" horiz-adv-x="88" />
<glyph unicode="&#x2010;" horiz-adv-x="507" d="M154 375h331l15 74h-332z" />
<glyph unicode="&#x2011;" horiz-adv-x="507" d="M154 375h331l15 74h-332z" />
<glyph unicode="&#x2012;" horiz-adv-x="507" d="M154 375h331l15 74h-332z" />
<glyph unicode="&#x2013;" horiz-adv-x="716" d="M96 317h635l14 82h-634z" />
<glyph unicode="&#x2014;" horiz-adv-x="1433" d="M96 317h1352l14 82h-1351z" />
<glyph unicode="&#x2018;" horiz-adv-x="368" d="M225 752q0 -39 21 -66q27 -25 61 -24q35 0 64 24q31 35 37 59v11q0 29 -15 43q-23 25 -49 24q-39 -6 -41 -8l31 45l28 35q42 38 89 61l-27 37q-86 -43 -137 -105.5t-60 -115.5q-2 -2 -2 -20z" />
<glyph unicode="&#x2019;" horiz-adv-x="368" d="M209 698l29 -36q82 41 134 103t60 118q2 2 2 12v12q0 35 -20 62q-29 25 -60 24q-35 0 -67 -26q-18 -18 -24.5 -29.5t-10.5 -28.5v-10q0 -31 14 -45q23 -23 51 -23l23 3q14 4 16 6l-28 -43l-33 -39q-18 -18 -39 -33z" />
<glyph unicode="&#x201c;" horiz-adv-x="614" d="M225 752q0 -39 21 -66q27 -25 61 -24q35 0 64 24q31 35 37 59v11q0 29 -15 43q-23 25 -49 24q-39 -6 -41 -8l31 45l28 35q42 38 89 61l-27 37q-86 -43 -137 -105.5t-60 -115.5q-2 -2 -2 -20zM471 752q0 -39 21 -66q27 -25 61 -24q35 0 63 24q35 35 37 59v11q0 27 -14 43 q-23 25 -49 24q-39 -6 -41 -8q16 27 30.5 46.5t28.5 33.5q37 36 88 61l-26 37q-86 -43 -137.5 -105.5t-59.5 -115.5q-2 -2 -2 -20z" />
<glyph unicode="&#x201d;" horiz-adv-x="614" d="M209 698l29 -36q82 41 134 103t60 118q2 2 2 12v12q0 35 -20 62q-29 25 -60 24q-35 0 -67 -26q-18 -18 -24.5 -29.5t-10.5 -28.5v-10q0 -31 14 -45q23 -23 51 -23l23 3q14 4 16 6l-28 -43l-33 -39q-18 -18 -39 -33zM455 698l28 -36q86 43 136.5 104t58.5 117q2 2 2 12v12 q0 35 -21 62q-29 25 -59 24q-35 0 -68 -26q-29 -29 -34 -58v-10q0 -31 14 -45q23 -23 51 -23l23 3q14 4 16 6l-29 -43l-32 -39q-18 -18 -39 -33z" />
<glyph unicode="&#x2022;" horiz-adv-x="942" d="M117 336q0 -150 98 -250q51 -51 111.5 -72.5t142.5 -21.5q174 0 319 123q147 125 175 295q6 38 6 73q0 156 -101 250q-100 96 -252 96q-178 0 -321 -122q-141 -123 -172 -297q-6 -41 -6 -74z" />
<glyph unicode="&#x2026;" horiz-adv-x="1144" d="M137 0h105l18 102h-104zM520 0h103l18 102h-102zM901 0h105l18 102h-104z" />
<glyph unicode="&#x202f;" horiz-adv-x="319" />
<glyph unicode="&#x205f;" horiz-adv-x="399" />
<glyph unicode="&#x25fc;" horiz-adv-x="706" d="M0 0v707h707v-707h-707z" />
<glyph unicode="&#xf700;" horiz-adv-x="714" d="M104 596h115q219 0 301 -35q80 -35 80 -92v-10q-2 -2 -2 -13l-39 -223l-6 -94l-16 96q-14 47 -37 107l-25 57l-20 47q-49 84 -127 84q-59 0 -105 -39q-45 -43 -55 -96q-2 -2 -2 -25q0 -53 32.5 -85.5t82.5 -32.5q43 0 86 37q37 31 47 59q20 -41 35.5 -84t27.5 -84 q29 -86 43 -170h82l80 453l4 16v18q0 117 -162 156q-84 20 -295 21l72 53q74 43 143 43q20 0 50 -6q8 -2 27.5 -10.5t25.5 -10.5q55 -27 94 -26q10 0 18.5 1t16.5 3q14 2 31 12l30 20l29 23l-49 51q-39 -35 -52.5 -37t-29.5 -2q-8 0 -23 6l-47 19q-23 10 -42 18t-64 8 q-121 0 -240 -98q-80 -68 -104 -80zM238 367v14q6 33 24 51q27 20 49 21q29 -2 40 -20.5t11 -39.5v-6v-8q-14 -37 -30 -51q-27 -16 -45 -17q-31 4 -40 19.5t-9 36.5z" />
<glyph unicode="&#xf701;" d="M-733 942l133 4l111 -4l131 -2l98 -2l147 -16l17 84q-41 20 -56 32l-90 64q-16 10 -29.5 19t-23.5 14q-57 29 -141 28q-96 0 -176 -67l-50 -43l-61 -58zM-629 1001q72 59 84 66q51 33 115 33q76 0 154 -62l65 -49l-164 8l-74 7q-18 2 -34 2h-35z" />
<glyph unicode="&#xf702;" d="M-733 942l133 4l111 -4l131 -2l98 -2l147 -16l50 276h-82l-25 -145l-80 53l-53 31q-59 27 -133 26q-96 0 -176 -67l-50 -43l-61 -58zM-629 1001q72 59 84 66q51 33 115 33q76 0 154 -62l65 -49l-164 8l-74 7q-18 2 -34 2h-35z" />
<glyph unicode="&#xf703;" d="M-754 942l133 4l127 -4l132 -2q29 0 59.5 -2t62.5 -4l127 -14q-2 6 -2 32l-6 33q74 39 86 107q2 4 2 20q0 43 -28.5 69.5t-75.5 26.5t-85 -29.5t-50 -70.5q-84 55 -185 55q-96 0 -176 -67l-110 -101zM-649 1001q72 59 84 66q53 33 114 33q76 0 154 -62l37 -28l29 -21 l-164 8l-72 7q-20 2 -37 2h-35zM-213 1075v6v9q6 25 25 38q20 16 41 17q47 0 47 -43l-2 -12q-8 -23 -25 -39q-12 -12 -20 -15l-21 -2q-45 0 -45 41z" />
<glyph unicode="&#xf704;" d="M-733 942l133 4l111 -4l131 -2l98 -2l147 -16l50 276h-82l-25 -145l-55 39l18 106h-82l-10 -63q-10 6 -22.5 10t-20.5 8l-20 4q-35 6 -74 6q-96 0 -176 -67l-50 -43l-61 -58zM-629 1001q72 59 84 66q51 33 115 33q76 0 154 -62l65 -49l-164 8l-74 7q-18 2 -34 2h-35z" />
<glyph unicode="&#xf705;" d="M-231 942h81l46 252h-82z" />
<glyph unicode="&#xf706;" d="M-496 942h37q201 0 332 79t166 202h-86q-18 -90 -115 -150q-45 -29 -88 -43q-25 -8 -49.5 -13t-52.5 -9q27 18 51.5 40.5t34.5 36.5q39 47 41 91l2 20q0 39 -21 61q-31 37 -82 37q-53 0 -90 -37l-19 -19t-14 -19q-10 -16 -14 -33l-2 -27q0 -41 21 -63q27 -33 73 -33 l-28 -29l-29 -22l-29 -17q-12 -6 -17 -7t-13 -3zM-403 1163v6l2 9q14 57 65 57l21 -4q28 -14 28 -39l-2 -14q-10 -31 -22 -41q-20 -16 -45 -17q-27 4 -37 16.5t-10 26.5z" />
<glyph unicode="&#xf707;" d="M-506 1038q0 -39 19 -63q27 -33 69 -33q35 0 70 29q33 27 37 65l2 19q0 27 -15 43q-25 29 -61 28l-31 -4q35 53 94 66l62 -68l61 51q29 -33 29 -77l-2 -33q-12 -53 -55 -100l53 -19q70 33 106 76q20 27 37 49q4 8 7.5 15.5t7.5 11.5q2 4 5 11t7 17q18 59 34.5 83t49.5 36 l-60 45q-29 -12 -43 -37q-4 -8 -8 -14t-6 -12q-4 -8 -6 -16.5t-4 -18.5l-27 -88q-10 -20 -20 -36.5t-21 -27.5l-16 -16q8 16 15 35.5t12 44.5v18q0 39 -15 68q-25 45 -65 61l-66 -57l-51 59q-23 -6 -42 -12t-34 -14q-18 -10 -33.5 -20.5t-25.5 -20.5q-55 -47 -68 -117 l-2 -14v-13zM-442 1024v12q12 45 49 45q35 1 35 -32l-2 -13q-14 -45 -50 -45q-33 0 -32 33z" />
<glyph unicode="&#xf708;" d="M-379 1053h115l-21 -111h82l21 111h114l11 61h-115l18 111h-82l-18 -111h-115z" />
<glyph unicode="&#xf709;" d="M-309 1036q0 -37 22 -63q31 -31 72 -31t78 31q33 31 43 69l-2 35q-2 14 -10 29q-14 16 -27.5 25.5t-32.5 11.5l57 18l56 19q77 29 102 80l-61 36q-23 -37 -49 -55l-43 -20q-20 -8 -23.5 -10.5t-24.5 -6.5q-137 -43 -155 -147zM-248 1026l2 16q12 49 56 50q40 0 40 -35 v-15q-10 -49 -59 -49q-39 0 -39 33z" />
<glyph unicode="&#xf70a;" d="M-27 942h80l45 252h-82z" />
<glyph unicode="&#xf70b;" d="M-238 942h37q197 0 330 80q135 82 168 201h-88q-18 -90 -115 -150q-45 -29 -88 -43q-23 -8 -47.5 -13t-52.5 -9q27 18 51.5 40.5t34.5 36.5q37 49 39 91l2 20q0 39 -21 61q-29 37 -80 37q-53 0 -90 -37l-19 -19t-13 -19q-10 -16 -15 -33l-2 -27q0 -37 21 -63 q27 -33 73 -33l-28 -29l-29 -22l-29 -17q-12 -6 -17 -7t-13 -3zM-145 1163v6l2 9q14 57 65 57l21 -4q28 -14 28 -39l-2 -14q-10 -31 -22 -41q-20 -16 -45 -17q-29 4 -38 16.5t-9 26.5z" />
<glyph unicode="&#xf70c;" d="M-412 1038q0 -39 19 -63q27 -33 69 -33q23 0 38.5 7t31.5 22q29 27 39 65v15q0 27 -14 47q-25 29 -62 28l-31 -4q35 53 95 66l61 -68l64 51q27 -33 26 -77l-4 -33q-8 -53 -53 -100l53 -19q72 35 105 76q16 18 21 26.5t13.5 22.5t15.5 27.5t11 27.5l16 37q10 29 23 43 q14 27 49 39l-59 45q-27 -12 -45 -37q-23 -25 -25 -61l-27 -88q-10 -16 -19 -32.5t-19 -31.5l-17 -16q8 16 15.5 35.5t11.5 44.5v18q0 39 -15 68q-25 47 -63 61l-68 -57l-53 59q-80 -18 -134 -66t-67 -118l-2 -14v-13zM-348 1022v6l2 8q8 45 47 45q35 1 35 -32l-2 -13 q-14 -45 -49 -45q-33 0 -33 31z" />
<glyph unicode="&#xf70d;" d="M-121 1053h115l-21 -111h80l21 111h114l11 61h-115l18 111h-82l-20 -111h-111z" />
<glyph unicode="&#xf70e;" d="M-166 1036q0 -41 23 -63q31 -31 71 -31q49 0 76 33q37 33 43 67l-2 35q-4 23 -10 29q-23 31 -55 37l106 37q82 27 107 80l-64 36q-23 -37 -49 -55l-43 -22q-10 -4 -21.5 -7.5t-21.5 -7.5q-135 -43 -158 -147zM-104 1026l2 16q12 49 55 50q41 0 41 -35v-15 q-10 -49 -60 -49q-39 0 -38 33z" />
<glyph unicode="&#xf70f;" horiz-adv-x="1089" d="M135 109q0 -55 32 -86t83 -31q55 0 106 41q49 41 60 104l2 17v12q0 55 -32 87t-83 32q-35 0 -61 -17l16 97q14 80 68 129q61 55 127 55l12 61q-78 43 -213 58l106 59q63 33 123 33q86 0 132 -39t46 -100l-2 -33l-92 -516h-69l-13 -72h267q117 0 180 46t82 147l110 626 l-84 -2l-104 -602q-10 -43 -23.5 -71.5t-33 -44t-49 -21.5t-72.5 -6h-111l92 524l2 27l2 18q0 86 -65.5 137t-169.5 51q-102 0 -197 -55l-145 -100l-10 -58q23 0 48 -3t56 -7l64 -10l43 -12q-78 -31 -126.5 -87.5t-60.5 -119.5l-41 -240q-2 -4 -2 -28zM207 117l2 18 q6 37 27.5 58.5t54.5 21.5q31 0 43 -25q14 -24 12 -55q-8 -35 -31 -57q-16 -14 -26 -18.5t-27 -4.5q-33 2 -44 20.5t-11 41.5z" />
<glyph unicode="&#xf710;" d="M-508 1067q0 -61 55 -100q70 -45 177 -45q72 0 134 20.5t112 57t85.5 87t53.5 109.5h-89q-35 -102 -106 -154q-84 -53 -197 -53l-51 2l27 21l18 20q16 27 23 55v21q0 45 -21 66q-29 35 -78 34q-47 0 -92 -34q-43 -39 -51 -89v-18zM-440 1069l2 18q6 31 20 41q12 12 21 15 l20 2q27 0 39 -19q8 -14 8 -28v-11q-10 -29 -24 -40q-23 -16 -41 -17q-45 0 -45 39z" />
<glyph unicode="&#xf711;" d="M-326 1034q0 -45 27 -73q31 -41 90 -41q57 0 105.5 40.5t60.5 98.5v22q0 45 -25 76q-35 41 -92 41t-104 -41q-51 -41 -60 -98l-2 -12v-13zM-260 1040v15q10 35 31 53q29 23 57 22q35 -4 49 -21t14 -40v-6v-8l-12 -33q-8 -14 -18 -21q-27 -20 -60 -20q-35 2 -48 21.5 t-13 37.5z" />
<glyph unicode="&#xf712;" d="M-496 1073q0 -84 72 -127l12 17l19 22q25 31 37 39q18 -45 57 -63q23 -10 42 -14.5t48 -4.5q63 0 98 33q37 35 43 69l2 21q0 27 -16 43q-23 29 -68 29t-79 -29q-31 -27 -41 -70l2 -26q-25 14 -33 41q-10 16 -13 21t-8 32q-31 -16 -45 -29l-34 -33q-8 8 -11 15 q-4 12 -4 20l2 25q8 57 60 82q45 27 114 26l117 -8q55 0 98 21.5t76 60.5l-65 43q-6 -8 -11.5 -15t-9.5 -11q-10 -10 -27.5 -19.5t-33.5 -11.5l-43 -4l-94 6q-106 0 -176 -41t-83 -121l-2 -14q-2 -4 -2 -25zM-215 1040q8 45 55 45q37 0 37 -30v-4v-7q-8 -45 -57 -45 q-18 4 -27 13q-8 18 -8 28z" />
<glyph unicode="&#xf713;" d="M-133 1260h82l33 190h-82z" />
<glyph unicode="&#xf714;" d="M-365 1260h33q92 0 168 18t131 51q121 78 148 182h-80q-18 -84 -98 -133q-80 -47 -173 -59q45 33 77 73t36 76l2 23q0 31 -18 53q-27 33 -72 33t-82 -33t-45 -74v-14q0 -33 21 -59q14 -16 29.5 -22.5t35.5 -6.5q-45 -51 -104 -70zM-283 1470q10 27 23 39q14 14 39 15 q27 -2 37 -17q8 -14 8 -24v-13q-10 -31 -31 -43q-8 -8 -33 -8q-23 4 -30 15q-16 14 -13 36z" />
<glyph unicode="&#xf715;" d="M-381 1346q0 -29 16 -58q23 -29 64 -28q39 0 61 24q29 29 35 59v11q0 23 -12 45q-20 27 -55 26l-27 -4q29 47 86 60l53 -62l56 47q25 -31 24 -69l-4 -31q-8 -45 -47 -90l47 -16q16 8 29.5 14t23.5 14q20 14 41 39q39 49 56 92l16 39l18 33q18 25 43 37l-51 41 q-23 -12 -37 -33l-14 -18q-8 -18 -12 -41l-25 -74q-14 -41 -33 -60l-16 -14q10 14 14 33l6 20l5 21l2 18l-7 35l-8 23q-23 43 -59 55l-60 -51l-47 53q-74 -16 -123 -62.5t-57 -103.5l-2 -12v-12zM-324 1343q10 41 43 41q35 -4 31 -41q-10 -41 -45 -40q-18 0 -25.5 12 t-3.5 28z" />
<glyph unicode="&#xf716;" d="M-213 1350h94l-14 -90h82l14 90h92l13 61h-93l17 90h-82l-16 -90h-97z" />
<glyph unicode="&#xf717;" d="M-268 1257q0 -35 18 -55q29 -29 68 -28q20 0 39 6q16 8 32.5 22.5t24.5 26.5q8 14 12 35v12q0 20 -10 45q-23 31 -53 33l98 32q69 27 92 72l-53 33q-18 -33 -43 -47q-16 -10 -38.5 -19.5t-43.5 -15.5q-125 -43 -141 -133zM-211 1251v13q8 43 49 43q37 0 37 -31v-6v-6 q-8 -45 -51 -45q-35 0 -35 32z" />
<glyph unicode="&#xf718;" d="M-436 -582q0 -41 26.5 -67.5t67.5 -26.5l31 4l-25 -135h82l45 248q2 4 2 22q0 43 -24 72q-27 27 -70 27q-47 0 -84 -35q-41 -41 -49 -86q-2 -4 -2 -23zM-375 -569l2 16l8 18l15 19q20 18 37 18q23 0 33 -19.5t6 -39.5q-14 -57 -60 -57q-31 4 -36 18t-5 27z" />
<glyph unicode="&#xf719;" d="M-621 -582q0 -41 27 -67.5t68 -26.5l30 4l-24 -135h198q35 0 55.5 20.5t24.5 49.5l52 288h-82l-45 -253q-12 -33 -35 -33h-72l31 176q2 4 2 22q0 45 -25.5 72t-68.5 27q-45 0 -85 -36t-48 -85q-2 -4 -3 -23zM-557 -557q6 25 24.5 42t34.5 17q23 0 33 -18q10 -23 6 -41 q-14 -57 -59 -57q-31 4 -35 18t-4 27v12z" />
<glyph unicode="&#xf71a;" d="M-344 -510v-10q0 -27 12 -41q18 -20 47 -21q31 4 55.5 22.5t28.5 49.5v10q0 25 -12 41q-18 20 -47 21q-33 -4 -55 -21q-25 -20 -29 -51z" />
<glyph unicode="&#xf71b;" d="M-481 -6h479v1214h-479v-1214z" />
<glyph unicode="&#xf71c;" horiz-adv-x="512" />
<glyph unicode="&#xf71d;" horiz-adv-x="512" d="M47 0v-195h35v72q35 23 76 23h184q53 0 86 -27v-68h35v195h-416z" />
</font>
</defs>
</svg>
